<svg width="12" height="15" viewBox="0 0 12 15" fill="none" xmlns="http://www.w3.org/2000/svg">
<path d="M10.6077 13.9413C11.7573 13.5543 10.2615 10.2093 7.67475 7.5C5.95267 8.32357 4.22792 7.5 4.22792 7.5C1.69279 9.81661 -0.0285834 13.1673 1.69594 13.9413M10.6077 13.9413C10.2645 14.0569 1.99819 13.9697 1.69594 13.9413M10.6077 13.9413H1.69594" stroke="#919191" stroke-width="1.2"/>
<path d="M8.4 2.8C8.4 4.27301 7.28959 5.4 6 5.4C4.71041 5.4 3.6 4.27301 3.6 2.8C3.6 2.07986 3.86818 1.54674 4.27568 1.18714C4.69178 0.819945 5.29312 0.6 6 0.6C6.70688 0.6 7.30822 0.819945 7.72432 1.18714C8.13182 1.54674 8.4 2.07986 8.4 2.8Z" stroke="#919191" stroke-width="1.2"/>
</svg>
