<svg width="38" height="31" viewBox="0 0 38 31" fill="none" xmlns="http://www.w3.org/2000/svg">
<path d="M14.8827 9.82677C11.9648 9.82677 9.181 5.75861 7.90576 7.51481C6.49408 9.45892 10.3917 11.9124 10.3914 14.3362C10.3909 17.8575 5.4078 21.3076 7.71144 23.0849C9.63921 24.5722 12.988 19.8386 15.3469 19.775C18.5963 19.775 21.6097 24.546 23.2864 22.8955C25.2188 20.9932 19.8897 17.7592 19.8704 15.349C19.8435 11.9793 24.6882 9.30556 22.9113 7.51481C21.1048 5.69433 18.7148 9.82677 14.8827 9.82677Z" stroke="black" stroke-width="2"/>
<path d="M18.9703 11.0955C16.9071 9.03224 17.8153 4.18719 15.6717 4.52729C13.2988 4.90377 14.32 9.39464 12.6058 11.1083C10.1156 13.598 4.1524 12.5139 4.52459 15.3996C4.83606 17.8144 10.5512 16.8353 12.2641 18.4582C14.5618 20.7559 13.3189 26.2603 15.6717 26.2788C18.3832 26.3001 16.9017 20.2451 18.5923 18.5272C20.9561 16.1254 26.2725 17.6605 26.2822 15.1378C26.2921 12.5732 21.68 13.8052 18.9703 11.0955Z" stroke="black" stroke-width="2"/>
<path d="M11.6903 13.0046L9.30299 14.0656L8.77246 15.9225L11.1598 16.453L10.364 18.5751L11.6903 19.9014L13.8124 18.8404L14.6082 21.2277H16.4651L16.7303 19.1056L18.8524 19.9014L19.9135 18.8404L18.8524 16.7183L20.9745 15.9225L21.2398 13.8004L19.1177 13.0046L20.444 10.8825L19.1177 9.82143L17.2609 10.6172L16.4651 8.49512H14.8735L14.0777 10.6172L11.9556 10.0867L10.364 11.1477L11.6903 13.0046Z" fill="white"/>
<path d="M6.36719 18.8351L8.48929 15.3867L11.6724 16.713L10.6114 19.6309L6.36719 18.8351Z" fill="white"/>
<path d="M12.2031 13.527L10.081 10.0786L6.89788 11.4049L7.95893 14.3228L12.2031 13.527Z" fill="white"/>
<path d="M13.3502 12.6806L15.9747 8.42561L12.6298 7.01227L10.7464 9.58746L13.3502 12.6806Z" fill="white"/>
<path d="M16.7115 11.1419L19.747 10.3251L18.6103 7.06939L15.635 7.95687L16.7115 11.1419Z" fill="white"/>
<path d="M18.7559 12.9627L21.2705 14.8491L23.133 11.9469L20.5999 10.1515L18.7559 12.9627Z" fill="white"/>
<path d="M18.6885 16.5073L19.9622 19.3811L23.0044 17.7575L21.6702 14.954L18.6885 16.5073Z" fill="white"/>
<path d="M17.1829 18.3004L15.4686 20.9352L18.4886 22.5999L20.1109 19.9526L17.1829 18.3004Z" fill="white"/>
<path d="M14.0596 18.5702L10.6949 19.9186L12.2849 22.9786L15.1029 21.6752L14.0596 18.5702Z" fill="white"/>
<circle cx="15.395" cy="14.8122" r="3.93793" stroke="black" stroke-width="2"/>
<path d="M11.3289 21.2064L14.5238 22.0778L13.3622 23.2396L11.6192 22.6587L11.3289 21.2064Z" fill="black"/>
<path d="M7.89536 16.34L9.00513 19.4602L7.38792 19.1704L6.86909 17.4079L7.89536 16.34Z" fill="black"/>
<path d="M16.8475 21.783L19.6327 20.7574L19.4618 22.0735L18.0095 22.6544L16.8475 21.783Z" fill="black"/>
<path d="M21.0011 18.9177L22.3265 16.2621L23.104 17.3376L22.4445 18.756L21.0011 18.9177Z" fill="black"/>
<path d="M19.3531 9.04575L16.7729 7.59334L18.0094 6.96934L19.1713 7.55027L19.3531 9.04575Z" fill="black"/>
<path d="M14.5242 7.84074L11.0387 9.00261L11.3052 7.799L13.3624 6.96934L14.5242 7.84074Z" fill="black"/>
<path d="M9.2956 10.4565L7.84353 13.9421L7.10389 12.7266L7.84353 10.747L9.2956 10.4565Z" fill="black"/>
<path d="M22.0771 13.6534L21.2054 10.4583L22.6579 11.0392L22.9484 12.4916L22.0771 13.6534Z" fill="black"/>
<path d="M25.6 17.4969C20.8198 17.8959 17.5833 23.5968 16.5 27.6153C20.14 29.8856 32.1 28.2447 36 26.8255C35.5667 24.2258 34.05 16.7916 25.6 17.4969Z" fill="white" stroke="black" stroke-width="2"/>
<path d="M26.1991 17.4492C31.3108 17.3883 33.2094 8.21265 26.7933 8.21265C19.0954 8.21265 21.0878 17.3883 26.1991 17.4492Z" fill="white"/>
<path d="M26.1496 17.4495C31.2984 17.4475 33.23 8.21265 26.7933 8.21265C19.0699 8.21265 21.1011 17.4492 26.25 17.4495" stroke="black" stroke-width="2"/>
</svg>
