<svg width="1873" height="729" viewBox="0 0 1873 729" fill="none" xmlns="http://www.w3.org/2000/svg">
<rect width="1873" height="729" rx="29" fill="black"/>
<path fill-rule="evenodd" clip-rule="evenodd" d="M1267.25 339.063L1310.47 104.445L1364.71 218.455C1397.18 199.503 1434.8 188.892 1474.11 190.481C1520.76 192.367 1564.42 209.008 1598.66 235.59L1653.18 111.299L1666.99 341.82C1668.61 349.719 1669.66 357.799 1670.1 366.028C1672.81 416.753 1640.57 574.897 1472.82 568.62C1296.4 562.019 1260.71 463.081 1259.09 396.582C1258.61 376.992 1261.51 357.625 1267.25 339.063Z" fill="#F89C1C"/>
<path d="M1320.94 342.384C1321.44 326.164 1339.6 281.927 1369.87 279.96C1397.12 279.96 1407.7 313.876 1407.2 338.452C1406.7 363.028 1394.09 394.485 1360.29 394.485C1326.49 394.485 1320.43 358.604 1320.94 342.384Z" fill="#FFDFB9"/>
<path d="M1577.71 357.81C1578.66 340.071 1564.4 290.295 1534.13 285.631C1506.73 283.365 1493.02 319.487 1491.31 346.342C1489.6 373.198 1499.44 408.569 1533.43 411.381C1567.43 414.193 1576.75 375.549 1577.71 357.81Z" fill="#FFDFB9"/>
<path fill-rule="evenodd" clip-rule="evenodd" d="M1539.59 561.239C1520.16 566.796 1498.02 569.564 1472.82 568.621C1418.49 566.588 1377.5 555.797 1346.75 539.893C1332.38 474.969 1350.38 438.625 1433.34 442.362C1523.05 446.403 1534.37 450.445 1539.22 532.078C1539.9 543.6 1539.97 553.228 1539.59 561.239Z" fill="#FFDFB9"/>
<path d="M1446.85 349.97L1395.14 422.25L1452.18 422.25" stroke="black" stroke-width="8"/>
<path d="M1403.91 458.741C1411.02 514.183 1445.68 516.67 1468.58 463.267" stroke="black" stroke-width="8"/>
<ellipse cx="1368.91" cy="348.315" rx="17.6912" ry="35.8375" transform="rotate(3.56939 1368.91 348.315)" fill="black"/>
<ellipse cx="1368.91" cy="348.315" rx="17.6912" ry="35.8375" transform="rotate(3.56939 1368.91 348.315)" fill="black"/>
<ellipse cx="1534.45" cy="366.72" rx="17.6912" ry="35.8375" transform="rotate(3.56939 1534.45 366.72)" fill="black"/>
<ellipse cx="1534.45" cy="366.72" rx="17.6912" ry="35.8375" transform="rotate(3.56939 1534.45 366.72)" fill="black"/>
<path d="M177.665 253.814V273.238H90.5898V253.814H177.665ZM97.9775 253.814V302.872H74.5693L73.2412 253.814H97.9775ZM195.595 253.814L193.437 302.955H170.609V253.814H195.595ZM163.969 152.379V171.886H105.78V152.379H163.969ZM181.732 152.379V273.238H156.913V152.379H181.732ZM102.709 152.379H127.611L124.374 201.603C123.876 209.737 122.991 216.931 121.718 223.185C120.5 229.382 119.006 234.833 117.235 239.537C115.52 244.241 113.611 248.364 111.508 251.905C109.405 255.392 107.191 258.435 104.867 261.036C102.543 263.582 100.191 265.851 97.8115 267.843C95.432 269.78 93.1077 271.578 90.8389 273.238H76.5615V253.814H82.123C83.7279 252.486 85.4157 250.66 87.1865 248.336C89.0127 246.012 90.7282 242.885 92.333 238.956C93.9932 234.972 95.432 229.936 96.6494 223.849C97.9222 217.761 98.863 210.346 99.4717 201.603L102.709 152.379ZM203.148 229.244V227.501C203.148 220.916 204.089 214.856 205.971 209.322C207.852 203.733 210.591 198.891 214.188 194.796C217.785 190.701 222.213 187.519 227.47 185.25C232.727 182.926 238.759 181.764 245.565 181.764C252.372 181.764 258.432 182.926 263.744 185.25C269.057 187.519 273.511 190.701 277.108 194.796C280.761 198.891 283.528 203.733 285.409 209.322C287.291 214.856 288.231 220.916 288.231 227.501V229.244C288.231 235.774 287.291 241.834 285.409 247.423C283.528 252.957 280.761 257.799 277.108 261.949C273.511 266.044 269.084 269.226 263.827 271.495C258.57 273.764 252.538 274.898 245.731 274.898C238.925 274.898 232.865 273.764 227.553 271.495C222.296 269.226 217.841 266.044 214.188 261.949C210.591 257.799 207.852 252.957 205.971 247.423C204.089 241.834 203.148 235.774 203.148 229.244ZM227.055 227.501V229.244C227.055 233.007 227.387 236.521 228.051 239.786C228.715 243.051 229.766 245.929 231.205 248.419C232.699 250.854 234.636 252.763 237.016 254.146C239.395 255.53 242.3 256.222 245.731 256.222C249.052 256.222 251.902 255.53 254.281 254.146C256.661 252.763 258.57 250.854 260.009 248.419C261.448 245.929 262.499 243.051 263.163 239.786C263.882 236.521 264.242 233.007 264.242 229.244V227.501C264.242 223.849 263.882 220.418 263.163 217.208C262.499 213.943 261.42 211.065 259.926 208.575C258.487 206.03 256.578 204.037 254.198 202.599C251.819 201.16 248.941 200.44 245.565 200.44C242.19 200.44 239.312 201.16 236.933 202.599C234.608 204.037 232.699 206.03 231.205 208.575C229.766 211.065 228.715 213.943 228.051 217.208C227.387 220.418 227.055 223.849 227.055 227.501ZM357.958 143.912H377.299C377.299 148.395 376.745 152.241 375.639 155.45C374.532 158.604 372.761 161.316 370.326 163.585C367.891 165.799 364.626 167.68 360.531 169.229C356.436 170.779 351.373 172.107 345.341 173.214C340.692 174.155 336.653 175.704 333.222 177.862C329.846 180.021 327.051 182.981 324.838 186.744C322.68 190.452 321.13 195.156 320.189 200.855C319.249 206.5 318.917 213.307 319.193 221.275V225.26L300.6 227.833V223.849C300.655 213.002 301.623 203.567 303.505 195.543C305.442 187.519 308.181 180.768 311.723 175.289C315.264 169.755 319.525 165.356 324.506 162.091C329.486 158.771 335.02 156.446 341.107 155.118C345.202 154.233 348.467 153.375 350.902 152.545C353.393 151.66 355.191 150.553 356.298 149.225C357.405 147.896 357.958 146.126 357.958 143.912ZM347.499 188.487C353.586 188.487 358.982 189.539 363.686 191.642C368.389 193.689 372.346 196.594 375.556 200.357C378.765 204.12 381.2 208.548 382.86 213.639C384.521 218.73 385.351 224.291 385.351 230.323V232.066C385.351 238.209 384.41 243.909 382.528 249.166C380.702 254.368 377.991 258.906 374.394 262.779C370.797 266.653 366.369 269.669 361.112 271.827C355.855 273.93 349.851 274.981 343.1 274.981C336.293 274.981 330.233 273.847 324.921 271.578C319.664 269.254 315.209 266.017 311.557 261.866C307.96 257.66 305.22 252.763 303.339 247.174C301.513 241.529 300.6 235.387 300.6 228.746V226.92C300.6 225.979 301.015 225.066 301.845 224.181C302.73 223.24 303.754 222.188 304.916 221.026C306.133 219.864 307.213 218.398 308.153 216.627C311.474 210.484 315.098 205.338 319.027 201.188C322.956 196.982 327.245 193.827 331.894 191.725C336.597 189.566 341.799 188.487 347.499 188.487ZM342.934 207.164C338.451 207.164 334.854 208.243 332.143 210.401C329.431 212.504 327.466 215.326 326.249 218.868C325.087 222.354 324.506 226.173 324.506 230.323V232.066C324.506 235.442 324.838 238.596 325.502 241.529C326.166 244.407 327.217 246.98 328.656 249.249C330.095 251.463 332.004 253.206 334.384 254.479C336.763 255.696 339.669 256.305 343.1 256.305C346.42 256.305 349.242 255.696 351.566 254.479C353.946 253.206 355.855 251.463 357.294 249.249C358.733 246.98 359.784 244.407 360.448 241.529C361.112 238.596 361.444 235.442 361.444 232.066V230.323C361.444 227.169 361.112 224.208 360.448 221.441C359.784 218.619 358.733 216.157 357.294 214.054C355.855 211.896 353.946 210.208 351.566 208.99C349.187 207.773 346.309 207.164 342.934 207.164ZM422.289 200.689V307.77H398.383V183.424H420.546L422.289 200.689ZM479.149 227.335V229.078C479.149 235.608 478.375 241.668 476.825 247.257C475.331 252.846 473.118 257.716 470.185 261.866C467.252 265.961 463.599 269.171 459.228 271.495C454.911 273.764 449.931 274.898 444.286 274.898C438.808 274.898 434.049 273.792 430.009 271.578C425.969 269.365 422.566 266.266 419.799 262.281C417.087 258.242 414.901 253.565 413.241 248.253C411.581 242.94 410.308 237.241 409.423 231.153V226.588C410.308 220.058 411.581 214.081 413.241 208.658C414.901 203.18 417.087 198.448 419.799 194.464C422.566 190.424 425.941 187.298 429.926 185.084C433.965 182.87 438.697 181.764 444.12 181.764C449.82 181.764 454.828 182.843 459.145 185.001C463.516 187.159 467.169 190.258 470.102 194.298C473.09 198.338 475.331 203.152 476.825 208.741C478.375 214.33 479.149 220.528 479.149 227.335ZM455.16 229.078V227.335C455.16 223.517 454.828 220.003 454.164 216.793C453.555 213.528 452.559 210.678 451.176 208.243C449.848 205.808 448.077 203.927 445.863 202.599C443.705 201.215 441.076 200.523 437.978 200.523C434.713 200.523 431.918 201.049 429.594 202.101C427.325 203.152 425.471 204.674 424.032 206.666C422.593 208.658 421.514 211.038 420.795 213.805C420.076 216.572 419.633 219.698 419.467 223.185V234.723C419.743 238.818 420.518 242.498 421.791 245.763C423.064 248.972 425.028 251.518 427.685 253.399C430.341 255.281 433.827 256.222 438.144 256.222C441.298 256.222 443.954 255.53 446.112 254.146C448.271 252.708 450.014 250.743 451.342 248.253C452.725 245.763 453.694 242.885 454.247 239.62C454.856 236.355 455.16 232.841 455.16 229.078ZM510.526 210.069H536.591C544.781 210.069 551.754 211.425 557.509 214.137C563.319 216.793 567.746 220.501 570.79 225.26C573.889 230.019 575.438 235.525 575.438 241.778C575.438 246.316 574.553 250.522 572.782 254.396C571.067 258.214 568.549 261.534 565.229 264.356C561.908 267.179 557.841 269.365 553.026 270.914C548.212 272.464 542.733 273.238 536.591 273.238H495.585V183.424H519.574V254.645H536.591C540.188 254.645 543.065 254.063 545.224 252.901C547.437 251.684 549.042 250.107 550.038 248.17C551.09 246.233 551.615 244.13 551.615 241.861C551.615 239.482 551.09 237.324 550.038 235.387C549.042 233.395 547.437 231.79 545.224 230.572C543.065 229.355 540.188 228.746 536.591 228.746H510.526V210.069ZM613.788 183.424V273.238H589.882V183.424H613.788ZM676.127 274.898C669.154 274.898 662.901 273.792 657.367 271.578C651.833 269.309 647.13 266.183 643.256 262.198C639.438 258.214 636.505 253.593 634.457 248.336C632.41 243.023 631.386 237.379 631.386 231.402V228.082C631.386 221.275 632.354 215.05 634.291 209.405C636.228 203.761 638.995 198.863 642.592 194.713C646.244 190.562 650.671 187.381 655.873 185.167C661.075 182.898 666.941 181.764 673.471 181.764C679.835 181.764 685.479 182.815 690.404 184.918C695.329 187.021 699.452 190.009 702.772 193.883C706.148 197.757 708.694 202.405 710.409 207.828C712.125 213.196 712.982 219.173 712.982 225.758V235.719H641.596V219.781H689.491V217.955C689.491 214.635 688.882 211.674 687.665 209.073C686.503 206.417 684.732 204.314 682.353 202.765C679.973 201.215 676.929 200.44 673.222 200.44C670.067 200.44 667.356 201.132 665.087 202.516C662.818 203.899 660.964 205.836 659.525 208.326C658.142 210.816 657.09 213.749 656.371 217.125C655.707 220.445 655.375 224.098 655.375 228.082V231.402C655.375 234.999 655.873 238.32 656.869 241.363C657.921 244.407 659.387 247.035 661.269 249.249C663.205 251.463 665.53 253.178 668.241 254.396C671.008 255.613 674.135 256.222 677.621 256.222C681.938 256.222 685.95 255.392 689.657 253.731C693.42 252.016 696.658 249.443 699.369 246.012L710.99 258.629C709.109 261.34 706.535 263.941 703.271 266.432C700.061 268.922 696.187 270.969 691.649 272.574C687.112 274.124 681.938 274.898 676.127 274.898ZM785.116 183.424H809.022L808.275 213.473C808.054 223.102 806.947 231.375 804.955 238.292C802.963 245.209 800.307 251.02 796.986 255.724C793.666 260.427 789.875 264.19 785.614 267.013C781.409 269.78 776.981 271.855 772.333 273.238H767.851L767.602 254.811L770.092 254.562C772.914 251.629 775.238 248.779 777.064 246.012C778.891 243.189 780.302 240.229 781.298 237.13C782.294 234.031 783.013 230.572 783.456 226.754C783.954 222.936 784.258 218.508 784.369 213.473L785.116 183.424ZM791.591 183.424H851.107V273.238H827.284V202.599H791.591V183.424ZM762.372 254.562H863.974V300.216H840.067V273.238H786.859V300.216H762.372V254.562ZM917.514 274.898C910.541 274.898 904.288 273.792 898.754 271.578C893.22 269.309 888.516 266.183 884.643 262.198C880.824 258.214 877.891 253.593 875.844 248.336C873.796 243.023 872.772 237.379 872.772 231.402V228.082C872.772 221.275 873.741 215.05 875.678 209.405C877.615 203.761 880.382 198.863 883.979 194.713C887.631 190.562 892.058 187.381 897.26 185.167C902.462 182.898 908.327 181.764 914.857 181.764C921.221 181.764 926.866 182.815 931.791 184.918C936.716 187.021 940.839 190.009 944.159 193.883C947.535 197.757 950.08 202.405 951.796 207.828C953.511 213.196 954.369 219.173 954.369 225.758V235.719H882.982V219.781H930.878V217.955C930.878 214.635 930.269 211.674 929.052 209.073C927.89 206.417 926.119 204.314 923.739 202.765C921.36 201.215 918.316 200.44 914.608 200.44C911.454 200.44 908.743 201.132 906.474 202.516C904.205 203.899 902.351 205.836 900.912 208.326C899.529 210.816 898.477 213.749 897.758 217.125C897.094 220.445 896.762 224.098 896.762 228.082V231.402C896.762 234.999 897.26 238.32 898.256 241.363C899.307 244.407 900.774 247.035 902.655 249.249C904.592 251.463 906.916 253.178 909.628 254.396C912.395 255.613 915.521 256.222 919.008 256.222C923.324 256.222 927.336 255.392 931.044 253.731C934.807 252.016 938.044 249.443 940.756 246.012L952.377 258.629C950.495 261.34 947.922 263.941 944.657 266.432C941.448 268.922 937.574 270.969 933.036 272.574C928.498 274.124 923.324 274.898 917.514 274.898ZM1028.41 183.424V202.184H984.252V183.424H1028.41ZM1045.93 183.424V273.238H1022.02V183.424H1045.93ZM978.275 183.424H1001.77L999.359 228.746C999.027 235.221 998.336 240.921 997.284 245.846C996.233 250.771 994.822 254.977 993.051 258.463C991.335 261.949 989.26 264.799 986.825 267.013C984.446 269.171 981.651 270.748 978.441 271.744C975.287 272.74 971.801 273.238 967.982 273.238H960.678L960.429 254.396L963.5 254.063C965.271 253.897 966.82 253.399 968.148 252.569C969.532 251.684 970.694 250.439 971.635 248.834C972.631 247.174 973.461 245.099 974.125 242.608C974.789 240.063 975.315 237.075 975.702 233.644C976.145 230.213 976.449 226.256 976.615 221.773L978.275 183.424ZM1112.91 252.984V212.975C1112.91 210.097 1112.44 207.634 1111.5 205.587C1110.56 203.484 1109.1 201.852 1107.1 200.689C1105.17 199.527 1102.65 198.946 1099.55 198.946C1096.89 198.946 1094.6 199.417 1092.66 200.357C1090.72 201.243 1089.23 202.543 1088.18 204.259C1087.13 205.919 1086.6 207.883 1086.6 210.152H1062.69C1062.69 206.334 1063.58 202.709 1065.35 199.278C1067.12 195.847 1069.69 192.831 1073.07 190.23C1076.45 187.574 1080.46 185.499 1085.11 184.005C1089.81 182.511 1095.07 181.764 1100.88 181.764C1107.85 181.764 1114.05 182.926 1119.47 185.25C1124.89 187.574 1129.16 191.061 1132.25 195.709C1135.41 200.357 1136.99 206.168 1136.99 213.141V251.573C1136.99 256.498 1137.29 260.538 1137.9 263.692C1138.51 266.791 1139.39 269.503 1140.56 271.827V273.238H1116.4C1115.24 270.803 1114.35 267.76 1113.74 264.107C1113.19 260.4 1112.91 256.692 1112.91 252.984ZM1116.07 218.536L1116.23 232.066H1102.87C1099.72 232.066 1096.98 232.426 1094.65 233.146C1092.33 233.865 1090.42 234.889 1088.92 236.217C1087.43 237.49 1086.32 238.984 1085.6 240.699C1084.94 242.415 1084.61 244.296 1084.61 246.344C1084.61 248.391 1085.08 250.245 1086.02 251.905C1086.96 253.51 1088.32 254.783 1090.09 255.724C1091.86 256.609 1093.93 257.052 1096.31 257.052C1099.91 257.052 1103.04 256.332 1105.69 254.894C1108.35 253.455 1110.4 251.684 1111.83 249.581C1113.33 247.478 1114.1 245.486 1114.16 243.604L1120.47 253.731C1119.58 256 1118.36 258.352 1116.82 260.787C1115.32 263.222 1113.41 265.519 1111.09 267.677C1108.76 269.78 1105.97 271.523 1102.7 272.906C1099.44 274.234 1095.57 274.898 1091.08 274.898C1085.38 274.898 1080.21 273.764 1075.56 271.495C1070.97 269.171 1067.32 265.989 1064.6 261.949C1061.95 257.854 1060.62 253.206 1060.62 248.004C1060.62 243.3 1061.5 239.122 1063.28 235.47C1065.05 231.817 1067.65 228.746 1071.08 226.256C1074.56 223.71 1078.91 221.801 1084.11 220.528C1089.31 219.2 1095.34 218.536 1102.21 218.536H1116.07Z" fill="white"/>
<path d="M96.206 400.147V429.238H92.6832V403.272H78.0241V429.238H74.5014V400.147H96.206ZM102.857 437.42V407.42H106.096V410.886H106.494C106.74 410.507 107.081 410.024 107.516 409.437C107.961 408.841 108.596 408.31 109.42 407.846C110.253 407.373 111.38 407.136 112.8 407.136C114.638 407.136 116.257 407.595 117.658 408.514C119.06 409.432 120.154 410.734 120.94 412.42C121.726 414.106 122.119 416.094 122.119 418.386C122.119 420.697 121.726 422.699 120.94 424.395C120.154 426.08 119.065 427.387 117.673 428.315C116.281 429.234 114.675 429.693 112.857 429.693C111.456 429.693 110.334 429.461 109.491 428.997C108.648 428.523 107.999 427.988 107.545 427.392C107.09 426.786 106.74 426.284 106.494 425.886H106.21V437.42H102.857ZM106.153 418.329C106.153 419.977 106.394 421.431 106.877 422.69C107.36 423.94 108.066 424.92 108.994 425.63C109.922 426.331 111.058 426.681 112.403 426.681C113.804 426.681 114.974 426.312 115.911 425.574C116.858 424.825 117.568 423.822 118.042 422.562C118.525 421.293 118.766 419.882 118.766 418.329C118.766 416.795 118.53 415.413 118.056 414.181C117.592 412.941 116.887 411.961 115.94 411.241C115.002 410.512 113.823 410.147 112.403 410.147C111.039 410.147 109.893 410.493 108.965 411.184C108.037 411.866 107.336 412.823 106.863 414.054C106.389 415.275 106.153 416.7 106.153 418.329ZM136.096 429.693C134.126 429.693 132.398 429.224 130.911 428.287C129.434 427.349 128.279 426.038 127.445 424.352C126.621 422.666 126.21 420.697 126.21 418.443C126.21 416.17 126.621 414.186 127.445 412.491C128.279 410.796 129.434 409.48 130.911 408.542C132.398 407.605 134.126 407.136 136.096 407.136C138.066 407.136 139.789 407.605 141.266 408.542C142.753 409.48 143.908 410.796 144.732 412.491C145.566 414.186 145.982 416.17 145.982 418.443C145.982 420.697 145.566 422.666 144.732 424.352C143.908 426.038 142.753 427.349 141.266 428.287C139.789 429.224 138.066 429.693 136.096 429.693ZM136.096 426.681C137.592 426.681 138.823 426.298 139.789 425.531C140.755 424.764 141.47 423.755 141.934 422.505C142.398 421.255 142.63 419.901 142.63 418.443C142.63 416.984 142.398 415.626 141.934 414.366C141.47 413.107 140.755 412.089 139.789 411.312C138.823 410.536 137.592 410.147 136.096 410.147C134.6 410.147 133.369 410.536 132.403 411.312C131.437 412.089 130.722 413.107 130.258 414.366C129.794 415.626 129.562 416.984 129.562 418.443C129.562 419.901 129.794 421.255 130.258 422.505C130.722 423.755 131.437 424.764 132.403 425.531C133.369 426.298 134.6 426.681 136.096 426.681ZM159.963 429.693C157.918 429.693 156.156 429.21 154.679 428.244C153.202 427.278 152.065 425.948 151.27 424.252C150.474 422.557 150.077 420.621 150.077 418.443C150.077 416.227 150.484 414.271 151.298 412.576C152.122 410.872 153.268 409.541 154.736 408.585C156.213 407.619 157.937 407.136 159.906 407.136C161.44 407.136 162.823 407.42 164.054 407.988C165.285 408.556 166.294 409.352 167.08 410.375C167.866 411.397 168.353 412.591 168.543 413.954H165.19C164.935 412.96 164.366 412.079 163.486 411.312C162.615 410.536 161.44 410.147 159.963 410.147C158.656 410.147 157.51 410.488 156.526 411.17C155.55 411.842 154.788 412.794 154.239 414.025C153.699 415.247 153.429 416.681 153.429 418.329C153.429 420.015 153.694 421.483 154.224 422.733C154.764 423.983 155.522 424.953 156.497 425.645C157.482 426.336 158.637 426.681 159.963 426.681C160.834 426.681 161.625 426.53 162.335 426.227C163.045 425.924 163.647 425.488 164.139 424.92C164.632 424.352 164.982 423.67 165.19 422.875H168.543C168.353 424.163 167.884 425.323 167.136 426.355C166.398 427.377 165.418 428.192 164.196 428.798C162.984 429.395 161.573 429.693 159.963 429.693ZM171.724 410.545V407.42H189.452V410.545H182.293V429.238H178.94V410.545H171.724ZM202.072 429.693C200.103 429.693 198.375 429.224 196.888 428.287C195.411 427.349 194.255 426.038 193.422 424.352C192.598 422.666 192.186 420.697 192.186 418.443C192.186 416.17 192.598 414.186 193.422 412.491C194.255 410.796 195.411 409.48 196.888 408.542C198.375 407.605 200.103 407.136 202.072 407.136C204.042 407.136 205.766 407.605 207.243 408.542C208.73 409.48 209.885 410.796 210.709 412.491C211.542 414.186 211.959 416.17 211.959 418.443C211.959 420.697 211.542 422.666 210.709 424.352C209.885 426.038 208.73 427.349 207.243 428.287C205.766 429.224 204.042 429.693 202.072 429.693ZM202.072 426.681C203.569 426.681 204.8 426.298 205.766 425.531C206.732 424.764 207.446 423.755 207.911 422.505C208.375 421.255 208.607 419.901 208.607 418.443C208.607 416.984 208.375 415.626 207.911 414.366C207.446 413.107 206.732 412.089 205.766 411.312C204.8 410.536 203.569 410.147 202.072 410.147C200.576 410.147 199.345 410.536 198.379 411.312C197.413 412.089 196.698 413.107 196.234 414.366C195.77 415.626 195.538 416.984 195.538 418.443C195.538 419.901 195.77 421.255 196.234 422.505C196.698 423.755 197.413 424.764 198.379 425.531C199.345 426.298 200.576 426.681 202.072 426.681ZM225.996 435.488V426.113H227.815C228.26 425.649 228.643 425.147 228.965 424.608C229.287 424.068 229.567 423.429 229.803 422.69C230.049 421.942 230.258 421.033 230.428 419.963C230.599 418.883 230.75 417.581 230.883 416.056L231.621 407.42H245.485V426.113H248.837V435.488H245.485V429.238H229.349V435.488H225.996ZM231.621 426.113H242.133V410.545H234.746L234.178 416.056C233.942 418.339 233.648 420.332 233.298 422.037C232.947 423.741 232.388 425.1 231.621 426.113ZM262.435 429.693C260.332 429.693 258.519 429.229 256.994 428.301C255.479 427.363 254.31 426.056 253.486 424.38C252.671 422.695 252.264 420.734 252.264 418.5C252.264 416.265 252.671 414.295 253.486 412.591C254.31 410.877 255.455 409.541 256.923 408.585C258.401 407.619 260.124 407.136 262.094 407.136C263.23 407.136 264.352 407.325 265.46 407.704C266.568 408.083 267.577 408.699 268.486 409.551C269.395 410.394 270.119 411.511 270.659 412.903C271.199 414.295 271.469 416.009 271.469 418.045V419.466H254.651V416.568H268.06C268.06 415.337 267.813 414.238 267.321 413.272C266.838 412.306 266.147 411.544 265.247 410.985C264.357 410.427 263.306 410.147 262.094 410.147C260.759 410.147 259.603 410.479 258.628 411.142C257.662 411.795 256.919 412.647 256.398 413.699C255.877 414.75 255.616 415.877 255.616 417.079V419.011C255.616 420.659 255.901 422.056 256.469 423.201C257.046 424.338 257.847 425.204 258.869 425.801C259.892 426.388 261.08 426.681 262.435 426.681C263.315 426.681 264.111 426.558 264.821 426.312C265.541 426.056 266.161 425.678 266.682 425.176C267.203 424.664 267.605 424.03 267.889 423.272L271.128 424.181C270.787 425.28 270.214 426.246 269.409 427.079C268.604 427.903 267.61 428.547 266.426 429.011C265.242 429.466 263.912 429.693 262.435 429.693ZM274.636 429.238V426.113H275.432C276.085 426.113 276.63 425.985 277.065 425.73C277.501 425.465 277.851 425.005 278.116 424.352C278.391 423.689 278.599 422.77 278.741 421.596C278.893 420.413 279.002 418.907 279.068 417.079L279.466 407.42H294.011V429.238H290.659V410.545H282.648L282.307 418.329C282.231 420.119 282.07 421.696 281.824 423.059C281.587 424.413 281.223 425.55 280.73 426.468C280.247 427.387 279.603 428.078 278.798 428.542C277.993 429.006 276.985 429.238 275.773 429.238H274.636ZM306.582 429.75C305.2 429.75 303.945 429.489 302.818 428.968C301.691 428.438 300.796 427.676 300.134 426.681C299.471 425.678 299.139 424.466 299.139 423.045C299.139 421.795 299.385 420.782 299.878 420.005C300.37 419.219 301.028 418.604 301.852 418.159C302.676 417.714 303.585 417.382 304.58 417.164C305.583 416.937 306.592 416.757 307.605 416.625C308.931 416.454 310.006 416.326 310.83 416.241C311.663 416.146 312.269 415.99 312.648 415.772C313.036 415.555 313.23 415.176 313.23 414.636V414.522C313.23 413.121 312.847 412.032 312.08 411.255C311.322 410.479 310.171 410.091 308.628 410.091C307.027 410.091 305.773 410.441 304.864 411.142C303.955 411.842 303.315 412.591 302.946 413.386L299.764 412.25C300.332 410.924 301.09 409.892 302.037 409.153C302.993 408.405 304.035 407.884 305.162 407.591C306.298 407.288 307.416 407.136 308.514 407.136C309.215 407.136 310.02 407.221 310.929 407.392C311.848 407.553 312.733 407.889 313.585 408.4C314.447 408.912 315.162 409.683 315.73 410.716C316.298 411.748 316.582 413.13 316.582 414.863V429.238H313.23V426.284H313.06C312.832 426.757 312.454 427.264 311.923 427.804C311.393 428.343 310.688 428.803 309.807 429.181C308.926 429.56 307.851 429.75 306.582 429.75ZM307.094 426.738C308.42 426.738 309.537 426.478 310.446 425.957C311.365 425.436 312.056 424.764 312.52 423.94C312.993 423.116 313.23 422.25 313.23 421.341V418.272C313.088 418.443 312.776 418.599 312.293 418.741C311.819 418.874 311.27 418.992 310.645 419.096C310.029 419.191 309.428 419.276 308.841 419.352C308.263 419.418 307.795 419.475 307.435 419.522C306.563 419.636 305.749 419.821 304.991 420.076C304.243 420.323 303.637 420.697 303.173 421.199C302.719 421.691 302.491 422.363 302.491 423.216C302.491 424.38 302.922 425.261 303.784 425.858C304.655 426.445 305.759 426.738 307.094 426.738ZM326.053 424.295L336.565 407.42H340.428V429.238H337.076V412.363L326.621 429.238H322.701V407.42H326.053V424.295ZM334.349 400.147H337.474C337.474 401.681 336.943 402.936 335.883 403.912C334.822 404.887 333.383 405.375 331.565 405.375C329.775 405.375 328.35 404.887 327.289 403.912C326.238 402.936 325.712 401.681 325.712 400.147H328.837C328.837 400.886 329.041 401.535 329.448 402.093C329.865 402.652 330.57 402.931 331.565 402.931C332.559 402.931 333.269 402.652 333.695 402.093C334.131 401.535 334.349 400.886 334.349 400.147ZM355.489 435.488V426.113H357.307C357.752 425.649 358.135 425.147 358.457 424.608C358.779 424.068 359.059 423.429 359.295 422.69C359.542 421.942 359.75 421.033 359.92 419.963C360.091 418.883 360.242 417.581 360.375 416.056L361.114 407.42H374.977V426.113H378.33V435.488H374.977V429.238H358.841V435.488H355.489ZM361.114 426.113H371.625V410.545H364.239L363.67 416.056C363.434 418.339 363.14 420.332 362.79 422.037C362.439 423.741 361.881 425.1 361.114 426.113ZM391.643 429.693C389.673 429.693 387.945 429.224 386.458 428.287C384.981 427.349 383.826 426.038 382.992 424.352C382.168 422.666 381.756 420.697 381.756 418.443C381.756 416.17 382.168 414.186 382.992 412.491C383.826 410.796 384.981 409.48 386.458 408.542C387.945 407.605 389.673 407.136 391.643 407.136C393.612 407.136 395.336 407.605 396.813 408.542C398.3 409.48 399.455 410.796 400.279 412.491C401.112 414.186 401.529 416.17 401.529 418.443C401.529 420.697 401.112 422.666 400.279 424.352C399.455 426.038 398.3 427.349 396.813 428.287C395.336 429.224 393.612 429.693 391.643 429.693ZM391.643 426.681C393.139 426.681 394.37 426.298 395.336 425.531C396.302 424.764 397.017 423.755 397.481 422.505C397.945 421.255 398.177 419.901 398.177 418.443C398.177 416.984 397.945 415.626 397.481 414.366C397.017 413.107 396.302 412.089 395.336 411.312C394.37 410.536 393.139 410.147 391.643 410.147C390.147 410.147 388.915 410.536 387.95 411.312C386.984 412.089 386.269 413.107 385.805 414.366C385.341 415.626 385.109 416.984 385.109 418.443C385.109 419.901 385.341 421.255 385.805 422.505C386.269 423.755 386.984 424.764 387.95 425.531C388.915 426.298 390.147 426.681 391.643 426.681ZM422.839 399.238L424.544 401.284C423.881 401.928 423.114 402.377 422.243 402.633C421.372 402.889 420.387 403.045 419.288 403.102C418.19 403.159 416.968 403.216 415.624 403.272C414.108 403.329 412.854 403.699 411.859 404.38C410.865 405.062 410.098 406.047 409.558 407.335C409.018 408.623 408.673 410.204 408.521 412.079H408.805C409.544 410.716 410.567 409.712 411.874 409.068C413.18 408.424 414.582 408.102 416.078 408.102C417.783 408.102 419.317 408.5 420.68 409.295C422.044 410.091 423.124 411.27 423.919 412.832C424.714 414.395 425.112 416.322 425.112 418.613C425.112 420.895 424.705 422.865 423.891 424.522C423.086 426.18 421.954 427.458 420.496 428.358C419.047 429.248 417.347 429.693 415.396 429.693C413.446 429.693 411.736 429.234 410.268 428.315C408.801 427.387 407.66 426.014 406.845 424.196C406.031 422.368 405.624 420.109 405.624 417.42V415.091C405.624 410.233 406.447 406.549 408.095 404.039C409.752 401.53 412.243 400.233 415.567 400.147C416.741 400.109 417.787 400.1 418.706 400.119C419.625 400.138 420.425 400.095 421.107 399.991C421.788 399.887 422.366 399.636 422.839 399.238ZM415.396 426.681C416.713 426.681 417.844 426.35 418.791 425.687C419.748 425.024 420.482 424.092 420.993 422.889C421.504 421.677 421.76 420.252 421.76 418.613C421.76 417.022 421.5 415.668 420.979 414.551C420.467 413.433 419.733 412.581 418.777 411.994C417.821 411.407 416.675 411.113 415.339 411.113C414.364 411.113 413.488 411.279 412.712 411.61C411.935 411.942 411.272 412.43 410.723 413.074C410.174 413.717 409.748 414.503 409.445 415.431C409.151 416.359 408.995 417.42 408.976 418.613C408.976 421.056 409.549 423.012 410.695 424.48C411.84 425.948 413.408 426.681 415.396 426.681ZM430.24 437.42V407.42H433.479V410.886H433.876C434.123 410.507 434.464 410.024 434.899 409.437C435.344 408.841 435.979 408.31 436.803 407.846C437.636 407.373 438.763 407.136 440.183 407.136C442.02 407.136 443.64 407.595 445.041 408.514C446.443 409.432 447.536 410.734 448.322 412.42C449.108 414.106 449.501 416.094 449.501 418.386C449.501 420.697 449.108 422.699 448.322 424.395C447.536 426.08 446.447 427.387 445.055 428.315C443.663 429.234 442.058 429.693 440.24 429.693C438.839 429.693 437.716 429.461 436.874 428.997C436.031 428.523 435.382 427.988 434.928 427.392C434.473 426.786 434.123 426.284 433.876 425.886H433.592V437.42H430.24ZM433.536 418.329C433.536 419.977 433.777 421.431 434.26 422.69C434.743 423.94 435.448 424.92 436.376 425.63C437.304 426.331 438.441 426.681 439.786 426.681C441.187 426.681 442.357 426.312 443.294 425.574C444.241 424.825 444.951 423.822 445.425 422.562C445.908 421.293 446.149 419.882 446.149 418.329C446.149 416.795 445.912 415.413 445.439 414.181C444.975 412.941 444.269 411.961 443.322 411.241C442.385 410.512 441.206 410.147 439.786 410.147C438.422 410.147 437.276 410.493 436.348 411.184C435.42 411.866 434.719 412.823 434.246 414.054C433.772 415.275 433.536 416.7 433.536 418.329ZM457.513 415.318H463.763C466.32 415.318 468.275 415.967 469.629 417.264C470.983 418.561 471.661 420.204 471.661 422.193C471.661 423.5 471.357 424.688 470.751 425.758C470.145 426.819 469.255 427.666 468.081 428.301C466.907 428.926 465.467 429.238 463.763 429.238H454.615V407.42H457.967V426.113H463.763C465.089 426.113 466.178 425.763 467.03 425.062C467.882 424.361 468.308 423.462 468.308 422.363C468.308 421.208 467.882 420.266 467.03 419.537C466.178 418.807 465.089 418.443 463.763 418.443H457.513V415.318ZM475.126 429.238V407.42H478.479V429.238H475.126ZM493.763 429.693C491.661 429.693 489.847 429.229 488.322 428.301C486.807 427.363 485.638 426.056 484.814 424.38C484 422.695 483.592 420.734 483.592 418.5C483.592 416.265 484 414.295 484.814 412.591C485.638 410.877 486.784 409.541 488.251 408.585C489.729 407.619 491.452 407.136 493.422 407.136C494.558 407.136 495.68 407.325 496.788 407.704C497.896 408.083 498.905 408.699 499.814 409.551C500.723 410.394 501.447 411.511 501.987 412.903C502.527 414.295 502.797 416.009 502.797 418.045V419.466H485.979V416.568H499.388C499.388 415.337 499.142 414.238 498.649 413.272C498.166 412.306 497.475 411.544 496.575 410.985C495.685 410.427 494.634 410.147 493.422 410.147C492.087 410.147 490.931 410.479 489.956 411.142C488.99 411.795 488.247 412.647 487.726 413.699C487.205 414.75 486.945 415.877 486.945 417.079V419.011C486.945 420.659 487.229 422.056 487.797 423.201C488.375 424.338 489.175 425.204 490.197 425.801C491.22 426.388 492.409 426.681 493.763 426.681C494.643 426.681 495.439 426.558 496.149 426.312C496.869 426.056 497.489 425.678 498.01 425.176C498.531 424.664 498.933 424.03 499.217 423.272L502.456 424.181C502.115 425.28 501.542 426.246 500.737 427.079C499.932 427.903 498.938 428.547 497.754 429.011C496.571 429.466 495.24 429.693 493.763 429.693ZM516.817 435.488V426.113H518.635C519.08 425.649 519.464 425.147 519.786 424.608C520.107 424.068 520.387 423.429 520.624 422.69C520.87 421.942 521.078 421.033 521.249 419.963C521.419 418.883 521.571 417.581 521.703 416.056L522.442 407.42H536.305V426.113H539.658V435.488H536.305V429.238H520.169V435.488H516.817ZM522.442 426.113H532.953V410.545H525.567L524.999 416.056C524.762 418.339 524.468 420.332 524.118 422.037C523.768 423.741 523.209 425.1 522.442 426.113ZM553.255 429.693C551.153 429.693 549.339 429.229 547.815 428.301C546.299 427.363 545.13 426.056 544.306 424.38C543.492 422.695 543.085 420.734 543.085 418.5C543.085 416.265 543.492 414.295 544.306 412.591C545.13 410.877 546.276 409.541 547.744 408.585C549.221 407.619 550.944 407.136 552.914 407.136C554.05 407.136 555.173 407.325 556.281 407.704C557.388 408.083 558.397 408.699 559.306 409.551C560.215 410.394 560.94 411.511 561.479 412.903C562.019 414.295 562.289 416.009 562.289 418.045V419.466H545.471V416.568H558.88C558.88 415.337 558.634 414.238 558.141 413.272C557.658 412.306 556.967 411.544 556.067 410.985C555.177 410.427 554.126 410.147 552.914 410.147C551.579 410.147 550.424 410.479 549.448 411.142C548.482 411.795 547.739 412.647 547.218 413.699C546.697 414.75 546.437 415.877 546.437 417.079V419.011C546.437 420.659 546.721 422.056 547.289 423.201C547.867 424.338 548.667 425.204 549.69 425.801C550.712 426.388 551.901 426.681 553.255 426.681C554.136 426.681 554.931 426.558 555.641 426.312C556.361 426.056 556.981 425.678 557.502 425.176C558.023 424.664 558.425 424.03 558.71 423.272L561.948 424.181C561.607 425.28 561.034 426.246 560.229 427.079C559.424 427.903 558.43 428.547 557.246 429.011C556.063 429.466 554.732 429.693 553.255 429.693ZM565.457 429.238V426.113H566.252C566.906 426.113 567.45 425.985 567.886 425.73C568.321 425.465 568.672 425.005 568.937 424.352C569.211 423.689 569.42 422.77 569.562 421.596C569.713 420.413 569.822 418.907 569.888 417.079L570.286 407.42H584.832V429.238H581.479V410.545H573.468L573.127 418.329C573.051 420.119 572.89 421.696 572.644 423.059C572.407 424.413 572.043 425.55 571.55 426.468C571.067 427.387 570.424 428.078 569.619 428.542C568.814 429.006 567.805 429.238 566.593 429.238H565.457ZM597.403 429.75C596.02 429.75 594.765 429.489 593.638 428.968C592.512 428.438 591.617 427.676 590.954 426.681C590.291 425.678 589.96 424.466 589.96 423.045C589.96 421.795 590.206 420.782 590.698 420.005C591.191 419.219 591.849 418.604 592.673 418.159C593.496 417.714 594.406 417.382 595.4 417.164C596.404 416.937 597.412 416.757 598.425 416.625C599.751 416.454 600.826 416.326 601.65 416.241C602.483 416.146 603.089 415.99 603.468 415.772C603.856 415.555 604.05 415.176 604.05 414.636V414.522C604.05 413.121 603.667 412.032 602.9 411.255C602.142 410.479 600.992 410.091 599.448 410.091C597.848 410.091 596.593 410.441 595.684 411.142C594.775 411.842 594.136 412.591 593.766 413.386L590.585 412.25C591.153 410.924 591.91 409.892 592.857 409.153C593.814 408.405 594.855 407.884 595.982 407.591C597.119 407.288 598.236 407.136 599.335 407.136C600.035 407.136 600.84 407.221 601.749 407.392C602.668 407.553 603.553 407.889 604.406 408.4C605.267 408.912 605.982 409.683 606.55 410.716C607.119 411.748 607.403 413.13 607.403 414.863V429.238H604.05V426.284H603.88C603.653 426.757 603.274 427.264 602.744 427.804C602.213 428.343 601.508 428.803 600.627 429.181C599.746 429.56 598.672 429.75 597.403 429.75ZM597.914 426.738C599.24 426.738 600.357 426.478 601.266 425.957C602.185 425.436 602.876 424.764 603.34 423.94C603.814 423.116 604.05 422.25 604.05 421.341V418.272C603.908 418.443 603.596 418.599 603.113 418.741C602.639 418.874 602.09 418.992 601.465 419.096C600.85 419.191 600.248 419.276 599.661 419.352C599.084 419.418 598.615 419.475 598.255 419.522C597.384 419.636 596.569 419.821 595.812 420.076C595.064 420.323 594.458 420.697 593.994 421.199C593.539 421.691 593.312 422.363 593.312 423.216C593.312 424.38 593.743 425.261 594.604 425.858C595.476 426.445 596.579 426.738 597.914 426.738Z" fill="white"/>
</svg>
