<svg width="1874" height="729" viewBox="0 0 1874 729" fill="none" xmlns="http://www.w3.org/2000/svg">
<rect x="0.15625" y="0.000488281" width="1873" height="729" rx="29" fill="#57585A"/>
<path d="M181.225 113.576V119.303C181.225 128.489 179.979 136.735 177.489 144.04C174.999 151.344 171.485 157.57 166.947 162.716C162.41 167.807 156.986 171.709 150.678 174.42C144.424 177.132 137.479 178.488 129.843 178.488C122.261 178.488 115.316 177.132 109.008 174.42C102.755 171.709 97.3314 167.807 92.7383 162.716C88.1452 157.57 84.5758 151.344 82.0303 144.04C79.54 136.735 78.2949 128.489 78.2949 119.303V113.576C78.2949 104.334 79.54 96.0887 82.0303 88.8394C84.5205 81.5347 88.0345 75.3091 92.5723 70.1626C97.1654 65.0161 102.589 61.0871 108.842 58.3755C115.15 55.6639 122.095 54.3081 129.677 54.3081C137.313 54.3081 144.258 55.6639 150.512 58.3755C156.82 61.0871 162.243 65.0161 166.781 70.1626C171.374 75.3091 174.916 81.5347 177.406 88.8394C179.952 96.0887 181.225 104.334 181.225 113.576ZM156.073 119.303V113.41C156.073 106.99 155.492 101.346 154.33 96.4761C153.168 91.6063 151.452 87.5112 149.184 84.1909C146.915 80.8706 144.148 78.3804 140.883 76.7202C137.618 75.0047 133.882 74.147 129.677 74.147C125.471 74.147 121.736 75.0047 118.471 76.7202C115.261 78.3804 112.522 80.8706 110.253 84.1909C108.039 87.5112 106.352 91.6063 105.189 96.4761C104.027 101.346 103.446 106.99 103.446 113.41V119.303C103.446 125.667 104.027 131.312 105.189 136.237C106.352 141.107 108.067 145.229 110.336 148.605C112.605 151.925 115.372 154.443 118.637 156.159C121.902 157.874 125.637 158.732 129.843 158.732C134.049 158.732 137.784 157.874 141.049 156.159C144.314 154.443 147.053 151.925 149.267 148.605C151.48 145.229 153.168 141.107 154.33 136.237C155.492 131.312 156.073 125.667 156.073 119.303ZM221.566 104.279V211.359H197.66V87.0132H219.823L221.566 104.279ZM278.427 130.924V132.667C278.427 139.197 277.652 145.257 276.103 150.846C274.608 156.435 272.395 161.305 269.462 165.456C266.529 169.551 262.877 172.76 258.505 175.084C254.188 177.353 249.208 178.488 243.563 178.488C238.085 178.488 233.326 177.381 229.286 175.167C225.246 172.954 221.843 169.855 219.076 165.871C216.365 161.831 214.179 157.155 212.519 151.842C210.858 146.53 209.586 140.83 208.7 134.743V130.177C209.586 123.647 210.858 117.671 212.519 112.248C214.179 106.769 216.365 102.038 219.076 98.0532C221.843 94.0135 225.219 90.8869 229.203 88.6733C233.243 86.4598 237.974 85.353 243.397 85.353C249.097 85.353 254.105 86.4321 258.422 88.5903C262.794 90.7485 266.446 93.8475 269.379 97.8872C272.367 101.927 274.608 106.741 276.103 112.331C277.652 117.92 278.427 124.118 278.427 130.924ZM254.438 132.667V130.924C254.438 127.106 254.105 123.592 253.441 120.382C252.833 117.117 251.837 114.267 250.453 111.833C249.125 109.398 247.354 107.516 245.141 106.188C242.982 104.805 240.354 104.113 237.255 104.113C233.99 104.113 231.195 104.639 228.871 105.69C226.602 106.741 224.748 108.263 223.31 110.255C221.871 112.248 220.792 114.627 220.072 117.394C219.353 120.161 218.91 123.288 218.744 126.774V138.312C219.021 142.407 219.796 146.087 221.068 149.352C222.341 152.562 224.306 155.107 226.962 156.989C229.618 158.87 233.104 159.811 237.421 159.811C240.575 159.811 243.231 159.119 245.39 157.736C247.548 156.297 249.291 154.333 250.619 151.842C252.003 149.352 252.971 146.474 253.524 143.209C254.133 139.944 254.438 136.431 254.438 132.667ZM354.379 87.0132V105.773H317.025V176.828H293.119V87.0132H354.379ZM413.148 156.574V116.564C413.148 113.686 412.678 111.224 411.737 109.176C410.797 107.073 409.33 105.441 407.338 104.279C405.401 103.117 402.883 102.536 399.784 102.536C397.128 102.536 394.831 103.006 392.895 103.947C390.958 104.832 389.464 106.133 388.412 107.848C387.361 109.508 386.835 111.473 386.835 113.742H362.929C362.929 109.923 363.814 106.299 365.585 102.868C367.356 99.4367 369.929 96.4207 373.305 93.8198C376.68 91.1636 380.692 89.0884 385.341 87.5942C390.045 86.1001 395.302 85.353 401.112 85.353C408.085 85.353 414.283 86.5151 419.706 88.8394C425.129 91.1636 429.39 94.6499 432.489 99.2983C435.644 103.947 437.221 109.757 437.221 116.73V155.163C437.221 160.088 437.525 164.127 438.134 167.282C438.743 170.381 439.628 173.092 440.79 175.417V176.828H416.635C415.473 174.393 414.587 171.349 413.979 167.697C413.425 163.989 413.148 160.281 413.148 156.574ZM416.303 122.125L416.469 135.656H403.104C399.95 135.656 397.211 136.015 394.887 136.735C392.562 137.454 390.653 138.478 389.159 139.806C387.665 141.079 386.558 142.573 385.839 144.289C385.175 146.004 384.843 147.886 384.843 149.933C384.843 151.981 385.313 153.834 386.254 155.495C387.195 157.099 388.55 158.372 390.321 159.313C392.092 160.198 394.167 160.641 396.547 160.641C400.144 160.641 403.271 159.922 405.927 158.483C408.583 157.044 410.631 155.273 412.069 153.17C413.563 151.068 414.338 149.075 414.394 147.194L420.702 157.321C419.817 159.59 418.599 161.942 417.05 164.376C415.556 166.811 413.646 169.108 411.322 171.266C408.998 173.369 406.203 175.112 402.938 176.496C399.674 177.824 395.8 178.488 391.317 178.488C385.618 178.488 380.443 177.353 375.795 175.084C371.202 172.76 367.549 169.578 364.838 165.539C362.182 161.444 360.854 156.795 360.854 151.593C360.854 146.889 361.739 142.711 363.51 139.059C365.281 135.407 367.882 132.335 371.312 129.845C374.799 127.3 379.143 125.39 384.345 124.118C389.547 122.79 395.578 122.125 402.44 122.125H416.303ZM517.157 123.288V141.881H471.503V123.288H517.157ZM479.472 87.0132V176.828H455.565V87.0132H479.472ZM533.344 87.0132V176.828H509.354V87.0132H533.344ZM575.761 143.458L605.893 87.0132H629.799V176.828H605.893V120.299L575.761 176.828H551.854V87.0132H575.761V143.458ZM688.236 133.996H670.473V123.288H683.173C686.161 123.288 688.541 122.873 690.312 122.042C692.138 121.212 693.438 120.05 694.213 118.556C695.043 117.007 695.458 115.264 695.458 113.327C695.458 111.611 695.098 109.979 694.379 108.429C693.715 106.824 692.497 105.524 690.727 104.528C689.011 103.476 686.576 102.951 683.422 102.951C680.821 102.951 678.497 103.338 676.449 104.113C674.457 104.888 672.88 106.022 671.718 107.516C670.611 108.955 670.058 110.698 670.058 112.746H646.068C646.068 107.046 647.701 102.176 650.966 98.1362C654.231 94.0412 658.603 90.9146 664.081 88.7563C669.56 86.5428 675.564 85.436 682.094 85.436C687.794 85.436 692.94 86.0171 697.533 87.1792C702.126 88.286 706.055 89.9461 709.32 92.1597C712.585 94.3732 715.076 97.1125 716.791 100.377C718.562 103.587 719.447 107.322 719.447 111.583C719.447 114.627 718.728 117.505 717.289 120.216C715.85 122.928 713.775 125.335 711.063 127.438C708.352 129.486 705.059 131.09 701.186 132.252C697.367 133.415 693.051 133.996 688.236 133.996ZM670.473 128.019H688.236C693.604 128.019 698.308 128.545 702.348 129.596C706.443 130.592 709.874 132.086 712.641 134.079C715.408 136.071 717.483 138.533 718.866 141.466C720.305 144.344 721.024 147.664 721.024 151.427C721.024 155.688 720.084 159.507 718.202 162.882C716.321 166.203 713.637 169.025 710.15 171.349C706.664 173.673 702.541 175.444 697.782 176.662C693.023 177.879 687.794 178.488 682.094 178.488C676.007 178.488 670.085 177.492 664.33 175.5C658.575 173.507 653.843 170.436 650.136 166.286C646.483 162.135 644.657 156.795 644.657 150.265H668.646C668.646 152.147 669.2 153.917 670.307 155.578C671.413 157.238 673.074 158.566 675.287 159.562C677.501 160.503 680.24 160.973 683.505 160.973C686.77 160.973 689.398 160.447 691.391 159.396C693.383 158.345 694.822 156.961 695.707 155.246C696.648 153.475 697.118 151.649 697.118 149.767C697.118 147.111 696.592 144.953 695.541 143.292C694.545 141.632 692.995 140.415 690.893 139.64C688.845 138.865 686.272 138.478 683.173 138.478H670.473V128.019ZM762.362 166.701L786.186 87.0132H811.835L775.727 190.358C774.952 192.627 773.9 195.062 772.572 197.663C771.299 200.264 769.556 202.726 767.343 205.05C765.185 207.43 762.445 209.367 759.125 210.861C755.86 212.355 751.848 213.102 747.089 213.102C744.82 213.102 742.966 212.964 741.527 212.687C740.089 212.41 738.373 212.023 736.381 211.525V194.01C736.99 194.01 737.626 194.01 738.29 194.01C738.954 194.066 739.59 194.093 740.199 194.093C743.354 194.093 745.927 193.734 747.919 193.014C749.911 192.295 751.516 191.188 752.733 189.694C753.951 188.255 754.919 186.374 755.639 184.049L762.362 166.701ZM752.401 87.0132L771.908 152.091L775.312 177.409L759.042 179.152L726.752 87.0132H752.401ZM845.204 143.458L875.336 87.0132H899.242V176.828H875.336V120.299L845.204 176.828H821.298V87.0132H845.204V143.458ZM872.597 50.9048H889.613C889.613 55.6639 888.424 59.8973 886.044 63.605C883.72 67.2573 880.399 70.1349 876.083 72.2378C871.767 74.2853 866.675 75.3091 860.81 75.3091C851.9 75.3091 844.844 73.0402 839.643 68.5024C834.496 63.9647 831.923 58.0988 831.923 50.9048H848.856C848.856 53.7824 849.742 56.3556 851.513 58.6245C853.339 60.8934 856.438 62.0278 860.81 62.0278C865.126 62.0278 868.17 60.8934 869.94 58.6245C871.711 56.3556 872.597 53.7824 872.597 50.9048ZM997.108 159.811C1000.04 159.811 1002.64 159.258 1004.91 158.151C1007.18 156.989 1008.95 155.384 1010.22 153.336C1011.55 151.234 1012.24 148.771 1012.3 145.949H1034.79C1034.74 152.257 1033.05 157.874 1029.73 162.799C1026.41 167.669 1021.96 171.515 1016.37 174.337C1010.78 177.104 1004.52 178.488 997.606 178.488C990.634 178.488 984.547 177.326 979.345 175.001C974.198 172.677 969.91 169.468 966.479 165.373C963.048 161.222 960.474 156.408 958.759 150.929C957.043 145.395 956.186 139.474 956.186 133.166V130.758C956.186 124.394 957.043 118.473 958.759 112.995C960.474 107.461 963.048 102.646 966.479 98.5513C969.91 94.4009 974.198 91.1636 979.345 88.8394C984.491 86.5151 990.523 85.353 997.44 85.353C1004.8 85.353 1011.25 86.7642 1016.78 89.5864C1022.37 92.4087 1026.74 96.4484 1029.9 101.706C1033.11 106.907 1034.74 113.078 1034.79 120.216H1012.3C1012.24 117.228 1011.61 114.516 1010.39 112.082C1009.23 109.647 1007.51 107.71 1005.24 106.271C1003.03 104.777 1000.29 104.03 997.025 104.03C993.539 104.03 990.689 104.777 988.476 106.271C986.262 107.71 984.547 109.702 983.329 112.248C982.112 114.738 981.254 117.588 980.756 120.797C980.313 123.952 980.092 127.272 980.092 130.758V133.166C980.092 136.652 980.313 140 980.756 143.209C981.199 146.419 982.029 149.269 983.246 151.759C984.519 154.25 986.262 156.214 988.476 157.653C990.689 159.092 993.567 159.811 997.108 159.811ZM1093.4 139.308H1065.26L1065.09 123.62H1088.33C1091.43 123.62 1093.95 123.315 1095.89 122.707C1097.82 122.042 1099.24 121.074 1100.12 119.801C1101.06 118.473 1101.53 116.868 1101.53 114.987C1101.53 113.327 1101.23 111.916 1100.62 110.753C1100.07 109.536 1099.21 108.54 1098.05 107.765C1096.88 106.99 1095.42 106.437 1093.65 106.105C1091.93 105.718 1089.91 105.524 1087.59 105.524H1074.14V176.828H1050.23V87.0132H1087.59C1093.45 87.0132 1098.71 87.5389 1103.36 88.5903C1108.01 89.5864 1111.96 91.1082 1115.23 93.1558C1118.55 95.2033 1121.07 97.8042 1122.78 100.958C1124.55 104.057 1125.44 107.737 1125.44 111.999C1125.44 114.765 1124.8 117.366 1123.53 119.801C1122.31 122.236 1120.49 124.394 1118.05 126.276C1115.62 128.157 1112.6 129.707 1109 130.924C1105.46 132.086 1101.37 132.806 1096.72 133.083L1093.4 139.308ZM1093.4 176.828H1059.36L1067.58 158.317H1093.4C1096.33 158.317 1098.74 157.957 1100.62 157.238C1102.5 156.518 1103.88 155.467 1104.77 154.083C1105.71 152.645 1106.18 150.929 1106.18 148.937C1106.18 147 1105.77 145.312 1104.94 143.874C1104.11 142.435 1102.75 141.328 1100.87 140.553C1099.04 139.723 1096.55 139.308 1093.4 139.308H1071.07L1071.23 123.62H1096.63L1102.45 129.928C1108.75 130.316 1113.96 131.505 1118.05 133.498C1122.15 135.49 1125.16 138.035 1127.1 141.134C1129.09 144.178 1130.09 147.526 1130.09 151.178C1130.09 155.439 1129.28 159.175 1127.68 162.384C1126.07 165.594 1123.7 168.278 1120.54 170.436C1117.44 172.539 1113.62 174.144 1109.09 175.25C1104.55 176.302 1099.32 176.828 1093.4 176.828ZM1140.96 132.833V131.09C1140.96 124.505 1141.9 118.445 1143.78 112.912C1145.66 107.322 1148.4 102.48 1152 98.3853C1155.6 94.2902 1160.03 91.1082 1165.28 88.8394C1170.54 86.5151 1176.57 85.353 1183.38 85.353C1190.18 85.353 1196.24 86.5151 1201.56 88.8394C1206.87 91.1082 1211.32 94.2902 1214.92 98.3853C1218.57 102.48 1221.34 107.322 1223.22 112.912C1225.1 118.445 1226.04 124.505 1226.04 131.09V132.833C1226.04 139.363 1225.1 145.423 1223.22 151.012C1221.34 156.546 1218.57 161.388 1214.92 165.539C1211.32 169.634 1206.9 172.816 1201.64 175.084C1196.38 177.353 1190.35 178.488 1183.54 178.488C1176.74 178.488 1170.68 177.353 1165.37 175.084C1160.11 172.816 1155.65 169.634 1152 165.539C1148.4 161.388 1145.66 156.546 1143.78 151.012C1141.9 145.423 1140.96 139.363 1140.96 132.833ZM1164.87 131.09V132.833C1164.87 136.597 1165.2 140.111 1165.86 143.375C1166.53 146.64 1167.58 149.518 1169.02 152.008C1170.51 154.443 1172.45 156.352 1174.83 157.736C1177.21 159.119 1180.11 159.811 1183.54 159.811C1186.86 159.811 1189.71 159.119 1192.09 157.736C1194.47 156.352 1196.38 154.443 1197.82 152.008C1199.26 149.518 1200.31 146.64 1200.98 143.375C1201.69 140.111 1202.05 136.597 1202.05 132.833V131.09C1202.05 127.438 1201.69 124.007 1200.98 120.797C1200.31 117.532 1199.23 114.655 1197.74 112.165C1196.3 109.619 1194.39 107.627 1192.01 106.188C1189.63 104.749 1186.75 104.03 1183.38 104.03C1180 104.03 1177.12 104.749 1174.75 106.188C1172.42 107.627 1170.51 109.619 1169.02 112.165C1167.58 114.655 1166.53 117.532 1165.86 120.797C1165.2 124.007 1164.87 127.438 1164.87 131.09ZM1282.07 178.488C1275.1 178.488 1268.85 177.381 1263.31 175.167C1257.78 172.899 1253.08 169.772 1249.2 165.788C1245.38 161.803 1242.45 157.182 1240.4 151.925C1238.36 146.613 1237.33 140.968 1237.33 134.992V131.671C1237.33 124.865 1238.3 118.639 1240.24 112.995C1242.18 107.35 1244.94 102.453 1248.54 98.3022C1252.19 94.1519 1256.62 90.9699 1261.82 88.7563C1267.02 86.4875 1272.89 85.353 1279.42 85.353C1285.78 85.353 1291.43 86.4045 1296.35 88.5073C1301.28 90.6102 1305.4 93.5985 1308.72 97.4722C1312.1 101.346 1314.64 105.994 1316.36 111.417C1318.07 116.785 1318.93 122.762 1318.93 129.347V139.308H1247.54V123.371H1295.44V121.544C1295.44 118.224 1294.83 115.264 1293.61 112.663C1292.45 110.006 1290.68 107.903 1288.3 106.354C1285.92 104.805 1282.88 104.03 1279.17 104.03C1276.01 104.03 1273.3 104.722 1271.03 106.105C1268.77 107.488 1266.91 109.425 1265.47 111.916C1264.09 114.406 1263.04 117.339 1262.32 120.714C1261.65 124.035 1261.32 127.687 1261.32 131.671V134.992C1261.32 138.589 1261.82 141.909 1262.82 144.953C1263.87 147.996 1265.33 150.625 1267.22 152.838C1269.15 155.052 1271.48 156.767 1274.19 157.985C1276.96 159.202 1280.08 159.811 1283.57 159.811C1287.88 159.811 1291.9 158.981 1295.6 157.321C1299.37 155.605 1302.6 153.032 1305.32 149.601L1316.94 162.218C1315.06 164.93 1312.48 167.531 1309.22 170.021C1306.01 172.511 1302.13 174.559 1297.6 176.164C1293.06 177.713 1287.88 178.488 1282.07 178.488ZM135.072 295.352L158.646 233.013H178.153L143.124 322.828H127.021L92.1572 233.013H111.664L135.072 295.352ZM105.937 233.013V322.828H82.0303V233.013H105.937ZM164.789 322.828V233.013H188.695V322.828H164.789ZM250.951 324.488C243.979 324.488 237.725 323.381 232.191 321.167C226.658 318.899 221.954 315.772 218.08 311.788C214.262 307.803 211.329 303.182 209.281 297.925C207.234 292.613 206.21 286.968 206.21 280.992V277.671C206.21 270.865 207.178 264.639 209.115 258.995C211.052 253.35 213.819 248.453 217.416 244.302C221.068 240.152 225.495 236.97 230.697 234.756C235.899 232.487 241.765 231.353 248.295 231.353C254.659 231.353 260.303 232.404 265.229 234.507C270.154 236.61 274.276 239.598 277.597 243.472C280.972 247.346 283.518 251.994 285.233 257.417C286.949 262.785 287.807 268.762 287.807 275.347V285.308H216.42V269.371H264.315V267.544C264.315 264.224 263.707 261.264 262.489 258.663C261.327 256.006 259.556 253.903 257.177 252.354C254.797 250.805 251.754 250.03 248.046 250.03C244.892 250.03 242.18 250.722 239.911 252.105C237.642 253.488 235.788 255.425 234.35 257.916C232.966 260.406 231.915 263.339 231.195 266.714C230.531 270.035 230.199 273.687 230.199 277.671V280.992C230.199 284.589 230.697 287.909 231.693 290.953C232.745 293.996 234.211 296.625 236.093 298.838C238.03 301.052 240.354 302.767 243.065 303.985C245.832 305.202 248.959 305.811 252.445 305.811C256.762 305.811 260.774 304.981 264.481 303.321C268.244 301.605 271.482 299.032 274.193 295.601L285.814 308.218C283.933 310.93 281.36 313.531 278.095 316.021C274.885 318.511 271.011 320.559 266.474 322.164C261.936 323.713 256.762 324.488 250.951 324.488ZM325.326 250.279V357.359H301.42V233.013H323.583L325.326 250.279ZM382.187 276.924V278.667C382.187 285.197 381.412 291.257 379.862 296.846C378.368 302.435 376.155 307.305 373.222 311.456C370.289 315.551 366.636 318.76 362.265 321.084C357.948 323.353 352.968 324.488 347.323 324.488C341.845 324.488 337.086 323.381 333.046 321.167C329.006 318.954 325.603 315.855 322.836 311.871C320.124 307.831 317.938 303.155 316.278 297.842C314.618 292.53 313.345 286.83 312.46 280.743V276.177C313.345 269.647 314.618 263.671 316.278 258.248C317.938 252.769 320.124 248.038 322.836 244.053C325.603 240.014 328.979 236.887 332.963 234.673C337.003 232.46 341.734 231.353 347.157 231.353C352.857 231.353 357.865 232.432 362.182 234.59C366.553 236.749 370.206 239.847 373.139 243.887C376.127 247.927 378.368 252.741 379.862 258.331C381.412 263.92 382.187 270.118 382.187 276.924ZM358.197 278.667V276.924C358.197 273.106 357.865 269.592 357.201 266.382C356.592 263.117 355.596 260.267 354.213 257.833C352.885 255.398 351.114 253.516 348.9 252.188C346.742 250.805 344.114 250.113 341.015 250.113C337.75 250.113 334.955 250.639 332.631 251.69C330.362 252.741 328.508 254.263 327.069 256.255C325.631 258.248 324.551 260.627 323.832 263.394C323.113 266.161 322.67 269.288 322.504 272.774V284.312C322.781 288.407 323.555 292.087 324.828 295.352C326.101 298.562 328.065 301.107 330.722 302.989C333.378 304.87 336.864 305.811 341.181 305.811C344.335 305.811 346.991 305.119 349.149 303.736C351.308 302.297 353.051 300.333 354.379 297.842C355.762 295.352 356.731 292.474 357.284 289.209C357.893 285.944 358.197 282.431 358.197 278.667ZM393.227 278.833V277.09C393.227 270.505 394.167 264.445 396.049 258.912C397.93 253.322 400.67 248.48 404.267 244.385C407.864 240.29 412.291 237.108 417.548 234.839C422.805 232.515 428.837 231.353 435.644 231.353C442.45 231.353 448.51 232.515 453.822 234.839C459.135 237.108 463.59 240.29 467.187 244.385C470.839 248.48 473.606 253.322 475.487 258.912C477.369 264.445 478.31 270.505 478.31 277.09V278.833C478.31 285.363 477.369 291.423 475.487 297.012C473.606 302.546 470.839 307.388 467.187 311.539C463.59 315.634 459.162 318.816 453.905 321.084C448.648 323.353 442.616 324.488 435.81 324.488C429.003 324.488 422.943 323.353 417.631 321.084C412.374 318.816 407.919 315.634 404.267 311.539C400.67 307.388 397.93 302.546 396.049 297.012C394.167 291.423 393.227 285.363 393.227 278.833ZM417.133 277.09V278.833C417.133 282.597 417.465 286.111 418.129 289.375C418.793 292.64 419.844 295.518 421.283 298.008C422.777 300.443 424.714 302.352 427.094 303.736C429.473 305.119 432.379 305.811 435.81 305.811C439.13 305.811 441.98 305.119 444.359 303.736C446.739 302.352 448.648 300.443 450.087 298.008C451.526 295.518 452.577 292.64 453.241 289.375C453.961 286.111 454.32 282.597 454.32 278.833V277.09C454.32 273.438 453.961 270.007 453.241 266.797C452.577 263.532 451.498 260.655 450.004 258.165C448.565 255.619 446.656 253.627 444.276 252.188C441.897 250.749 439.019 250.03 435.644 250.03C432.268 250.03 429.39 250.749 427.011 252.188C424.687 253.627 422.777 255.619 421.283 258.165C419.844 260.655 418.793 263.532 418.129 266.797C417.465 270.007 417.133 273.438 417.133 277.09ZM553.432 233.013V251.773H509.936V233.013H553.432ZM516.825 233.013V322.828H492.919V233.013H516.825ZM570.863 233.013V322.828H546.874V233.013H570.863ZM613.197 250.279V357.359H589.291V233.013H611.454L613.197 250.279ZM670.058 276.924V278.667C670.058 285.197 669.283 291.257 667.733 296.846C666.239 302.435 664.026 307.305 661.093 311.456C658.16 315.551 654.507 318.76 650.136 321.084C645.819 323.353 640.839 324.488 635.194 324.488C629.716 324.488 624.957 323.381 620.917 321.167C616.877 318.954 613.474 315.855 610.707 311.871C607.995 307.831 605.81 303.155 604.149 297.842C602.489 292.53 601.216 286.83 600.331 280.743V276.177C601.216 269.647 602.489 263.671 604.149 258.248C605.81 252.769 607.995 248.038 610.707 244.053C613.474 240.014 616.85 236.887 620.834 234.673C624.874 232.46 629.605 231.353 635.028 231.353C640.728 231.353 645.736 232.432 650.053 234.59C654.424 236.749 658.077 239.847 661.01 243.887C663.998 247.927 666.239 252.741 667.733 258.331C669.283 263.92 670.058 270.118 670.058 276.924ZM646.068 278.667V276.924C646.068 273.106 645.736 269.592 645.072 266.382C644.464 263.117 643.467 260.267 642.084 257.833C640.756 255.398 638.985 253.516 636.771 252.188C634.613 250.805 631.985 250.113 628.886 250.113C625.621 250.113 622.826 250.639 620.502 251.69C618.233 252.741 616.379 254.263 614.94 256.255C613.502 258.248 612.423 260.627 611.703 263.394C610.984 266.161 610.541 269.288 610.375 272.774V284.312C610.652 288.407 611.426 292.087 612.699 295.352C613.972 298.562 615.937 301.107 618.593 302.989C621.249 304.87 624.735 305.811 629.052 305.811C632.206 305.811 634.862 305.119 637.021 303.736C639.179 302.297 640.922 300.333 642.25 297.842C643.633 295.352 644.602 292.474 645.155 289.209C645.764 285.944 646.068 282.431 646.068 278.667ZM708.739 289.458L738.871 233.013H762.777V322.828H738.871V266.299L708.739 322.828H684.833V233.013H708.739V289.458ZM800.546 278.003H824.784L799.799 322.828H775.644L800.546 278.003ZM816.649 233.013H856.078V322.828H832.172V251.524H816.649C813.384 251.524 810.673 252.133 808.515 253.35C806.356 254.512 804.752 256.034 803.7 257.916C802.704 259.742 802.206 261.623 802.206 263.56C802.206 265.442 802.704 267.268 803.7 269.039C804.696 270.809 806.246 272.276 808.349 273.438C810.451 274.6 813.08 275.181 816.234 275.181H841.054V291.451H816.234C810.313 291.451 805.001 290.731 800.297 289.292C795.648 287.854 791.664 285.861 788.344 283.316C785.079 280.715 782.561 277.699 780.79 274.268C779.075 270.782 778.217 266.963 778.217 262.813C778.217 258.497 779.102 254.54 780.873 250.943C782.644 247.346 785.189 244.192 788.51 241.48C791.83 238.768 795.842 236.693 800.546 235.254C805.305 233.76 810.673 233.013 816.649 233.013ZM922.069 233.013V322.828H898.08V233.013H922.069ZM950.956 233.013V251.524H869.608V233.013H950.956ZM986.981 289.458L1017.11 233.013H1041.02V322.828H1017.11V266.299L986.981 322.828H963.075V233.013H986.981V289.458ZM1100.79 324.488C1093.81 324.488 1087.56 323.381 1082.03 321.167C1076.49 318.899 1071.79 315.772 1067.91 311.788C1064.1 307.803 1061.16 303.182 1059.12 297.925C1057.07 292.613 1056.04 286.968 1056.04 280.992V277.671C1056.04 270.865 1057.01 264.639 1058.95 258.995C1060.89 253.35 1063.65 248.453 1067.25 244.302C1070.9 240.152 1075.33 236.97 1080.53 234.756C1085.73 232.487 1091.6 231.353 1098.13 231.353C1104.49 231.353 1110.14 232.404 1115.06 234.507C1119.99 236.61 1124.11 239.598 1127.43 243.472C1130.81 247.346 1133.35 251.994 1135.07 257.417C1136.78 262.785 1137.64 268.762 1137.64 275.347V285.308H1066.25V269.371H1114.15V267.544C1114.15 264.224 1113.54 261.264 1112.32 258.663C1111.16 256.006 1109.39 253.903 1107.01 252.354C1104.63 250.805 1101.59 250.03 1097.88 250.03C1094.73 250.03 1092.01 250.722 1089.75 252.105C1087.48 253.488 1085.62 255.425 1084.18 257.916C1082.8 260.406 1081.75 263.339 1081.03 266.714C1080.37 270.035 1080.03 273.687 1080.03 277.671V280.992C1080.03 284.589 1080.53 287.909 1081.53 290.953C1082.58 293.996 1084.05 296.625 1085.93 298.838C1087.86 301.052 1090.19 302.767 1092.9 303.985C1095.67 305.202 1098.79 305.811 1102.28 305.811C1106.6 305.811 1110.61 304.981 1114.32 303.321C1118.08 301.605 1121.32 299.032 1124.03 295.601L1135.65 308.218C1133.77 310.93 1131.19 313.531 1127.93 316.021C1124.72 318.511 1120.85 320.559 1116.31 322.164C1111.77 323.713 1106.6 324.488 1100.79 324.488Z" fill="white"/>
<path d="M1475.31 523.768L1520.26 495.378L1584.13 532.048L1594.78 576.996C1537.06 607.277 1481.62 585.67 1461.12 571.082L1475.31 523.768Z" fill="#E6E7E9"/>
<path fill-rule="evenodd" clip-rule="evenodd" d="M1444.47 169.187C1444.47 169.186 1444.47 169.187 1453.88 165.637C1463.3 162.086 1463.3 162.089 1463.3 162.092L1463.37 162.289L1463.58 162.847C1463.76 163.336 1464.03 164.057 1464.37 164.999C1465.06 166.884 1466.07 169.654 1467.33 173.224C1469.86 180.362 1473.44 190.7 1477.63 203.548C1486.03 229.235 1496.92 265.002 1506.94 305.32C1526.85 385.446 1543.79 485.397 1529.28 559.728L1509.53 555.873C1523.11 486.278 1507.29 390.148 1487.41 310.173C1477.54 270.44 1466.79 235.152 1458.51 209.797C1454.37 197.124 1450.85 186.944 1448.37 179.945C1447.13 176.445 1446.15 173.742 1445.48 171.92C1445.15 171.009 1444.89 170.318 1444.72 169.859L1444.53 169.346L1444.47 169.187Z" fill="#E6E7E9"/>
<path d="M1467.14 173.173C1557 54.9081 1671.72 197.413 1766.92 86.5337C1766.92 86.5337 1736.14 319.181 1618.23 296.456C1524.68 278.434 1516.03 344.052 1516.03 344.052L1467.14 173.173Z" fill="#FF9900"/>
<path d="M1543.3 179.579L1550 221.399L1589.99 192.424L1637.05 207.48L1630.32 165.628L1543.3 179.579Z" fill="white"/>
<path d="M1553.68 244.506L1593.86 216.636L1640.73 230.587L1600.59 258.551L1553.68 244.506Z" fill="white"/>
<path opacity="0.14" d="M1553.14 123.313L1637.45 297.98C1656.13 297.159 1672.29 289.584 1686.24 277.748L1664.31 131.993C1627.13 131.141 1589.38 120.283 1553.14 123.313Z" fill="#2F00FF"/>
<path opacity="0.14" d="M1548.83 535.971L1555.29 590.474C1571.67 586.812 1587.12 582.475 1594.5 576.687L1584.09 531.996L1534.67 503.653C1537.1 446.742 1527.25 354.19 1463.23 162.092L1452.25 166.149C1505.41 319.167 1524.65 394.332 1526.76 502.124L1548.83 535.971Z" fill="#212C8E"/>
<path d="M74.679 486.378V457.288H92.2358V460.413H78.2017V470.242H91.3267V473.367H78.2017V483.253H92.4631V486.378H74.679ZM106.994 486.833C104.949 486.833 103.188 486.35 101.71 485.384C100.233 484.418 99.0966 483.088 98.3011 481.393C97.5057 479.698 97.108 477.761 97.108 475.583C97.108 473.367 97.5152 471.412 98.3295 469.716C99.1534 468.012 100.299 466.681 101.767 465.725C103.244 464.759 104.968 464.276 106.938 464.276C108.472 464.276 109.854 464.56 111.085 465.128C112.316 465.697 113.325 466.492 114.111 467.515C114.897 468.538 115.384 469.731 115.574 471.094H112.222C111.966 470.1 111.398 469.219 110.517 468.452C109.646 467.676 108.472 467.288 106.994 467.288C105.688 467.288 104.542 467.628 103.557 468.31C102.581 468.983 101.819 469.934 101.27 471.165C100.73 472.387 100.46 473.822 100.46 475.469C100.46 477.155 100.725 478.623 101.256 479.873C101.795 481.123 102.553 482.093 103.528 482.785C104.513 483.476 105.669 483.822 106.994 483.822C107.866 483.822 108.656 483.67 109.366 483.367C110.077 483.064 110.678 482.628 111.17 482.06C111.663 481.492 112.013 480.81 112.222 480.015H115.574C115.384 481.303 114.916 482.463 114.168 483.495C113.429 484.518 112.449 485.332 111.227 485.938C110.015 486.535 108.604 486.833 106.994 486.833ZM118.543 486.378V483.253H119.338C119.991 483.253 120.536 483.126 120.972 482.87C121.407 482.605 121.758 482.145 122.023 481.492C122.297 480.829 122.506 479.911 122.648 478.736C122.799 477.553 122.908 476.047 122.974 474.219L123.372 464.56H137.918V486.378H134.565V467.685H126.554L126.213 475.469C126.137 477.259 125.976 478.836 125.73 480.199C125.493 481.554 125.129 482.69 124.636 483.609C124.153 484.527 123.509 485.218 122.705 485.682C121.9 486.146 120.891 486.378 119.679 486.378H118.543ZM147.42 481.435L157.932 464.56H161.795V486.378H158.443V469.503L147.989 486.378H144.068V464.56H147.42V481.435ZM193.788 473.935V477.06H181.742V473.935H193.788ZM182.538 464.56V486.378H179.185V464.56H182.538ZM196.344 464.56V486.378H192.992V464.56H196.344ZM211.614 486.833C209.512 486.833 207.699 486.369 206.174 485.441C204.659 484.503 203.489 483.197 202.665 481.52C201.851 479.835 201.444 477.875 201.444 475.64C201.444 473.405 201.851 471.435 202.665 469.731C203.489 468.017 204.635 466.681 206.103 465.725C207.58 464.759 209.304 464.276 211.273 464.276C212.41 464.276 213.532 464.466 214.64 464.844C215.748 465.223 216.756 465.839 217.665 466.691C218.575 467.534 219.299 468.651 219.839 470.043C220.379 471.435 220.648 473.149 220.648 475.185V476.606H203.83V473.708H217.239C217.239 472.477 216.993 471.378 216.501 470.413C216.018 469.447 215.326 468.684 214.427 468.126C213.537 467.567 212.486 467.288 211.273 467.288C209.938 467.288 208.783 467.619 207.808 468.282C206.842 468.935 206.098 469.788 205.577 470.839C205.057 471.89 204.796 473.017 204.796 474.219V476.151C204.796 477.799 205.08 479.196 205.648 480.341C206.226 481.478 207.026 482.344 208.049 482.941C209.072 483.528 210.26 483.822 211.614 483.822C212.495 483.822 213.29 483.698 214.001 483.452C214.72 483.197 215.341 482.818 215.862 482.316C216.382 481.805 216.785 481.17 217.069 480.413L220.308 481.322C219.967 482.42 219.394 483.386 218.589 484.219C217.784 485.043 216.79 485.687 215.606 486.151C214.422 486.606 213.092 486.833 211.614 486.833ZM223.717 467.685V464.56H241.444V467.685H234.285V486.378H230.933V467.685H223.717ZM269.516 481.833L277.129 464.56H280.311L270.879 486.378H268.152L258.891 464.56H262.016L269.516 481.833ZM260.936 464.56V486.378H257.584V464.56H260.936ZM278.095 486.378V464.56H281.447V486.378H278.095ZM296.732 486.833C294.629 486.833 292.816 486.369 291.291 485.441C289.776 484.503 288.607 483.197 287.783 481.52C286.968 479.835 286.561 477.875 286.561 475.64C286.561 473.405 286.968 471.435 287.783 469.731C288.607 468.017 289.752 466.681 291.22 465.725C292.697 464.759 294.421 464.276 296.391 464.276C297.527 464.276 298.649 464.466 299.757 464.844C300.865 465.223 301.874 465.839 302.783 466.691C303.692 467.534 304.416 468.651 304.956 470.043C305.496 471.435 305.766 473.149 305.766 475.185V476.606H288.947V473.708H302.357C302.357 472.477 302.11 471.378 301.618 470.413C301.135 469.447 300.444 468.684 299.544 468.126C298.654 467.567 297.603 467.288 296.391 467.288C295.055 467.288 293.9 467.619 292.925 468.282C291.959 468.935 291.215 469.788 290.695 470.839C290.174 471.89 289.913 473.017 289.913 474.219V476.151C289.913 477.799 290.197 479.196 290.766 480.341C291.343 481.478 292.143 482.344 293.166 482.941C294.189 483.528 295.377 483.822 296.732 483.822C297.612 483.822 298.408 483.698 299.118 483.452C299.838 483.197 300.458 482.818 300.979 482.316C301.5 481.805 301.902 481.17 302.186 480.413L305.425 481.322C305.084 482.42 304.511 483.386 303.706 484.219C302.901 485.043 301.907 485.687 300.723 486.151C299.539 486.606 298.209 486.833 296.732 486.833ZM310.865 494.56V464.56H314.104V468.026H314.501C314.748 467.647 315.089 467.164 315.524 466.577C315.969 465.981 316.604 465.45 317.428 464.986C318.261 464.513 319.388 464.276 320.808 464.276C322.645 464.276 324.265 464.735 325.666 465.654C327.068 466.573 328.161 467.875 328.947 469.56C329.733 471.246 330.126 473.234 330.126 475.526C330.126 477.837 329.733 479.84 328.947 481.535C328.161 483.22 327.072 484.527 325.68 485.455C324.288 486.374 322.683 486.833 320.865 486.833C319.464 486.833 318.341 486.601 317.499 486.137C316.656 485.663 316.007 485.128 315.553 484.532C315.098 483.926 314.748 483.424 314.501 483.026H314.217V494.56H310.865ZM314.161 475.469C314.161 477.117 314.402 478.571 314.885 479.83C315.368 481.08 316.073 482.06 317.001 482.77C317.929 483.471 319.066 483.822 320.411 483.822C321.812 483.822 322.982 483.452 323.919 482.714C324.866 481.966 325.576 480.962 326.05 479.702C326.533 478.433 326.774 477.022 326.774 475.469C326.774 473.935 326.537 472.553 326.064 471.322C325.6 470.081 324.894 469.101 323.947 468.381C323.01 467.652 321.831 467.288 320.411 467.288C319.047 467.288 317.901 467.633 316.973 468.324C316.045 469.006 315.344 469.963 314.871 471.194C314.397 472.415 314.161 473.841 314.161 475.469ZM344.104 486.833C342.134 486.833 340.406 486.364 338.919 485.427C337.442 484.489 336.286 483.178 335.453 481.492C334.629 479.806 334.217 477.837 334.217 475.583C334.217 473.31 334.629 471.326 335.453 469.631C336.286 467.936 337.442 466.62 338.919 465.682C340.406 464.745 342.134 464.276 344.104 464.276C346.073 464.276 347.797 464.745 349.274 465.682C350.761 466.62 351.916 467.936 352.74 469.631C353.573 471.326 353.99 473.31 353.99 475.583C353.99 477.837 353.573 479.806 352.74 481.492C351.916 483.178 350.761 484.489 349.274 485.427C347.797 486.364 346.073 486.833 344.104 486.833ZM344.104 483.822C345.6 483.822 346.831 483.438 347.797 482.671C348.763 481.904 349.478 480.895 349.942 479.645C350.406 478.395 350.638 477.041 350.638 475.583C350.638 474.125 350.406 472.766 349.942 471.506C349.478 470.247 348.763 469.229 347.797 468.452C346.831 467.676 345.6 467.288 344.104 467.288C342.607 467.288 341.376 467.676 340.411 468.452C339.445 469.229 338.73 470.247 338.266 471.506C337.802 472.766 337.57 474.125 337.57 475.583C337.57 477.041 337.802 478.395 338.266 479.645C338.73 480.895 339.445 481.904 340.411 482.671C341.376 483.438 342.607 483.822 344.104 483.822ZM359.107 486.378V464.56H376.266V486.378H372.914V467.685H362.46V486.378H359.107ZM382.388 494.56V464.56H385.627V468.026H386.025C386.271 467.647 386.612 467.164 387.048 466.577C387.493 465.981 388.127 465.45 388.951 464.986C389.784 464.513 390.911 464.276 392.332 464.276C394.169 464.276 395.788 464.735 397.19 465.654C398.591 466.573 399.685 467.875 400.471 469.56C401.257 471.246 401.65 473.234 401.65 475.526C401.65 477.837 401.257 479.84 400.471 481.535C399.685 483.22 398.596 484.527 397.204 485.455C395.812 486.374 394.207 486.833 392.388 486.833C390.987 486.833 389.865 486.601 389.022 486.137C388.179 485.663 387.531 485.128 387.076 484.532C386.621 483.926 386.271 483.424 386.025 483.026H385.741V494.56H382.388ZM385.684 475.469C385.684 477.117 385.925 478.571 386.408 479.83C386.891 481.08 387.597 482.06 388.525 482.77C389.453 483.471 390.589 483.822 391.934 483.822C393.335 483.822 394.505 483.452 395.442 482.714C396.389 481.966 397.1 480.962 397.573 479.702C398.056 478.433 398.298 477.022 398.298 475.469C398.298 473.935 398.061 472.553 397.587 471.322C397.123 470.081 396.418 469.101 395.471 468.381C394.533 467.652 393.354 467.288 391.934 467.288C390.57 467.288 389.424 467.633 388.496 468.324C387.568 469.006 386.868 469.963 386.394 471.194C385.921 472.415 385.684 473.841 385.684 475.469ZM410.116 481.435L420.627 464.56H424.491V486.378H421.138V469.503L410.684 486.378H406.763V464.56H410.116V481.435ZM443.756 486.378V467.628H437.96C436.653 467.628 435.626 467.931 434.878 468.538C434.13 469.144 433.756 469.977 433.756 471.038C433.756 472.079 434.092 472.898 434.764 473.495C435.446 474.091 436.379 474.39 437.562 474.39H444.608V477.515H437.562C436.085 477.515 434.812 477.254 433.741 476.734C432.671 476.213 431.848 475.469 431.27 474.503C430.692 473.528 430.403 472.373 430.403 471.038C430.403 469.693 430.706 468.538 431.312 467.572C431.919 466.606 432.785 465.862 433.912 465.341C435.048 464.821 436.398 464.56 437.96 464.56H446.938V486.378H443.756ZM429.21 486.378L435.403 475.526H439.04L432.847 486.378H429.21ZM450.123 467.685V464.56H467.85V467.685H460.691V486.378H457.339V467.685H450.123ZM476.092 481.435L486.604 464.56H490.467V486.378H487.115V469.503L476.661 486.378H472.74V464.56H476.092V481.435ZM509.732 486.378V467.628H503.937C502.63 467.628 501.603 467.931 500.854 468.538C500.106 469.144 499.732 469.977 499.732 471.038C499.732 472.079 500.068 472.898 500.741 473.495C501.423 474.091 502.355 474.39 503.539 474.39H510.585V477.515H503.539C502.062 477.515 500.788 477.254 499.718 476.734C498.648 476.213 497.824 475.469 497.246 474.503C496.669 473.528 496.38 472.373 496.38 471.038C496.38 469.693 496.683 468.538 497.289 467.572C497.895 466.606 498.762 465.862 499.888 465.341C501.025 464.821 502.374 464.56 503.937 464.56H512.914V486.378H509.732ZM495.187 486.378L501.38 475.526H505.016L498.823 486.378H495.187ZM524.068 482.401L523.841 483.935C523.68 485.015 523.434 486.17 523.102 487.401C522.78 488.632 522.444 489.792 522.094 490.881C521.743 491.97 521.455 492.837 521.227 493.481H518.67C518.794 492.875 518.955 492.074 519.153 491.08C519.352 490.086 519.551 488.973 519.75 487.742C519.958 486.52 520.129 485.27 520.261 483.992L520.432 482.401H524.068ZM74.2244 534.378V512.56H83.1449C85.4934 512.56 87.3589 513.091 88.7415 514.151C90.1241 515.212 90.8153 516.613 90.8153 518.356C90.8153 519.681 90.4223 520.709 89.6364 521.438C88.8504 522.158 87.8419 522.645 86.6108 522.901C87.4157 523.015 88.197 523.299 88.9545 523.753C89.7216 524.208 90.3561 524.833 90.858 525.628C91.3598 526.414 91.6108 527.38 91.6108 528.526C91.6108 529.644 91.3267 530.643 90.7585 531.523C90.1903 532.404 89.3759 533.1 88.3153 533.611C87.2547 534.123 85.9858 534.378 84.5085 534.378H74.2244ZM77.4062 531.31H84.5085C85.6638 531.31 86.5682 531.036 87.2216 530.486C87.875 529.937 88.2017 529.189 88.2017 528.242C88.2017 527.115 87.875 526.23 87.2216 525.586C86.5682 524.932 85.6638 524.606 84.5085 524.606H77.4062V531.31ZM77.4062 521.708H83.1449C84.0445 521.708 84.8163 521.585 85.4602 521.339C86.1042 521.083 86.5966 520.723 86.9375 520.259C87.2879 519.786 87.4631 519.227 87.4631 518.583C87.4631 517.664 87.0795 516.945 86.3125 516.424C85.5455 515.894 84.4896 515.628 83.1449 515.628H77.4062V521.708ZM107.935 534.378V512.56H111.288V522.049H113.504L121.344 512.56H125.663L116.856 523.072L125.776 534.378H121.458L114.299 525.174H111.288V534.378H107.935ZM137.385 534.833C135.415 534.833 133.687 534.364 132.2 533.427C130.723 532.489 129.568 531.178 128.734 529.492C127.911 527.806 127.499 525.837 127.499 523.583C127.499 521.31 127.911 519.326 128.734 517.631C129.568 515.936 130.723 514.62 132.2 513.682C133.687 512.745 135.415 512.276 137.385 512.276C139.355 512.276 141.078 512.745 142.555 513.682C144.042 514.62 145.197 515.936 146.021 517.631C146.855 519.326 147.271 521.31 147.271 523.583C147.271 525.837 146.855 527.806 146.021 529.492C145.197 531.178 144.042 532.489 142.555 533.427C141.078 534.364 139.355 534.833 137.385 534.833ZM137.385 531.822C138.881 531.822 140.112 531.438 141.078 530.671C142.044 529.904 142.759 528.895 143.223 527.645C143.687 526.395 143.919 525.041 143.919 523.583C143.919 522.125 143.687 520.766 143.223 519.506C142.759 518.247 142.044 517.229 141.078 516.452C140.112 515.676 138.881 515.288 137.385 515.288C135.889 515.288 134.658 515.676 133.692 516.452C132.726 517.229 132.011 518.247 131.547 519.506C131.083 520.766 130.851 522.125 130.851 523.583C130.851 525.041 131.083 526.395 131.547 527.645C132.011 528.895 132.726 529.904 133.692 530.671C134.658 531.438 135.889 531.822 137.385 531.822ZM149.537 515.685V512.56H167.264V515.685H160.105V534.378H156.753V515.685H149.537ZM179.885 534.833C177.915 534.833 176.187 534.364 174.7 533.427C173.223 532.489 172.068 531.178 171.234 529.492C170.411 527.806 169.999 525.837 169.999 523.583C169.999 521.31 170.411 519.326 171.234 517.631C172.068 515.936 173.223 514.62 174.7 513.682C176.187 512.745 177.915 512.276 179.885 512.276C181.855 512.276 183.578 512.745 185.055 513.682C186.542 514.62 187.697 515.936 188.521 517.631C189.355 519.326 189.771 521.31 189.771 523.583C189.771 525.837 189.355 527.806 188.521 529.492C187.697 531.178 186.542 532.489 185.055 533.427C183.578 534.364 181.855 534.833 179.885 534.833ZM179.885 531.822C181.381 531.822 182.612 531.438 183.578 530.671C184.544 529.904 185.259 528.895 185.723 527.645C186.187 526.395 186.419 525.041 186.419 523.583C186.419 522.125 186.187 520.766 185.723 519.506C185.259 518.247 184.544 517.229 183.578 516.452C182.612 515.676 181.381 515.288 179.885 515.288C178.389 515.288 177.158 515.676 176.192 516.452C175.226 517.229 174.511 518.247 174.047 519.506C173.583 520.766 173.351 522.125 173.351 523.583C173.351 525.041 173.583 526.395 174.047 527.645C174.511 528.895 175.226 529.904 176.192 530.671C177.158 531.438 178.389 531.822 179.885 531.822ZM194.888 542.56V512.56H198.127V516.026H198.525C198.771 515.647 199.112 515.164 199.548 514.577C199.993 513.981 200.627 513.45 201.451 512.986C202.284 512.513 203.411 512.276 204.832 512.276C206.669 512.276 208.288 512.735 209.69 513.654C211.091 514.573 212.185 515.875 212.971 517.56C213.757 519.246 214.15 521.234 214.15 523.526C214.15 525.837 213.757 527.84 212.971 529.535C212.185 531.22 211.096 532.527 209.704 533.455C208.312 534.374 206.707 534.833 204.888 534.833C203.487 534.833 202.365 534.601 201.522 534.137C200.679 533.663 200.031 533.128 199.576 532.532C199.121 531.926 198.771 531.424 198.525 531.026H198.241V542.56H194.888ZM198.184 523.469C198.184 525.117 198.425 526.571 198.908 527.83C199.391 529.08 200.097 530.06 201.025 530.77C201.953 531.471 203.089 531.822 204.434 531.822C205.835 531.822 207.005 531.452 207.942 530.714C208.889 529.966 209.6 528.962 210.073 527.702C210.556 526.433 210.798 525.022 210.798 523.469C210.798 521.935 210.561 520.553 210.087 519.322C209.623 518.081 208.918 517.101 207.971 516.381C207.033 515.652 205.854 515.288 204.434 515.288C203.07 515.288 201.924 515.633 200.996 516.324C200.068 517.006 199.368 517.963 198.894 519.194C198.421 520.415 198.184 521.841 198.184 523.469ZM228.127 534.833C226.157 534.833 224.429 534.364 222.942 533.427C221.465 532.489 220.31 531.178 219.477 529.492C218.653 527.806 218.241 525.837 218.241 523.583C218.241 521.31 218.653 519.326 219.477 517.631C220.31 515.936 221.465 514.62 222.942 513.682C224.429 512.745 226.157 512.276 228.127 512.276C230.097 512.276 231.82 512.745 233.298 513.682C234.784 514.62 235.94 515.936 236.763 517.631C237.597 519.326 238.013 521.31 238.013 523.583C238.013 525.837 237.597 527.806 236.763 529.492C235.94 531.178 234.784 532.489 233.298 533.427C231.82 534.364 230.097 534.833 228.127 534.833ZM228.127 531.822C229.623 531.822 230.854 531.438 231.82 530.671C232.786 529.904 233.501 528.895 233.965 527.645C234.429 526.395 234.661 525.041 234.661 523.583C234.661 522.125 234.429 520.766 233.965 519.506C233.501 518.247 232.786 517.229 231.82 516.452C230.854 515.676 229.623 515.288 228.127 515.288C226.631 515.288 225.4 515.676 224.434 516.452C223.468 517.229 222.753 518.247 222.289 519.506C221.825 520.766 221.593 522.125 221.593 523.583C221.593 525.041 221.825 526.395 222.289 527.645C222.753 528.895 223.468 529.904 224.434 530.671C225.4 531.438 226.631 531.822 228.127 531.822ZM255.062 529.833L262.676 512.56H265.858L256.426 534.378H253.699L244.438 512.56H247.562L255.062 529.833ZM246.483 512.56V534.378H243.131V512.56H246.483ZM263.642 534.378V512.56H266.994V534.378H263.642ZM283.131 515.685V512.56H300.858V515.685H293.699V534.378H290.347V515.685H283.131ZM308.646 520.458H314.896C317.452 520.458 319.408 521.107 320.762 522.404C322.116 523.701 322.793 525.344 322.793 527.333C322.793 528.64 322.49 529.828 321.884 530.898C321.278 531.959 320.388 532.806 319.214 533.441C318.04 534.066 316.6 534.378 314.896 534.378H305.748V512.56H309.1V531.253H314.896C316.221 531.253 317.31 530.903 318.163 530.202C319.015 529.502 319.441 528.602 319.441 527.503C319.441 526.348 319.015 525.406 318.163 524.677C317.31 523.948 316.221 523.583 314.896 523.583H308.646V520.458ZM326.259 534.378V512.56H329.612V534.378H326.259ZM349.498 512.56L354.725 521.481L359.952 512.56H363.816L356.771 523.469L363.816 534.378H359.952L354.725 525.913L349.498 534.378H345.634L352.566 523.469L345.634 512.56H349.498ZM376.565 534.833C374.595 534.833 372.867 534.364 371.38 533.427C369.903 532.489 368.747 531.178 367.914 529.492C367.09 527.806 366.678 525.837 366.678 523.583C366.678 521.31 367.09 519.326 367.914 517.631C368.747 515.936 369.903 514.62 371.38 513.682C372.867 512.745 374.595 512.276 376.565 512.276C378.534 512.276 380.258 512.745 381.735 513.682C383.222 514.62 384.377 515.936 385.201 517.631C386.034 519.326 386.451 521.31 386.451 523.583C386.451 525.837 386.034 527.806 385.201 529.492C384.377 531.178 383.222 532.489 381.735 533.427C380.258 534.364 378.534 534.833 376.565 534.833ZM376.565 531.822C378.061 531.822 379.292 531.438 380.258 530.671C381.224 529.904 381.939 528.895 382.403 527.645C382.867 526.395 383.099 525.041 383.099 523.583C383.099 522.125 382.867 520.766 382.403 519.506C381.939 518.247 381.224 517.229 380.258 516.452C379.292 515.676 378.061 515.288 376.565 515.288C375.068 515.288 373.837 515.676 372.871 516.452C371.906 517.229 371.191 518.247 370.727 519.506C370.263 520.766 370.031 522.125 370.031 523.583C370.031 525.041 370.263 526.395 370.727 527.645C371.191 528.895 371.906 529.904 372.871 530.671C373.837 531.438 375.068 531.822 376.565 531.822ZM388.717 515.685V512.56H406.444V515.685H399.285V534.378H395.933V515.685H388.717ZM419.349 534.833C417.246 534.833 415.433 534.369 413.908 533.441C412.393 532.503 411.224 531.197 410.4 529.52C409.585 527.835 409.178 525.875 409.178 523.64C409.178 521.405 409.585 519.435 410.4 517.731C411.224 516.017 412.37 514.681 413.837 513.725C415.315 512.759 417.038 512.276 419.008 512.276C420.144 512.276 421.266 512.466 422.374 512.844C423.482 513.223 424.491 513.839 425.4 514.691C426.309 515.534 427.033 516.651 427.573 518.043C428.113 519.435 428.383 521.149 428.383 523.185V524.606H411.565V521.708H424.974C424.974 520.477 424.728 519.378 424.235 518.413C423.752 517.447 423.061 516.684 422.161 516.126C421.271 515.567 420.22 515.288 419.008 515.288C417.673 515.288 416.517 515.619 415.542 516.282C414.576 516.935 413.833 517.788 413.312 518.839C412.791 519.89 412.531 521.017 412.531 522.219V524.151C412.531 525.799 412.815 527.196 413.383 528.341C413.96 529.478 414.761 530.344 415.783 530.941C416.806 531.528 417.995 531.822 419.349 531.822C420.229 531.822 421.025 531.698 421.735 531.452C422.455 531.197 423.075 530.818 423.596 530.316C424.117 529.805 424.519 529.17 424.803 528.413L428.042 529.322C427.701 530.42 427.128 531.386 426.323 532.219C425.518 533.043 424.524 533.687 423.34 534.151C422.156 534.606 420.826 534.833 419.349 534.833ZM431.55 534.378V531.253H432.346C432.999 531.253 433.544 531.126 433.979 530.87C434.415 530.605 434.765 530.145 435.031 529.492C435.305 528.829 435.513 527.911 435.656 526.736C435.807 525.553 435.916 524.047 435.982 522.219L436.38 512.56H450.925V534.378H447.573V515.685H439.562L439.221 523.469C439.145 525.259 438.984 526.836 438.738 528.199C438.501 529.554 438.137 530.69 437.644 531.609C437.161 532.527 436.517 533.218 435.712 533.682C434.907 534.146 433.899 534.378 432.687 534.378H431.55ZM484.519 504.378L486.224 506.424C485.561 507.068 484.794 507.518 483.923 507.773C483.051 508.029 482.067 508.185 480.968 508.242C479.87 508.299 478.648 508.356 477.303 508.413C475.788 508.469 474.533 508.839 473.539 509.52C472.545 510.202 471.778 511.187 471.238 512.475C470.698 513.763 470.353 515.344 470.201 517.219H470.485C471.224 515.856 472.246 514.852 473.553 514.208C474.86 513.564 476.262 513.242 477.758 513.242C479.462 513.242 480.996 513.64 482.36 514.435C483.724 515.231 484.803 516.41 485.599 517.972C486.394 519.535 486.792 521.462 486.792 523.753C486.792 526.036 486.385 528.005 485.57 529.663C484.765 531.32 483.634 532.598 482.175 533.498C480.727 534.388 479.027 534.833 477.076 534.833C475.125 534.833 473.416 534.374 471.948 533.455C470.48 532.527 469.339 531.154 468.525 529.336C467.71 527.508 467.303 525.25 467.303 522.56V520.231C467.303 515.373 468.127 511.689 469.775 509.18C471.432 506.67 473.923 505.373 477.246 505.288C478.421 505.25 479.467 505.24 480.386 505.259C481.304 505.278 482.104 505.235 482.786 505.131C483.468 505.027 484.046 504.776 484.519 504.378ZM477.076 531.822C478.392 531.822 479.524 531.49 480.471 530.827C481.427 530.164 482.161 529.232 482.673 528.029C483.184 526.817 483.44 525.392 483.44 523.753C483.44 522.163 483.179 520.808 482.658 519.691C482.147 518.573 481.413 517.721 480.457 517.134C479.5 516.547 478.354 516.253 477.019 516.253C476.044 516.253 475.168 516.419 474.391 516.751C473.615 517.082 472.952 517.57 472.403 518.214C471.853 518.858 471.427 519.644 471.124 520.572C470.831 521.5 470.674 522.56 470.656 523.753C470.656 526.197 471.228 528.152 472.374 529.62C473.52 531.088 475.087 531.822 477.076 531.822ZM494.817 520.458H501.067C503.624 520.458 505.58 521.107 506.934 522.404C508.288 523.701 508.965 525.344 508.965 527.333C508.965 528.64 508.662 529.828 508.056 530.898C507.45 531.959 506.56 532.806 505.386 533.441C504.211 534.066 502.772 534.378 501.067 534.378H491.92V512.56H495.272V531.253H501.067C502.393 531.253 503.482 530.903 504.335 530.202C505.187 529.502 505.613 528.602 505.613 527.503C505.613 526.348 505.187 525.406 504.335 524.677C503.482 523.948 502.393 523.583 501.067 523.583H494.817V520.458ZM512.431 534.378V512.56H515.783V534.378H512.431ZM533.17 534.378V512.56H550.329V534.378H546.977V515.685H536.522V534.378H533.17ZM565.315 534.833C563.345 534.833 561.617 534.364 560.13 533.427C558.653 532.489 557.497 531.178 556.664 529.492C555.84 527.806 555.428 525.837 555.428 523.583C555.428 521.31 555.84 519.326 556.664 517.631C557.497 515.936 558.653 514.62 560.13 513.682C561.617 512.745 563.345 512.276 565.315 512.276C567.284 512.276 569.008 512.745 570.485 513.682C571.972 514.62 573.127 515.936 573.951 517.631C574.784 519.326 575.201 521.31 575.201 523.583C575.201 525.837 574.784 527.806 573.951 529.492C573.127 531.178 571.972 532.489 570.485 533.427C569.008 534.364 567.284 534.833 565.315 534.833ZM565.315 531.822C566.811 531.822 568.042 531.438 569.008 530.671C569.974 529.904 570.689 528.895 571.153 527.645C571.617 526.395 571.849 525.041 571.849 523.583C571.849 522.125 571.617 520.766 571.153 519.506C570.689 518.247 569.974 517.229 569.008 516.452C568.042 515.676 566.811 515.288 565.315 515.288C563.818 515.288 562.587 515.676 561.621 516.452C560.656 517.229 559.941 518.247 559.477 519.506C559.013 520.766 558.781 522.125 558.781 523.583C558.781 525.041 559.013 526.395 559.477 527.645C559.941 528.895 560.656 529.904 561.621 530.671C562.587 531.438 563.818 531.822 565.315 531.822ZM581.696 542.56C581.128 542.56 580.621 542.513 580.176 542.418C579.731 542.333 579.423 542.248 579.253 542.163L580.105 539.208C580.92 539.416 581.639 539.492 582.264 539.435C582.889 539.378 583.443 539.099 583.926 538.597C584.419 538.105 584.868 537.305 585.276 536.197L585.901 534.492L577.832 512.56H581.469L587.491 529.947H587.719L593.741 512.56H597.378L588.116 537.56C587.7 538.687 587.184 539.62 586.568 540.359C585.953 541.107 585.238 541.661 584.423 542.02C583.618 542.38 582.709 542.56 581.696 542.56ZM617.957 512.56V534.378H614.604V512.56H617.957ZM616.65 522.958V526.083C615.892 526.367 615.139 526.618 614.391 526.836C613.643 527.044 612.857 527.21 612.033 527.333C611.21 527.447 610.305 527.503 609.32 527.503C606.849 527.503 604.865 526.836 603.369 525.501C601.882 524.165 601.138 522.163 601.138 519.492V512.503H604.491V519.492C604.491 520.609 604.704 521.528 605.13 522.248C605.556 522.967 606.134 523.502 606.863 523.853C607.592 524.203 608.411 524.378 609.32 524.378C610.741 524.378 612.024 524.251 613.17 523.995C614.325 523.73 615.485 523.384 616.65 522.958ZM630.528 534.89C629.145 534.89 627.89 534.629 626.763 534.109C625.637 533.578 624.742 532.816 624.079 531.822C623.416 530.818 623.085 529.606 623.085 528.185C623.085 526.935 623.331 525.922 623.823 525.145C624.316 524.359 624.974 523.744 625.798 523.299C626.621 522.854 627.531 522.522 628.525 522.305C629.529 522.077 630.537 521.897 631.55 521.765C632.876 521.594 633.951 521.466 634.775 521.381C635.608 521.287 636.214 521.13 636.593 520.913C636.981 520.695 637.175 520.316 637.175 519.776V519.663C637.175 518.261 636.792 517.172 636.025 516.395C635.267 515.619 634.117 515.231 632.573 515.231C630.973 515.231 629.718 515.581 628.809 516.282C627.9 516.983 627.261 517.731 626.891 518.526L623.71 517.39C624.278 516.064 625.035 515.032 625.982 514.293C626.939 513.545 627.98 513.024 629.107 512.731C630.244 512.428 631.361 512.276 632.46 512.276C633.16 512.276 633.965 512.361 634.874 512.532C635.793 512.693 636.678 513.029 637.531 513.54C638.392 514.052 639.107 514.823 639.675 515.856C640.244 516.888 640.528 518.27 640.528 520.003V534.378H637.175V531.424H637.005C636.778 531.897 636.399 532.404 635.869 532.944C635.338 533.484 634.633 533.943 633.752 534.322C632.871 534.7 631.797 534.89 630.528 534.89ZM631.039 531.878C632.365 531.878 633.482 531.618 634.391 531.097C635.31 530.576 636.001 529.904 636.465 529.08C636.939 528.256 637.175 527.39 637.175 526.481V523.413C637.033 523.583 636.721 523.739 636.238 523.881C635.764 524.014 635.215 524.132 634.59 524.236C633.975 524.331 633.373 524.416 632.786 524.492C632.209 524.558 631.74 524.615 631.38 524.663C630.509 524.776 629.694 524.961 628.937 525.216C628.189 525.463 627.583 525.837 627.119 526.339C626.664 526.831 626.437 527.503 626.437 528.356C626.437 529.52 626.868 530.401 627.729 530.998C628.601 531.585 629.704 531.878 631.039 531.878ZM646.646 534.378V512.56H655.567C657.915 512.56 659.781 513.091 661.163 514.151C662.546 515.212 663.237 516.613 663.237 518.356C663.237 519.681 662.844 520.709 662.058 521.438C661.272 522.158 660.264 522.645 659.033 522.901C659.838 523.015 660.619 523.299 661.376 523.753C662.143 524.208 662.778 524.833 663.28 525.628C663.782 526.414 664.033 527.38 664.033 528.526C664.033 529.644 663.749 530.643 663.18 531.523C662.612 532.404 661.798 533.1 660.737 533.611C659.677 534.123 658.408 534.378 656.93 534.378H646.646ZM649.828 531.31H656.93C658.086 531.31 658.99 531.036 659.643 530.486C660.297 529.937 660.624 529.189 660.624 528.242C660.624 527.115 660.297 526.23 659.643 525.586C658.99 524.932 658.086 524.606 656.93 524.606H649.828V531.31ZM649.828 521.708H655.567C656.466 521.708 657.238 521.585 657.882 521.339C658.526 521.083 659.018 520.723 659.359 520.259C659.71 519.786 659.885 519.227 659.885 518.583C659.885 517.664 659.501 516.945 658.734 516.424C657.967 515.894 656.911 515.628 655.567 515.628H649.828V521.708ZM677.971 534.833C675.925 534.833 674.164 534.35 672.687 533.384C671.21 532.418 670.073 531.088 669.278 529.393C668.482 527.698 668.085 525.761 668.085 523.583C668.085 521.367 668.492 519.412 669.306 517.716C670.13 516.012 671.276 514.681 672.744 513.725C674.221 512.759 675.944 512.276 677.914 512.276C679.448 512.276 680.831 512.56 682.062 513.128C683.293 513.697 684.301 514.492 685.087 515.515C685.873 516.538 686.361 517.731 686.55 519.094H683.198C682.942 518.1 682.374 517.219 681.494 516.452C680.622 515.676 679.448 515.288 677.971 515.288C676.664 515.288 675.518 515.628 674.533 516.31C673.558 516.983 672.796 517.934 672.246 519.165C671.707 520.387 671.437 521.822 671.437 523.469C671.437 525.155 671.702 526.623 672.232 527.873C672.772 529.123 673.53 530.093 674.505 530.785C675.49 531.476 676.645 531.822 677.971 531.822C678.842 531.822 679.633 531.67 680.343 531.367C681.053 531.064 681.655 530.628 682.147 530.06C682.639 529.492 682.99 528.81 683.198 528.015H686.55C686.361 529.303 685.892 530.463 685.144 531.495C684.406 532.518 683.425 533.332 682.204 533.938C680.992 534.535 679.581 534.833 677.971 534.833ZM689.732 515.685V512.56H707.46V515.685H700.3V534.378H696.948V515.685H689.732ZM712.349 534.378V512.56H721.27C723.618 512.56 725.484 513.091 726.866 514.151C728.249 515.212 728.94 516.613 728.94 518.356C728.94 519.681 728.547 520.709 727.761 521.438C726.975 522.158 725.967 522.645 724.736 522.901C725.541 523.015 726.322 523.299 727.08 523.753C727.847 524.208 728.481 524.833 728.983 525.628C729.485 526.414 729.736 527.38 729.736 528.526C729.736 529.644 729.452 530.643 728.884 531.523C728.315 532.404 727.501 533.1 726.44 533.611C725.38 534.123 724.111 534.378 722.634 534.378H712.349ZM715.531 531.31H722.634C723.789 531.31 724.693 531.036 725.347 530.486C726 529.937 726.327 529.189 726.327 528.242C726.327 527.115 726 526.23 725.347 525.586C724.693 524.932 723.789 524.606 722.634 524.606H715.531V531.31ZM715.531 521.708H721.27C722.17 521.708 722.941 521.585 723.585 521.339C724.229 521.083 724.722 520.723 725.062 520.259C725.413 519.786 725.588 519.227 725.588 518.583C725.588 517.664 725.205 516.945 724.438 516.424C723.67 515.894 722.615 515.628 721.27 515.628H715.531V521.708ZM743.674 534.833C741.704 534.833 739.976 534.364 738.489 533.427C737.012 532.489 735.857 531.178 735.023 529.492C734.2 527.806 733.788 525.837 733.788 523.583C733.788 521.31 734.2 519.326 735.023 517.631C735.857 515.936 737.012 514.62 738.489 513.682C739.976 512.745 741.704 512.276 743.674 512.276C745.644 512.276 747.367 512.745 748.844 513.682C750.331 514.62 751.487 515.936 752.31 517.631C753.144 519.326 753.56 521.31 753.56 523.583C753.56 525.837 753.144 527.806 752.31 529.492C751.487 531.178 750.331 532.489 748.844 533.427C747.367 534.364 745.644 534.833 743.674 534.833ZM743.674 531.822C745.17 531.822 746.401 531.438 747.367 530.671C748.333 529.904 749.048 528.895 749.512 527.645C749.976 526.395 750.208 525.041 750.208 523.583C750.208 522.125 749.976 520.766 749.512 519.506C749.048 518.247 748.333 517.229 747.367 516.452C746.401 515.676 745.17 515.288 743.674 515.288C742.178 515.288 740.947 515.676 739.981 516.452C739.015 517.229 738.3 518.247 737.836 519.506C737.372 520.766 737.14 522.125 737.14 523.583C737.14 525.041 737.372 526.395 737.836 527.645C738.3 528.895 739.015 529.904 739.981 530.671C740.947 531.438 742.178 531.822 743.674 531.822ZM758.678 534.378V512.56H767.598C769.946 512.56 771.812 513.091 773.195 514.151C774.577 515.212 775.268 516.613 775.268 518.356C775.268 519.681 774.875 520.709 774.089 521.438C773.304 522.158 772.295 522.645 771.064 522.901C771.869 523.015 772.65 523.299 773.408 523.753C774.175 524.208 774.809 524.833 775.311 525.628C775.813 526.414 776.064 527.38 776.064 528.526C776.064 529.644 775.78 530.643 775.212 531.523C774.643 532.404 773.829 533.1 772.768 533.611C771.708 534.123 770.439 534.378 768.962 534.378H758.678ZM761.859 531.31H768.962C770.117 531.31 771.021 531.036 771.675 530.486C772.328 529.937 772.655 529.189 772.655 528.242C772.655 527.115 772.328 526.23 771.675 525.586C771.021 524.932 770.117 524.606 768.962 524.606H761.859V531.31ZM761.859 521.708H767.598C768.498 521.708 769.269 521.585 769.913 521.339C770.557 521.083 771.05 520.723 771.391 520.259C771.741 519.786 771.916 519.227 771.916 518.583C771.916 517.664 771.533 516.945 770.766 516.424C769.999 515.894 768.943 515.628 767.598 515.628H761.859V521.708ZM787.559 534.89C786.176 534.89 784.922 534.629 783.795 534.109C782.668 533.578 781.773 532.816 781.11 531.822C780.447 530.818 780.116 529.606 780.116 528.185C780.116 526.935 780.362 525.922 780.854 525.145C781.347 524.359 782.005 523.744 782.829 523.299C783.653 522.854 784.562 522.522 785.556 522.305C786.56 522.077 787.568 521.897 788.582 521.765C789.907 521.594 790.982 521.466 791.806 521.381C792.639 521.287 793.246 521.13 793.624 520.913C794.013 520.695 794.207 520.316 794.207 519.776V519.663C794.207 518.261 793.823 517.172 793.056 516.395C792.299 515.619 791.148 515.231 789.604 515.231C788.004 515.231 786.749 515.581 785.84 516.282C784.931 516.983 784.292 517.731 783.923 518.526L780.741 517.39C781.309 516.064 782.067 515.032 783.013 514.293C783.97 513.545 785.012 513.024 786.138 512.731C787.275 512.428 788.392 512.276 789.491 512.276C790.192 512.276 790.996 512.361 791.906 512.532C792.824 512.693 793.71 513.029 794.562 513.54C795.424 514.052 796.138 514.823 796.707 515.856C797.275 516.888 797.559 518.27 797.559 520.003V534.378H794.207V531.424H794.036C793.809 531.897 793.43 532.404 792.9 532.944C792.37 533.484 791.664 533.943 790.783 534.322C789.903 534.7 788.828 534.89 787.559 534.89ZM788.07 531.878C789.396 531.878 790.513 531.618 791.423 531.097C792.341 530.576 793.032 529.904 793.496 529.08C793.97 528.256 794.207 527.39 794.207 526.481V523.413C794.065 523.583 793.752 523.739 793.269 523.881C792.796 524.014 792.246 524.132 791.621 524.236C791.006 524.331 790.405 524.416 789.817 524.492C789.24 524.558 788.771 524.615 788.411 524.663C787.54 524.776 786.726 524.961 785.968 525.216C785.22 525.463 784.614 525.837 784.15 526.339C783.695 526.831 783.468 527.503 783.468 528.356C783.468 529.52 783.899 530.401 784.761 530.998C785.632 531.585 786.735 531.878 788.07 531.878ZM800.709 515.685V512.56H818.436V515.685H811.277V534.378H807.925V515.685H800.709ZM826.224 520.458H832.474C835.031 520.458 836.986 521.107 838.34 522.404C839.694 523.701 840.371 525.344 840.371 527.333C840.371 528.64 840.068 529.828 839.462 530.898C838.856 531.959 837.966 532.806 836.792 533.441C835.618 534.066 834.178 534.378 832.474 534.378H823.326V512.56H826.678V531.253H832.474C833.799 531.253 834.888 530.903 835.741 530.202C836.593 529.502 837.019 528.602 837.019 527.503C837.019 526.348 836.593 525.406 835.741 524.677C834.888 523.948 833.799 523.583 832.474 523.583H826.224V520.458ZM850.474 530.401L850.247 531.935C850.086 533.015 849.84 534.17 849.509 535.401C849.187 536.632 848.85 537.792 848.5 538.881C848.15 539.97 847.861 540.837 847.634 541.481H845.077C845.2 540.875 845.361 540.074 845.56 539.08C845.759 538.086 845.957 536.973 846.156 535.742C846.365 534.52 846.535 533.27 846.668 531.992L846.838 530.401H850.474ZM72.9744 563.685V560.56H90.7017V563.685H83.5426V582.378H80.1903V563.685H72.9744ZM103.322 582.833C101.353 582.833 99.6245 582.364 98.1378 581.427C96.6605 580.489 95.5052 579.178 94.6719 577.492C93.848 575.806 93.4361 573.837 93.4361 571.583C93.4361 569.31 93.848 567.326 94.6719 565.631C95.5052 563.936 96.6605 562.62 98.1378 561.682C99.6245 560.745 101.353 560.276 103.322 560.276C105.292 560.276 107.016 560.745 108.493 561.682C109.98 562.62 111.135 563.936 111.959 565.631C112.792 567.326 113.209 569.31 113.209 571.583C113.209 573.837 112.792 575.806 111.959 577.492C111.135 579.178 109.98 580.489 108.493 581.427C107.016 582.364 105.292 582.833 103.322 582.833ZM103.322 579.822C104.819 579.822 106.05 579.438 107.016 578.671C107.982 577.904 108.696 576.895 109.161 575.645C109.625 574.395 109.857 573.041 109.857 571.583C109.857 570.125 109.625 568.766 109.161 567.506C108.696 566.247 107.982 565.229 107.016 564.452C106.05 563.676 104.819 563.288 103.322 563.288C101.826 563.288 100.595 563.676 99.6293 564.452C98.6634 565.229 97.9484 566.247 97.4844 567.506C97.0204 568.766 96.7884 570.125 96.7884 571.583C96.7884 573.041 97.0204 574.395 97.4844 575.645C97.9484 576.895 98.6634 577.904 99.6293 578.671C100.595 579.438 101.826 579.822 103.322 579.822ZM138.44 582.833C136.47 582.833 134.742 582.364 133.255 581.427C131.778 580.489 130.622 579.178 129.789 577.492C128.965 575.806 128.553 573.837 128.553 571.583C128.553 569.31 128.965 567.326 129.789 565.631C130.622 563.936 131.778 562.62 133.255 561.682C134.742 560.745 136.47 560.276 138.44 560.276C140.409 560.276 142.133 560.745 143.61 561.682C145.097 562.62 146.252 563.936 147.076 565.631C147.909 567.326 148.326 569.31 148.326 571.583C148.326 573.837 147.909 575.806 147.076 577.492C146.252 579.178 145.097 580.489 143.61 581.427C142.133 582.364 140.409 582.833 138.44 582.833ZM138.44 579.822C139.936 579.822 141.167 579.438 142.133 578.671C143.099 577.904 143.814 576.895 144.278 575.645C144.742 574.395 144.974 573.041 144.974 571.583C144.974 570.125 144.742 568.766 144.278 567.506C143.814 566.247 143.099 565.229 142.133 564.452C141.167 563.676 139.936 563.288 138.44 563.288C136.943 563.288 135.712 563.676 134.746 564.452C133.781 565.229 133.066 566.247 132.602 567.506C132.138 568.766 131.906 570.125 131.906 571.583C131.906 573.041 132.138 574.395 132.602 575.645C133.066 576.895 133.781 577.904 134.746 578.671C135.712 579.438 136.943 579.822 138.44 579.822ZM153.443 590.56V560.56H156.682V564.026H157.08C157.326 563.647 157.667 563.164 158.102 562.577C158.547 561.981 159.182 561.45 160.006 560.986C160.839 560.513 161.966 560.276 163.386 560.276C165.223 560.276 166.843 560.735 168.244 561.654C169.646 562.573 170.74 563.875 171.526 565.56C172.312 567.246 172.705 569.234 172.705 571.526C172.705 573.837 172.312 575.84 171.526 577.535C170.74 579.22 169.651 580.527 168.259 581.455C166.866 582.374 165.261 582.833 163.443 582.833C162.042 582.833 160.92 582.601 160.077 582.137C159.234 581.663 158.585 581.128 158.131 580.532C157.676 579.926 157.326 579.424 157.08 579.026H156.795V590.56H153.443ZM156.739 571.469C156.739 573.117 156.98 574.571 157.463 575.83C157.946 577.08 158.652 578.06 159.58 578.77C160.508 579.471 161.644 579.822 162.989 579.822C164.39 579.822 165.56 579.452 166.497 578.714C167.444 577.966 168.154 576.962 168.628 575.702C169.111 574.433 169.352 573.022 169.352 571.469C169.352 569.935 169.116 568.553 168.642 567.322C168.178 566.081 167.473 565.101 166.526 564.381C165.588 563.652 164.409 563.288 162.989 563.288C161.625 563.288 160.479 563.633 159.551 564.324C158.623 565.006 157.922 565.963 157.449 567.194C156.975 568.415 156.739 569.841 156.739 571.469ZM191.284 560.56V563.685H181.17V582.378H177.818V560.56H191.284ZM201.465 582.89C200.083 582.89 198.828 582.629 197.701 582.109C196.574 581.578 195.679 580.816 195.016 579.822C194.353 578.818 194.022 577.606 194.022 576.185C194.022 574.935 194.268 573.922 194.761 573.145C195.253 572.359 195.911 571.744 196.735 571.299C197.559 570.854 198.468 570.522 199.462 570.305C200.466 570.077 201.475 569.897 202.488 569.765C203.814 569.594 204.888 569.466 205.712 569.381C206.546 569.287 207.152 569.13 207.531 568.913C207.919 568.695 208.113 568.316 208.113 567.776V567.663C208.113 566.261 207.729 565.172 206.962 564.395C206.205 563.619 205.054 563.231 203.511 563.231C201.91 563.231 200.656 563.581 199.746 564.282C198.837 564.983 198.198 565.731 197.829 566.526L194.647 565.39C195.215 564.064 195.973 563.032 196.92 562.293C197.876 561.545 198.918 561.024 200.045 560.731C201.181 560.428 202.299 560.276 203.397 560.276C204.098 560.276 204.903 560.361 205.812 560.532C206.73 560.693 207.616 561.029 208.468 561.54C209.33 562.052 210.045 562.823 210.613 563.856C211.181 564.888 211.465 566.27 211.465 568.003V582.378H208.113V579.424H207.942C207.715 579.897 207.336 580.404 206.806 580.944C206.276 581.484 205.57 581.943 204.69 582.322C203.809 582.7 202.734 582.89 201.465 582.89ZM201.977 579.878C203.302 579.878 204.42 579.618 205.329 579.097C206.247 578.576 206.939 577.904 207.403 577.08C207.876 576.256 208.113 575.39 208.113 574.481V571.413C207.971 571.583 207.658 571.739 207.175 571.881C206.702 572.014 206.153 572.132 205.528 572.236C204.912 572.331 204.311 572.416 203.724 572.492C203.146 572.558 202.677 572.615 202.317 572.663C201.446 572.776 200.632 572.961 199.874 573.216C199.126 573.463 198.52 573.837 198.056 574.339C197.602 574.831 197.374 575.503 197.374 576.356C197.374 577.52 197.805 578.401 198.667 578.998C199.538 579.585 200.641 579.878 201.977 579.878ZM232.186 569.935V573.06H220.141V569.935H232.186ZM220.936 560.56V582.378H217.584V560.56H220.936ZM234.743 560.56V582.378H231.391V560.56H234.743ZM244.217 577.435L254.729 560.56H258.592V582.378H255.24V565.503L244.786 582.378H240.865V560.56H244.217V577.435ZM263.369 576.81H266.948C267.024 577.795 267.469 578.543 268.283 579.055C269.107 579.566 270.177 579.822 271.494 579.822C272.838 579.822 273.989 579.547 274.945 578.998C275.902 578.439 276.38 577.539 276.38 576.299C276.38 575.57 276.2 574.935 275.84 574.395C275.48 573.846 274.974 573.42 274.32 573.117C273.667 572.814 272.895 572.663 272.005 572.663H268.255V569.651H272.005C273.34 569.651 274.325 569.348 274.96 568.742C275.603 568.136 275.925 567.378 275.925 566.469C275.925 565.494 275.58 564.713 274.888 564.126C274.197 563.529 273.217 563.231 271.948 563.231C270.67 563.231 269.604 563.52 268.752 564.097C267.9 564.665 267.45 565.399 267.403 566.299H263.88C263.918 565.125 264.278 564.088 264.96 563.188C265.641 562.279 266.569 561.569 267.744 561.057C268.918 560.537 270.263 560.276 271.778 560.276C273.312 560.276 274.642 560.546 275.769 561.086C276.906 561.616 277.781 562.341 278.397 563.259C279.022 564.168 279.335 565.2 279.335 566.356C279.335 567.587 278.989 568.581 278.298 569.339C277.606 570.096 276.74 570.636 275.698 570.958V571.185C276.522 571.242 277.237 571.507 277.843 571.981C278.459 572.445 278.937 573.056 279.278 573.813C279.619 574.561 279.789 575.39 279.789 576.299C279.789 577.625 279.434 578.78 278.724 579.765C278.013 580.74 277.038 581.498 275.798 582.038C274.557 582.568 273.141 582.833 271.55 582.833C270.007 582.833 268.624 582.582 267.403 582.08C266.181 581.569 265.21 580.863 264.491 579.964C263.781 579.055 263.406 578.003 263.369 576.81ZM286.657 590.56C286.089 590.56 285.582 590.513 285.137 590.418C284.692 590.333 284.384 590.248 284.214 590.163L285.066 587.208C285.88 587.416 286.6 587.492 287.225 587.435C287.85 587.378 288.404 587.099 288.887 586.597C289.379 586.105 289.829 585.305 290.237 584.197L290.862 582.492L282.793 560.56H286.43L292.452 577.947H292.68L298.702 560.56H302.339L293.077 585.56C292.661 586.687 292.145 587.62 291.529 588.359C290.914 589.107 290.199 589.661 289.384 590.02C288.579 590.38 287.67 590.56 286.657 590.56ZM310.116 577.435L320.627 560.56H324.491V582.378H321.138V565.503L310.684 582.378H306.763V560.56H310.116V577.435ZM318.411 553.288H321.536C321.536 554.822 321.006 556.076 319.945 557.052C318.885 558.027 317.445 558.515 315.627 558.515C313.837 558.515 312.412 558.027 311.352 557.052C310.3 556.076 309.775 554.822 309.775 553.288H312.9C312.9 554.026 313.103 554.675 313.511 555.234C313.927 555.792 314.633 556.072 315.627 556.072C316.621 556.072 317.332 555.792 317.758 555.234C318.193 554.675 318.411 554.026 318.411 553.288ZM351.028 582.833C348.926 582.833 347.113 582.369 345.588 581.441C344.073 580.503 342.903 579.197 342.08 577.52C341.265 575.835 340.858 573.875 340.858 571.64C340.858 569.405 341.265 567.435 342.08 565.731C342.903 564.017 344.049 562.681 345.517 561.725C346.994 560.759 348.718 560.276 350.688 560.276C351.824 560.276 352.946 560.466 354.054 560.844C355.162 561.223 356.17 561.839 357.08 562.691C357.989 563.534 358.713 564.651 359.253 566.043C359.793 567.435 360.062 569.149 360.062 571.185V572.606H343.244V569.708H356.653C356.653 568.477 356.407 567.378 355.915 566.413C355.432 565.447 354.741 564.684 353.841 564.126C352.951 563.567 351.9 563.288 350.688 563.288C349.352 563.288 348.197 563.619 347.222 564.282C346.256 564.935 345.512 565.788 344.991 566.839C344.471 567.89 344.21 569.017 344.21 570.219V572.151C344.21 573.799 344.494 575.196 345.062 576.341C345.64 577.478 346.44 578.344 347.463 578.941C348.486 579.528 349.674 579.822 351.028 579.822C351.909 579.822 352.705 579.698 353.415 579.452C354.134 579.197 354.755 578.818 355.276 578.316C355.796 577.805 356.199 577.17 356.483 576.413L359.722 577.322C359.381 578.42 358.808 579.386 358.003 580.219C357.198 581.043 356.204 581.687 355.02 582.151C353.836 582.606 352.506 582.833 351.028 582.833ZM378.628 560.56V563.685H368.514V582.378H365.162V560.56H378.628ZM391.252 582.833C389.282 582.833 387.554 582.364 386.067 581.427C384.59 580.489 383.435 579.178 382.602 577.492C381.778 575.806 381.366 573.837 381.366 571.583C381.366 569.31 381.778 567.326 382.602 565.631C383.435 563.936 384.59 562.62 386.067 561.682C387.554 560.745 389.282 560.276 391.252 560.276C393.222 560.276 394.945 560.745 396.423 561.682C397.909 562.62 399.065 563.936 399.888 565.631C400.722 567.326 401.138 569.31 401.138 571.583C401.138 573.837 400.722 575.806 399.888 577.492C399.065 579.178 397.909 580.489 396.423 581.427C394.945 582.364 393.222 582.833 391.252 582.833ZM391.252 579.822C392.748 579.822 393.979 579.438 394.945 578.671C395.911 577.904 396.626 576.895 397.09 575.645C397.554 574.395 397.786 573.041 397.786 571.583C397.786 570.125 397.554 568.766 397.09 567.506C396.626 566.247 395.911 565.229 394.945 564.452C393.979 563.676 392.748 563.288 391.252 563.288C389.756 563.288 388.525 563.676 387.559 564.452C386.593 565.229 385.878 566.247 385.414 567.506C384.95 568.766 384.718 570.125 384.718 571.583C384.718 573.041 384.95 574.395 385.414 575.645C385.878 576.895 386.593 577.904 387.559 578.671C388.525 579.438 389.756 579.822 391.252 579.822ZM426.369 582.833C424.324 582.833 422.563 582.35 421.085 581.384C419.608 580.418 418.472 579.088 417.676 577.393C416.881 575.698 416.483 573.761 416.483 571.583C416.483 569.367 416.89 567.412 417.705 565.716C418.528 564.012 419.674 562.681 421.142 561.725C422.619 560.759 424.343 560.276 426.312 560.276C427.847 560.276 429.229 560.56 430.46 561.128C431.691 561.697 432.7 562.492 433.486 563.515C434.272 564.538 434.759 565.731 434.949 567.094H431.597C431.341 566.1 430.773 565.219 429.892 564.452C429.021 563.676 427.847 563.288 426.369 563.288C425.063 563.288 423.917 563.628 422.932 564.31C421.956 564.983 421.194 565.934 420.645 567.165C420.105 568.387 419.835 569.822 419.835 571.469C419.835 573.155 420.1 574.623 420.631 575.873C421.17 577.123 421.928 578.093 422.903 578.785C423.888 579.476 425.044 579.822 426.369 579.822C427.241 579.822 428.031 579.67 428.741 579.367C429.452 579.064 430.053 578.628 430.545 578.06C431.038 577.492 431.388 576.81 431.597 576.015H434.949C434.759 577.303 434.291 578.463 433.543 579.495C432.804 580.518 431.824 581.332 430.602 581.938C429.39 582.535 427.979 582.833 426.369 582.833ZM446.27 582.89C444.887 582.89 443.633 582.629 442.506 582.109C441.379 581.578 440.484 580.816 439.821 579.822C439.158 578.818 438.827 577.606 438.827 576.185C438.827 574.935 439.073 573.922 439.565 573.145C440.058 572.359 440.716 571.744 441.54 571.299C442.364 570.854 443.273 570.522 444.267 570.305C445.271 570.077 446.279 569.897 447.293 569.765C448.618 569.594 449.693 569.466 450.517 569.381C451.35 569.287 451.956 569.13 452.335 568.913C452.723 568.695 452.918 568.316 452.918 567.776V567.663C452.918 566.261 452.534 565.172 451.767 564.395C451.009 563.619 449.859 563.231 448.315 563.231C446.715 563.231 445.46 563.581 444.551 564.282C443.642 564.983 443.003 565.731 442.634 566.526L439.452 565.39C440.02 564.064 440.777 563.032 441.724 562.293C442.681 561.545 443.723 561.024 444.849 560.731C445.986 560.428 447.103 560.276 448.202 560.276C448.902 560.276 449.707 560.361 450.616 560.532C451.535 560.693 452.42 561.029 453.273 561.54C454.134 562.052 454.849 562.823 455.418 563.856C455.986 564.888 456.27 566.27 456.27 568.003V582.378H452.918V579.424H452.747C452.52 579.897 452.141 580.404 451.611 580.944C451.08 581.484 450.375 581.943 449.494 582.322C448.614 582.7 447.539 582.89 446.27 582.89ZM446.781 579.878C448.107 579.878 449.224 579.618 450.134 579.097C451.052 578.576 451.743 577.904 452.207 577.08C452.681 576.256 452.918 575.39 452.918 574.481V571.413C452.776 571.583 452.463 571.739 451.98 571.881C451.507 572.014 450.957 572.132 450.332 572.236C449.717 572.331 449.116 572.416 448.528 572.492C447.951 572.558 447.482 572.615 447.122 572.663C446.251 572.776 445.437 572.961 444.679 573.216C443.931 573.463 443.325 573.837 442.861 574.339C442.406 574.831 442.179 575.503 442.179 576.356C442.179 577.52 442.61 578.401 443.472 578.998C444.343 579.585 445.446 579.878 446.781 579.878ZM474.32 577.833L481.934 560.56H485.116L475.684 582.378H472.957L463.695 560.56H466.82L474.32 577.833ZM465.741 560.56V582.378H462.388V560.56H465.741ZM482.9 582.378V560.56H486.252V582.378H482.9Z" fill="white"/>
</svg>
