<svg width="351" height="488" viewBox="0 0 351 488" fill="none" xmlns="http://www.w3.org/2000/svg">
<rect width="350.359" height="487.29" rx="10" fill="#57585A"/>
<path d="M43.3457 51.0479V52.3955C43.3457 54.557 43.0527 56.4971 42.4668 58.2158C41.8809 59.9346 41.054 61.3994 39.9863 62.6104C38.9186 63.8083 37.6426 64.7262 36.1582 65.3643C34.6868 66.0023 33.0527 66.3213 31.2559 66.3213C29.472 66.3213 27.8379 66.0023 26.3535 65.3643C24.8822 64.7262 23.6061 63.8083 22.5254 62.6104C21.4447 61.3994 20.6048 59.9346 20.0059 58.2158C19.4199 56.4971 19.127 54.557 19.127 52.3955V51.0479C19.127 48.8734 19.4199 46.9333 20.0059 45.2275C20.5918 43.5088 21.4186 42.0439 22.4863 40.833C23.5671 39.6221 24.8431 38.6976 26.3145 38.0596C27.7988 37.4215 29.4329 37.1025 31.2168 37.1025C33.0137 37.1025 34.6478 37.4215 36.1191 38.0596C37.6035 38.6976 38.8796 39.6221 39.9473 40.833C41.028 42.0439 41.8613 43.5088 42.4473 45.2275C43.0462 46.9333 43.3457 48.8734 43.3457 51.0479ZM37.4277 52.3955V51.0088C37.4277 49.4984 37.291 48.1702 37.0176 47.0244C36.7441 45.8786 36.3405 44.915 35.8066 44.1338C35.2728 43.3525 34.6217 42.7666 33.8535 42.376C33.0853 41.9723 32.2064 41.7705 31.2168 41.7705C30.2272 41.7705 29.3483 41.9723 28.5801 42.376C27.8249 42.7666 27.1803 43.3525 26.6465 44.1338C26.1257 44.915 25.7285 45.8786 25.4551 47.0244C25.1816 48.1702 25.0449 49.4984 25.0449 51.0088V52.3955C25.0449 53.8929 25.1816 55.221 25.4551 56.3799C25.7285 57.5257 26.1322 58.4958 26.666 59.29C27.1999 60.0713 27.8509 60.6637 28.6191 61.0674C29.3874 61.471 30.2663 61.6729 31.2559 61.6729C32.2454 61.6729 33.1243 61.471 33.8926 61.0674C34.6608 60.6637 35.3053 60.0713 35.8262 59.29C36.347 58.4958 36.7441 57.5257 37.0176 56.3799C37.291 55.221 37.4277 53.8929 37.4277 52.3955ZM52.8379 48.8604V74.0557H47.2129V44.7979H52.4277L52.8379 48.8604ZM66.2168 55.1299V55.54C66.2168 57.0765 66.0345 58.5023 65.6699 59.8174C65.3184 61.1325 64.7975 62.2783 64.1074 63.2549C63.4173 64.2184 62.5579 64.9736 61.5293 65.5205C60.5137 66.0544 59.3418 66.3213 58.0137 66.3213C56.7246 66.3213 55.6048 66.0609 54.6543 65.54C53.7038 65.0192 52.903 64.29 52.252 63.3525C51.6139 62.402 51.0996 61.3018 50.709 60.0518C50.3184 58.8018 50.0189 57.4606 49.8105 56.0283V54.9541C50.0189 53.4176 50.3184 52.0114 50.709 50.7354C51.0996 49.4463 51.6139 48.333 52.252 47.3955C52.903 46.445 53.6973 45.7093 54.6348 45.1885C55.5853 44.6676 56.6986 44.4072 57.9746 44.4072C59.3158 44.4072 60.4941 44.6611 61.5098 45.1689C62.5384 45.6768 63.3978 46.4059 64.0879 47.3564C64.791 48.307 65.3184 49.4398 65.6699 50.7549C66.0345 52.07 66.2168 53.5283 66.2168 55.1299ZM60.5723 55.54V55.1299C60.5723 54.2314 60.4941 53.4046 60.3379 52.6494C60.1947 51.8812 59.9603 51.2106 59.6348 50.6377C59.3223 50.0648 58.9056 49.6221 58.3848 49.3096C57.877 48.984 57.2585 48.8213 56.5293 48.8213C55.7611 48.8213 55.1035 48.945 54.5566 49.1924C54.0228 49.4398 53.5866 49.7979 53.248 50.2666C52.9095 50.7354 52.6556 51.2952 52.4863 51.9463C52.3171 52.5973 52.2129 53.333 52.1738 54.1533V56.8682C52.2389 57.8317 52.4212 58.6976 52.7207 59.4658C53.0202 60.221 53.4824 60.82 54.1074 61.2627C54.7324 61.7054 55.5527 61.9268 56.5684 61.9268C57.3105 61.9268 57.9355 61.764 58.4434 61.4385C58.9512 61.0999 59.3613 60.6377 59.6738 60.0518C59.9993 59.4658 60.2272 58.7887 60.3574 58.0205C60.5007 57.2523 60.5723 56.4255 60.5723 55.54ZM84.0879 44.7979V49.2119H75.2988V65.9307H69.6738V44.7979H84.0879ZM97.916 61.165V51.751C97.916 51.0739 97.8053 50.4945 97.584 50.0127C97.3626 49.5179 97.0176 49.1338 96.5488 48.8604C96.0931 48.5869 95.5007 48.4502 94.7715 48.4502C94.1465 48.4502 93.6061 48.5609 93.1504 48.7822C92.6947 48.9906 92.3431 49.2965 92.0957 49.7002C91.8483 50.0908 91.7246 50.5531 91.7246 51.0869H86.0996C86.0996 50.1885 86.3079 49.3356 86.7246 48.5283C87.1413 47.721 87.7467 47.0114 88.541 46.3994C89.3353 45.7744 90.2793 45.2861 91.373 44.9346C92.4798 44.583 93.7168 44.4072 95.084 44.4072C96.7246 44.4072 98.1829 44.6807 99.459 45.2275C100.735 45.7744 101.738 46.5947 102.467 47.6885C103.209 48.7822 103.58 50.1494 103.58 51.79V60.833C103.58 61.9919 103.652 62.9424 103.795 63.6846C103.938 64.4137 104.146 65.0518 104.42 65.5986V65.9307H98.7363C98.4629 65.3577 98.2546 64.6416 98.1113 63.7822C97.9811 62.9098 97.916 62.0374 97.916 61.165ZM98.6582 53.0596L98.6973 56.2432H95.5527C94.8105 56.2432 94.166 56.3278 93.6191 56.4971C93.0723 56.6663 92.623 56.9072 92.2715 57.2197C91.9199 57.5192 91.6595 57.8708 91.4902 58.2744C91.334 58.6781 91.2559 59.1208 91.2559 59.6025C91.2559 60.0843 91.3665 60.5205 91.5879 60.9111C91.8092 61.2887 92.1283 61.5882 92.5449 61.8096C92.9616 62.0179 93.4499 62.1221 94.0098 62.1221C94.8561 62.1221 95.5918 61.9528 96.2168 61.6143C96.8418 61.2757 97.3236 60.859 97.6621 60.3643C98.0137 59.8695 98.196 59.4007 98.209 58.958L99.6934 61.3408C99.485 61.8747 99.1986 62.4281 98.834 63.001C98.4824 63.5739 98.0332 64.1143 97.4863 64.6221C96.9395 65.1169 96.2819 65.527 95.5137 65.8525C94.7454 66.165 93.834 66.3213 92.7793 66.3213C91.4382 66.3213 90.2207 66.0544 89.127 65.5205C88.0462 64.9736 87.1868 64.2249 86.5488 63.2744C85.9238 62.3109 85.6113 61.2171 85.6113 59.9932C85.6113 58.8864 85.8197 57.9033 86.2363 57.0439C86.653 56.1846 87.265 55.4619 88.0723 54.876C88.8926 54.277 89.9147 53.8278 91.1387 53.5283C92.3626 53.2158 93.7819 53.0596 95.3965 53.0596H98.6582ZM122.389 53.333V57.708H111.646V53.333H122.389ZM113.521 44.7979V65.9307H107.896V44.7979H113.521ZM126.197 44.7979V65.9307H120.553V44.7979H126.197ZM136.178 58.0791L143.268 44.7979H148.893V65.9307H143.268V52.6299L136.178 65.9307H130.553V44.7979H136.178V58.0791ZM162.643 55.8525H158.463V53.333H161.451C162.154 53.333 162.714 53.2354 163.131 53.04C163.561 52.8447 163.867 52.5713 164.049 52.2197C164.244 51.8551 164.342 51.445 164.342 50.9893C164.342 50.5856 164.257 50.2015 164.088 49.8369C163.932 49.4593 163.645 49.1533 163.229 48.9189C162.825 48.6715 162.252 48.5479 161.51 48.5479C160.898 48.5479 160.351 48.639 159.869 48.8213C159.4 49.0036 159.029 49.2705 158.756 49.6221C158.495 49.9606 158.365 50.3708 158.365 50.8525H152.721C152.721 49.5114 153.105 48.3656 153.873 47.415C154.641 46.4515 155.67 45.7158 156.959 45.208C158.248 44.6872 159.661 44.4268 161.197 44.4268C162.538 44.4268 163.749 44.5635 164.83 44.8369C165.911 45.0973 166.835 45.488 167.604 46.0088C168.372 46.5296 168.958 47.1742 169.361 47.9424C169.778 48.6976 169.986 49.5765 169.986 50.5791C169.986 51.2952 169.817 51.9723 169.479 52.6104C169.14 53.2484 168.652 53.8148 168.014 54.3096C167.376 54.7913 166.601 55.1689 165.689 55.4424C164.791 55.7158 163.775 55.8525 162.643 55.8525ZM158.463 54.4463H162.643C163.906 54.4463 165.012 54.57 165.963 54.8174C166.926 55.0518 167.734 55.4033 168.385 55.8721C169.036 56.3408 169.524 56.9202 169.85 57.6104C170.188 58.2874 170.357 59.0687 170.357 59.9541C170.357 60.9567 170.136 61.8551 169.693 62.6494C169.251 63.4307 168.619 64.0947 167.799 64.6416C166.979 65.1885 166.008 65.6051 164.889 65.8916C163.769 66.1781 162.538 66.3213 161.197 66.3213C159.765 66.3213 158.372 66.0869 157.018 65.6182C155.663 65.1494 154.55 64.4268 153.678 63.4502C152.818 62.4736 152.389 61.2171 152.389 59.6807H158.033C158.033 60.1234 158.163 60.54 158.424 60.9307C158.684 61.3213 159.075 61.6338 159.596 61.8682C160.117 62.0895 160.761 62.2002 161.529 62.2002C162.298 62.2002 162.916 62.0765 163.385 61.8291C163.854 61.5817 164.192 61.2562 164.4 60.8525C164.622 60.4359 164.732 60.0062 164.732 59.5635C164.732 58.9385 164.609 58.4307 164.361 58.04C164.127 57.6494 163.762 57.363 163.268 57.1807C162.786 56.9984 162.18 56.9072 161.451 56.9072H158.463V54.4463ZM180.084 63.5479L185.689 44.7979H191.725L183.229 69.1143C183.046 69.6481 182.799 70.221 182.486 70.833C182.187 71.445 181.777 72.0244 181.256 72.5713C180.748 73.1312 180.104 73.5869 179.322 73.9385C178.554 74.29 177.61 74.4658 176.49 74.4658C175.956 74.4658 175.52 74.4333 175.182 74.3682C174.843 74.3031 174.439 74.2119 173.971 74.0947V69.9736C174.114 69.9736 174.264 69.9736 174.42 69.9736C174.576 69.9867 174.726 69.9932 174.869 69.9932C175.611 69.9932 176.217 69.9085 176.686 69.7393C177.154 69.57 177.532 69.3096 177.818 68.958C178.105 68.6195 178.333 68.1768 178.502 67.6299L180.084 63.5479ZM177.74 44.7979L182.33 60.1104L183.131 66.0674L179.303 66.4775L171.705 44.7979H177.74ZM199.576 58.0791L206.666 44.7979H212.291V65.9307H206.666V52.6299L199.576 65.9307H193.951V44.7979H199.576V58.0791ZM206.021 36.3018H210.025C210.025 37.4215 209.745 38.4176 209.186 39.29C208.639 40.1494 207.857 40.8265 206.842 41.3213C205.826 41.8031 204.628 42.0439 203.248 42.0439C201.152 42.0439 199.492 41.5101 198.268 40.4424C197.057 39.3747 196.451 37.9945 196.451 36.3018H200.436C200.436 36.9788 200.644 37.5843 201.061 38.1182C201.49 38.652 202.219 38.9189 203.248 38.9189C204.264 38.9189 204.98 38.652 205.396 38.1182C205.813 37.5843 206.021 36.9788 206.021 36.3018ZM235.318 61.9268C236.008 61.9268 236.62 61.7965 237.154 61.5361C237.688 61.2627 238.105 60.8851 238.404 60.4033C238.717 59.9085 238.88 59.3291 238.893 58.665H244.186C244.173 60.1494 243.775 61.471 242.994 62.6299C242.213 63.7757 241.165 64.6807 239.85 65.3447C238.535 65.9958 237.063 66.3213 235.436 66.3213C233.795 66.3213 232.363 66.0479 231.139 65.501C229.928 64.9541 228.919 64.1989 228.111 63.2354C227.304 62.2588 226.699 61.126 226.295 59.8369C225.891 58.5348 225.689 57.1416 225.689 55.6572V55.0908C225.689 53.5934 225.891 52.2002 226.295 50.9111C226.699 49.609 227.304 48.4762 228.111 47.5127C228.919 46.5361 229.928 45.7744 231.139 45.2275C232.35 44.6807 233.769 44.4072 235.396 44.4072C237.128 44.4072 238.645 44.7393 239.947 45.4033C241.262 46.0674 242.291 47.0179 243.033 48.2549C243.788 49.4788 244.173 50.9307 244.186 52.6104H238.893C238.88 51.9072 238.73 51.2692 238.443 50.6963C238.17 50.1234 237.766 49.6676 237.232 49.3291C236.712 48.9775 236.067 48.8018 235.299 48.8018C234.479 48.8018 233.808 48.9775 233.287 49.3291C232.766 49.6676 232.363 50.1364 232.076 50.7354C231.79 51.3213 231.588 51.9919 231.471 52.7471C231.367 53.4893 231.314 54.2705 231.314 55.0908V55.6572C231.314 56.4775 231.367 57.2653 231.471 58.0205C231.575 58.7757 231.77 59.4463 232.057 60.0322C232.356 60.6182 232.766 61.0804 233.287 61.4189C233.808 61.7575 234.485 61.9268 235.318 61.9268ZM257.975 57.1025H251.354L251.314 53.4111H256.783C257.512 53.4111 258.105 53.3395 258.561 53.1963C259.016 53.04 259.348 52.8122 259.557 52.5127C259.778 52.2002 259.889 51.8226 259.889 51.3799C259.889 50.9893 259.817 50.6572 259.674 50.3838C259.544 50.0973 259.342 49.863 259.068 49.6807C258.795 49.4984 258.45 49.3682 258.033 49.29C257.63 49.1989 257.154 49.1533 256.607 49.1533H253.443V65.9307H247.818V44.7979H256.607C257.988 44.7979 259.225 44.9215 260.318 45.1689C261.412 45.4033 262.343 45.7614 263.111 46.2432C263.893 46.7249 264.485 47.3369 264.889 48.0791C265.305 48.8083 265.514 49.6742 265.514 50.6768C265.514 51.3278 265.364 51.9398 265.064 52.5127C264.778 53.0856 264.348 53.5934 263.775 54.0361C263.202 54.4788 262.493 54.8434 261.646 55.1299C260.813 55.4033 259.85 55.5726 258.756 55.6377L257.975 57.1025ZM257.975 65.9307H249.967L251.9 61.5752H257.975C258.665 61.5752 259.231 61.4906 259.674 61.3213C260.117 61.152 260.442 60.9046 260.65 60.5791C260.872 60.2406 260.982 59.8369 260.982 59.3682C260.982 58.9124 260.885 58.5153 260.689 58.1768C260.494 57.8382 260.175 57.5778 259.732 57.3955C259.303 57.2002 258.717 57.1025 257.975 57.1025H252.721L252.76 53.4111H258.736L260.104 54.8955C261.588 54.9867 262.812 55.2666 263.775 55.7354C264.739 56.2041 265.449 56.8031 265.904 57.5322C266.373 58.2484 266.607 59.0361 266.607 59.8955C266.607 60.8981 266.419 61.777 266.041 62.5322C265.663 63.2874 265.104 63.9189 264.361 64.4268C263.632 64.9215 262.734 65.2992 261.666 65.5596C260.598 65.807 259.368 65.9307 257.975 65.9307ZM269.166 55.5791V55.1689C269.166 53.6195 269.387 52.1937 269.83 50.8916C270.273 49.5765 270.917 48.4372 271.764 47.4736C272.61 46.5101 273.652 45.7614 274.889 45.2275C276.126 44.6807 277.545 44.4072 279.146 44.4072C280.748 44.4072 282.174 44.6807 283.424 45.2275C284.674 45.7614 285.722 46.5101 286.568 47.4736C287.428 48.4372 288.079 49.5765 288.521 50.8916C288.964 52.1937 289.186 53.6195 289.186 55.1689V55.5791C289.186 57.1156 288.964 58.5413 288.521 59.8564C288.079 61.1585 287.428 62.2979 286.568 63.2744C285.722 64.238 284.68 64.9867 283.443 65.5205C282.206 66.0544 280.787 66.3213 279.186 66.3213C277.584 66.3213 276.158 66.0544 274.908 65.5205C273.671 64.9867 272.623 64.238 271.764 63.2744C270.917 62.2979 270.273 61.1585 269.83 59.8564C269.387 58.5413 269.166 57.1156 269.166 55.5791ZM274.791 55.1689V55.5791C274.791 56.4645 274.869 57.2913 275.025 58.0596C275.182 58.8278 275.429 59.5049 275.768 60.0908C276.119 60.6637 276.575 61.113 277.135 61.4385C277.695 61.764 278.378 61.9268 279.186 61.9268C279.967 61.9268 280.637 61.764 281.197 61.4385C281.757 61.113 282.206 60.6637 282.545 60.0908C282.883 59.5049 283.131 58.8278 283.287 58.0596C283.456 57.2913 283.541 56.4645 283.541 55.5791V55.1689C283.541 54.3096 283.456 53.5023 283.287 52.7471C283.131 51.9788 282.877 51.3018 282.525 50.7158C282.187 50.1169 281.738 49.6481 281.178 49.3096C280.618 48.971 279.941 48.8018 279.146 48.8018C278.352 48.8018 277.675 48.971 277.115 49.3096C276.568 49.6481 276.119 50.1169 275.768 50.7158C275.429 51.3018 275.182 51.9788 275.025 52.7471C274.869 53.5023 274.791 54.3096 274.791 55.1689ZM302.369 66.3213C300.729 66.3213 299.257 66.0609 297.955 65.54C296.653 65.0062 295.546 64.2705 294.635 63.333C293.736 62.3955 293.046 61.3083 292.564 60.0713C292.083 58.8213 291.842 57.4932 291.842 56.0869V55.3057C291.842 53.7041 292.07 52.2393 292.525 50.9111C292.981 49.583 293.632 48.4307 294.479 47.4541C295.338 46.4775 296.38 45.7288 297.604 45.208C298.827 44.6742 300.208 44.4072 301.744 44.4072C303.242 44.4072 304.57 44.6546 305.729 45.1494C306.887 45.6442 307.857 46.3473 308.639 47.2588C309.433 48.1702 310.032 49.264 310.436 50.54C310.839 51.8031 311.041 53.2093 311.041 54.7588V57.1025H294.244V53.3525H305.514V52.9229C305.514 52.1416 305.37 51.445 305.084 50.833C304.811 50.208 304.394 49.7132 303.834 49.3486C303.274 48.984 302.558 48.8018 301.686 48.8018C300.943 48.8018 300.305 48.9645 299.771 49.29C299.238 49.6156 298.801 50.0713 298.463 50.6572C298.137 51.2432 297.89 51.9333 297.721 52.7275C297.564 53.5088 297.486 54.3682 297.486 55.3057V56.0869C297.486 56.9333 297.604 57.7145 297.838 58.4307C298.085 59.1468 298.43 59.7653 298.873 60.2861C299.329 60.807 299.876 61.2106 300.514 61.4971C301.165 61.7835 301.9 61.9268 302.721 61.9268C303.736 61.9268 304.68 61.7314 305.553 61.3408C306.438 60.9372 307.2 60.3317 307.838 59.5244L310.572 62.4932C310.13 63.1312 309.524 63.7432 308.756 64.3291C308.001 64.915 307.089 65.3968 306.021 65.7744C304.954 66.139 303.736 66.3213 302.369 66.3213ZM32.4863 93.4658L38.0332 78.7979H42.623L34.3809 99.9307H30.5918L22.3887 78.7979H26.9785L32.4863 93.4658ZM25.6309 78.7979V99.9307H20.0059V78.7979H25.6309ZM39.4785 99.9307V78.7979H45.1035V99.9307H39.4785ZM59.752 100.321C58.1113 100.321 56.64 100.061 55.3379 99.54C54.0358 99.0062 52.929 98.2705 52.0176 97.333C51.1191 96.3955 50.429 95.3083 49.9473 94.0713C49.4655 92.8213 49.2246 91.4932 49.2246 90.0869V89.3057C49.2246 87.7041 49.4525 86.2393 49.9082 84.9111C50.3639 83.583 51.015 82.4307 51.8613 81.4541C52.7207 80.4775 53.7624 79.7288 54.9863 79.208C56.2103 78.6742 57.5905 78.4072 59.127 78.4072C60.6243 78.4072 61.9525 78.6546 63.1113 79.1494C64.2702 79.6442 65.2402 80.3473 66.0215 81.2588C66.8158 82.1702 67.4147 83.264 67.8184 84.54C68.222 85.8031 68.4238 87.2093 68.4238 88.7588V91.1025H51.627V87.3525H62.8965V86.9229C62.8965 86.1416 62.7533 85.445 62.4668 84.833C62.1934 84.208 61.7767 83.7132 61.2168 83.3486C60.6569 82.984 59.9408 82.8018 59.0684 82.8018C58.3262 82.8018 57.6882 82.9645 57.1543 83.29C56.6204 83.6156 56.1842 84.0713 55.8457 84.6572C55.5202 85.2432 55.2728 85.9333 55.1035 86.7275C54.9473 87.5088 54.8691 88.3682 54.8691 89.3057V90.0869C54.8691 90.9333 54.9863 91.7145 55.2207 92.4307C55.4681 93.1468 55.8132 93.7653 56.2559 94.2861C56.7116 94.807 57.2585 95.2106 57.8965 95.4971C58.5475 95.7835 59.2832 95.9268 60.1035 95.9268C61.1191 95.9268 62.0632 95.7314 62.9355 95.3408C63.821 94.9372 64.5827 94.3317 65.2207 93.5244L67.9551 96.4932C67.5124 97.1312 66.9069 97.7432 66.1387 98.3291C65.3835 98.915 64.472 99.3968 63.4043 99.7744C62.3366 100.139 61.1191 100.321 59.752 100.321ZM77.252 82.8604V108.056H71.627V78.7979H76.8418L77.252 82.8604ZM90.6309 89.1299V89.54C90.6309 91.0765 90.4486 92.5023 90.084 93.8174C89.7324 95.1325 89.2116 96.2783 88.5215 97.2549C87.8314 98.2184 86.972 98.9736 85.9434 99.5205C84.9277 100.054 83.7559 100.321 82.4277 100.321C81.1387 100.321 80.0189 100.061 79.0684 99.54C78.1178 99.0192 77.3171 98.29 76.666 97.3525C76.028 96.402 75.5137 95.3018 75.123 94.0518C74.7324 92.8018 74.4329 91.4606 74.2246 90.0283V88.9541C74.4329 87.4176 74.7324 86.0114 75.123 84.7354C75.5137 83.4463 76.028 82.333 76.666 81.3955C77.3171 80.445 78.1113 79.7093 79.0488 79.1885C79.9993 78.6676 81.1126 78.4072 82.3887 78.4072C83.7298 78.4072 84.9082 78.6611 85.9238 79.1689C86.9525 79.6768 87.8118 80.4059 88.502 81.3564C89.2051 82.307 89.7324 83.4398 90.084 84.7549C90.4486 86.07 90.6309 87.5283 90.6309 89.1299ZM84.9863 89.54V89.1299C84.9863 88.2314 84.9082 87.4046 84.752 86.6494C84.6087 85.8812 84.3743 85.2106 84.0488 84.6377C83.7363 84.0648 83.3197 83.6221 82.7988 83.3096C82.291 82.984 81.6725 82.8213 80.9434 82.8213C80.1751 82.8213 79.5176 82.945 78.9707 83.1924C78.4368 83.4398 78.0007 83.7979 77.6621 84.2666C77.3236 84.7354 77.0697 85.2952 76.9004 85.9463C76.7311 86.5973 76.627 87.333 76.5879 88.1533V90.8682C76.653 91.8317 76.8353 92.6976 77.1348 93.4658C77.4342 94.221 77.8965 94.82 78.5215 95.2627C79.1465 95.7054 79.9668 95.9268 80.9824 95.9268C81.7246 95.9268 82.3496 95.764 82.8574 95.4385C83.3652 95.0999 83.7754 94.6377 84.0879 94.0518C84.4134 93.4658 84.6413 92.7887 84.7715 92.0205C84.9147 91.2523 84.9863 90.4255 84.9863 89.54ZM93.2285 89.5791V89.1689C93.2285 87.6195 93.4499 86.1937 93.8926 84.8916C94.3353 83.5765 94.9798 82.4372 95.8262 81.4736C96.6725 80.5101 97.7142 79.7614 98.9512 79.2275C100.188 78.6807 101.607 78.4072 103.209 78.4072C104.811 78.4072 106.236 78.6807 107.486 79.2275C108.736 79.7614 109.785 80.5101 110.631 81.4736C111.49 82.4372 112.141 83.5765 112.584 84.8916C113.027 86.1937 113.248 87.6195 113.248 89.1689V89.5791C113.248 91.1156 113.027 92.5413 112.584 93.8564C112.141 95.1585 111.49 96.2979 110.631 97.2744C109.785 98.238 108.743 98.9867 107.506 99.5205C106.269 100.054 104.85 100.321 103.248 100.321C101.646 100.321 100.221 100.054 98.9707 99.5205C97.7337 98.9867 96.6855 98.238 95.8262 97.2744C94.9798 96.2979 94.3353 95.1585 93.8926 93.8564C93.4499 92.5413 93.2285 91.1156 93.2285 89.5791ZM98.8535 89.1689V89.5791C98.8535 90.4645 98.9316 91.2913 99.0879 92.0596C99.2441 92.8278 99.4915 93.5049 99.8301 94.0908C100.182 94.6637 100.637 95.113 101.197 95.4385C101.757 95.764 102.441 95.9268 103.248 95.9268C104.029 95.9268 104.7 95.764 105.26 95.4385C105.82 95.113 106.269 94.6637 106.607 94.0908C106.946 93.5049 107.193 92.8278 107.35 92.0596C107.519 91.2913 107.604 90.4645 107.604 89.5791V89.1689C107.604 88.3096 107.519 87.5023 107.35 86.7471C107.193 85.9788 106.939 85.3018 106.588 84.7158C106.249 84.1169 105.8 83.6481 105.24 83.3096C104.68 82.971 104.003 82.8018 103.209 82.8018C102.415 82.8018 101.738 82.971 101.178 83.3096C100.631 83.6481 100.182 84.1169 99.8301 84.7158C99.4915 85.3018 99.2441 85.9788 99.0879 86.7471C98.9316 87.5023 98.8535 88.3096 98.8535 89.1689ZM130.924 78.7979V83.2119H120.689V78.7979H130.924ZM122.311 78.7979V99.9307H116.686V78.7979H122.311ZM135.025 78.7979V99.9307H129.381V78.7979H135.025ZM144.986 82.8604V108.056H139.361V78.7979H144.576L144.986 82.8604ZM158.365 89.1299V89.54C158.365 91.0765 158.183 92.5023 157.818 93.8174C157.467 95.1325 156.946 96.2783 156.256 97.2549C155.566 98.2184 154.706 98.9736 153.678 99.5205C152.662 100.054 151.49 100.321 150.162 100.321C148.873 100.321 147.753 100.061 146.803 99.54C145.852 99.0192 145.051 98.29 144.4 97.3525C143.762 96.402 143.248 95.3018 142.857 94.0518C142.467 92.8018 142.167 91.4606 141.959 90.0283V88.9541C142.167 87.4176 142.467 86.0114 142.857 84.7354C143.248 83.4463 143.762 82.333 144.4 81.3955C145.051 80.445 145.846 79.7093 146.783 79.1885C147.734 78.6676 148.847 78.4072 150.123 78.4072C151.464 78.4072 152.643 78.6611 153.658 79.1689C154.687 79.6768 155.546 80.4059 156.236 81.3564C156.939 82.307 157.467 83.4398 157.818 84.7549C158.183 86.07 158.365 87.5283 158.365 89.1299ZM152.721 89.54V89.1299C152.721 88.2314 152.643 87.4046 152.486 86.6494C152.343 85.8812 152.109 85.2106 151.783 84.6377C151.471 84.0648 151.054 83.6221 150.533 83.3096C150.025 82.984 149.407 82.8213 148.678 82.8213C147.91 82.8213 147.252 82.945 146.705 83.1924C146.171 83.4398 145.735 83.7979 145.396 84.2666C145.058 84.7354 144.804 85.2952 144.635 85.9463C144.465 86.5973 144.361 87.333 144.322 88.1533V90.8682C144.387 91.8317 144.57 92.6976 144.869 93.4658C145.169 94.221 145.631 94.82 146.256 95.2627C146.881 95.7054 147.701 95.9268 148.717 95.9268C149.459 95.9268 150.084 95.764 150.592 95.4385C151.1 95.0999 151.51 94.6377 151.822 94.0518C152.148 93.4658 152.376 92.7887 152.506 92.0205C152.649 91.2523 152.721 90.4255 152.721 89.54ZM167.467 92.0791L174.557 78.7979H180.182V99.9307H174.557V86.6299L167.467 99.9307H161.842V78.7979H167.467V92.0791ZM189.068 89.3838H194.771L188.893 99.9307H183.209L189.068 89.3838ZM192.857 78.7979H202.135V99.9307H196.51V83.1533H192.857C192.089 83.1533 191.451 83.2965 190.943 83.583C190.436 83.8564 190.058 84.2145 189.811 84.6572C189.576 85.0869 189.459 85.5296 189.459 85.9854C189.459 86.4281 189.576 86.8577 189.811 87.2744C190.045 87.6911 190.41 88.0361 190.904 88.3096C191.399 88.583 192.018 88.7197 192.76 88.7197H198.6V92.5479H192.76C191.367 92.5479 190.117 92.3786 189.01 92.04C187.916 91.7015 186.979 91.2327 186.197 90.6338C185.429 90.0218 184.837 89.3122 184.42 88.5049C184.016 87.6846 183.814 86.7861 183.814 85.8096C183.814 84.7939 184.023 83.863 184.439 83.0166C184.856 82.1702 185.455 81.4281 186.236 80.79C187.018 80.152 187.962 79.6637 189.068 79.3252C190.188 78.9736 191.451 78.7979 192.857 78.7979ZM217.662 78.7979V99.9307H212.018V78.7979H217.662ZM224.459 78.7979V83.1533H205.318V78.7979H224.459ZM232.936 92.0791L240.025 78.7979H245.65V99.9307H240.025V86.6299L232.936 99.9307H227.311V78.7979H232.936V92.0791ZM259.713 100.321C258.072 100.321 256.601 100.061 255.299 99.54C253.997 99.0062 252.89 98.2705 251.979 97.333C251.08 96.3955 250.39 95.3083 249.908 94.0713C249.426 92.8213 249.186 91.4932 249.186 90.0869V89.3057C249.186 87.7041 249.413 86.2393 249.869 84.9111C250.325 83.583 250.976 82.4307 251.822 81.4541C252.682 80.4775 253.723 79.7288 254.947 79.208C256.171 78.6742 257.551 78.4072 259.088 78.4072C260.585 78.4072 261.913 78.6546 263.072 79.1494C264.231 79.6442 265.201 80.3473 265.982 81.2588C266.777 82.1702 267.376 83.264 267.779 84.54C268.183 85.8031 268.385 87.2093 268.385 88.7588V91.1025H251.588V87.3525H262.857V86.9229C262.857 86.1416 262.714 85.445 262.428 84.833C262.154 84.208 261.738 83.7132 261.178 83.3486C260.618 82.984 259.902 82.8018 259.029 82.8018C258.287 82.8018 257.649 82.9645 257.115 83.29C256.581 83.6156 256.145 84.0713 255.807 84.6572C255.481 85.2432 255.234 85.9333 255.064 86.7275C254.908 87.5088 254.83 88.3682 254.83 89.3057V90.0869C254.83 90.9333 254.947 91.7145 255.182 92.4307C255.429 93.1468 255.774 93.7653 256.217 94.2861C256.673 94.807 257.219 95.2106 257.857 95.4971C258.508 95.7835 259.244 95.9268 260.064 95.9268C261.08 95.9268 262.024 95.7314 262.896 95.3408C263.782 94.9372 264.544 94.3317 265.182 93.5244L267.916 96.4932C267.473 97.1312 266.868 97.7432 266.1 98.3291C265.344 98.915 264.433 99.3968 263.365 99.7744C262.298 100.139 261.08 100.321 259.713 100.321Z" fill="white"/>
<path d="M19.8786 377.724V363.178H28.657V364.741H21.6399V369.655H28.2024V371.218H21.6399V376.161H28.7706V377.724H19.8786ZM36.0362 377.951C35.0135 377.951 34.1328 377.709 33.3942 377.226C32.6555 376.744 32.0874 376.078 31.6896 375.231C31.2919 374.383 31.093 373.415 31.093 372.326C31.093 371.218 31.2966 370.24 31.7038 369.393C32.1158 368.54 32.6887 367.875 33.4226 367.397C34.1612 366.914 35.023 366.672 36.0078 366.672C36.7749 366.672 37.4661 366.815 38.0817 367.099C38.6972 367.383 39.2015 367.78 39.5945 368.292C39.9875 368.803 40.2313 369.4 40.326 370.082H38.6499C38.522 369.584 38.2379 369.144 37.7976 368.761C37.362 368.372 36.7749 368.178 36.0362 368.178C35.3828 368.178 34.8099 368.349 34.3175 368.69C33.8298 369.026 33.4486 369.502 33.174 370.117C32.9041 370.728 32.7692 371.445 32.7692 372.269C32.7692 373.112 32.9018 373.846 33.1669 374.471C33.4368 375.096 33.8156 375.581 34.3033 375.927C34.7957 376.272 35.3733 376.445 36.0362 376.445C36.4718 376.445 36.8672 376.369 37.2223 376.218C37.5774 376.066 37.8781 375.849 38.1243 375.565C38.3705 375.28 38.5457 374.94 38.6499 374.542H40.326C40.2313 375.186 39.9969 375.766 39.6229 376.282C39.2536 376.793 38.7635 377.2 38.1527 377.503C37.5466 377.802 36.8411 377.951 36.0362 377.951ZM41.8104 377.724V376.161H42.2081C42.5348 376.161 42.8071 376.097 43.0249 375.969C43.2427 375.837 43.4179 375.607 43.5504 375.28C43.6877 374.949 43.7919 374.49 43.8629 373.903C43.9387 373.311 43.9931 372.558 44.0263 371.644L44.2251 366.815H51.4979V377.724H49.8217V368.377H45.8161L45.6456 372.269C45.6077 373.164 45.5272 373.952 45.4041 374.634C45.2857 375.311 45.1035 375.879 44.8572 376.339C44.6158 376.798 44.2938 377.144 43.8913 377.376C43.4889 377.608 42.9846 377.724 42.3786 377.724H41.8104ZM56.2493 375.252L61.505 366.815H63.4368V377.724H61.7607V369.286L56.5334 377.724H54.5732V366.815H56.2493V375.252ZM79.4329 371.502V373.065H73.4102V371.502H79.4329ZM73.8079 366.815V377.724H72.1317V366.815H73.8079ZM80.7113 366.815V377.724H79.0352V366.815H80.7113ZM88.3462 377.951C87.2951 377.951 86.3884 377.719 85.6261 377.255C84.8685 376.786 84.2837 376.133 83.8718 375.295C83.4646 374.452 83.261 373.472 83.261 372.354C83.261 371.237 83.4646 370.252 83.8718 369.4C84.2837 368.543 84.8567 367.875 85.5906 367.397C86.3292 366.914 87.1909 366.672 88.1758 366.672C88.744 366.672 89.305 366.767 89.859 366.957C90.413 367.146 90.9173 367.454 91.3718 367.88C91.8263 368.301 92.1886 368.86 92.4585 369.556C92.7283 370.252 92.8633 371.109 92.8633 372.127V372.837H84.4542V371.388H91.1587C91.1587 370.773 91.0356 370.224 90.7894 369.741C90.5479 369.258 90.2023 368.877 89.7525 368.597C89.3074 368.318 88.7818 368.178 88.1758 368.178C87.5082 368.178 86.9305 368.344 86.4428 368.675C85.9599 369.002 85.5882 369.428 85.3278 369.954C85.0674 370.479 84.9371 371.043 84.9371 371.644V372.61C84.9371 373.434 85.0792 374.132 85.3633 374.705C85.6521 375.273 86.0522 375.707 86.5636 376.005C87.0749 376.298 87.6692 376.445 88.3462 376.445C88.7866 376.445 89.1843 376.384 89.5394 376.261C89.8993 376.133 90.2094 375.943 90.4698 375.692C90.7302 375.437 90.9315 375.119 91.0735 374.741L92.6928 375.195C92.5224 375.744 92.2359 376.227 91.8335 376.644C91.431 377.056 90.9338 377.378 90.342 377.61C89.7501 377.837 89.0849 377.951 88.3462 377.951ZM94.3974 368.377V366.815H103.261V368.377H99.6815V377.724H98.0053V368.377H94.3974ZM117.297 375.451L121.104 366.815H122.695L117.979 377.724H116.615L111.984 366.815H113.547L117.297 375.451ZM113.007 366.815V377.724H111.331V366.815H113.007ZM121.587 377.724V366.815H123.263V377.724H121.587ZM130.905 377.951C129.854 377.951 128.947 377.719 128.185 377.255C127.427 376.786 126.842 376.133 126.43 375.295C126.023 374.452 125.82 373.472 125.82 372.354C125.82 371.237 126.023 370.252 126.43 369.4C126.842 368.543 127.415 367.875 128.149 367.397C128.888 366.914 129.75 366.672 130.734 366.672C131.303 366.672 131.864 366.767 132.418 366.957C132.972 367.146 133.476 367.454 133.93 367.88C134.385 368.301 134.747 368.86 135.017 369.556C135.287 370.252 135.422 371.109 135.422 372.127V372.837H127.013V371.388H133.717C133.717 370.773 133.594 370.224 133.348 369.741C133.107 369.258 132.761 368.877 132.311 368.597C131.866 368.318 131.34 368.178 130.734 368.178C130.067 368.178 129.489 368.344 129.001 368.675C128.518 369.002 128.147 369.428 127.886 369.954C127.626 370.479 127.496 371.043 127.496 371.644V372.61C127.496 373.434 127.638 374.132 127.922 374.705C128.211 375.273 128.611 375.707 129.122 376.005C129.634 376.298 130.228 376.445 130.905 376.445C131.345 376.445 131.743 376.384 132.098 376.261C132.458 376.133 132.768 375.943 133.028 375.692C133.289 375.437 133.49 375.119 133.632 374.741L135.251 375.195C135.081 375.744 134.795 376.227 134.392 376.644C133.99 377.056 133.492 377.378 132.901 377.61C132.309 377.837 131.643 377.951 130.905 377.951ZM137.972 381.815V366.815H139.591V368.547H139.79C139.913 368.358 140.083 368.117 140.301 367.823C140.524 367.525 140.841 367.26 141.253 367.028C141.67 366.791 142.233 366.672 142.943 366.672C143.862 366.672 144.671 366.902 145.372 367.361C146.073 367.821 146.62 368.472 147.013 369.315C147.406 370.157 147.602 371.152 147.602 372.297C147.602 373.453 147.406 374.454 147.013 375.302C146.62 376.145 146.075 376.798 145.379 377.262C144.683 377.721 143.881 377.951 142.972 377.951C142.271 377.951 141.71 377.835 141.288 377.603C140.867 377.366 140.543 377.099 140.315 376.8C140.088 376.497 139.913 376.246 139.79 376.047H139.648V381.815H137.972ZM139.619 372.269C139.619 373.093 139.74 373.82 139.982 374.449C140.223 375.074 140.576 375.565 141.04 375.92C141.504 376.27 142.072 376.445 142.744 376.445C143.445 376.445 144.03 376.261 144.499 375.891C144.972 375.517 145.327 375.015 145.564 374.386C145.805 373.751 145.926 373.046 145.926 372.269C145.926 371.502 145.808 370.811 145.571 370.195C145.339 369.575 144.986 369.085 144.513 368.725C144.044 368.36 143.455 368.178 142.744 368.178C142.063 368.178 141.49 368.351 141.026 368.697C140.562 369.038 140.211 369.516 139.974 370.131C139.738 370.742 139.619 371.455 139.619 372.269ZM154.591 377.951C153.606 377.951 152.742 377.717 151.999 377.248C151.26 376.779 150.682 376.123 150.266 375.28C149.854 374.438 149.648 373.453 149.648 372.326C149.648 371.19 149.854 370.198 150.266 369.35C150.682 368.503 151.26 367.844 151.999 367.376C152.742 366.907 153.606 366.672 154.591 366.672C155.576 366.672 156.438 366.907 157.176 367.376C157.92 367.844 158.497 368.503 158.909 369.35C159.326 370.198 159.534 371.19 159.534 372.326C159.534 373.453 159.326 374.438 158.909 375.28C158.497 376.123 157.92 376.779 157.176 377.248C156.438 377.717 155.576 377.951 154.591 377.951ZM154.591 376.445C155.339 376.445 155.955 376.253 156.438 375.87C156.92 375.486 157.278 374.982 157.51 374.357C157.742 373.732 157.858 373.055 157.858 372.326C157.858 371.597 157.742 370.917 157.51 370.288C157.278 369.658 156.92 369.149 156.438 368.761C155.955 368.372 155.339 368.178 154.591 368.178C153.843 368.178 153.227 368.372 152.744 368.761C152.261 369.149 151.904 369.658 151.672 370.288C151.44 370.917 151.324 371.597 151.324 372.326C151.324 373.055 151.44 373.732 151.672 374.357C151.904 374.982 152.261 375.486 152.744 375.87C153.227 376.253 153.843 376.445 154.591 376.445ZM162.093 377.724V366.815H170.672V377.724H168.996V368.377H163.769V377.724H162.093ZM173.733 381.815V366.815H175.353V368.547H175.551C175.675 368.358 175.845 368.117 176.063 367.823C176.285 367.525 176.603 367.26 177.015 367.028C177.431 366.791 177.995 366.672 178.705 366.672C179.623 366.672 180.433 366.902 181.134 367.361C181.835 367.821 182.382 368.472 182.775 369.315C183.167 370.157 183.364 371.152 183.364 372.297C183.364 373.453 183.167 374.454 182.775 375.302C182.382 376.145 181.837 376.798 181.141 377.262C180.445 377.721 179.642 377.951 178.733 377.951C178.033 377.951 177.471 377.835 177.05 377.603C176.629 377.366 176.304 377.099 176.077 376.8C175.85 376.497 175.675 376.246 175.551 376.047H175.409V381.815H173.733ZM175.381 372.269C175.381 373.093 175.502 373.82 175.743 374.449C175.985 375.074 176.337 375.565 176.801 375.92C177.266 376.27 177.834 376.445 178.506 376.445C179.207 376.445 179.792 376.261 180.26 375.891C180.734 375.517 181.089 375.015 181.326 374.386C181.567 373.751 181.688 373.046 181.688 372.269C181.688 371.502 181.569 370.811 181.333 370.195C181.101 369.575 180.748 369.085 180.275 368.725C179.806 368.36 179.216 368.178 178.506 368.178C177.824 368.178 177.251 368.351 176.787 368.697C176.323 369.038 175.973 369.516 175.736 370.131C175.499 370.742 175.381 371.455 175.381 372.269ZM187.597 375.252L192.853 366.815H194.784V377.724H193.108V369.286L187.881 377.724H185.921V366.815H187.597V375.252ZM204.417 377.724V368.349H201.519C200.866 368.349 200.352 368.5 199.978 368.803C199.604 369.106 199.417 369.523 199.417 370.053C199.417 370.574 199.585 370.984 199.921 371.282C200.262 371.58 200.728 371.729 201.32 371.729H204.843V373.292H201.32C200.582 373.292 199.945 373.162 199.41 372.901C198.875 372.641 198.463 372.269 198.174 371.786C197.885 371.298 197.741 370.721 197.741 370.053C197.741 369.381 197.892 368.803 198.195 368.32C198.498 367.837 198.932 367.466 199.495 367.205C200.063 366.945 200.738 366.815 201.519 366.815H206.008V377.724H204.417ZM197.144 377.724L200.241 372.297H202.059L198.962 377.724H197.144ZM207.6 368.377V366.815H216.464V368.377H212.885V377.724H211.208V368.377H207.6ZM220.585 375.252L225.841 366.815H227.773V377.724H226.097V369.286L220.869 377.724H218.909V366.815H220.585V375.252ZM237.405 377.724V368.349H234.507C233.854 368.349 233.34 368.5 232.966 368.803C232.592 369.106 232.405 369.523 232.405 370.053C232.405 370.574 232.573 370.984 232.909 371.282C233.25 371.58 233.717 371.729 234.309 371.729H237.831V373.292H234.309C233.57 373.292 232.933 373.162 232.398 372.901C231.863 372.641 231.451 372.269 231.162 371.786C230.873 371.298 230.729 370.721 230.729 370.053C230.729 369.381 230.881 368.803 231.184 368.32C231.487 367.837 231.92 367.466 232.483 367.205C233.051 366.945 233.726 366.815 234.507 366.815H238.996V377.724H237.405ZM230.132 377.724L233.229 372.297H235.047L231.951 377.724H230.132ZM244.573 375.735L244.46 376.502C244.379 377.042 244.256 377.619 244.09 378.235C243.929 378.851 243.761 379.431 243.586 379.975C243.411 380.52 243.266 380.953 243.153 381.275H241.874C241.936 380.972 242.016 380.572 242.116 380.074C242.215 379.577 242.315 379.021 242.414 378.405C242.518 377.795 242.603 377.17 242.67 376.53L242.755 375.735H244.573ZM19.6513 401.724V390.815H24.1115C25.2857 390.815 26.2185 391.08 26.9098 391.61C27.6011 392.14 27.9467 392.841 27.9467 393.712C27.9467 394.375 27.7502 394.889 27.3572 395.253C26.9643 395.613 26.46 395.857 25.8445 395.985C26.2469 396.042 26.6375 396.184 27.0163 396.411C27.3999 396.638 27.7171 396.951 27.968 397.349C28.219 397.742 28.3445 398.225 28.3445 398.797C28.3445 399.356 28.2024 399.856 27.9183 400.296C27.6342 400.736 27.227 401.084 26.6967 401.34C26.1664 401.596 25.532 401.724 24.7933 401.724H19.6513ZM21.2422 400.19H24.7933C25.371 400.19 25.8232 400.052 26.1499 399.778C26.4766 399.503 26.6399 399.129 26.6399 398.655C26.6399 398.092 26.4766 397.649 26.1499 397.327C25.8232 397.001 25.371 396.837 24.7933 396.837H21.2422V400.19ZM21.2422 395.388H24.1115C24.5613 395.388 24.9472 395.327 25.2692 395.204C25.5911 395.076 25.8374 394.896 26.0078 394.664C26.183 394.427 26.2706 394.148 26.2706 393.826C26.2706 393.367 26.0788 393.007 25.6953 392.746C25.3118 392.481 24.7839 392.349 24.1115 392.349H21.2422V395.388ZM36.5067 401.724V390.815H38.1829V395.559H39.2908L43.2113 390.815H45.3704L40.967 396.07L45.4272 401.724H43.2681L39.6886 397.121H38.1829V401.724H36.5067ZM51.2315 401.951C50.2467 401.951 49.3826 401.717 48.6392 401.248C47.9006 400.779 47.3229 400.123 46.9062 399.28C46.4943 398.438 46.2884 397.453 46.2884 396.326C46.2884 395.19 46.4943 394.198 46.9062 393.35C47.3229 392.503 47.9006 391.844 48.6392 391.376C49.3826 390.907 50.2467 390.672 51.2315 390.672C52.2164 390.672 53.0781 390.907 53.8168 391.376C54.5601 391.844 55.1378 392.503 55.5497 393.35C55.9664 394.198 56.1747 395.19 56.1747 396.326C56.1747 397.453 55.9664 398.438 55.5497 399.28C55.1378 400.123 54.5601 400.779 53.8168 401.248C53.0781 401.717 52.2164 401.951 51.2315 401.951ZM51.2315 400.445C51.9796 400.445 52.5952 400.253 53.0781 399.87C53.5611 399.486 53.9186 398.982 54.1506 398.357C54.3826 397.732 54.4986 397.055 54.4986 396.326C54.4986 395.597 54.3826 394.917 54.1506 394.288C53.9186 393.658 53.5611 393.149 53.0781 392.761C52.5952 392.372 51.9796 392.178 51.2315 392.178C50.4834 392.178 49.8679 392.372 49.3849 392.761C48.902 393.149 48.5445 393.658 48.3125 394.288C48.0805 394.917 47.9645 395.597 47.9645 396.326C47.9645 397.055 48.0805 397.732 48.3125 398.357C48.5445 398.982 48.902 399.486 49.3849 399.87C49.8679 400.253 50.4834 400.445 51.2315 400.445ZM57.3075 392.377V390.815H66.1712V392.377H62.5916V401.724H60.9155V392.377H57.3075ZM72.4815 401.951C71.4967 401.951 70.6326 401.717 69.8892 401.248C69.1506 400.779 68.5729 400.123 68.1562 399.28C67.7443 398.438 67.5384 397.453 67.5384 396.326C67.5384 395.19 67.7443 394.198 68.1562 393.35C68.5729 392.503 69.1506 391.844 69.8892 391.376C70.6326 390.907 71.4967 390.672 72.4815 390.672C73.4664 390.672 74.3281 390.907 75.0668 391.376C75.8101 391.844 76.3878 392.503 76.7997 393.35C77.2164 394.198 77.4247 395.19 77.4247 396.326C77.4247 397.453 77.2164 398.438 76.7997 399.28C76.3878 400.123 75.8101 400.779 75.0668 401.248C74.3281 401.717 73.4664 401.951 72.4815 401.951ZM72.4815 400.445C73.2296 400.445 73.8452 400.253 74.3281 399.87C74.8111 399.486 75.1686 398.982 75.4006 398.357C75.6326 397.732 75.7486 397.055 75.7486 396.326C75.7486 395.597 75.6326 394.917 75.4006 394.288C75.1686 393.658 74.8111 393.149 74.3281 392.761C73.8452 392.372 73.2296 392.178 72.4815 392.178C71.7334 392.178 71.1179 392.372 70.6349 392.761C70.152 393.149 69.7945 393.658 69.5625 394.288C69.3305 394.917 69.2145 395.597 69.2145 396.326C69.2145 397.055 69.3305 397.732 69.5625 398.357C69.7945 398.982 70.152 399.486 70.6349 399.87C71.1179 400.253 71.7334 400.445 72.4815 400.445ZM79.9833 405.815V390.815H81.6026V392.547H81.8015C81.9246 392.358 82.0951 392.117 82.3129 391.823C82.5354 391.525 82.8526 391.26 83.2646 391.028C83.6812 390.791 84.2447 390.672 84.9549 390.672C85.8735 390.672 86.6831 390.902 87.3839 391.361C88.0846 391.821 88.6315 392.472 89.0245 393.315C89.4175 394.157 89.614 395.152 89.614 396.297C89.614 397.453 89.4175 398.454 89.0245 399.302C88.6315 400.145 88.087 400.798 87.391 401.262C86.695 401.721 85.8924 401.951 84.9833 401.951C84.2826 401.951 83.7215 401.835 83.3001 401.603C82.8787 401.366 82.5543 401.099 82.3271 400.8C82.0998 400.497 81.9246 400.246 81.8015 400.047H81.6594V405.815H79.9833ZM81.631 396.269C81.631 397.093 81.7518 397.82 81.9933 398.449C82.2347 399.074 82.5875 399.565 83.0515 399.92C83.5155 400.27 84.0837 400.445 84.756 400.445C85.4568 400.445 86.0415 400.261 86.5103 399.891C86.9838 399.517 87.3389 399.015 87.5756 398.386C87.8171 397.751 87.9379 397.046 87.9379 396.269C87.9379 395.502 87.8195 394.811 87.5827 394.195C87.3507 393.575 86.998 393.085 86.5245 392.725C86.0558 392.36 85.4663 392.178 84.756 392.178C84.0742 392.178 83.5013 392.351 83.0373 392.697C82.5733 393.038 82.2229 393.516 81.9862 394.131C81.7494 394.742 81.631 395.455 81.631 396.269ZM96.6026 401.951C95.6178 401.951 94.7537 401.717 94.0103 401.248C93.2717 400.779 92.694 400.123 92.2773 399.28C91.8654 398.438 91.6594 397.453 91.6594 396.326C91.6594 395.19 91.8654 394.198 92.2773 393.35C92.694 392.503 93.2717 391.844 94.0103 391.376C94.7537 390.907 95.6178 390.672 96.6026 390.672C97.5875 390.672 98.4492 390.907 99.1879 391.376C99.9312 391.844 100.509 392.503 100.921 393.35C101.337 394.198 101.546 395.19 101.546 396.326C101.546 397.453 101.337 398.438 100.921 399.28C100.509 400.123 99.9312 400.779 99.1879 401.248C98.4492 401.717 97.5875 401.951 96.6026 401.951ZM96.6026 400.445C97.3507 400.445 97.9663 400.253 98.4492 399.87C98.9322 399.486 99.2897 398.982 99.5217 398.357C99.7537 397.732 99.8697 397.055 99.8697 396.326C99.8697 395.597 99.7537 394.917 99.5217 394.288C99.2897 393.658 98.9322 393.149 98.4492 392.761C97.9663 392.372 97.3507 392.178 96.6026 392.178C95.8545 392.178 95.239 392.372 94.756 392.761C94.2731 393.149 93.9156 393.658 93.6836 394.288C93.4516 394.917 93.3356 395.597 93.3356 396.326C93.3356 397.055 93.4516 397.732 93.6836 398.357C93.9156 398.982 94.2731 399.486 94.756 399.87C95.239 400.253 95.8545 400.445 96.6026 400.445ZM110.07 399.451L113.877 390.815H115.468L110.752 401.724H109.388L104.758 390.815H106.32L110.07 399.451ZM105.781 390.815V401.724H104.104V390.815H105.781ZM114.36 401.724V390.815H116.036V401.724H114.36ZM124.104 392.377V390.815H132.968V392.377H129.388V401.724H127.712V392.377H124.104ZM136.862 394.763H139.987C141.265 394.763 142.243 395.088 142.92 395.736C143.597 396.385 143.936 397.207 143.936 398.201C143.936 398.854 143.784 399.449 143.481 399.984C143.178 400.514 142.733 400.938 142.146 401.255C141.559 401.567 140.839 401.724 139.987 401.724H135.413V390.815H137.089V400.161H139.987C140.65 400.161 141.194 399.986 141.62 399.636C142.047 399.285 142.26 398.835 142.26 398.286C142.26 397.708 142.047 397.237 141.62 396.873C141.194 396.508 140.65 396.326 139.987 396.326H136.862V394.763ZM145.669 401.724V390.815H147.345V401.724H145.669ZM157.288 390.815L159.902 395.275L162.515 390.815H164.447L160.924 396.269L164.447 401.724H162.515L159.902 397.491L157.288 401.724H155.356L158.822 396.269L155.356 390.815H157.288ZM170.821 401.951C169.837 401.951 168.972 401.717 168.229 401.248C167.49 400.779 166.913 400.123 166.496 399.28C166.084 398.438 165.878 397.453 165.878 396.326C165.878 395.19 166.084 394.198 166.496 393.35C166.913 392.503 167.49 391.844 168.229 391.376C168.972 390.907 169.837 390.672 170.821 390.672C171.806 390.672 172.668 390.907 173.407 391.376C174.15 391.844 174.728 392.503 175.14 393.35C175.556 394.198 175.765 395.19 175.765 396.326C175.765 397.453 175.556 398.438 175.14 399.28C174.728 400.123 174.15 400.779 173.407 401.248C172.668 401.717 171.806 401.951 170.821 401.951ZM170.821 400.445C171.569 400.445 172.185 400.253 172.668 399.87C173.151 399.486 173.508 398.982 173.74 398.357C173.972 397.732 174.088 397.055 174.088 396.326C174.088 395.597 173.972 394.917 173.74 394.288C173.508 393.658 173.151 393.149 172.668 392.761C172.185 392.372 171.569 392.178 170.821 392.178C170.073 392.178 169.458 392.372 168.975 392.761C168.492 393.149 168.134 393.658 167.902 394.288C167.67 394.917 167.554 395.597 167.554 396.326C167.554 397.055 167.67 397.732 167.902 398.357C168.134 398.982 168.492 399.486 168.975 399.87C169.458 400.253 170.073 400.445 170.821 400.445ZM176.897 392.377V390.815H185.761V392.377H182.181V401.724H180.505V392.377H176.897ZM192.213 401.951C191.162 401.951 190.256 401.719 189.493 401.255C188.736 400.786 188.151 400.133 187.739 399.295C187.332 398.452 187.128 397.472 187.128 396.354C187.128 395.237 187.332 394.252 187.739 393.4C188.151 392.543 188.724 391.875 189.458 391.397C190.196 390.914 191.058 390.672 192.043 390.672C192.611 390.672 193.172 390.767 193.726 390.957C194.28 391.146 194.784 391.454 195.239 391.88C195.694 392.301 196.056 392.86 196.326 393.556C196.596 394.252 196.73 395.109 196.73 396.127V396.837H188.321V395.388H195.026C195.026 394.773 194.903 394.224 194.657 393.741C194.415 393.258 194.069 392.877 193.62 392.597C193.175 392.318 192.649 392.178 192.043 392.178C191.375 392.178 190.798 392.344 190.31 392.675C189.827 393.002 189.455 393.428 189.195 393.954C188.935 394.479 188.804 395.043 188.804 395.644V396.61C188.804 397.434 188.946 398.132 189.23 398.705C189.519 399.273 189.919 399.707 190.431 400.005C190.942 400.298 191.536 400.445 192.213 400.445C192.654 400.445 193.051 400.384 193.407 400.261C193.766 400.133 194.077 399.943 194.337 399.692C194.597 399.437 194.799 399.119 194.941 398.741L196.56 399.195C196.39 399.744 196.103 400.227 195.701 400.644C195.298 401.056 194.801 401.378 194.209 401.61C193.617 401.837 192.952 401.951 192.213 401.951ZM198.314 401.724V400.161H198.712C199.039 400.161 199.311 400.097 199.529 399.969C199.747 399.837 199.922 399.607 200.054 399.28C200.192 398.949 200.296 398.49 200.367 397.903C200.443 397.311 200.497 396.558 200.53 395.644L200.729 390.815H208.002V401.724H206.326V392.377H202.32L202.15 396.269C202.112 397.164 202.031 397.952 201.908 398.634C201.79 399.311 201.607 399.879 201.361 400.339C201.12 400.798 200.798 401.144 200.395 401.376C199.993 401.608 199.489 401.724 198.882 401.724H198.314ZM224.799 386.724L225.651 387.746C225.319 388.068 224.936 388.293 224.5 388.421C224.065 388.549 223.572 388.627 223.023 388.655C222.474 388.684 221.863 388.712 221.191 388.741C220.433 388.769 219.806 388.954 219.309 389.295C218.811 389.636 218.428 390.128 218.158 390.772C217.888 391.416 217.715 392.207 217.64 393.144H217.782C218.151 392.462 218.662 391.96 219.316 391.638C219.969 391.316 220.67 391.155 221.418 391.155C222.27 391.155 223.037 391.354 223.719 391.752C224.401 392.15 224.941 392.739 225.338 393.521C225.736 394.302 225.935 395.265 225.935 396.411C225.935 397.552 225.731 398.537 225.324 399.366C224.922 400.194 224.356 400.833 223.627 401.283C222.902 401.728 222.052 401.951 221.077 401.951C220.102 401.951 219.247 401.721 218.513 401.262C217.779 400.798 217.209 400.111 216.801 399.202C216.394 398.289 216.191 397.159 216.191 395.815V394.65C216.191 392.221 216.603 390.379 217.426 389.124C218.255 387.869 219.5 387.221 221.162 387.178C221.749 387.159 222.273 387.155 222.732 387.164C223.191 387.173 223.591 387.152 223.932 387.1C224.273 387.048 224.562 386.922 224.799 386.724ZM221.077 400.445C221.735 400.445 222.301 400.28 222.775 399.948C223.253 399.617 223.62 399.15 223.875 398.549C224.131 397.943 224.259 397.23 224.259 396.411C224.259 395.616 224.129 394.939 223.868 394.38C223.613 393.821 223.246 393.395 222.767 393.101C222.289 392.808 221.716 392.661 221.049 392.661C220.561 392.661 220.123 392.744 219.735 392.91C219.346 393.075 219.015 393.319 218.74 393.641C218.466 393.963 218.253 394.356 218.101 394.82C217.954 395.284 217.876 395.815 217.867 396.411C217.867 397.633 218.153 398.61 218.726 399.344C219.299 400.078 220.083 400.445 221.077 400.445ZM229.948 394.763H233.073C234.351 394.763 235.329 395.088 236.006 395.736C236.683 396.385 237.022 397.207 237.022 398.201C237.022 398.854 236.87 399.449 236.567 399.984C236.264 400.514 235.819 400.938 235.232 401.255C234.645 401.567 233.925 401.724 233.073 401.724H228.499V390.815H230.175V400.161H233.073C233.736 400.161 234.28 399.986 234.706 399.636C235.132 399.285 235.346 398.835 235.346 398.286C235.346 397.708 235.132 397.237 234.706 396.873C234.28 396.508 233.736 396.326 233.073 396.326H229.948V394.763ZM238.755 401.724V390.815H240.431V401.724H238.755ZM19.6513 425.724V414.815H28.2308V425.724H26.5547V416.377H21.3274V425.724H19.6513ZM35.7237 425.951C34.7389 425.951 33.8748 425.717 33.1314 425.248C32.3928 424.779 31.8151 424.123 31.3984 423.28C30.9865 422.438 30.7805 421.453 30.7805 420.326C30.7805 419.19 30.9865 418.198 31.3984 417.35C31.8151 416.503 32.3928 415.844 33.1314 415.376C33.8748 414.907 34.7389 414.672 35.7237 414.672C36.7086 414.672 37.5703 414.907 38.3089 415.376C39.0523 415.844 39.63 416.503 40.0419 417.35C40.4586 418.198 40.6669 419.19 40.6669 420.326C40.6669 421.453 40.4586 422.438 40.0419 423.28C39.63 424.123 39.0523 424.779 38.3089 425.248C37.5703 425.717 36.7086 425.951 35.7237 425.951ZM35.7237 424.445C36.4718 424.445 37.0874 424.253 37.5703 423.87C38.0533 423.486 38.4107 422.982 38.6428 422.357C38.8748 421.732 38.9908 421.055 38.9908 420.326C38.9908 419.597 38.8748 418.917 38.6428 418.288C38.4107 417.658 38.0533 417.149 37.5703 416.761C37.0874 416.372 36.4718 416.178 35.7237 416.178C34.9756 416.178 34.3601 416.372 33.8771 416.761C33.3942 417.149 33.0367 417.658 32.8047 418.288C32.5727 418.917 32.4567 419.597 32.4567 420.326C32.4567 421.055 32.5727 421.732 32.8047 422.357C33.0367 422.982 33.3942 423.486 33.8771 423.87C34.3601 424.253 34.9756 424.445 35.7237 424.445ZM43.9144 429.815C43.6303 429.815 43.377 429.791 43.1545 429.744C42.9319 429.701 42.7781 429.658 42.6928 429.616L43.119 428.138C43.5262 428.243 43.886 428.28 44.1985 428.252C44.511 428.224 44.788 428.084 45.0295 427.833C45.2757 427.587 45.5006 427.187 45.7042 426.633L46.0167 425.78L41.9826 414.815H43.8008L46.8121 423.508H46.9258L49.9371 414.815H51.7553L47.1246 427.315C46.9163 427.878 46.6583 428.344 46.3505 428.714C46.0427 429.088 45.6853 429.365 45.2781 429.545C44.8756 429.725 44.421 429.815 43.9144 429.815ZM62.0447 414.815V425.724H60.3686V414.815H62.0447ZM61.3913 420.013V421.576C61.0125 421.718 60.6361 421.843 60.2621 421.952C59.888 422.056 59.495 422.139 59.0831 422.201C58.6712 422.258 58.219 422.286 57.7266 422.286C56.4908 422.286 55.4988 421.952 54.7507 421.285C54.0073 420.617 53.6357 419.616 53.6357 418.28V414.786H55.3118V418.28C55.3118 418.839 55.4183 419.298 55.6314 419.658C55.8445 420.018 56.1333 420.286 56.4979 420.461C56.8625 420.636 57.272 420.724 57.7266 420.724C58.4368 420.724 59.0784 420.66 59.6513 420.532C60.2289 420.399 60.8089 420.226 61.3913 420.013ZM68.3303 425.979C67.639 425.979 67.0116 425.849 66.4482 425.589C65.8847 425.324 65.4373 424.942 65.1058 424.445C64.7744 423.943 64.6087 423.337 64.6087 422.627C64.6087 422.002 64.7318 421.495 64.978 421.107C65.2242 420.714 65.5533 420.406 65.9652 420.184C66.3771 419.961 66.8317 419.796 67.3288 419.687C67.8307 419.573 68.335 419.483 68.8416 419.417C69.5045 419.332 70.0419 419.268 70.4538 419.225C70.8705 419.178 71.1735 419.1 71.3629 418.991C71.5571 418.882 71.6541 418.692 71.6541 418.422V418.366C71.6541 417.665 71.4624 417.12 71.0788 416.732C70.7 416.344 70.1248 416.15 69.353 416.15C68.5528 416.15 67.9254 416.325 67.4709 416.675C67.0163 417.026 66.6967 417.4 66.5121 417.797L64.9212 417.229C65.2053 416.566 65.584 416.05 66.0575 415.681C66.5357 415.307 67.0566 415.047 67.62 414.9C68.1882 414.748 68.7469 414.672 69.2962 414.672C69.6465 414.672 70.049 414.715 70.5036 414.8C70.9628 414.881 71.4055 415.049 71.8317 415.305C72.2625 415.56 72.62 415.946 72.9041 416.462C73.1882 416.978 73.3303 417.67 73.3303 418.536V425.724H71.6541V424.246H71.5689C71.4553 424.483 71.2659 424.736 71.0007 425.006C70.7356 425.276 70.3828 425.506 69.9425 425.695C69.5021 425.885 68.9647 425.979 68.3303 425.979ZM68.5859 424.474C69.2488 424.474 69.8075 424.343 70.2621 424.083C70.7214 423.823 71.067 423.486 71.299 423.074C71.5357 422.663 71.6541 422.229 71.6541 421.775V420.241C71.5831 420.326 71.4268 420.404 71.1854 420.475C70.9486 420.541 70.674 420.601 70.3615 420.653C70.0537 420.7 69.7531 420.743 69.4595 420.78C69.1707 420.814 68.9363 420.842 68.7564 420.866C68.3208 420.922 67.9136 421.015 67.5348 421.143C67.1607 421.266 66.8577 421.453 66.6257 421.704C66.3984 421.95 66.2848 422.286 66.2848 422.712C66.2848 423.295 66.5002 423.735 66.9311 424.033C67.3667 424.327 67.9183 424.474 68.5859 424.474ZM76.3896 425.724V414.815H80.8498C82.024 414.815 82.9568 415.08 83.6481 415.61C84.3394 416.14 84.685 416.841 84.685 417.712C84.685 418.375 84.4885 418.889 84.0955 419.253C83.7025 419.613 83.1983 419.857 82.5827 419.985C82.9852 420.042 83.3758 420.184 83.7546 420.411C84.1381 420.638 84.4554 420.951 84.7063 421.349C84.9573 421.742 85.0827 422.225 85.0827 422.797C85.0827 423.356 84.9407 423.856 84.6566 424.296C84.3725 424.736 83.9653 425.084 83.435 425.34C82.9047 425.596 82.2702 425.724 81.5316 425.724H76.3896ZM77.9805 424.19H81.5316C82.1093 424.19 82.5614 424.052 82.8881 423.778C83.2148 423.503 83.3782 423.129 83.3782 422.655C83.3782 422.092 83.2148 421.649 82.8881 421.327C82.5614 421.001 82.1093 420.837 81.5316 420.837H77.9805V424.19ZM77.9805 419.388H80.8498C81.2996 419.388 81.6855 419.327 82.0075 419.204C82.3294 419.076 82.5756 418.896 82.7461 418.664C82.9213 418.427 83.0089 418.148 83.0089 417.826C83.0089 417.367 82.8171 417.007 82.4336 416.746C82.0501 416.481 81.5221 416.349 80.8498 416.349H77.9805V419.388ZM92.0518 425.951C91.0291 425.951 90.1484 425.709 89.4098 425.226C88.6712 424.744 88.103 424.078 87.7053 423.231C87.3075 422.383 87.1087 421.415 87.1087 420.326C87.1087 419.218 87.3123 418.24 87.7195 417.393C88.1314 416.54 88.7043 415.875 89.4382 415.397C90.1768 414.914 91.0386 414.672 92.0234 414.672C92.7905 414.672 93.4818 414.815 94.0973 415.099C94.7128 415.383 95.2171 415.78 95.6101 416.292C96.0031 416.803 96.2469 417.4 96.3416 418.082H94.6655C94.5376 417.584 94.2536 417.144 93.8132 416.761C93.3776 416.372 92.7905 416.178 92.0518 416.178C91.3984 416.178 90.8255 416.349 90.3331 416.69C89.8454 417.026 89.4643 417.502 89.1896 418.117C88.9197 418.728 88.7848 419.445 88.7848 420.269C88.7848 421.112 88.9174 421.846 89.1825 422.471C89.4524 423.096 89.8312 423.581 90.3189 423.927C90.8113 424.272 91.389 424.445 92.0518 424.445C92.4875 424.445 92.8828 424.369 93.2379 424.218C93.593 424.066 93.8937 423.849 94.1399 423.565C94.3861 423.28 94.5613 422.94 94.6655 422.542H96.3416C96.2469 423.186 96.0125 423.766 95.6385 424.282C95.2692 424.793 94.7791 425.2 94.1683 425.503C93.5623 425.802 92.8568 425.951 92.0518 425.951ZM97.9325 416.377V414.815H106.796V416.377H103.217V425.724H101.54V416.377H97.9325ZM109.241 425.724V414.815H113.701C114.876 414.815 115.808 415.08 116.5 415.61C117.191 416.14 117.537 416.841 117.537 417.712C117.537 418.375 117.34 418.889 116.947 419.253C116.554 419.613 116.05 419.857 115.434 419.985C115.837 420.042 116.227 420.184 116.606 420.411C116.99 420.638 117.307 420.951 117.558 421.349C117.809 421.742 117.934 422.225 117.934 422.797C117.934 423.356 117.792 423.856 117.508 424.296C117.224 424.736 116.817 425.084 116.287 425.34C115.756 425.596 115.122 425.724 114.383 425.724H109.241ZM110.832 424.19H114.383C114.961 424.19 115.413 424.052 115.74 423.778C116.066 423.503 116.23 423.129 116.23 422.655C116.23 422.092 116.066 421.649 115.74 421.327C115.413 421.001 114.961 420.837 114.383 420.837H110.832V424.19ZM110.832 419.388H113.701C114.151 419.388 114.537 419.327 114.859 419.204C115.181 419.076 115.427 418.896 115.598 418.664C115.773 418.427 115.86 418.148 115.86 417.826C115.86 417.367 115.669 417.007 115.285 416.746C114.902 416.481 114.374 416.349 113.701 416.349H110.832V419.388ZM124.903 425.951C123.919 425.951 123.054 425.717 122.311 425.248C121.572 424.779 120.995 424.123 120.578 423.28C120.166 422.438 119.96 421.453 119.96 420.326C119.96 419.19 120.166 418.198 120.578 417.35C120.995 416.503 121.572 415.844 122.311 415.376C123.054 414.907 123.919 414.672 124.903 414.672C125.888 414.672 126.75 414.907 127.489 415.376C128.232 415.844 128.81 416.503 129.222 417.35C129.638 418.198 129.847 419.19 129.847 420.326C129.847 421.453 129.638 422.438 129.222 423.28C128.81 424.123 128.232 424.779 127.489 425.248C126.75 425.717 125.888 425.951 124.903 425.951ZM124.903 424.445C125.652 424.445 126.267 424.253 126.75 423.87C127.233 423.486 127.59 422.982 127.822 422.357C128.054 421.732 128.17 421.055 128.17 420.326C128.17 419.597 128.054 418.917 127.822 418.288C127.59 417.658 127.233 417.149 126.75 416.761C126.267 416.372 125.652 416.178 124.903 416.178C124.155 416.178 123.54 416.372 123.057 416.761C122.574 417.149 122.216 417.658 121.984 418.288C121.752 418.917 121.636 419.597 121.636 420.326C121.636 421.055 121.752 421.732 121.984 422.357C122.216 422.982 122.574 423.486 123.057 423.87C123.54 424.253 124.155 424.445 124.903 424.445ZM132.405 425.724V414.815H136.865C138.04 414.815 138.972 415.08 139.664 415.61C140.355 416.14 140.701 416.841 140.701 417.712C140.701 418.375 140.504 418.889 140.111 419.253C139.718 419.613 139.214 419.857 138.598 419.985C139.001 420.042 139.391 420.184 139.77 420.411C140.154 420.638 140.471 420.951 140.722 421.349C140.973 421.742 141.098 422.225 141.098 422.797C141.098 423.356 140.956 423.856 140.672 424.296C140.388 424.736 139.981 425.084 139.451 425.34C138.92 425.596 138.286 425.724 137.547 425.724H132.405ZM133.996 424.19H137.547C138.125 424.19 138.577 424.052 138.904 423.778C139.23 423.503 139.394 423.129 139.394 422.655C139.394 422.092 139.23 421.649 138.904 421.327C138.577 421.001 138.125 420.837 137.547 420.837H133.996V424.19ZM133.996 419.388H136.865C137.315 419.388 137.701 419.327 138.023 419.204C138.345 419.076 138.591 418.896 138.762 418.664C138.937 418.427 139.025 418.148 139.025 417.826C139.025 417.367 138.833 417.007 138.449 416.746C138.066 416.481 137.538 416.349 136.865 416.349H133.996V419.388ZM146.846 425.979C146.155 425.979 145.527 425.849 144.964 425.589C144.4 425.324 143.953 424.942 143.621 424.445C143.29 423.943 143.124 423.337 143.124 422.627C143.124 422.002 143.247 421.495 143.494 421.107C143.74 420.714 144.069 420.406 144.481 420.184C144.893 419.961 145.347 419.796 145.844 419.687C146.346 419.573 146.851 419.483 147.357 419.417C148.02 419.332 148.558 419.268 148.969 419.225C149.386 419.178 149.689 419.1 149.879 418.991C150.073 418.882 150.17 418.692 150.17 418.422V418.366C150.17 417.665 149.978 417.12 149.594 416.732C149.216 416.344 148.64 416.15 147.869 416.15C147.068 416.15 146.441 416.325 145.987 416.675C145.532 417.026 145.212 417.4 145.028 417.797L143.437 417.229C143.721 416.566 144.1 416.05 144.573 415.681C145.051 415.307 145.572 415.047 146.136 414.9C146.704 414.748 147.263 414.672 147.812 414.672C148.162 414.672 148.565 414.715 149.019 414.8C149.478 414.881 149.921 415.049 150.347 415.305C150.778 415.56 151.136 415.946 151.42 416.462C151.704 416.978 151.846 417.67 151.846 418.536V425.724H150.17V424.246H150.085C149.971 424.483 149.781 424.736 149.516 425.006C149.251 425.276 148.898 425.506 148.458 425.695C148.018 425.885 147.48 425.979 146.846 425.979ZM147.102 424.474C147.764 424.474 148.323 424.343 148.778 424.083C149.237 423.823 149.583 423.486 149.815 423.074C150.051 422.663 150.17 422.229 150.17 421.775V420.241C150.099 420.326 149.942 420.404 149.701 420.475C149.464 420.541 149.19 420.601 148.877 420.653C148.569 420.7 148.269 420.743 147.975 420.78C147.686 420.814 147.452 420.842 147.272 420.866C146.836 420.922 146.429 421.015 146.05 421.143C145.676 421.266 145.373 421.453 145.141 421.704C144.914 421.95 144.8 422.286 144.8 422.712C144.8 423.295 145.016 423.735 145.447 424.033C145.882 424.327 146.434 424.474 147.102 424.474ZM153.421 416.377V414.815H162.284V416.377H158.705V425.724H157.029V416.377H153.421ZM166.178 418.763H169.303C170.582 418.763 171.559 419.088 172.237 419.736C172.914 420.385 173.252 421.207 173.252 422.201C173.252 422.854 173.101 423.449 172.798 423.984C172.495 424.514 172.049 424.938 171.462 425.255C170.875 425.567 170.156 425.724 169.303 425.724H164.729V414.815H166.406V424.161H169.303C169.966 424.161 170.511 423.986 170.937 423.636C171.363 423.285 171.576 422.835 171.576 422.286C171.576 421.708 171.363 421.237 170.937 420.873C170.511 420.508 169.966 420.326 169.303 420.326H166.178V418.763ZM178.304 423.735L178.19 424.502C178.109 425.042 177.986 425.619 177.821 426.235C177.66 426.851 177.492 427.431 177.316 427.975C177.141 428.52 176.997 428.953 176.883 429.275H175.605C175.666 428.972 175.747 428.572 175.846 428.074C175.946 427.577 176.045 427.021 176.145 426.405C176.249 425.795 176.334 425.17 176.4 424.53L176.485 423.735H178.304ZM186.409 416.377V414.815H195.273V416.377H191.693V425.724H190.017V416.377H186.409ZM201.583 425.951C200.598 425.951 199.734 425.717 198.991 425.248C198.252 424.779 197.674 424.123 197.258 423.28C196.846 422.438 196.64 421.453 196.64 420.326C196.64 419.19 196.846 418.198 197.258 417.35C197.674 416.503 198.252 415.844 198.991 415.376C199.734 414.907 200.598 414.672 201.583 414.672C202.568 414.672 203.43 414.907 204.168 415.376C204.912 415.844 205.489 416.503 205.901 417.35C206.318 418.198 206.526 419.19 206.526 420.326C206.526 421.453 206.318 422.438 205.901 423.28C205.489 424.123 204.912 424.779 204.168 425.248C203.43 425.717 202.568 425.951 201.583 425.951ZM201.583 424.445C202.331 424.445 202.947 424.253 203.43 423.87C203.913 423.486 204.27 422.982 204.502 422.357C204.734 421.732 204.85 421.055 204.85 420.326C204.85 419.597 204.734 418.917 204.502 418.288C204.27 417.658 203.913 417.149 203.43 416.761C202.947 416.372 202.331 416.178 201.583 416.178C200.835 416.178 200.219 416.372 199.737 416.761C199.254 417.149 198.896 417.658 198.664 418.288C198.432 418.917 198.316 419.597 198.316 420.326C198.316 421.055 198.432 421.732 198.664 422.357C198.896 422.982 199.254 423.486 199.737 423.87C200.219 424.253 200.835 424.445 201.583 424.445ZM219.142 425.951C218.157 425.951 217.293 425.717 216.549 425.248C215.811 424.779 215.233 424.123 214.816 423.28C214.404 422.438 214.199 421.453 214.199 420.326C214.199 419.19 214.404 418.198 214.816 417.35C215.233 416.503 215.811 415.844 216.549 415.376C217.293 414.907 218.157 414.672 219.142 414.672C220.127 414.672 220.988 414.907 221.727 415.376C222.47 415.844 223.048 416.503 223.46 417.35C223.877 418.198 224.085 419.19 224.085 420.326C224.085 421.453 223.877 422.438 223.46 423.28C223.048 424.123 222.47 424.779 221.727 425.248C220.988 425.717 220.127 425.951 219.142 425.951ZM219.142 424.445C219.89 424.445 220.505 424.253 220.988 423.87C221.471 423.486 221.829 422.982 222.061 422.357C222.293 421.732 222.409 421.055 222.409 420.326C222.409 419.597 222.293 418.917 222.061 418.288C221.829 417.658 221.471 417.149 220.988 416.761C220.505 416.372 219.89 416.178 219.142 416.178C218.394 416.178 217.778 416.372 217.295 416.761C216.812 417.149 216.455 417.658 216.223 418.288C215.991 418.917 215.875 419.597 215.875 420.326C215.875 421.055 215.991 421.732 216.223 422.357C216.455 422.982 216.812 423.486 217.295 423.87C217.778 424.253 218.394 424.445 219.142 424.445ZM226.643 429.815V414.815H228.263V416.547H228.462C228.585 416.358 228.755 416.117 228.973 415.823C229.196 415.525 229.513 415.26 229.925 415.028C230.341 414.791 230.905 414.672 231.615 414.672C232.534 414.672 233.343 414.902 234.044 415.361C234.745 415.821 235.292 416.472 235.685 417.315C236.078 418.157 236.274 419.152 236.274 420.297C236.274 421.453 236.078 422.454 235.685 423.302C235.292 424.145 234.747 424.798 234.051 425.262C233.355 425.721 232.553 425.951 231.643 425.951C230.943 425.951 230.382 425.835 229.96 425.603C229.539 425.366 229.214 425.099 228.987 424.8C228.76 424.497 228.585 424.246 228.462 424.047H228.32V429.815H226.643ZM228.291 420.269C228.291 421.093 228.412 421.82 228.653 422.449C228.895 423.074 229.248 423.565 229.712 423.92C230.176 424.27 230.744 424.445 231.416 424.445C232.117 424.445 232.702 424.261 233.17 423.891C233.644 423.517 233.999 423.015 234.236 422.386C234.477 421.751 234.598 421.046 234.598 420.269C234.598 419.502 234.48 418.811 234.243 418.195C234.011 417.575 233.658 417.085 233.185 416.725C232.716 416.36 232.126 416.178 231.416 416.178C230.734 416.178 230.161 416.351 229.697 416.697C229.233 417.038 228.883 417.516 228.646 418.131C228.41 418.742 228.291 419.455 228.291 420.269ZM245.564 414.815V416.377H240.507V425.724H238.831V414.815H245.564ZM250.654 425.979C249.963 425.979 249.336 425.849 248.772 425.589C248.209 425.324 247.761 424.942 247.43 424.445C247.099 423.943 246.933 423.337 246.933 422.627C246.933 422.002 247.056 421.495 247.302 421.107C247.548 420.714 247.877 420.406 248.289 420.184C248.701 419.961 249.156 419.796 249.653 419.687C250.155 419.573 250.659 419.483 251.166 419.417C251.829 419.332 252.366 419.268 252.778 419.225C253.195 419.178 253.498 419.1 253.687 418.991C253.881 418.882 253.978 418.692 253.978 418.422V418.366C253.978 417.665 253.787 417.12 253.403 416.732C253.024 416.344 252.449 416.15 251.677 416.15C250.877 416.15 250.25 416.325 249.795 416.675C249.341 417.026 249.021 417.4 248.836 417.797L247.245 417.229C247.529 416.566 247.908 416.05 248.382 415.681C248.86 415.307 249.381 415.047 249.944 414.9C250.512 414.748 251.071 414.672 251.62 414.672C251.971 414.672 252.373 414.715 252.828 414.8C253.287 414.881 253.73 415.049 254.156 415.305C254.587 415.56 254.944 415.946 255.228 416.462C255.512 416.978 255.654 417.67 255.654 418.536V425.724H253.978V424.246H253.893C253.779 424.483 253.59 424.736 253.325 425.006C253.06 425.276 252.707 425.506 252.267 425.695C251.826 425.885 251.289 425.979 250.654 425.979ZM250.91 424.474C251.573 424.474 252.132 424.343 252.586 424.083C253.046 423.823 253.391 423.486 253.623 423.074C253.86 422.663 253.978 422.229 253.978 421.775V420.241C253.907 420.326 253.751 420.404 253.51 420.475C253.273 420.541 252.998 420.601 252.686 420.653C252.378 420.7 252.077 420.743 251.784 420.78C251.495 420.814 251.261 420.842 251.081 420.866C250.645 420.922 250.238 421.015 249.859 421.143C249.485 421.266 249.182 421.453 248.95 421.704C248.723 421.95 248.609 422.286 248.609 422.712C248.609 423.295 248.824 423.735 249.255 424.033C249.691 424.327 250.243 424.474 250.91 424.474ZM266.015 419.502V421.065H259.992V419.502H266.015ZM260.39 414.815V425.724H258.714V414.815H260.39ZM267.293 414.815V425.724H265.617V414.815H267.293ZM272.031 423.252L277.286 414.815H279.218V425.724H277.542V417.286L272.315 425.724H270.354V414.815H272.031V423.252ZM281.606 422.94H283.396C283.434 423.432 283.656 423.806 284.064 424.062C284.475 424.317 285.011 424.445 285.669 424.445C286.341 424.445 286.916 424.308 287.395 424.033C287.873 423.754 288.112 423.304 288.112 422.684C288.112 422.319 288.022 422.002 287.842 421.732C287.662 421.458 287.409 421.244 287.082 421.093C286.755 420.941 286.369 420.866 285.924 420.866H284.049V419.36H285.924C286.592 419.36 287.084 419.208 287.402 418.905C287.724 418.602 287.885 418.224 287.885 417.769C287.885 417.281 287.712 416.891 287.366 416.597C287.02 416.299 286.53 416.15 285.896 416.15C285.257 416.15 284.724 416.294 284.298 416.583C283.872 416.867 283.647 417.234 283.623 417.684H281.862C281.881 417.097 282.061 416.578 282.402 416.128C282.743 415.674 283.207 415.319 283.794 415.063C284.381 414.803 285.053 414.672 285.811 414.672C286.578 414.672 287.243 414.807 287.806 415.077C288.375 415.342 288.813 415.705 289.12 416.164C289.433 416.619 289.589 417.135 289.589 417.712C289.589 418.328 289.416 418.825 289.071 419.204C288.725 419.583 288.292 419.852 287.771 420.013V420.127C288.183 420.155 288.54 420.288 288.843 420.525C289.151 420.757 289.39 421.062 289.561 421.441C289.731 421.815 289.816 422.229 289.816 422.684C289.816 423.347 289.639 423.924 289.284 424.417C288.929 424.905 288.441 425.283 287.821 425.553C287.2 425.818 286.493 425.951 285.697 425.951C284.925 425.951 284.234 425.825 283.623 425.574C283.012 425.319 282.527 424.966 282.167 424.516C281.812 424.062 281.625 423.536 281.606 422.94ZM293.25 429.815C292.966 429.815 292.713 429.791 292.49 429.744C292.268 429.701 292.114 429.658 292.029 429.616L292.455 428.138C292.862 428.243 293.222 428.28 293.534 428.252C293.847 428.224 294.124 428.084 294.365 427.833C294.612 427.587 294.837 427.187 295.04 426.633L295.353 425.78L291.319 414.815H293.137L296.148 423.508H296.262L299.273 414.815H301.091L296.461 427.315C296.252 427.878 295.994 428.344 295.686 428.714C295.379 429.088 295.021 429.365 294.614 429.545C294.212 429.725 293.757 429.815 293.25 429.815ZM304.98 423.252L310.235 414.815H312.167V425.724H310.491V417.286L305.264 425.724H303.304V414.815H304.98V423.252ZM309.127 411.178H310.69C310.69 411.945 310.425 412.573 309.895 413.06C309.364 413.548 308.645 413.792 307.735 413.792C306.841 413.792 306.128 413.548 305.598 413.06C305.072 412.573 304.809 411.945 304.809 411.178H306.372C306.372 411.547 306.474 411.872 306.677 412.151C306.886 412.431 307.238 412.57 307.735 412.57C308.233 412.57 308.588 412.431 308.801 412.151C309.019 411.872 309.127 411.547 309.127 411.178ZM24.2251 449.951C23.174 449.951 22.2673 449.719 21.505 449.255C20.7474 448.786 20.1626 448.133 19.7507 447.295C19.3435 446.452 19.1399 445.472 19.1399 444.354C19.1399 443.237 19.3435 442.252 19.7507 441.4C20.1626 440.543 20.7356 439.875 21.4695 439.397C22.2081 438.914 23.0698 438.672 24.0547 438.672C24.6229 438.672 25.1839 438.767 25.7379 438.957C26.2919 439.146 26.7962 439.454 27.2507 439.88C27.7053 440.301 28.0675 440.86 28.3374 441.556C28.6072 442.252 28.7422 443.109 28.7422 444.127V444.837H20.3331V443.388H27.0376C27.0376 442.773 26.9145 442.224 26.6683 441.741C26.4268 441.258 26.0812 440.877 25.6314 440.597C25.1863 440.318 24.6607 440.178 24.0547 440.178C23.3871 440.178 22.8094 440.344 22.3217 440.675C21.8388 441.002 21.4671 441.428 21.2067 441.954C20.9463 442.479 20.8161 443.043 20.8161 443.644V444.61C20.8161 445.434 20.9581 446.132 21.2422 446.705C21.531 447.273 21.9311 447.707 22.4425 448.005C22.9538 448.298 23.5481 448.445 24.2251 448.445C24.6655 448.445 25.0632 448.384 25.4183 448.261C25.7782 448.133 26.0883 447.943 26.3487 447.692C26.6091 447.437 26.8104 447.119 26.9524 446.741L28.5717 447.195C28.4013 447.744 28.1148 448.227 27.7124 448.644C27.3099 449.056 26.8127 449.378 26.2209 449.61C25.629 449.837 24.9638 449.951 24.2251 449.951ZM38.0249 438.815V440.377H32.968V449.724H31.2919V438.815H38.0249ZM44.337 449.951C43.3522 449.951 42.488 449.717 41.7447 449.248C41.006 448.779 40.4284 448.123 40.0117 447.28C39.5998 446.438 39.3938 445.453 39.3938 444.326C39.3938 443.19 39.5998 442.198 40.0117 441.35C40.4284 440.503 41.006 439.844 41.7447 439.376C42.488 438.907 43.3522 438.672 44.337 438.672C45.3219 438.672 46.1836 438.907 46.9222 439.376C47.6656 439.844 48.2433 440.503 48.6552 441.35C49.0719 442.198 49.2802 443.19 49.2802 444.326C49.2802 445.453 49.0719 446.438 48.6552 447.28C48.2433 448.123 47.6656 448.779 46.9222 449.248C46.1836 449.717 45.3219 449.951 44.337 449.951ZM44.337 448.445C45.0851 448.445 45.7006 448.253 46.1836 447.87C46.6665 447.486 47.024 446.982 47.256 446.357C47.488 445.732 47.604 445.055 47.604 444.326C47.604 443.597 47.488 442.917 47.256 442.288C47.024 441.658 46.6665 441.149 46.1836 440.761C45.7006 440.372 45.0851 440.178 44.337 440.178C43.5889 440.178 42.9734 440.372 42.4904 440.761C42.0075 441.149 41.65 441.658 41.418 442.288C41.186 442.917 41.07 443.597 41.07 444.326C41.07 445.055 41.186 445.732 41.418 446.357C41.65 446.982 42.0075 447.486 42.4904 447.87C42.9734 448.253 43.5889 448.445 44.337 448.445ZM61.8956 449.951C60.8729 449.951 59.9922 449.709 59.2536 449.226C58.5149 448.744 57.9467 448.078 57.549 447.231C57.1513 446.383 56.9524 445.415 56.9524 444.326C56.9524 443.218 57.156 442.24 57.5632 441.393C57.9751 440.54 58.5481 439.875 59.282 439.397C60.0206 438.914 60.8823 438.672 61.8672 438.672C62.6342 438.672 63.3255 438.815 63.9411 439.099C64.5566 439.383 65.0608 439.78 65.4538 440.292C65.8468 440.803 66.0907 441.4 66.1854 442.082H64.5092C64.3814 441.584 64.0973 441.144 63.657 440.761C63.2214 440.372 62.6342 440.178 61.8956 440.178C61.2422 440.178 60.6693 440.349 60.1768 440.69C59.6892 441.026 59.308 441.502 59.0334 442.117C58.7635 442.728 58.6286 443.445 58.6286 444.269C58.6286 445.112 58.7611 445.846 59.0263 446.471C59.2962 447.096 59.675 447.581 60.1626 447.927C60.6551 448.272 61.2327 448.445 61.8956 448.445C62.3312 448.445 62.7266 448.369 63.0817 448.218C63.4368 448.066 63.7375 447.849 63.9837 447.565C64.2299 447.28 64.4051 446.94 64.5092 446.542H66.1854C66.0907 447.186 65.8563 447.766 65.4822 448.282C65.1129 448.793 64.6229 449.2 64.0121 449.503C63.406 449.802 62.7005 449.951 61.8956 449.951ZM71.8459 449.979C71.1546 449.979 70.5272 449.849 69.9638 449.589C69.4003 449.324 68.9529 448.942 68.6214 448.445C68.29 447.943 68.1243 447.337 68.1243 446.627C68.1243 446.002 68.2474 445.495 68.4936 445.107C68.7398 444.714 69.0689 444.406 69.4808 444.184C69.8928 443.961 70.3473 443.796 70.8445 443.687C71.3464 443.573 71.8506 443.483 72.3572 443.417C73.0201 443.332 73.5575 443.268 73.9695 443.225C74.3861 443.178 74.6892 443.1 74.8786 442.991C75.0727 442.882 75.1697 442.692 75.1697 442.422V442.366C75.1697 441.665 74.978 441.12 74.5945 440.732C74.2157 440.344 73.6404 440.15 72.8686 440.15C72.0684 440.15 71.4411 440.325 70.9865 440.675C70.532 441.026 70.2124 441.4 70.0277 441.797L68.4368 441.229C68.7209 440.566 69.0997 440.05 69.5732 439.681C70.0514 439.307 70.5722 439.047 71.1357 438.9C71.7038 438.748 72.2625 438.672 72.8118 438.672C73.1622 438.672 73.5646 438.715 74.0192 438.8C74.4785 438.881 74.9212 439.049 75.3473 439.305C75.7782 439.56 76.1357 439.946 76.4197 440.462C76.7038 440.978 76.8459 441.67 76.8459 442.536V449.724H75.1697V448.246H75.0845C74.9709 448.483 74.7815 448.736 74.5163 449.006C74.2512 449.276 73.8984 449.506 73.4581 449.695C73.0178 449.885 72.4804 449.979 71.8459 449.979ZM72.1016 448.474C72.7644 448.474 73.3232 448.343 73.7777 448.083C74.237 447.823 74.5826 447.486 74.8146 447.074C75.0514 446.663 75.1697 446.229 75.1697 445.775V444.241C75.0987 444.326 74.9425 444.404 74.701 444.475C74.4643 444.541 74.1896 444.601 73.8771 444.653C73.5694 444.7 73.2687 444.743 72.9751 444.78C72.6863 444.814 72.4519 444.842 72.272 444.866C71.8364 444.922 71.4292 445.015 71.0504 445.143C70.6764 445.266 70.3733 445.453 70.1413 445.704C69.9141 445.95 69.8004 446.286 69.8004 446.712C69.8004 447.295 70.0159 447.735 70.4467 448.033C70.8823 448.327 71.4339 448.474 72.1016 448.474ZM85.8711 447.451L89.6779 438.815H91.2688L86.5529 449.724H85.1893L80.5586 438.815H82.1211L85.8711 447.451ZM81.5813 438.815V449.724H79.9052V438.815H81.5813ZM90.1609 449.724V438.815H91.837V449.724H90.1609ZM96.1268 449.837C95.7764 449.837 95.4757 449.712 95.2248 449.461C94.9738 449.21 94.8484 448.909 94.8484 448.559C94.8484 448.208 94.9738 447.908 95.2248 447.657C95.4757 447.406 95.7764 447.28 96.1268 447.28C96.4772 447.28 96.7778 447.406 97.0288 447.657C97.2797 447.908 97.4052 448.208 97.4052 448.559C97.4052 448.791 97.346 449.004 97.2276 449.198C97.114 449.392 96.9601 449.548 96.766 449.667C96.5766 449.78 96.3635 449.837 96.1268 449.837Z" fill="white"/>
<path d="M130.063 297.464L146.498 287.084L169.852 300.492L173.744 316.926C152.639 327.998 132.369 320.098 124.873 314.764L130.063 297.464Z" fill="#E6E7E9"/>
<path fill-rule="evenodd" clip-rule="evenodd" d="M118.785 167.817C118.785 167.817 118.785 167.817 122.227 166.519C125.669 165.221 125.67 165.222 125.67 165.223L125.697 165.295L125.773 165.499C125.84 165.678 125.937 165.941 126.063 166.286C126.316 166.975 126.683 167.988 127.145 169.293C128.07 171.903 129.377 175.683 130.912 180.381C133.98 189.773 137.965 202.85 141.628 217.592C148.908 246.889 155.1 283.435 149.796 310.613L142.574 309.203C147.541 283.757 141.754 248.608 134.488 219.366C130.878 204.839 126.947 191.936 123.918 182.665C122.404 178.032 121.117 174.31 120.21 171.75C119.757 170.471 119.399 169.482 119.155 168.816C119.033 168.483 118.939 168.231 118.877 168.063L118.807 167.875L118.785 167.817Z" fill="#E6E7E9"/>
<path d="M127.072 169.274C159.928 126.032 201.877 178.137 236.683 137.596C236.683 137.596 225.431 222.66 182.316 214.351C148.11 207.761 144.948 231.754 144.948 231.754L127.072 169.274Z" fill="#FF9900"/>
<path d="M154.922 171.616L157.368 186.907L171.99 176.313L189.197 181.818L186.739 166.516L154.922 171.616Z" fill="white"/>
<path d="M158.717 195.356L173.408 185.166L190.545 190.267L175.866 200.492L158.717 195.356Z" fill="white"/>
<path opacity="0.14" d="M158.521 151.043L189.346 214.908C196.178 214.608 202.086 211.838 207.187 207.51L199.167 154.217C185.572 153.905 171.77 149.935 158.521 151.043Z" fill="#2F00FF"/>
<path opacity="0.14" d="M156.943 301.926L159.306 321.855C165.292 320.516 170.941 318.93 173.641 316.814L169.836 300.473L151.763 290.11C152.654 269.301 149.05 235.461 125.642 165.223L121.629 166.706C141.068 222.655 148.1 250.138 148.873 289.551L156.943 301.926Z" fill="#212C8E"/>
</svg>
