<svg width="1874" height="729" viewBox="0 0 1874 729" fill="none" xmlns="http://www.w3.org/2000/svg">
<rect x="0.078125" width="1873" height="729" rx="29" fill="#57585A"/>
<path d="M1468.37 185.035C1470.4 182.132 1474.11 180.918 1477.47 182.055L1708.81 260.291C1713.93 262.024 1715.9 268.238 1712.7 272.6L1457.17 621.043C1454.34 624.905 1448.77 625.43 1445.27 622.165L1278.74 466.995C1275.82 464.272 1275.35 459.812 1277.65 456.543L1468.37 185.035Z" fill="#FF9900"/>
<path d="M1454.54 231.077C1456.3 227.615 1460.28 225.861 1464 226.957L1661.84 285.129C1666.91 286.62 1669.15 292.549 1666.36 297.037C1593.17 414.645 1535.82 499.801 1437.34 574.145C1434.33 576.411 1430.14 576.249 1427.31 573.773L1270.06 436.19C1266.12 432.748 1266.51 426.508 1270.81 423.531C1369.58 355.128 1415.15 308.403 1454.54 231.077Z" fill="#FFD5A4"/>
<path d="M1456.8 207.014C1458.93 203.863 1462.98 202.592 1466.51 204.017L1659.57 282.034C1664.2 283.905 1665.99 289.531 1663.27 293.716C1589.44 407.017 1499.57 478.945 1393.54 541.432C1390.25 543.374 1386.03 542.694 1383.51 539.821L1250.9 389.051C1247.49 385.181 1248.6 379.139 1253.13 376.681C1357.88 319.858 1408.23 278.795 1456.8 207.014Z" fill="#FFF0DA"/>
<path d="M1520.72 198.294C1520.92 197.792 1521.47 197.531 1521.98 197.702L1626.65 232.906C1627.26 233.11 1627.52 233.822 1627.19 234.369L1595.07 287.756C1594.79 288.217 1594.2 288.376 1593.73 288.116L1505.88 239.733C1505.45 239.492 1505.25 238.967 1505.43 238.501L1520.72 198.294Z" stroke="#FFD8AA" stroke-width="14"/>
<path d="M1451 257.235C1456.74 253.497 1460.47 257.194 1459.69 264.221C1458.91 271.249 1467.35 264.528 1472.24 268.357C1477.14 272.185 1471.28 277.005 1477.99 280.488C1484.71 283.971 1481.8 278.176 1489.68 281.789C1497.56 285.402 1490.25 287.324 1497.3 293.034C1504.36 298.744 1510.6 285.211 1516.59 295.181C1522.58 305.15 1512.59 302.397 1519.18 306.961C1525.77 311.525 1532.89 297.542 1536.36 308.873C1539.83 320.204 1532.36 315.676 1540.89 318.814C1549.41 321.952 1556.45 314.392 1555.96 324.187C1555.46 333.981 1553.66 338.518 1560.68 339.299C1567.69 340.079 1574.01 326.744 1581.11 337.383C1588.21 348.023 1582.34 343.494 1589.11 346.436" stroke="#FFD5A4" stroke-width="8"/>
<path d="M1418.59 292.078C1427.23 289.976 1423.42 308.027 1430.36 304.201C1437.32 300.365 1448.05 302.808 1450.12 317.151C1452.19 331.494 1457.52 319.451 1464.57 320.214C1471.61 320.987 1470.78 331.569 1469.69 336.112C1468.6 340.638 1472.23 334.645 1480.02 335.734C1487.81 336.822 1483.62 341.912 1487.27 347.353C1490.91 352.794 1493.04 350.538 1499.67 349.512C1506.29 348.486 1506.24 355.308 1512.24 364.247C1518.23 373.185 1521.63 367.515 1530.62 368.982C1539.62 370.439 1534.08 383.773 1538.33 387.71" stroke="#FFD5A4" stroke-width="8" stroke-miterlimit="10"/>
<path d="M1379.61 325.089C1389.4 322.312 1389.08 343.736 1400.18 342.043C1411.28 340.35 1410.36 342.694 1415.37 354.569C1420.38 366.444 1417.3 355.938 1429.74 361.278C1442.19 366.618 1437.57 374.702 1441.42 379.292C1445.29 383.891 1450.19 379.182 1455.26 382.316C1460.34 385.451 1461.54 390.81 1461.54 390.81" stroke="#FFD5A4" stroke-width="8" stroke-miterlimit="10"/>
<path d="M1460.45 454.063C1460.82 444.576 1442.89 453.397 1445.4 445.19C1447.93 436.973 1443.14 426.554 1427.83 428.302C1412.52 430.05 1423.89 421.283 1421.62 414.216C1419.35 407.158 1408.54 410.885 1404.06 413.237C1399.59 415.586 1405.05 410.218 1402.28 402.469C1399.52 394.721 1395.12 400.426 1388.71 398.135C1382.3 395.845 1384.2 393.033 1383.87 385.92C1383.55 378.806 1376.48 380.706 1365.95 376.935C1355.42 373.164 1360.59 368.126 1357.19 359.243C1353.79 350.35 1341.12 359.667 1336.14 356.348" stroke="#FFD5A4" stroke-width="8" stroke-miterlimit="10"/>
<path d="M106.776 67.1406V188H81.874V67.1406H106.776ZM177.997 67.1406L131.679 138.112H101.215L98.0605 115.949H118.397L147.782 67.1406H177.997ZM152.348 188L118.48 133.962L135.746 116.198L181.898 188H152.348ZM213.524 177.873L237.348 98.1855H262.997L226.889 201.53C226.114 203.799 225.062 206.234 223.734 208.835C222.462 211.436 220.718 213.898 218.505 216.223C216.347 218.602 213.607 220.539 210.287 222.033C207.022 223.527 203.01 224.274 198.251 224.274C195.982 224.274 194.128 224.136 192.689 223.859C191.251 223.583 189.535 223.195 187.543 222.697V205.183C188.152 205.183 188.788 205.183 189.452 205.183C190.116 205.238 190.753 205.266 191.361 205.266C194.516 205.266 197.089 204.906 199.081 204.187C201.073 203.467 202.678 202.36 203.896 200.866C205.113 199.427 206.081 197.546 206.801 195.222L213.524 177.873ZM203.563 98.1855L223.07 163.264L226.474 188.581L210.204 190.324L177.914 98.1855H203.563ZM296.449 115.451V222.531H272.543V98.1855H294.706L296.449 115.451ZM353.31 142.097V143.84C353.31 150.37 352.535 156.429 350.985 162.019C349.491 167.608 347.278 172.478 344.345 176.628C341.412 180.723 337.759 183.933 333.388 186.257C329.071 188.526 324.091 189.66 318.446 189.66C312.968 189.66 308.209 188.553 304.169 186.34C300.129 184.126 296.726 181.027 293.959 177.043C291.247 173.003 289.062 168.327 287.401 163.015C285.741 157.702 284.468 152.002 283.583 145.915V141.35C284.468 134.82 285.741 128.843 287.401 123.42C289.062 117.941 291.247 113.21 293.959 109.226C296.726 105.186 300.102 102.059 304.086 99.8457C308.126 97.6322 312.857 96.5254 318.28 96.5254C323.98 96.5254 328.988 97.6045 333.305 99.7627C337.676 101.921 341.329 105.02 344.262 109.06C347.25 113.099 349.491 117.914 350.985 123.503C352.535 129.092 353.31 135.29 353.31 142.097ZM329.32 143.84V142.097C329.32 138.278 328.988 134.764 328.324 131.555C327.715 128.29 326.719 125.44 325.336 123.005C324.008 120.57 322.237 118.688 320.023 117.36C317.865 115.977 315.237 115.285 312.138 115.285C308.873 115.285 306.078 115.811 303.754 116.862C301.485 117.914 299.631 119.436 298.192 121.428C296.754 123.42 295.674 125.799 294.955 128.566C294.236 131.333 293.793 134.46 293.627 137.946V149.484C293.904 153.579 294.678 157.259 295.951 160.524C297.224 163.734 299.188 166.28 301.845 168.161C304.501 170.043 307.987 170.983 312.304 170.983C315.458 170.983 318.114 170.292 320.272 168.908C322.431 167.469 324.174 165.505 325.502 163.015C326.885 160.524 327.854 157.647 328.407 154.382C329.016 151.117 329.32 147.603 329.32 143.84ZM416.645 167.746V127.736C416.645 124.859 416.174 122.396 415.233 120.349C414.293 118.246 412.826 116.613 410.834 115.451C408.897 114.289 406.379 113.708 403.28 113.708C400.624 113.708 398.327 114.178 396.391 115.119C394.454 116.005 392.96 117.305 391.908 119.021C390.857 120.681 390.331 122.645 390.331 124.914H366.425C366.425 121.096 367.31 117.471 369.081 114.04C370.852 110.609 373.425 107.593 376.801 104.992C380.176 102.336 384.188 100.261 388.837 98.7666C393.541 97.2725 398.798 96.5254 404.608 96.5254C411.581 96.5254 417.779 97.6875 423.202 100.012C428.625 102.336 432.886 105.822 435.985 110.471C439.14 115.119 440.717 120.93 440.717 127.902V166.335C440.717 171.26 441.021 175.3 441.63 178.454C442.239 181.553 443.124 184.265 444.286 186.589V188H420.131C418.969 185.565 418.083 182.521 417.475 178.869C416.921 175.161 416.645 171.454 416.645 167.746ZM419.799 133.298L419.965 146.828H406.601C403.446 146.828 400.707 147.188 398.383 147.907C396.059 148.627 394.149 149.65 392.655 150.979C391.161 152.251 390.054 153.745 389.335 155.461C388.671 157.176 388.339 159.058 388.339 161.105C388.339 163.153 388.809 165.007 389.75 166.667C390.691 168.272 392.047 169.545 393.817 170.485C395.588 171.371 397.663 171.813 400.043 171.813C403.64 171.813 406.767 171.094 409.423 169.655C412.079 168.216 414.127 166.446 415.565 164.343C417.06 162.24 417.834 160.248 417.89 158.366L424.198 168.493C423.313 170.762 422.095 173.114 420.546 175.549C419.052 177.984 417.143 180.28 414.818 182.438C412.494 184.541 409.7 186.285 406.435 187.668C403.17 188.996 399.296 189.66 394.813 189.66C389.114 189.66 383.939 188.526 379.291 186.257C374.698 183.933 371.046 180.751 368.334 176.711C365.678 172.616 364.35 167.967 364.35 162.766C364.35 158.062 365.235 153.884 367.006 150.231C368.777 146.579 371.378 143.508 374.809 141.018C378.295 138.472 382.639 136.563 387.841 135.29C393.043 133.962 399.075 133.298 405.937 133.298H419.799ZM503.554 98.1855V188H479.564V98.1855H503.554ZM532.44 98.1855V116.696H451.093V98.1855H532.44ZM538.002 144.006V142.263C538.002 135.677 538.943 129.618 540.824 124.084C542.706 118.495 545.445 113.653 549.042 109.558C552.639 105.463 557.066 102.281 562.323 100.012C567.58 97.6875 573.612 96.5254 580.419 96.5254C587.226 96.5254 593.285 97.6875 598.598 100.012C603.91 102.281 608.365 105.463 611.962 109.558C615.614 113.653 618.381 118.495 620.263 124.084C622.144 129.618 623.085 135.677 623.085 142.263V144.006C623.085 150.536 622.144 156.595 620.263 162.185C618.381 167.718 615.614 172.561 611.962 176.711C608.365 180.806 603.938 183.988 598.681 186.257C593.424 188.526 587.392 189.66 580.585 189.66C573.778 189.66 567.719 188.526 562.406 186.257C557.149 183.988 552.694 180.806 549.042 176.711C545.445 172.561 542.706 167.718 540.824 162.185C538.943 156.595 538.002 150.536 538.002 144.006ZM561.908 142.263V144.006C561.908 147.769 562.24 151.283 562.904 154.548C563.568 157.813 564.62 160.69 566.059 163.181C567.553 165.616 569.49 167.525 571.869 168.908C574.249 170.292 577.154 170.983 580.585 170.983C583.905 170.983 586.755 170.292 589.135 168.908C591.514 167.525 593.424 165.616 594.862 163.181C596.301 160.69 597.353 157.813 598.017 154.548C598.736 151.283 599.096 147.769 599.096 144.006V142.263C599.096 138.61 598.736 135.179 598.017 131.97C597.353 128.705 596.273 125.827 594.779 123.337C593.34 120.791 591.431 118.799 589.052 117.36C586.672 115.922 583.795 115.202 580.419 115.202C577.043 115.202 574.166 115.922 571.786 117.36C569.462 118.799 567.553 120.791 566.059 123.337C564.62 125.827 563.568 128.705 562.904 131.97C562.24 135.179 561.908 138.61 561.908 142.263ZM661.684 115.451V222.531H637.777V98.1855H659.94L661.684 115.451ZM718.544 142.097V143.84C718.544 150.37 717.769 156.429 716.22 162.019C714.726 167.608 712.512 172.478 709.579 176.628C706.646 180.723 702.994 183.933 698.622 186.257C694.306 188.526 689.325 189.66 683.681 189.66C678.202 189.66 673.443 188.553 669.403 186.34C665.364 184.126 661.96 181.027 659.193 177.043C656.482 173.003 654.296 168.327 652.636 163.015C650.976 157.702 649.703 152.002 648.817 145.915V141.35C649.703 134.82 650.976 128.843 652.636 123.42C654.296 117.941 656.482 113.21 659.193 109.226C661.96 105.186 665.336 102.059 669.32 99.8457C673.36 97.6322 678.091 96.5254 683.515 96.5254C689.215 96.5254 694.223 97.6045 698.539 99.7627C702.911 101.921 706.563 105.02 709.496 109.06C712.484 113.099 714.726 117.914 716.22 123.503C717.769 129.092 718.544 135.29 718.544 142.097ZM694.555 143.84V142.097C694.555 138.278 694.223 134.764 693.559 131.555C692.95 128.29 691.954 125.44 690.57 123.005C689.242 120.57 687.471 118.688 685.258 117.36C683.1 115.977 680.471 115.285 677.372 115.285C674.107 115.285 671.312 115.811 668.988 116.862C666.719 117.914 664.866 119.436 663.427 121.428C661.988 123.42 660.909 125.799 660.189 128.566C659.47 131.333 659.027 134.46 658.861 137.946V149.484C659.138 153.579 659.913 157.259 661.186 160.524C662.458 163.734 664.423 166.28 667.079 168.161C669.735 170.043 673.222 170.983 677.538 170.983C680.692 170.983 683.349 170.292 685.507 168.908C687.665 167.469 689.408 165.505 690.736 163.015C692.12 160.524 693.088 157.647 693.642 154.382C694.25 151.117 694.555 147.603 694.555 143.84ZM791.923 98.1855H815.829L815.082 128.234C814.861 137.863 813.754 146.136 811.762 153.054C809.77 159.971 807.113 165.782 803.793 170.485C800.473 175.189 796.682 178.952 792.421 181.774C788.215 184.541 783.788 186.617 779.14 188H774.657L774.408 169.572L776.898 169.323C779.721 166.39 782.045 163.54 783.871 160.773C785.697 157.951 787.108 154.991 788.104 151.892C789.101 148.793 789.82 145.334 790.263 141.516C790.761 137.697 791.065 133.27 791.176 128.234L791.923 98.1855ZM798.397 98.1855H857.914V188H834.091V117.36H798.397V98.1855ZM769.179 169.323H870.78V214.978H846.874V188H793.666V214.978H769.179V169.323ZM943.412 98.1855V116.945H899.252V98.1855H943.412ZM960.927 98.1855V188H937.021V98.1855H960.927ZM893.275 98.1855H916.767L914.359 143.508C914.027 149.982 913.336 155.682 912.284 160.607C911.233 165.533 909.822 169.738 908.051 173.225C906.335 176.711 904.26 179.561 901.825 181.774C899.446 183.933 896.651 185.51 893.441 186.506C890.287 187.502 886.801 188 882.982 188H875.678L875.429 169.157L878.5 168.825C880.271 168.659 881.82 168.161 883.148 167.331C884.532 166.446 885.694 165.201 886.635 163.596C887.631 161.936 888.461 159.86 889.125 157.37C889.789 154.825 890.315 151.836 890.702 148.405C891.145 144.974 891.449 141.018 891.615 136.535L893.275 98.1855ZM998.778 143.176H1023.02L998.031 188H973.876L998.778 143.176ZM1014.88 98.1855H1054.31V188H1030.4V116.696H1014.88C1011.62 116.696 1008.91 117.305 1006.75 118.522C1004.59 119.685 1002.98 121.206 1001.93 123.088C1000.94 124.914 1000.44 126.796 1000.44 128.732C1000.44 130.614 1000.94 132.44 1001.93 134.211C1002.93 135.982 1004.48 137.448 1006.58 138.61C1008.68 139.772 1011.31 140.354 1014.47 140.354H1039.29V156.623H1014.47C1008.55 156.623 1003.23 155.904 998.529 154.465C993.881 153.026 989.896 151.034 986.576 148.488C983.311 145.887 980.793 142.871 979.022 139.44C977.307 135.954 976.449 132.136 976.449 127.985C976.449 123.669 977.335 119.712 979.105 116.115C980.876 112.518 983.422 109.364 986.742 106.652C990.062 103.941 994.075 101.866 998.778 100.427C1003.54 98.9326 1008.91 98.1855 1014.88 98.1855ZM117.401 315.983C120.334 315.983 122.935 315.43 125.204 314.323C127.473 313.161 129.244 311.556 130.517 309.509C131.845 307.406 132.536 304.943 132.592 302.121H155.087C155.032 308.43 153.344 314.047 150.023 318.972C146.703 323.841 142.248 327.688 136.659 330.51C131.07 333.277 124.817 334.66 117.899 334.66C110.927 334.66 104.84 333.498 99.6377 331.174C94.4912 328.85 90.2025 325.64 86.7715 321.545C83.3405 317.395 80.7673 312.58 79.0518 307.102C77.3363 301.568 76.4785 295.646 76.4785 289.338V286.931C76.4785 280.567 77.3363 274.646 79.0518 269.167C80.7673 263.633 83.3405 258.819 86.7715 254.724C90.2025 250.573 94.4912 247.336 99.6377 245.012C104.784 242.688 110.816 241.525 117.733 241.525C125.093 241.525 131.54 242.937 137.074 245.759C142.663 248.581 147.035 252.621 150.189 257.878C153.399 263.08 155.032 269.25 155.087 276.389H132.592C132.536 273.4 131.9 270.689 130.683 268.254C129.521 265.819 127.805 263.882 125.536 262.443C123.323 260.949 120.583 260.202 117.318 260.202C113.832 260.202 110.982 260.949 108.769 262.443C106.555 263.882 104.84 265.874 103.622 268.42C102.405 270.91 101.547 273.76 101.049 276.97C100.606 280.124 100.385 283.444 100.385 286.931V289.338C100.385 292.824 100.606 296.172 101.049 299.382C101.492 302.591 102.322 305.441 103.539 307.932C104.812 310.422 106.555 312.386 108.769 313.825C110.982 315.264 113.86 315.983 117.401 315.983ZM214.687 243.186V333H190.697V243.186H214.687ZM243.573 243.186V261.696H162.226V243.186H243.573ZM283.417 322.873L307.24 243.186H332.89L296.781 346.53C296.007 348.799 294.955 351.234 293.627 353.835C292.354 356.436 290.611 358.898 288.397 361.223C286.239 363.602 283.5 365.539 280.18 367.033C276.915 368.527 272.903 369.274 268.144 369.274C265.875 369.274 264.021 369.136 262.582 368.859C261.143 368.583 259.428 368.195 257.436 367.697V350.183C258.044 350.183 258.681 350.183 259.345 350.183C260.009 350.238 260.645 350.266 261.254 350.266C264.408 350.266 266.981 349.906 268.974 349.187C270.966 348.467 272.571 347.36 273.788 345.866C275.006 344.427 275.974 342.546 276.693 340.222L283.417 322.873ZM273.456 243.186L292.963 308.264L296.366 333.581L280.097 335.324L247.807 243.186H273.456ZM353.974 243.186H377.88L377.133 273.234C376.911 282.863 375.805 291.136 373.812 298.054C371.82 304.971 369.164 310.782 365.844 315.485C362.523 320.189 358.733 323.952 354.472 326.774C350.266 329.541 345.839 331.617 341.19 333H336.708L336.459 314.572L338.949 314.323C341.771 311.39 344.096 308.54 345.922 305.773C347.748 302.951 349.159 299.991 350.155 296.892C351.151 293.793 351.871 290.334 352.313 286.516C352.812 282.697 353.116 278.27 353.227 273.234L353.974 243.186ZM360.448 243.186H419.965V333H396.142V262.36H360.448V243.186ZM331.229 314.323H432.831V359.978H408.925V333H355.717V359.978H331.229V314.323ZM486.371 334.66C479.398 334.66 473.145 333.553 467.611 331.34C462.077 329.071 457.374 325.944 453.5 321.96C449.682 317.976 446.749 313.355 444.701 308.098C442.654 302.785 441.63 297.141 441.63 291.164V287.844C441.63 281.037 442.598 274.812 444.535 269.167C446.472 263.522 449.239 258.625 452.836 254.475C456.488 250.324 460.915 247.142 466.117 244.929C471.319 242.66 477.185 241.525 483.715 241.525C490.079 241.525 495.723 242.577 500.648 244.68C505.574 246.783 509.696 249.771 513.017 253.645C516.392 257.518 518.938 262.167 520.653 267.59C522.369 272.958 523.227 278.934 523.227 285.52V295.48H451.84V279.543H499.735V277.717C499.735 274.396 499.127 271.436 497.909 268.835C496.747 266.179 494.976 264.076 492.597 262.526C490.217 260.977 487.174 260.202 483.466 260.202C480.312 260.202 477.6 260.894 475.331 262.277C473.062 263.661 471.208 265.598 469.77 268.088C468.386 270.578 467.335 273.511 466.615 276.887C465.951 280.207 465.619 283.859 465.619 287.844V291.164C465.619 294.761 466.117 298.081 467.113 301.125C468.165 304.169 469.631 306.797 471.513 309.011C473.45 311.224 475.774 312.94 478.485 314.157C481.252 315.375 484.379 315.983 487.865 315.983C492.182 315.983 496.194 315.153 499.901 313.493C503.664 311.778 506.902 309.204 509.613 305.773L521.234 318.391C519.353 321.102 516.78 323.703 513.515 326.193C510.305 328.684 506.431 330.731 501.894 332.336C497.356 333.885 492.182 334.66 486.371 334.66ZM598.349 279.46V298.054H552.694V279.46H598.349ZM560.663 243.186V333H536.757V243.186H560.663ZM614.535 243.186V333H590.546V243.186H614.535ZM678.866 243.186V333H654.877V243.186H678.866ZM707.753 243.186V261.696H626.405V243.186H707.753ZM713.314 289.006V287.263C713.314 280.677 714.255 274.618 716.137 269.084C718.018 263.495 720.757 258.653 724.354 254.558C727.951 250.463 732.379 247.281 737.636 245.012C742.893 242.688 748.925 241.525 755.731 241.525C762.538 241.525 768.598 242.688 773.91 245.012C779.223 247.281 783.677 250.463 787.274 254.558C790.927 258.653 793.694 263.495 795.575 269.084C797.457 274.618 798.397 280.677 798.397 287.263V289.006C798.397 295.536 797.457 301.595 795.575 307.185C793.694 312.718 790.927 317.561 787.274 321.711C783.677 325.806 779.25 328.988 773.993 331.257C768.736 333.526 762.704 334.66 755.897 334.66C749.091 334.66 743.031 333.526 737.719 331.257C732.462 328.988 728.007 325.806 724.354 321.711C720.757 317.561 718.018 312.718 716.137 307.185C714.255 301.595 713.314 295.536 713.314 289.006ZM737.221 287.263V289.006C737.221 292.769 737.553 296.283 738.217 299.548C738.881 302.813 739.932 305.69 741.371 308.181C742.865 310.616 744.802 312.525 747.182 313.908C749.561 315.292 752.466 315.983 755.897 315.983C759.218 315.983 762.068 315.292 764.447 313.908C766.827 312.525 768.736 310.616 770.175 308.181C771.614 305.69 772.665 302.813 773.329 299.548C774.049 296.283 774.408 292.769 774.408 289.006V287.263C774.408 283.61 774.049 280.179 773.329 276.97C772.665 273.705 771.586 270.827 770.092 268.337C768.653 265.791 766.744 263.799 764.364 262.36C761.985 260.922 759.107 260.202 755.731 260.202C752.356 260.202 749.478 260.922 747.099 262.36C744.774 263.799 742.865 265.791 741.371 268.337C739.932 270.827 738.881 273.705 738.217 276.97C737.553 280.179 737.221 283.61 737.221 287.263ZM857.831 295.48H829.691L829.525 279.792H852.768C855.867 279.792 858.384 279.488 860.321 278.879C862.258 278.215 863.669 277.246 864.555 275.974C865.495 274.646 865.966 273.041 865.966 271.159C865.966 269.499 865.661 268.088 865.053 266.926C864.499 265.708 863.642 264.712 862.479 263.938C861.317 263.163 859.851 262.609 858.08 262.277C856.365 261.89 854.345 261.696 852.021 261.696H838.573V333H814.667V243.186H852.021C857.886 243.186 863.144 243.711 867.792 244.763C872.44 245.759 876.397 247.281 879.662 249.328C882.982 251.376 885.5 253.977 887.216 257.131C888.987 260.23 889.872 263.91 889.872 268.171C889.872 270.938 889.236 273.539 887.963 275.974C886.745 278.409 884.919 280.567 882.484 282.448C880.049 284.33 877.034 285.879 873.437 287.097C869.895 288.259 865.8 288.978 861.151 289.255L857.831 295.48ZM857.831 333H823.798L832.016 314.489H857.831C860.764 314.489 863.171 314.13 865.053 313.41C866.934 312.691 868.318 311.639 869.203 310.256C870.144 308.817 870.614 307.102 870.614 305.109C870.614 303.173 870.199 301.485 869.369 300.046C868.539 298.607 867.183 297.5 865.302 296.726C863.476 295.896 860.985 295.48 857.831 295.48H835.502L835.668 279.792H861.068L866.879 286.101C873.188 286.488 878.389 287.678 882.484 289.67C886.579 291.662 889.595 294.208 891.532 297.307C893.524 300.35 894.521 303.698 894.521 307.351C894.521 311.612 893.718 315.347 892.113 318.557C890.508 321.766 888.129 324.45 884.975 326.608C881.876 328.711 878.057 330.316 873.52 331.423C868.982 332.474 863.752 333 857.831 333Z" fill="white"/>
<path d="M91.625 481.5L81.625 468.148H78.0455V481.5H74.5227V452.409H78.0455V465.023H79.5795L91.2273 452.409H95.4318L83.6705 465.193L95.8295 481.5H91.625ZM100.485 489.682C99.9169 489.682 99.4103 489.634 98.9652 489.54C98.5201 489.455 98.2124 489.369 98.0419 489.284L98.8942 486.33C99.7086 486.538 100.428 486.614 101.053 486.557C101.678 486.5 102.232 486.221 102.715 485.719C103.208 485.226 103.657 484.426 104.065 483.318L104.69 481.614L96.6214 459.682H100.258L106.281 477.068H106.508L112.531 459.682H116.167L106.906 484.682C106.489 485.809 105.973 486.741 105.357 487.48C104.742 488.228 104.027 488.782 103.212 489.142C102.407 489.502 101.498 489.682 100.485 489.682ZM120.592 489.682V459.682H123.83V463.148H124.228C124.474 462.769 124.815 462.286 125.251 461.699C125.696 461.102 126.33 460.572 127.154 460.108C127.987 459.634 129.114 459.398 130.535 459.398C132.372 459.398 133.991 459.857 135.393 460.776C136.794 461.694 137.888 462.996 138.674 464.682C139.46 466.367 139.853 468.356 139.853 470.648C139.853 472.958 139.46 474.961 138.674 476.656C137.888 478.342 136.799 479.649 135.407 480.577C134.015 481.495 132.41 481.955 130.592 481.955C129.19 481.955 128.068 481.723 127.225 481.259C126.382 480.785 125.734 480.25 125.279 479.653C124.825 479.047 124.474 478.545 124.228 478.148H123.944V489.682H120.592ZM123.887 470.591C123.887 472.239 124.129 473.692 124.612 474.952C125.094 476.202 125.8 477.182 126.728 477.892C127.656 478.593 128.792 478.943 130.137 478.943C131.539 478.943 132.708 478.574 133.646 477.835C134.593 477.087 135.303 476.083 135.776 474.824C136.259 473.555 136.501 472.144 136.501 470.591C136.501 469.057 136.264 467.674 135.79 466.443C135.326 465.203 134.621 464.223 133.674 463.503C132.737 462.774 131.558 462.409 130.137 462.409C128.773 462.409 127.628 462.755 126.7 463.446C125.772 464.128 125.071 465.084 124.597 466.315C124.124 467.537 123.887 468.962 123.887 470.591ZM151.387 482.011C150.004 482.011 148.75 481.751 147.623 481.23C146.496 480.7 145.601 479.938 144.938 478.943C144.275 477.939 143.944 476.727 143.944 475.307C143.944 474.057 144.19 473.044 144.683 472.267C145.175 471.481 145.833 470.866 146.657 470.42C147.481 469.975 148.39 469.644 149.384 469.426C150.388 469.199 151.397 469.019 152.41 468.886C153.736 468.716 154.81 468.588 155.634 468.503C156.468 468.408 157.074 468.252 157.452 468.034C157.841 467.816 158.035 467.437 158.035 466.898V466.784C158.035 465.383 157.651 464.294 156.884 463.517C156.127 462.741 154.976 462.352 153.433 462.352C151.832 462.352 150.577 462.703 149.668 463.403C148.759 464.104 148.12 464.852 147.751 465.648L144.569 464.511C145.137 463.186 145.895 462.153 146.842 461.415C147.798 460.667 148.84 460.146 149.967 459.852C151.103 459.549 152.22 459.398 153.319 459.398C154.02 459.398 154.825 459.483 155.734 459.653C156.652 459.814 157.538 460.151 158.39 460.662C159.252 461.173 159.967 461.945 160.535 462.977C161.103 464.009 161.387 465.392 161.387 467.125V481.5H158.035V478.545H157.864C157.637 479.019 157.258 479.526 156.728 480.065C156.198 480.605 155.492 481.064 154.612 481.443C153.731 481.822 152.656 482.011 151.387 482.011ZM151.898 479C153.224 479 154.342 478.74 155.251 478.219C156.169 477.698 156.861 477.026 157.325 476.202C157.798 475.378 158.035 474.511 158.035 473.602V470.534C157.893 470.705 157.58 470.861 157.097 471.003C156.624 471.135 156.075 471.254 155.45 471.358C154.834 471.453 154.233 471.538 153.646 471.614C153.068 471.68 152.599 471.737 152.239 471.784C151.368 471.898 150.554 472.082 149.796 472.338C149.048 472.584 148.442 472.958 147.978 473.46C147.523 473.953 147.296 474.625 147.296 475.477C147.296 476.642 147.727 477.523 148.589 478.119C149.46 478.706 150.563 479 151.898 479ZM164.537 462.807V459.682H182.264V462.807H175.105V481.5H171.753V462.807H164.537ZM194.885 481.955C192.915 481.955 191.187 481.486 189.7 480.548C188.223 479.611 187.068 478.299 186.234 476.614C185.411 474.928 184.999 472.958 184.999 470.705C184.999 468.432 185.411 466.448 186.234 464.753C187.068 463.058 188.223 461.741 189.7 460.804C191.187 459.866 192.915 459.398 194.885 459.398C196.855 459.398 198.578 459.866 200.055 460.804C201.542 461.741 202.697 463.058 203.521 464.753C204.355 466.448 204.771 468.432 204.771 470.705C204.771 472.958 204.355 474.928 203.521 476.614C202.697 478.299 201.542 479.611 200.055 480.548C198.578 481.486 196.855 481.955 194.885 481.955ZM194.885 478.943C196.381 478.943 197.612 478.56 198.578 477.793C199.544 477.026 200.259 476.017 200.723 474.767C201.187 473.517 201.419 472.163 201.419 470.705C201.419 469.246 201.187 467.887 200.723 466.628C200.259 465.368 199.544 464.35 198.578 463.574C197.612 462.797 196.381 462.409 194.885 462.409C193.389 462.409 192.158 462.797 191.192 463.574C190.226 464.35 189.511 465.368 189.047 466.628C188.583 467.887 188.351 469.246 188.351 470.705C188.351 472.163 188.583 473.517 189.047 474.767C189.511 476.017 190.226 477.026 191.192 477.793C192.158 478.56 193.389 478.943 194.885 478.943ZM209.888 489.682V459.682H213.127V463.148H213.525C213.771 462.769 214.112 462.286 214.548 461.699C214.993 461.102 215.627 460.572 216.451 460.108C217.284 459.634 218.411 459.398 219.832 459.398C221.669 459.398 223.288 459.857 224.69 460.776C226.091 461.694 227.185 462.996 227.971 464.682C228.757 466.367 229.15 468.356 229.15 470.648C229.15 472.958 228.757 474.961 227.971 476.656C227.185 478.342 226.096 479.649 224.704 480.577C223.312 481.495 221.707 481.955 219.888 481.955C218.487 481.955 217.365 481.723 216.522 481.259C215.679 480.785 215.031 480.25 214.576 479.653C214.121 479.047 213.771 478.545 213.525 478.148H213.241V489.682H209.888ZM213.184 470.591C213.184 472.239 213.425 473.692 213.908 474.952C214.391 476.202 215.097 477.182 216.025 477.892C216.953 478.593 218.089 478.943 219.434 478.943C220.835 478.943 222.005 478.574 222.942 477.835C223.889 477.087 224.6 476.083 225.073 474.824C225.556 473.555 225.798 472.144 225.798 470.591C225.798 469.057 225.561 467.674 225.087 466.443C224.623 465.203 223.918 464.223 222.971 463.503C222.033 462.774 220.854 462.409 219.434 462.409C218.07 462.409 216.924 462.755 215.996 463.446C215.068 464.128 214.368 465.084 213.894 466.315C213.421 467.537 213.184 468.962 213.184 470.591ZM237.161 467.58H243.411C245.968 467.58 247.924 468.228 249.278 469.526C250.632 470.823 251.309 472.466 251.309 474.455C251.309 475.761 251.006 476.95 250.4 478.02C249.794 479.08 248.904 479.928 247.729 480.562C246.555 481.188 245.116 481.5 243.411 481.5H234.263V459.682H237.616V478.375H243.411C244.737 478.375 245.826 478.025 246.678 477.324C247.531 476.623 247.957 475.723 247.957 474.625C247.957 473.47 247.531 472.527 246.678 471.798C245.826 471.069 244.737 470.705 243.411 470.705H237.161V467.58ZM254.775 481.5V459.682H258.127V481.5H254.775ZM275.513 481.5V459.682H284.434C286.782 459.682 288.648 460.212 290.031 461.273C291.413 462.333 292.104 463.735 292.104 465.477C292.104 466.803 291.711 467.83 290.925 468.56C290.139 469.279 289.131 469.767 287.9 470.023C288.705 470.136 289.486 470.42 290.244 470.875C291.011 471.33 291.645 471.955 292.147 472.75C292.649 473.536 292.9 474.502 292.9 475.648C292.9 476.765 292.616 477.764 292.048 478.645C291.479 479.526 290.665 480.222 289.604 480.733C288.544 481.244 287.275 481.5 285.798 481.5H275.513ZM278.695 478.432H285.798C286.953 478.432 287.857 478.157 288.511 477.608C289.164 477.059 289.491 476.311 289.491 475.364C289.491 474.237 289.164 473.351 288.511 472.707C287.857 472.054 286.953 471.727 285.798 471.727H278.695V478.432ZM278.695 468.83H284.434C285.334 468.83 286.105 468.706 286.749 468.46C287.393 468.205 287.886 467.845 288.227 467.381C288.577 466.907 288.752 466.348 288.752 465.705C288.752 464.786 288.369 464.066 287.602 463.545C286.835 463.015 285.779 462.75 284.434 462.75H278.695V468.83ZM306.838 481.955C304.793 481.955 303.031 481.472 301.554 480.506C300.077 479.54 298.94 478.209 298.145 476.514C297.349 474.819 296.952 472.883 296.952 470.705C296.952 468.489 297.359 466.533 298.173 464.838C298.997 463.134 300.143 461.803 301.611 460.847C303.088 459.881 304.812 459.398 306.781 459.398C308.315 459.398 309.698 459.682 310.929 460.25C312.16 460.818 313.169 461.614 313.955 462.636C314.741 463.659 315.228 464.852 315.418 466.216H312.065C311.81 465.222 311.241 464.341 310.361 463.574C309.49 462.797 308.315 462.409 306.838 462.409C305.531 462.409 304.385 462.75 303.401 463.432C302.425 464.104 301.663 465.056 301.114 466.287C300.574 467.509 300.304 468.943 300.304 470.591C300.304 472.277 300.569 473.744 301.099 474.994C301.639 476.244 302.397 477.215 303.372 477.906C304.357 478.598 305.512 478.943 306.838 478.943C307.709 478.943 308.5 478.792 309.21 478.489C309.92 478.186 310.522 477.75 311.014 477.182C311.507 476.614 311.857 475.932 312.065 475.136H315.418C315.228 476.424 314.759 477.584 314.011 478.616C313.273 479.639 312.293 480.454 311.071 481.06C309.859 481.656 308.448 481.955 306.838 481.955ZM318.599 462.807V459.682H336.327V462.807H329.168V481.5H325.815V462.807H318.599ZM341.217 489.682V459.682H344.455V463.148H344.853C345.099 462.769 345.44 462.286 345.876 461.699C346.321 461.102 346.955 460.572 347.779 460.108C348.612 459.634 349.739 459.398 351.16 459.398C352.997 459.398 354.616 459.857 356.018 460.776C357.419 461.694 358.513 462.996 359.299 464.682C360.085 466.367 360.478 468.356 360.478 470.648C360.478 472.958 360.085 474.961 359.299 476.656C358.513 478.342 357.424 479.649 356.032 480.577C354.64 481.495 353.035 481.955 351.217 481.955C349.815 481.955 348.693 481.723 347.85 481.259C347.007 480.785 346.359 480.25 345.904 479.653C345.45 479.047 345.099 478.545 344.853 478.148H344.569V489.682H341.217ZM344.512 470.591C344.512 472.239 344.754 473.692 345.237 474.952C345.719 476.202 346.425 477.182 347.353 477.892C348.281 478.593 349.417 478.943 350.762 478.943C352.164 478.943 353.333 478.574 354.271 477.835C355.218 477.087 355.928 476.083 356.401 474.824C356.884 473.555 357.126 472.144 357.126 470.591C357.126 469.057 356.889 467.674 356.415 466.443C355.951 465.203 355.246 464.223 354.299 463.503C353.362 462.774 352.183 462.409 350.762 462.409C349.398 462.409 348.253 462.755 347.325 463.446C346.397 464.128 345.696 465.084 345.222 466.315C344.749 467.537 344.512 468.962 344.512 470.591ZM374.739 481.955C372.637 481.955 370.824 481.491 369.299 480.562C367.784 479.625 366.614 478.318 365.79 476.642C364.976 474.956 364.569 472.996 364.569 470.761C364.569 468.527 364.976 466.557 365.79 464.852C366.614 463.138 367.76 461.803 369.228 460.847C370.705 459.881 372.429 459.398 374.398 459.398C375.535 459.398 376.657 459.587 377.765 459.966C378.873 460.345 379.881 460.96 380.79 461.812C381.7 462.655 382.424 463.773 382.964 465.165C383.504 466.557 383.773 468.271 383.773 470.307V471.727H366.955V468.83H380.364C380.364 467.598 380.118 466.5 379.626 465.534C379.143 464.568 378.451 463.806 377.552 463.247C376.662 462.688 375.611 462.409 374.398 462.409C373.063 462.409 371.908 462.741 370.933 463.403C369.967 464.057 369.223 464.909 368.702 465.96C368.182 467.011 367.921 468.138 367.921 469.341V471.273C367.921 472.92 368.205 474.317 368.773 475.463C369.351 476.599 370.151 477.466 371.174 478.062C372.197 478.65 373.385 478.943 374.739 478.943C375.62 478.943 376.415 478.82 377.126 478.574C377.845 478.318 378.466 477.939 378.987 477.438C379.507 476.926 379.91 476.292 380.194 475.534L383.433 476.443C383.092 477.542 382.519 478.508 381.714 479.341C380.909 480.165 379.915 480.809 378.731 481.273C377.547 481.727 376.217 481.955 374.739 481.955ZM405.691 459.682V481.5H402.339V459.682H405.691ZM404.384 470.08V473.205C403.627 473.489 402.874 473.74 402.126 473.957C401.378 474.166 400.592 474.331 399.768 474.455C398.944 474.568 398.04 474.625 397.055 474.625C394.583 474.625 392.599 473.957 391.103 472.622C389.616 471.287 388.873 469.284 388.873 466.614V459.625H392.225V466.614C392.225 467.731 392.438 468.65 392.864 469.369C393.29 470.089 393.868 470.624 394.597 470.974C395.326 471.325 396.146 471.5 397.055 471.5C398.475 471.5 399.758 471.372 400.904 471.116C402.059 470.851 403.219 470.506 404.384 470.08ZM418.262 482.011C416.879 482.011 415.625 481.751 414.498 481.23C413.371 480.7 412.476 479.938 411.813 478.943C411.15 477.939 410.819 476.727 410.819 475.307C410.819 474.057 411.065 473.044 411.558 472.267C412.05 471.481 412.708 470.866 413.532 470.42C414.356 469.975 415.265 469.644 416.259 469.426C417.263 469.199 418.272 469.019 419.285 468.886C420.611 468.716 421.685 468.588 422.509 468.503C423.343 468.408 423.949 468.252 424.327 468.034C424.716 467.816 424.91 467.437 424.91 466.898V466.784C424.91 465.383 424.526 464.294 423.759 463.517C423.002 462.741 421.851 462.352 420.308 462.352C418.707 462.352 417.452 462.703 416.543 463.403C415.634 464.104 414.995 464.852 414.626 465.648L411.444 464.511C412.012 463.186 412.77 462.153 413.717 461.415C414.673 460.667 415.715 460.146 416.842 459.852C417.978 459.549 419.095 459.398 420.194 459.398C420.895 459.398 421.7 459.483 422.609 459.653C423.527 459.814 424.413 460.151 425.265 460.662C426.127 461.173 426.842 461.945 427.41 462.977C427.978 464.009 428.262 465.392 428.262 467.125V481.5H424.91V478.545H424.739C424.512 479.019 424.133 479.526 423.603 480.065C423.073 480.605 422.367 481.064 421.487 481.443C420.606 481.822 419.531 482.011 418.262 482.011ZM418.773 479C420.099 479 421.217 478.74 422.126 478.219C423.044 477.698 423.736 477.026 424.2 476.202C424.673 475.378 424.91 474.511 424.91 473.602V470.534C424.768 470.705 424.455 470.861 423.972 471.003C423.499 471.135 422.95 471.254 422.325 471.358C421.709 471.453 421.108 471.538 420.521 471.614C419.943 471.68 419.474 471.737 419.114 471.784C418.243 471.898 417.429 472.082 416.671 472.338C415.923 472.584 415.317 472.958 414.853 473.46C414.398 473.953 414.171 474.625 414.171 475.477C414.171 476.642 414.602 477.523 415.464 478.119C416.335 478.706 417.438 479 418.773 479ZM444.835 469.227V472.352H433.301V469.227H444.835ZM436.142 459.682V481.5H432.79V459.682H436.142ZM451.54 481.955C449.57 481.955 447.842 481.486 446.355 480.548C444.878 479.611 443.723 478.299 442.889 476.614C442.065 474.928 441.653 472.958 441.653 470.705C441.653 468.432 442.065 466.448 442.889 464.753C443.723 463.058 444.878 461.741 446.355 460.804C447.842 459.866 449.57 459.398 451.54 459.398C453.509 459.398 455.233 459.866 456.71 460.804C458.197 461.741 459.352 463.058 460.176 464.753C461.009 466.448 461.426 468.432 461.426 470.705C461.426 472.958 461.009 474.928 460.176 476.614C459.352 478.299 458.197 479.611 456.71 480.548C455.233 481.486 453.509 481.955 451.54 481.955ZM451.54 478.943C453.036 478.943 454.267 478.56 455.233 477.793C456.199 477.026 456.914 476.017 457.378 474.767C457.842 473.517 458.074 472.163 458.074 470.705C458.074 469.246 457.842 467.887 457.378 466.628C456.914 465.368 456.199 464.35 455.233 463.574C454.267 462.797 453.036 462.409 451.54 462.409C450.044 462.409 448.813 462.797 447.847 463.574C446.881 464.35 446.166 465.368 445.702 466.628C445.238 467.887 445.006 469.246 445.006 470.705C445.006 472.163 445.238 473.517 445.702 474.767C446.166 476.017 446.881 477.026 447.847 477.793C448.813 478.56 450.044 478.943 451.54 478.943ZM464.029 462.807V459.682H481.756V462.807H474.597V481.5H471.245V462.807H464.029ZM494.377 481.955C492.332 481.955 490.57 481.472 489.093 480.506C487.616 479.54 486.479 478.209 485.684 476.514C484.888 474.819 484.491 472.883 484.491 470.705C484.491 468.489 484.898 466.533 485.712 464.838C486.536 463.134 487.682 461.803 489.15 460.847C490.627 459.881 492.351 459.398 494.32 459.398C495.854 459.398 497.237 459.682 498.468 460.25C499.699 460.818 500.708 461.614 501.494 462.636C502.28 463.659 502.767 464.852 502.957 466.216H499.604C499.349 465.222 498.781 464.341 497.9 463.574C497.029 462.797 495.854 462.409 494.377 462.409C493.07 462.409 491.924 462.75 490.94 463.432C489.964 464.104 489.202 465.056 488.653 466.287C488.113 467.509 487.843 468.943 487.843 470.591C487.843 472.277 488.108 473.744 488.638 474.994C489.178 476.244 489.936 477.215 490.911 477.906C491.896 478.598 493.051 478.943 494.377 478.943C495.248 478.943 496.039 478.792 496.749 478.489C497.46 478.186 498.061 477.75 498.553 477.182C499.046 476.614 499.396 475.932 499.604 475.136H502.957C502.767 476.424 502.299 477.584 501.55 478.616C500.812 479.639 499.832 480.454 498.61 481.06C497.398 481.656 495.987 481.955 494.377 481.955ZM520.982 481.5V462.75H515.187C513.88 462.75 512.853 463.053 512.104 463.659C511.356 464.265 510.982 465.098 510.982 466.159C510.982 467.201 511.318 468.02 511.991 468.616C512.673 469.213 513.605 469.511 514.789 469.511H521.835V472.636H514.789C513.312 472.636 512.038 472.376 510.968 471.855C509.898 471.334 509.074 470.591 508.496 469.625C507.919 468.65 507.63 467.494 507.63 466.159C507.63 464.814 507.933 463.659 508.539 462.693C509.145 461.727 510.012 460.984 511.138 460.463C512.275 459.942 513.624 459.682 515.187 459.682H524.164V481.5H520.982ZM506.437 481.5L512.63 470.648H516.266L510.073 481.5H506.437ZM550.432 481.955C548.386 481.955 546.625 481.472 545.148 480.506C543.67 479.54 542.534 478.209 541.739 476.514C540.943 474.819 540.545 472.883 540.545 470.705C540.545 468.489 540.953 466.533 541.767 464.838C542.591 463.134 543.737 461.803 545.205 460.847C546.682 459.881 548.405 459.398 550.375 459.398C551.909 459.398 553.292 459.682 554.523 460.25C555.754 460.818 556.762 461.614 557.548 462.636C558.334 463.659 558.822 464.852 559.011 466.216H555.659C555.403 465.222 554.835 464.341 553.955 463.574C553.083 462.797 551.909 462.409 550.432 462.409C549.125 462.409 547.979 462.75 546.994 463.432C546.019 464.104 545.257 465.056 544.707 466.287C544.168 467.509 543.898 468.943 543.898 470.591C543.898 472.277 544.163 473.744 544.693 474.994C545.233 476.244 545.991 477.215 546.966 477.906C547.951 478.598 549.106 478.943 550.432 478.943C551.303 478.943 552.094 478.792 552.804 478.489C553.514 478.186 554.116 477.75 554.608 477.182C555.1 476.614 555.451 475.932 555.659 475.136H559.011C558.822 476.424 558.353 477.584 557.605 478.616C556.866 479.639 555.886 480.454 554.665 481.06C553.453 481.656 552.042 481.955 550.432 481.955ZM572.776 481.955C570.806 481.955 569.078 481.486 567.591 480.548C566.114 479.611 564.958 478.299 564.125 476.614C563.301 474.928 562.889 472.958 562.889 470.705C562.889 468.432 563.301 466.448 564.125 464.753C564.958 463.058 566.114 461.741 567.591 460.804C569.078 459.866 570.806 459.398 572.776 459.398C574.745 459.398 576.469 459.866 577.946 460.804C579.433 461.741 580.588 463.058 581.412 464.753C582.245 466.448 582.662 468.432 582.662 470.705C582.662 472.958 582.245 474.928 581.412 476.614C580.588 478.299 579.433 479.611 577.946 480.548C576.469 481.486 574.745 481.955 572.776 481.955ZM572.776 478.943C574.272 478.943 575.503 478.56 576.469 477.793C577.435 477.026 578.15 476.017 578.614 474.767C579.078 473.517 579.31 472.163 579.31 470.705C579.31 469.246 579.078 467.887 578.614 466.628C578.15 465.368 577.435 464.35 576.469 463.574C575.503 462.797 574.272 462.409 572.776 462.409C571.279 462.409 570.048 462.797 569.082 463.574C568.116 464.35 567.402 465.368 566.938 466.628C566.473 467.887 566.241 469.246 566.241 470.705C566.241 472.163 566.473 473.517 566.938 474.767C567.402 476.017 568.116 477.026 569.082 477.793C570.048 478.56 571.279 478.943 572.776 478.943ZM607.893 481.955C605.847 481.955 604.086 481.472 602.609 480.506C601.131 479.54 599.995 478.209 599.2 476.514C598.404 474.819 598.006 472.883 598.006 470.705C598.006 468.489 598.414 466.533 599.228 464.838C600.052 463.134 601.198 461.803 602.665 460.847C604.143 459.881 605.866 459.398 607.836 459.398C609.37 459.398 610.753 459.682 611.984 460.25C613.215 460.818 614.223 461.614 615.009 462.636C615.795 463.659 616.283 464.852 616.472 466.216H613.12C612.864 465.222 612.296 464.341 611.415 463.574C610.544 462.797 609.37 462.409 607.893 462.409C606.586 462.409 605.44 462.75 604.455 463.432C603.48 464.104 602.718 465.056 602.168 466.287C601.629 467.509 601.359 468.943 601.359 470.591C601.359 472.277 601.624 473.744 602.154 474.994C602.694 476.244 603.451 477.215 604.427 477.906C605.412 478.598 606.567 478.943 607.893 478.943C608.764 478.943 609.555 478.792 610.265 478.489C610.975 478.186 611.576 477.75 612.069 477.182C612.561 476.614 612.912 475.932 613.12 475.136H616.472C616.283 476.424 615.814 477.584 615.066 478.616C614.327 479.639 613.347 480.454 612.126 481.06C610.914 481.656 609.503 481.955 607.893 481.955ZM619.654 462.807V459.682H637.381V462.807H630.222V481.5H626.87V462.807H619.654ZM644.43 489.682C643.862 489.682 643.356 489.634 642.911 489.54C642.465 489.455 642.158 489.369 641.987 489.284L642.839 486.33C643.654 486.538 644.374 486.614 644.999 486.557C645.624 486.5 646.178 486.221 646.661 485.719C647.153 485.226 647.603 484.426 648.01 483.318L648.635 481.614L640.567 459.682H644.203L650.226 477.068H650.453L656.476 459.682H660.112L650.851 484.682C650.434 485.809 649.918 486.741 649.303 487.48C648.687 488.228 647.972 488.782 647.158 489.142C646.353 489.502 645.444 489.682 644.43 489.682ZM660.371 487.75V478.375H662.19C662.635 477.911 663.018 477.409 663.34 476.869C663.662 476.33 663.942 475.69 664.178 474.952C664.424 474.204 664.633 473.295 664.803 472.224C664.974 471.145 665.125 469.843 665.258 468.318L665.996 459.682H679.86V478.375H683.212V487.75H679.86V481.5H663.724V487.75H660.371ZM665.996 478.375H676.508V462.807H669.121L668.553 468.318C668.317 470.6 668.023 472.594 667.673 474.298C667.322 476.003 666.763 477.362 665.996 478.375ZM696.81 481.955C694.707 481.955 692.894 481.491 691.369 480.562C689.854 479.625 688.685 478.318 687.861 476.642C687.046 474.956 686.639 472.996 686.639 470.761C686.639 468.527 687.046 466.557 687.861 464.852C688.685 463.138 689.83 461.803 691.298 460.847C692.776 459.881 694.499 459.398 696.469 459.398C697.605 459.398 698.727 459.587 699.835 459.966C700.943 460.345 701.952 460.96 702.861 461.812C703.77 462.655 704.494 463.773 705.034 465.165C705.574 466.557 705.844 468.271 705.844 470.307V471.727H689.026V468.83H702.435C702.435 467.598 702.188 466.5 701.696 465.534C701.213 464.568 700.522 463.806 699.622 463.247C698.732 462.688 697.681 462.409 696.469 462.409C695.134 462.409 693.978 462.741 693.003 463.403C692.037 464.057 691.294 464.909 690.773 465.96C690.252 467.011 689.991 468.138 689.991 469.341V471.273C689.991 472.92 690.276 474.317 690.844 475.463C691.421 476.599 692.222 477.466 693.244 478.062C694.267 478.65 695.455 478.943 696.81 478.943C697.69 478.943 698.486 478.82 699.196 478.574C699.916 478.318 700.536 477.939 701.057 477.438C701.578 476.926 701.98 476.292 702.264 475.534L705.503 476.443C705.162 477.542 704.589 478.508 703.784 479.341C702.979 480.165 701.985 480.809 700.801 481.273C699.617 481.727 698.287 481.955 696.81 481.955ZM725.545 469.057V472.182H713.5V469.057H725.545ZM714.295 459.682V481.5H710.943V459.682H714.295ZM728.102 459.682V481.5H724.75V459.682H728.102ZM731.256 462.807V459.682H748.983V462.807H741.824V481.5H738.472V462.807H731.256ZM759.161 482.011C757.778 482.011 756.523 481.751 755.396 481.23C754.269 480.7 753.375 479.938 752.712 478.943C752.049 477.939 751.717 476.727 751.717 475.307C751.717 474.057 751.964 473.044 752.456 472.267C752.948 471.481 753.607 470.866 754.43 470.42C755.254 469.975 756.163 469.644 757.158 469.426C758.161 469.199 759.17 469.019 760.183 468.886C761.509 468.716 762.584 468.588 763.408 468.503C764.241 468.408 764.847 468.252 765.226 468.034C765.614 467.816 765.808 467.437 765.808 466.898V466.784C765.808 465.383 765.425 464.294 764.658 463.517C763.9 462.741 762.75 462.352 761.206 462.352C759.606 462.352 758.351 462.703 757.442 463.403C756.533 464.104 755.893 464.852 755.524 465.648L752.342 464.511C752.911 463.186 753.668 462.153 754.615 461.415C755.571 460.667 756.613 460.146 757.74 459.852C758.876 459.549 759.994 459.398 761.092 459.398C761.793 459.398 762.598 459.483 763.507 459.653C764.426 459.814 765.311 460.151 766.163 460.662C767.025 461.173 767.74 461.945 768.308 462.977C768.876 464.009 769.161 465.392 769.161 467.125V481.5H765.808V478.545H765.638C765.411 479.019 765.032 479.526 764.501 480.065C763.971 480.605 763.266 481.064 762.385 481.443C761.504 481.822 760.429 482.011 759.161 482.011ZM759.672 479C760.998 479 762.115 478.74 763.024 478.219C763.943 477.698 764.634 477.026 765.098 476.202C765.571 475.378 765.808 474.511 765.808 473.602V470.534C765.666 470.705 765.354 470.861 764.871 471.003C764.397 471.135 763.848 471.254 763.223 471.358C762.607 471.453 762.006 471.538 761.419 471.614C760.841 471.68 760.373 471.737 760.013 471.784C759.142 471.898 758.327 472.082 757.57 472.338C756.821 472.584 756.215 472.958 755.751 473.46C755.297 473.953 755.07 474.625 755.07 475.477C755.07 476.642 755.5 477.523 756.362 478.119C757.233 478.706 758.337 479 759.672 479ZM787.211 476.955L794.825 459.682H798.006L788.575 481.5H785.847L776.586 459.682H779.711L787.211 476.955ZM778.631 459.682V481.5H775.279V459.682H778.631ZM795.79 481.5V459.682H799.143V481.5H795.79ZM808.631 476.557L819.143 459.682H823.006V481.5H819.654V464.625L809.2 481.5H805.279V459.682H808.631V476.557ZM834.146 477.523L833.919 479.057C833.758 480.136 833.512 481.292 833.18 482.523C832.858 483.754 832.522 484.914 832.172 486.003C831.821 487.092 831.533 487.958 831.305 488.602H828.749C828.872 487.996 829.033 487.196 829.232 486.202C829.43 485.207 829.629 484.095 829.828 482.864C830.036 481.642 830.207 480.392 830.339 479.114L830.51 477.523H834.146ZM74.0682 529.5V507.682H91.2273V529.5H87.875V510.807H77.4205V529.5H74.0682ZM97.3494 537.682V507.682H100.588V511.148H100.986C101.232 510.769 101.573 510.286 102.009 509.699C102.454 509.102 103.088 508.572 103.912 508.108C104.745 507.634 105.872 507.398 107.293 507.398C109.13 507.398 110.749 507.857 112.151 508.776C113.552 509.694 114.646 510.996 115.432 512.682C116.218 514.367 116.611 516.356 116.611 518.648C116.611 520.958 116.218 522.961 115.432 524.656C114.646 526.342 113.557 527.649 112.165 528.577C110.773 529.495 109.168 529.955 107.349 529.955C105.948 529.955 104.826 529.723 103.983 529.259C103.14 528.785 102.491 528.25 102.037 527.653C101.582 527.047 101.232 526.545 100.986 526.148H100.702V537.682H97.3494ZM100.645 518.591C100.645 520.239 100.886 521.692 101.369 522.952C101.852 524.202 102.558 525.182 103.486 525.892C104.414 526.593 105.55 526.943 106.895 526.943C108.296 526.943 109.466 526.574 110.403 525.835C111.35 525.087 112.061 524.083 112.534 522.824C113.017 521.555 113.259 520.144 113.259 518.591C113.259 517.057 113.022 515.674 112.548 514.443C112.084 513.203 111.379 512.223 110.432 511.503C109.494 510.774 108.315 510.409 106.895 510.409C105.531 510.409 104.385 510.755 103.457 511.446C102.529 512.128 101.829 513.084 101.355 514.315C100.882 515.537 100.645 516.962 100.645 518.591ZM130.588 529.955C128.618 529.955 126.89 529.486 125.403 528.548C123.926 527.611 122.771 526.299 121.938 524.614C121.114 522.928 120.702 520.958 120.702 518.705C120.702 516.432 121.114 514.448 121.938 512.753C122.771 511.058 123.926 509.741 125.403 508.804C126.89 507.866 128.618 507.398 130.588 507.398C132.558 507.398 134.281 507.866 135.759 508.804C137.245 509.741 138.401 511.058 139.224 512.753C140.058 514.448 140.474 516.432 140.474 518.705C140.474 520.958 140.058 522.928 139.224 524.614C138.401 526.299 137.245 527.611 135.759 528.548C134.281 529.486 132.558 529.955 130.588 529.955ZM130.588 526.943C132.084 526.943 133.315 526.56 134.281 525.793C135.247 525.026 135.962 524.017 136.426 522.767C136.89 521.517 137.122 520.163 137.122 518.705C137.122 517.246 136.89 515.887 136.426 514.628C135.962 513.368 135.247 512.35 134.281 511.574C133.315 510.797 132.084 510.409 130.588 510.409C129.092 510.409 127.861 510.797 126.895 511.574C125.929 512.35 125.214 513.368 124.75 514.628C124.286 515.887 124.054 517.246 124.054 518.705C124.054 520.163 124.286 521.517 124.75 522.767C125.214 524.017 125.929 525.026 126.895 525.793C127.861 526.56 129.092 526.943 130.588 526.943ZM145.592 529.5V507.682H154.512C156.861 507.682 158.726 508.212 160.109 509.273C161.491 510.333 162.183 511.735 162.183 513.477C162.183 514.803 161.79 515.83 161.004 516.56C160.218 517.279 159.209 517.767 157.978 518.023C158.783 518.136 159.564 518.42 160.322 518.875C161.089 519.33 161.723 519.955 162.225 520.75C162.727 521.536 162.978 522.502 162.978 523.648C162.978 524.765 162.694 525.764 162.126 526.645C161.558 527.526 160.743 528.222 159.683 528.733C158.622 529.244 157.353 529.5 155.876 529.5H145.592ZM148.773 526.432H155.876C157.031 526.432 157.935 526.157 158.589 525.608C159.242 525.059 159.569 524.311 159.569 523.364C159.569 522.237 159.242 521.351 158.589 520.707C157.935 520.054 157.031 519.727 155.876 519.727H148.773V526.432ZM148.773 516.83H154.512C155.412 516.83 156.183 516.706 156.827 516.46C157.471 516.205 157.964 515.845 158.305 515.381C158.655 514.907 158.83 514.348 158.83 513.705C158.83 512.786 158.447 512.066 157.68 511.545C156.913 511.015 155.857 510.75 154.512 510.75H148.773V516.83ZM176.916 529.955C174.946 529.955 173.218 529.486 171.732 528.548C170.254 527.611 169.099 526.299 168.266 524.614C167.442 522.928 167.03 520.958 167.03 518.705C167.03 516.432 167.442 514.448 168.266 512.753C169.099 511.058 170.254 509.741 171.732 508.804C173.218 507.866 174.946 507.398 176.916 507.398C178.886 507.398 180.609 507.866 182.087 508.804C183.573 509.741 184.729 511.058 185.553 512.753C186.386 514.448 186.803 516.432 186.803 518.705C186.803 520.958 186.386 522.928 185.553 524.614C184.729 526.299 183.573 527.611 182.087 528.548C180.609 529.486 178.886 529.955 176.916 529.955ZM176.916 526.943C178.412 526.943 179.643 526.56 180.609 525.793C181.575 525.026 182.29 524.017 182.754 522.767C183.218 521.517 183.45 520.163 183.45 518.705C183.45 517.246 183.218 515.887 182.754 514.628C182.29 513.368 181.575 512.35 180.609 511.574C179.643 510.797 178.412 510.409 176.916 510.409C175.42 510.409 174.189 510.797 173.223 511.574C172.257 512.35 171.542 513.368 171.078 514.628C170.614 515.887 170.382 517.246 170.382 518.705C170.382 520.163 170.614 521.517 171.078 522.767C171.542 524.017 172.257 525.026 173.223 525.793C174.189 526.56 175.42 526.943 176.916 526.943ZM189.59 535.75V526.375H191.408C191.853 525.911 192.237 525.409 192.559 524.869C192.881 524.33 193.16 523.69 193.397 522.952C193.643 522.204 193.852 521.295 194.022 520.224C194.192 519.145 194.344 517.843 194.477 516.318L195.215 507.682H209.079V526.375H212.431V535.75H209.079V529.5H192.942V535.75H189.59ZM195.215 526.375H205.727V510.807H198.34L197.772 516.318C197.535 518.6 197.242 520.594 196.891 522.298C196.541 524.003 195.982 525.362 195.215 526.375ZM230.006 529.5V510.75H224.21C222.903 510.75 221.876 511.053 221.128 511.659C220.38 512.265 220.006 513.098 220.006 514.159C220.006 515.201 220.342 516.02 221.014 516.616C221.696 517.213 222.629 517.511 223.812 517.511H230.858V520.636H223.812C222.335 520.636 221.062 520.376 219.991 519.855C218.921 519.334 218.098 518.591 217.52 517.625C216.942 516.65 216.653 515.494 216.653 514.159C216.653 512.814 216.956 511.659 217.562 510.693C218.169 509.727 219.035 508.984 220.162 508.463C221.298 507.942 222.648 507.682 224.21 507.682H233.188V529.5H230.006ZM215.46 529.5L221.653 518.648H225.29L219.097 529.5H215.46ZM236.373 510.807V507.682H254.1V510.807H246.941V529.5H243.589V510.807H236.373ZM268.876 523.932H272.456C272.532 524.917 272.977 525.665 273.791 526.176C274.615 526.688 275.685 526.943 277.001 526.943C278.346 526.943 279.497 526.669 280.453 526.119C281.41 525.561 281.888 524.661 281.888 523.42C281.888 522.691 281.708 522.057 281.348 521.517C280.988 520.968 280.482 520.542 279.828 520.239C279.175 519.936 278.403 519.784 277.513 519.784H273.763V516.773H277.513C278.848 516.773 279.833 516.47 280.467 515.864C281.111 515.258 281.433 514.5 281.433 513.591C281.433 512.616 281.088 511.834 280.396 511.247C279.705 510.651 278.725 510.352 277.456 510.352C276.178 510.352 275.112 510.641 274.26 511.219C273.408 511.787 272.958 512.521 272.911 513.42H269.388C269.426 512.246 269.786 511.209 270.467 510.31C271.149 509.401 272.077 508.69 273.251 508.179C274.426 507.658 275.77 507.398 277.286 507.398C278.82 507.398 280.15 507.668 281.277 508.207C282.413 508.738 283.289 509.462 283.905 510.381C284.53 511.29 284.842 512.322 284.842 513.477C284.842 514.708 284.497 515.703 283.805 516.46C283.114 517.218 282.248 517.758 281.206 518.08V518.307C282.03 518.364 282.745 518.629 283.351 519.102C283.966 519.566 284.445 520.177 284.786 520.935C285.126 521.683 285.297 522.511 285.297 523.42C285.297 524.746 284.942 525.902 284.232 526.886C283.521 527.862 282.546 528.619 281.305 529.159C280.065 529.689 278.649 529.955 277.058 529.955C275.515 529.955 274.132 529.704 272.911 529.202C271.689 528.69 270.718 527.985 269.999 527.085C269.288 526.176 268.914 525.125 268.876 523.932ZM296.426 530.011C295.044 530.011 293.789 529.751 292.662 529.23C291.535 528.7 290.64 527.938 289.977 526.943C289.314 525.939 288.983 524.727 288.983 523.307C288.983 522.057 289.229 521.044 289.722 520.267C290.214 519.481 290.872 518.866 291.696 518.42C292.52 517.975 293.429 517.644 294.423 517.426C295.427 517.199 296.436 517.019 297.449 516.886C298.775 516.716 299.849 516.588 300.673 516.503C301.507 516.408 302.113 516.252 302.491 516.034C302.88 515.816 303.074 515.437 303.074 514.898V514.784C303.074 513.383 302.69 512.294 301.923 511.517C301.166 510.741 300.015 510.352 298.472 510.352C296.871 510.352 295.616 510.703 294.707 511.403C293.798 512.104 293.159 512.852 292.79 513.648L289.608 512.511C290.176 511.186 290.934 510.153 291.881 509.415C292.837 508.667 293.879 508.146 295.006 507.852C296.142 507.549 297.259 507.398 298.358 507.398C299.059 507.398 299.864 507.483 300.773 507.653C301.691 507.814 302.577 508.151 303.429 508.662C304.291 509.173 305.006 509.945 305.574 510.977C306.142 512.009 306.426 513.392 306.426 515.125V529.5H303.074V526.545H302.903C302.676 527.019 302.297 527.526 301.767 528.065C301.237 528.605 300.531 529.064 299.651 529.443C298.77 529.822 297.695 530.011 296.426 530.011ZM296.938 527C298.263 527 299.381 526.74 300.29 526.219C301.208 525.698 301.9 525.026 302.364 524.202C302.837 523.378 303.074 522.511 303.074 521.602V518.534C302.932 518.705 302.619 518.861 302.136 519.003C301.663 519.135 301.114 519.254 300.489 519.358C299.873 519.453 299.272 519.538 298.685 519.614C298.107 519.68 297.638 519.737 297.278 519.784C296.407 519.898 295.593 520.082 294.835 520.338C294.087 520.584 293.481 520.958 293.017 521.46C292.563 521.953 292.335 522.625 292.335 523.477C292.335 524.642 292.766 525.523 293.628 526.119C294.499 526.706 295.602 527 296.938 527ZM327.147 517.057V520.182H315.102V517.057H327.147ZM315.897 507.682V529.5H312.545V507.682H315.897ZM329.704 507.682V529.5H326.352V507.682H329.704ZM348.951 529.5V510.75H343.156C341.849 510.75 340.821 511.053 340.073 511.659C339.325 512.265 338.951 513.098 338.951 514.159C338.951 515.201 339.287 516.02 339.96 516.616C340.641 517.213 341.574 517.511 342.758 517.511H349.803V520.636H342.758C341.281 520.636 340.007 520.376 338.937 519.855C337.867 519.334 337.043 518.591 336.465 517.625C335.888 516.65 335.599 515.494 335.599 514.159C335.599 512.814 335.902 511.659 336.508 510.693C337.114 509.727 337.98 508.984 339.107 508.463C340.244 507.942 341.593 507.682 343.156 507.682H352.133V529.5H348.951ZM334.406 529.5L340.599 518.648H344.235L338.042 529.5H334.406ZM355.318 510.807V507.682H373.045V510.807H365.886V529.5H362.534V510.807H355.318ZM381.288 524.557L391.799 507.682H395.663V529.5H392.31V512.625L381.856 529.5H377.935V507.682H381.288V524.557ZM414.928 529.5V510.75H409.132C407.825 510.75 406.798 511.053 406.05 511.659C405.302 512.265 404.928 513.098 404.928 514.159C404.928 515.201 405.264 516.02 405.936 516.616C406.618 517.213 407.551 517.511 408.734 517.511H415.78V520.636H408.734C407.257 520.636 405.983 520.376 404.913 519.855C403.843 519.334 403.019 518.591 402.442 517.625C401.864 516.65 401.575 515.494 401.575 514.159C401.575 512.814 401.878 511.659 402.484 510.693C403.09 509.727 403.957 508.984 405.084 508.463C406.22 507.942 407.57 507.682 409.132 507.682H418.109V529.5H414.928ZM400.382 529.5L406.575 518.648H410.212L404.018 529.5H400.382ZM429.263 525.523L429.036 527.057C428.875 528.136 428.629 529.292 428.298 530.523C427.976 531.754 427.639 532.914 427.289 534.003C426.939 535.092 426.65 535.958 426.423 536.602H423.866C423.989 535.996 424.15 535.196 424.349 534.202C424.548 533.207 424.746 532.095 424.945 530.864C425.154 529.642 425.324 528.392 425.457 527.114L425.627 525.523H429.263ZM446.724 529.5V507.682H463.884V529.5H460.531V510.807H450.077V529.5H446.724ZM470.006 537.682V507.682H473.244V511.148H473.642C473.888 510.769 474.229 510.286 474.665 509.699C475.11 509.102 475.744 508.572 476.568 508.108C477.402 507.634 478.528 507.398 479.949 507.398C481.786 507.398 483.405 507.857 484.807 508.776C486.208 509.694 487.302 510.996 488.088 512.682C488.874 514.367 489.267 516.356 489.267 518.648C489.267 520.958 488.874 522.961 488.088 524.656C487.302 526.342 486.213 527.649 484.821 528.577C483.429 529.495 481.824 529.955 480.006 529.955C478.604 529.955 477.482 529.723 476.639 529.259C475.796 528.785 475.148 528.25 474.693 527.653C474.239 527.047 473.888 526.545 473.642 526.148H473.358V537.682H470.006ZM473.301 518.591C473.301 520.239 473.543 521.692 474.026 522.952C474.509 524.202 475.214 525.182 476.142 525.892C477.07 526.593 478.206 526.943 479.551 526.943C480.953 526.943 482.122 526.574 483.06 525.835C484.007 525.087 484.717 524.083 485.19 522.824C485.673 521.555 485.915 520.144 485.915 518.591C485.915 517.057 485.678 515.674 485.205 514.443C484.741 513.203 484.035 512.223 483.088 511.503C482.151 510.774 480.972 510.409 479.551 510.409C478.188 510.409 477.042 510.755 476.114 511.446C475.186 512.128 474.485 513.084 474.011 514.315C473.538 515.537 473.301 516.962 473.301 518.591ZM503.244 529.955C501.275 529.955 499.546 529.486 498.06 528.548C496.582 527.611 495.427 526.299 494.594 524.614C493.77 522.928 493.358 520.958 493.358 518.705C493.358 516.432 493.77 514.448 494.594 512.753C495.427 511.058 496.582 509.741 498.06 508.804C499.546 507.866 501.275 507.398 503.244 507.398C505.214 507.398 506.938 507.866 508.415 508.804C509.902 509.741 511.057 511.058 511.881 512.753C512.714 514.448 513.131 516.432 513.131 518.705C513.131 520.958 512.714 522.928 511.881 524.614C511.057 526.299 509.902 527.611 508.415 528.548C506.938 529.486 505.214 529.955 503.244 529.955ZM503.244 526.943C504.741 526.943 505.972 526.56 506.938 525.793C507.903 525.026 508.618 524.017 509.082 522.767C509.546 521.517 509.778 520.163 509.778 518.705C509.778 517.246 509.546 515.887 509.082 514.628C508.618 513.368 507.903 512.35 506.938 511.574C505.972 510.797 504.741 510.409 503.244 510.409C501.748 510.409 500.517 510.797 499.551 511.574C498.585 512.35 497.87 513.368 497.406 514.628C496.942 515.887 496.71 517.246 496.71 518.705C496.71 520.163 496.942 521.517 497.406 522.767C497.87 524.017 498.585 525.026 499.551 525.793C500.517 526.56 501.748 526.943 503.244 526.943ZM518.248 529.5V507.682H527.168C529.517 507.682 531.382 508.212 532.765 509.273C534.147 510.333 534.839 511.735 534.839 513.477C534.839 514.803 534.446 515.83 533.66 516.56C532.874 517.279 531.865 517.767 530.634 518.023C531.439 518.136 532.22 518.42 532.978 518.875C533.745 519.33 534.379 519.955 534.881 520.75C535.383 521.536 535.634 522.502 535.634 523.648C535.634 524.765 535.35 525.764 534.782 526.645C534.214 527.526 533.399 528.222 532.339 528.733C531.278 529.244 530.009 529.5 528.532 529.5H518.248ZM521.43 526.432H528.532C529.687 526.432 530.592 526.157 531.245 525.608C531.898 525.059 532.225 524.311 532.225 523.364C532.225 522.237 531.898 521.351 531.245 520.707C530.592 520.054 529.687 519.727 528.532 519.727H521.43V526.432ZM521.43 516.83H527.168C528.068 516.83 528.84 516.706 529.484 516.46C530.128 516.205 530.62 515.845 530.961 515.381C531.311 514.907 531.487 514.348 531.487 513.705C531.487 512.786 531.103 512.066 530.336 511.545C529.569 511.015 528.513 510.75 527.168 510.75H521.43V516.83ZM549.857 529.955C547.754 529.955 545.941 529.491 544.416 528.562C542.901 527.625 541.732 526.318 540.908 524.642C540.093 522.956 539.686 520.996 539.686 518.761C539.686 516.527 540.093 514.557 540.908 512.852C541.732 511.138 542.877 509.803 544.345 508.847C545.822 507.881 547.546 507.398 549.516 507.398C550.652 507.398 551.774 507.587 552.882 507.966C553.99 508.345 554.999 508.96 555.908 509.812C556.817 510.655 557.541 511.773 558.081 513.165C558.621 514.557 558.891 516.271 558.891 518.307V519.727H542.072V516.83H555.482C555.482 515.598 555.235 514.5 554.743 513.534C554.26 512.568 553.569 511.806 552.669 511.247C551.779 510.688 550.728 510.409 549.516 510.409C548.18 510.409 547.025 510.741 546.05 511.403C545.084 512.057 544.34 512.909 543.82 513.96C543.299 515.011 543.038 516.138 543.038 517.341V519.273C543.038 520.92 543.322 522.317 543.891 523.463C544.468 524.599 545.268 525.466 546.291 526.062C547.314 526.65 548.502 526.943 549.857 526.943C550.737 526.943 551.533 526.82 552.243 526.574C552.963 526.318 553.583 525.939 554.104 525.438C554.625 524.926 555.027 524.292 555.311 523.534L558.55 524.443C558.209 525.542 557.636 526.508 556.831 527.341C556.026 528.165 555.032 528.809 553.848 529.273C552.664 529.727 551.334 529.955 549.857 529.955ZM563.99 537.682V507.682H567.229V511.148H567.626C567.873 510.769 568.214 510.286 568.649 509.699C569.094 509.102 569.729 508.572 570.553 508.108C571.386 507.634 572.513 507.398 573.933 507.398C575.77 507.398 577.39 507.857 578.791 508.776C580.193 509.694 581.286 510.996 582.072 512.682C582.858 514.367 583.251 516.356 583.251 518.648C583.251 520.958 582.858 522.961 582.072 524.656C581.286 526.342 580.197 527.649 578.805 528.577C577.413 529.495 575.808 529.955 573.99 529.955C572.589 529.955 571.466 529.723 570.624 529.259C569.781 528.785 569.132 528.25 568.678 527.653C568.223 527.047 567.873 526.545 567.626 526.148H567.342V537.682H563.99ZM567.286 518.591C567.286 520.239 567.527 521.692 568.01 522.952C568.493 524.202 569.198 525.182 570.126 525.892C571.054 526.593 572.191 526.943 573.536 526.943C574.937 526.943 576.107 526.574 577.044 525.835C577.991 525.087 578.701 524.083 579.175 522.824C579.658 521.555 579.899 520.144 579.899 518.591C579.899 517.057 579.662 515.674 579.189 514.443C578.725 513.203 578.019 512.223 577.072 511.503C576.135 510.774 574.956 510.409 573.536 510.409C572.172 510.409 571.026 510.755 570.098 511.446C569.17 512.128 568.469 513.084 567.996 514.315C567.522 515.537 567.286 516.962 567.286 518.591ZM601.49 529.5V510.75H595.695C594.388 510.75 593.36 511.053 592.612 511.659C591.864 512.265 591.49 513.098 591.49 514.159C591.49 515.201 591.826 516.02 592.499 516.616C593.18 517.213 594.113 517.511 595.297 517.511H602.342V520.636H595.297C593.82 520.636 592.546 520.376 591.476 519.855C590.406 519.334 589.582 518.591 589.004 517.625C588.427 516.65 588.138 515.494 588.138 514.159C588.138 512.814 588.441 511.659 589.047 510.693C589.653 509.727 590.519 508.984 591.646 508.463C592.783 507.942 594.132 507.682 595.695 507.682H604.672V529.5H601.49ZM586.945 529.5L593.138 518.648H596.774L590.581 529.5H586.945ZM621.281 517.227V520.352H609.746V517.227H621.281ZM612.587 507.682V529.5H609.235V507.682H612.587ZM627.985 529.955C626.015 529.955 624.287 529.486 622.8 528.548C621.323 527.611 620.168 526.299 619.335 524.614C618.511 522.928 618.099 520.958 618.099 518.705C618.099 516.432 618.511 514.448 619.335 512.753C620.168 511.058 621.323 509.741 622.8 508.804C624.287 507.866 626.015 507.398 627.985 507.398C629.955 507.398 631.678 507.866 633.156 508.804C634.642 509.741 635.798 511.058 636.621 512.753C637.455 514.448 637.871 516.432 637.871 518.705C637.871 520.958 637.455 522.928 636.621 524.614C635.798 526.299 634.642 527.611 633.156 528.548C631.678 529.486 629.955 529.955 627.985 529.955ZM627.985 526.943C629.481 526.943 630.712 526.56 631.678 525.793C632.644 525.026 633.359 524.017 633.823 522.767C634.287 521.517 634.519 520.163 634.519 518.705C634.519 517.246 634.287 515.887 633.823 514.628C633.359 513.368 632.644 512.35 631.678 511.574C630.712 510.797 629.481 510.409 627.985 510.409C626.489 510.409 625.258 510.797 624.292 511.574C623.326 512.35 622.611 513.368 622.147 514.628C621.683 515.887 621.451 517.246 621.451 518.705C621.451 520.163 621.683 521.517 622.147 522.767C622.611 524.017 623.326 525.026 624.292 525.793C625.258 526.56 626.489 526.943 627.985 526.943ZM640.474 510.807V507.682H658.202V510.807H651.043V529.5H647.69V510.807H640.474ZM672.012 535.75V526.375H673.83C674.275 525.911 674.659 525.409 674.981 524.869C675.303 524.33 675.582 523.69 675.819 522.952C676.065 522.204 676.273 521.295 676.444 520.224C676.614 519.145 676.766 517.843 676.898 516.318L677.637 507.682H691.501V526.375H694.853V535.75H691.501V529.5H675.364V535.75H672.012ZM677.637 526.375H688.148V510.807H680.762L680.194 516.318C679.957 518.6 679.664 520.594 679.313 522.298C678.963 524.003 678.404 525.362 677.637 526.375ZM708.166 529.955C706.196 529.955 704.468 529.486 702.982 528.548C701.504 527.611 700.349 526.299 699.516 524.614C698.692 522.928 698.28 520.958 698.28 518.705C698.28 516.432 698.692 514.448 699.516 512.753C700.349 511.058 701.504 509.741 702.982 508.804C704.468 507.866 706.196 507.398 708.166 507.398C710.136 507.398 711.859 507.866 713.337 508.804C714.823 509.741 715.979 511.058 716.803 512.753C717.636 514.448 718.053 516.432 718.053 518.705C718.053 520.958 717.636 522.928 716.803 524.614C715.979 526.299 714.823 527.611 713.337 528.548C711.859 529.486 710.136 529.955 708.166 529.955ZM708.166 526.943C709.662 526.943 710.893 526.56 711.859 525.793C712.825 525.026 713.54 524.017 714.004 522.767C714.468 521.517 714.7 520.163 714.7 518.705C714.7 517.246 714.468 515.887 714.004 514.628C713.54 513.368 712.825 512.35 711.859 511.574C710.893 510.797 709.662 510.409 708.166 510.409C706.67 510.409 705.439 510.797 704.473 511.574C703.507 512.35 702.792 513.368 702.328 514.628C701.864 515.887 701.632 517.246 701.632 518.705C701.632 520.163 701.864 521.517 702.328 522.767C702.792 524.017 703.507 525.026 704.473 525.793C705.439 526.56 706.67 526.943 708.166 526.943ZM735.102 524.955L742.715 507.682H745.897L736.465 529.5H733.738L724.477 507.682H727.602L735.102 524.955ZM726.522 507.682V529.5H723.17V507.682H726.522ZM743.681 529.5V507.682H747.033V529.5H743.681ZM759.59 530.011C758.208 530.011 756.953 529.751 755.826 529.23C754.699 528.7 753.804 527.938 753.141 526.943C752.478 525.939 752.147 524.727 752.147 523.307C752.147 522.057 752.393 521.044 752.886 520.267C753.378 519.481 754.036 518.866 754.86 518.42C755.684 517.975 756.593 517.644 757.587 517.426C758.591 517.199 759.6 517.019 760.613 516.886C761.939 516.716 763.013 516.588 763.837 516.503C764.671 516.408 765.277 516.252 765.656 516.034C766.044 515.816 766.238 515.437 766.238 514.898V514.784C766.238 513.383 765.854 512.294 765.087 511.517C764.33 510.741 763.179 510.352 761.636 510.352C760.035 510.352 758.781 510.703 757.871 511.403C756.962 512.104 756.323 512.852 755.954 513.648L752.772 512.511C753.34 511.186 754.098 510.153 755.045 509.415C756.001 508.667 757.043 508.146 758.17 507.852C759.306 507.549 760.424 507.398 761.522 507.398C762.223 507.398 763.028 507.483 763.937 507.653C764.855 507.814 765.741 508.151 766.593 508.662C767.455 509.173 768.17 509.945 768.738 510.977C769.306 512.009 769.59 513.392 769.59 515.125V529.5H766.238V526.545H766.067C765.84 527.019 765.461 527.526 764.931 528.065C764.401 528.605 763.695 529.064 762.815 529.443C761.934 529.822 760.859 530.011 759.59 530.011ZM760.102 527C761.427 527 762.545 526.74 763.454 526.219C764.372 525.698 765.064 525.026 765.528 524.202C766.001 523.378 766.238 522.511 766.238 521.602V518.534C766.096 518.705 765.783 518.861 765.3 519.003C764.827 519.135 764.278 519.254 763.653 519.358C763.037 519.453 762.436 519.538 761.849 519.614C761.271 519.68 760.802 519.737 760.442 519.784C759.571 519.898 758.757 520.082 757.999 520.338C757.251 520.584 756.645 520.958 756.181 521.46C755.727 521.953 755.499 522.625 755.499 523.477C755.499 524.642 755.93 525.523 756.792 526.119C757.663 526.706 758.766 527 760.102 527ZM775.709 507.682H779.061V526.375H787.3V507.682H790.652V526.375H798.891V507.682H802.243V529.5H775.709V507.682ZM822.967 517.057V520.182H810.922V517.057H822.967ZM811.717 507.682V529.5H808.365V507.682H811.717ZM825.524 507.682V529.5H822.172V507.682H825.524ZM834.999 524.557L845.51 507.682H849.374V529.5H846.021V512.625L835.567 529.5H831.646V507.682H834.999V524.557ZM864.661 529.955C862.559 529.955 860.746 529.491 859.221 528.562C857.706 527.625 856.536 526.318 855.712 524.642C854.898 522.956 854.491 520.996 854.491 518.761C854.491 516.527 854.898 514.557 855.712 512.852C856.536 511.138 857.682 509.803 859.15 508.847C860.627 507.881 862.351 507.398 864.32 507.398C865.457 507.398 866.579 507.587 867.687 507.966C868.795 508.345 869.803 508.96 870.712 509.812C871.621 510.655 872.346 511.773 872.886 513.165C873.425 514.557 873.695 516.271 873.695 518.307V519.727H856.877V516.83H870.286C870.286 515.598 870.04 514.5 869.548 513.534C869.065 512.568 868.373 511.806 867.474 511.247C866.584 510.688 865.532 510.409 864.32 510.409C862.985 510.409 861.83 510.741 860.854 511.403C859.888 512.057 859.145 512.909 858.624 513.96C858.103 515.011 857.843 516.138 857.843 517.341V519.273C857.843 520.92 858.127 522.317 858.695 523.463C859.273 524.599 860.073 525.466 861.096 526.062C862.119 526.65 863.307 526.943 864.661 526.943C865.542 526.943 866.337 526.82 867.048 526.574C867.767 526.318 868.388 525.939 868.908 525.438C869.429 524.926 869.832 524.292 870.116 523.534L873.354 524.443C873.013 525.542 872.441 526.508 871.636 527.341C870.831 528.165 869.836 528.809 868.653 529.273C867.469 529.727 866.138 529.955 864.661 529.955ZM72.7045 571.932H76.2841C76.3598 572.917 76.8049 573.665 77.6193 574.176C78.4432 574.688 79.5133 574.943 80.8295 574.943C82.1742 574.943 83.3248 574.669 84.2812 574.119C85.2377 573.561 85.7159 572.661 85.7159 571.42C85.7159 570.691 85.536 570.057 85.1761 569.517C84.8163 568.968 84.3097 568.542 83.6562 568.239C83.0028 567.936 82.2311 567.784 81.3409 567.784H77.5909V564.773H81.3409C82.6761 564.773 83.661 564.47 84.2955 563.864C84.9394 563.258 85.2614 562.5 85.2614 561.591C85.2614 560.616 84.9157 559.834 84.2244 559.247C83.5331 558.651 82.553 558.352 81.2841 558.352C80.0057 558.352 78.9403 558.641 78.0881 559.219C77.2358 559.787 76.786 560.521 76.7386 561.42H73.2159C73.2538 560.246 73.6136 559.209 74.2955 558.31C74.9773 557.401 75.9053 556.69 77.0795 556.179C78.2538 555.658 79.5985 555.398 81.1136 555.398C82.6477 555.398 83.9782 555.668 85.1051 556.207C86.2415 556.738 87.1174 557.462 87.733 558.381C88.358 559.29 88.6705 560.322 88.6705 561.477C88.6705 562.708 88.3248 563.703 87.6335 564.46C86.9422 565.218 86.0758 565.758 85.0341 566.08V566.307C85.858 566.364 86.5729 566.629 87.179 567.102C87.7945 567.566 88.2727 568.177 88.6136 568.935C88.9545 569.683 89.125 570.511 89.125 571.42C89.125 572.746 88.7699 573.902 88.0597 574.886C87.3494 575.862 86.3741 576.619 85.1335 577.159C83.893 577.689 82.4773 577.955 80.8864 577.955C79.3428 577.955 77.9602 577.704 76.7386 577.202C75.517 576.69 74.5464 575.985 73.8267 575.085C73.1165 574.176 72.7424 573.125 72.7045 571.932ZM100.254 578.011C98.8717 578.011 97.617 577.751 96.4901 577.23C95.3632 576.7 94.4683 575.938 93.8054 574.943C93.1425 573.939 92.8111 572.727 92.8111 571.307C92.8111 570.057 93.0573 569.044 93.5497 568.267C94.0421 567.481 94.7003 566.866 95.5241 566.42C96.348 565.975 97.2571 565.644 98.2514 565.426C99.2552 565.199 100.264 565.019 101.277 564.886C102.603 564.716 103.678 564.588 104.501 564.503C105.335 564.408 105.941 564.252 106.32 564.034C106.708 563.816 106.902 563.437 106.902 562.898V562.784C106.902 561.383 106.518 560.294 105.751 559.517C104.994 558.741 103.843 558.352 102.3 558.352C100.699 558.352 99.4446 558.703 98.5355 559.403C97.6264 560.104 96.9872 560.852 96.6179 561.648L93.4361 560.511C94.0043 559.186 94.7618 558.153 95.7088 557.415C96.6652 556.667 97.7069 556.146 98.8338 555.852C99.9702 555.549 101.088 555.398 102.186 555.398C102.887 555.398 103.692 555.483 104.601 555.653C105.519 555.814 106.405 556.151 107.257 556.662C108.119 557.173 108.834 557.945 109.402 558.977C109.97 560.009 110.254 561.392 110.254 563.125V577.5H106.902V574.545H106.732C106.504 575.019 106.125 575.526 105.595 576.065C105.065 576.605 104.359 577.064 103.479 577.443C102.598 577.822 101.523 578.011 100.254 578.011ZM100.766 575C102.091 575 103.209 574.74 104.118 574.219C105.036 573.698 105.728 573.026 106.192 572.202C106.665 571.378 106.902 570.511 106.902 569.602V566.534C106.76 566.705 106.447 566.861 105.964 567.003C105.491 567.135 104.942 567.254 104.317 567.358C103.701 567.453 103.1 567.538 102.513 567.614C101.935 567.68 101.466 567.737 101.107 567.784C100.235 567.898 99.4209 568.082 98.6634 568.338C97.9152 568.584 97.3092 568.958 96.8452 569.46C96.3906 569.953 96.1634 570.625 96.1634 571.477C96.1634 572.642 96.5942 573.523 97.456 574.119C98.3272 574.706 99.4304 575 100.766 575ZM114.043 583.75V574.375H115.862C116.307 573.911 116.69 573.409 117.012 572.869C117.334 572.33 117.613 571.69 117.85 570.952C118.096 570.204 118.305 569.295 118.475 568.224C118.646 567.145 118.797 565.843 118.93 564.318L119.668 555.682H133.532V574.375H136.884V583.75H133.532V577.5H117.396V583.75H114.043ZM119.668 574.375H130.18V558.807H122.793L122.225 564.318C121.988 566.6 121.695 568.594 121.344 570.298C120.994 572.003 120.435 573.362 119.668 574.375ZM147.754 578.011C146.372 578.011 145.117 577.751 143.99 577.23C142.863 576.7 141.968 575.938 141.305 574.943C140.643 573.939 140.311 572.727 140.311 571.307C140.311 570.057 140.557 569.044 141.05 568.267C141.542 567.481 142.2 566.866 143.024 566.42C143.848 565.975 144.757 565.644 145.751 565.426C146.755 565.199 147.764 565.019 148.777 564.886C150.103 564.716 151.178 564.588 152.001 564.503C152.835 564.408 153.441 564.252 153.82 564.034C154.208 563.816 154.402 563.437 154.402 562.898V562.784C154.402 561.383 154.018 560.294 153.251 559.517C152.494 558.741 151.343 558.352 149.8 558.352C148.199 558.352 146.945 558.703 146.036 559.403C145.126 560.104 144.487 560.852 144.118 561.648L140.936 560.511C141.504 559.186 142.262 558.153 143.209 557.415C144.165 556.667 145.207 556.146 146.334 555.852C147.47 555.549 148.588 555.398 149.686 555.398C150.387 555.398 151.192 555.483 152.101 555.653C153.019 555.814 153.905 556.151 154.757 556.662C155.619 557.173 156.334 557.945 156.902 558.977C157.47 560.009 157.754 561.392 157.754 563.125V577.5H154.402V574.545H154.232C154.004 575.019 153.625 575.526 153.095 576.065C152.565 576.605 151.859 577.064 150.979 577.443C150.098 577.822 149.023 578.011 147.754 578.011ZM148.266 575C149.591 575 150.709 574.74 151.618 574.219C152.536 573.698 153.228 573.026 153.692 572.202C154.165 571.378 154.402 570.511 154.402 569.602V566.534C154.26 566.705 153.947 566.861 153.464 567.003C152.991 567.135 152.442 567.254 151.817 567.358C151.201 567.453 150.6 567.538 150.013 567.614C149.435 567.68 148.966 567.737 148.607 567.784C147.735 567.898 146.921 568.082 146.163 568.338C145.415 568.584 144.809 568.958 144.345 569.46C143.891 569.953 143.663 570.625 143.663 571.477C143.663 572.642 144.094 573.523 144.956 574.119C145.827 574.706 146.93 575 148.266 575ZM178.475 565.057V568.182H166.43V565.057H178.475ZM167.225 555.682V577.5H163.873V555.682H167.225ZM181.032 555.682V577.5H177.68V555.682H181.032ZM190.506 572.557L201.018 555.682H204.881V577.5H201.529V560.625L191.075 577.5H187.154V555.682H190.506V572.557ZM224.146 577.5V558.75H218.351C217.044 558.75 216.017 559.053 215.268 559.659C214.52 560.265 214.146 561.098 214.146 562.159C214.146 563.201 214.482 564.02 215.155 564.616C215.837 565.213 216.769 565.511 217.953 565.511H224.999V568.636H217.953C216.476 568.636 215.202 568.376 214.132 567.855C213.062 567.334 212.238 566.591 211.661 565.625C211.083 564.65 210.794 563.494 210.794 562.159C210.794 560.814 211.097 559.659 211.703 558.693C212.309 557.727 213.176 556.984 214.303 556.463C215.439 555.942 216.788 555.682 218.351 555.682H227.328V577.5H224.146ZM209.601 577.5L215.794 566.648H219.43L213.237 577.5H209.601ZM248.085 572.557L258.596 555.682H262.46V577.5H259.107V560.625L248.653 577.5H244.732V555.682H248.085V572.557ZM288.713 577.955C286.743 577.955 285.015 577.486 283.528 576.548C282.051 575.611 280.896 574.299 280.062 572.614C279.239 570.928 278.827 568.958 278.827 566.705C278.827 564.432 279.239 562.448 280.062 560.753C280.896 559.058 282.051 557.741 283.528 556.804C285.015 555.866 286.743 555.398 288.713 555.398C290.683 555.398 292.406 555.866 293.884 556.804C295.37 557.741 296.526 559.058 297.349 560.753C298.183 562.448 298.599 564.432 298.599 566.705C298.599 568.958 298.183 570.928 297.349 572.614C296.526 574.299 295.37 575.611 293.884 576.548C292.406 577.486 290.683 577.955 288.713 577.955ZM288.713 574.943C290.209 574.943 291.44 574.56 292.406 573.793C293.372 573.026 294.087 572.017 294.551 570.767C295.015 569.517 295.247 568.163 295.247 566.705C295.247 565.246 295.015 563.887 294.551 562.628C294.087 561.368 293.372 560.35 292.406 559.574C291.44 558.797 290.209 558.409 288.713 558.409C287.217 558.409 285.986 558.797 285.02 559.574C284.054 560.35 283.339 561.368 282.875 562.628C282.411 563.887 282.179 565.246 282.179 566.705C282.179 568.163 282.411 569.517 282.875 570.767C283.339 572.017 284.054 573.026 285.02 573.793C285.986 574.56 287.217 574.943 288.713 574.943ZM300.865 558.807V555.682H318.592V558.807H311.433V577.5H308.081V558.807H300.865ZM339.168 555.682V577.5H335.815V555.682H339.168ZM337.861 566.08V569.205C337.103 569.489 336.35 569.74 335.602 569.957C334.854 570.166 334.068 570.331 333.244 570.455C332.42 570.568 331.516 570.625 330.531 570.625C328.06 570.625 326.076 569.957 324.58 568.622C323.093 567.287 322.349 565.284 322.349 562.614V555.625H325.702V562.614C325.702 563.731 325.915 564.65 326.341 565.369C326.767 566.089 327.345 566.624 328.074 566.974C328.803 567.325 329.622 567.5 330.531 567.5C331.952 567.5 333.235 567.372 334.381 567.116C335.536 566.851 336.696 566.506 337.861 566.08ZM354.466 577.955C352.364 577.955 350.55 577.491 349.026 576.562C347.51 575.625 346.341 574.318 345.517 572.642C344.703 570.956 344.295 568.996 344.295 566.761C344.295 564.527 344.703 562.557 345.517 560.852C346.341 559.138 347.487 557.803 348.955 556.847C350.432 555.881 352.155 555.398 354.125 555.398C355.261 555.398 356.384 555.587 357.491 555.966C358.599 556.345 359.608 556.96 360.517 557.812C361.426 558.655 362.151 559.773 362.69 561.165C363.23 562.557 363.5 564.271 363.5 566.307V567.727H346.682V564.83H360.091C360.091 563.598 359.845 562.5 359.352 561.534C358.869 560.568 358.178 559.806 357.278 559.247C356.388 558.688 355.337 558.409 354.125 558.409C352.79 558.409 351.634 558.741 350.659 559.403C349.693 560.057 348.95 560.909 348.429 561.96C347.908 563.011 347.648 564.138 347.648 565.341V567.273C347.648 568.92 347.932 570.317 348.5 571.463C349.078 572.599 349.878 573.466 350.901 574.062C351.923 574.65 353.112 574.943 354.466 574.943C355.347 574.943 356.142 574.82 356.852 574.574C357.572 574.318 358.192 573.939 358.713 573.438C359.234 572.926 359.636 572.292 359.92 571.534L363.159 572.443C362.818 573.542 362.245 574.508 361.44 575.341C360.635 576.165 359.641 576.809 358.457 577.273C357.274 577.727 355.943 577.955 354.466 577.955ZM366.568 558.807V555.682H384.295V558.807H377.136V577.5H373.784V558.807H366.568ZM392.083 563.58H398.333C400.89 563.58 402.845 564.228 404.2 565.526C405.554 566.823 406.231 568.466 406.231 570.455C406.231 571.761 405.928 572.95 405.322 574.02C404.716 575.08 403.826 575.928 402.651 576.562C401.477 577.188 400.038 577.5 398.333 577.5H389.185V555.682H392.538V574.375H398.333C399.659 574.375 400.748 574.025 401.6 573.324C402.452 572.623 402.879 571.723 402.879 570.625C402.879 569.47 402.452 568.527 401.6 567.798C400.748 567.069 399.659 566.705 398.333 566.705H392.083V563.58ZM409.697 577.5V555.682H413.049V577.5H409.697ZM430.435 577.5V555.682H447.594V577.5H444.242V558.807H433.788V577.5H430.435ZM462.58 577.955C460.611 577.955 458.882 577.486 457.396 576.548C455.918 575.611 454.763 574.299 453.93 572.614C453.106 570.928 452.694 568.958 452.694 566.705C452.694 564.432 453.106 562.448 453.93 560.753C454.763 559.058 455.918 557.741 457.396 556.804C458.882 555.866 460.611 555.398 462.58 555.398C464.55 555.398 466.273 555.866 467.751 556.804C469.237 557.741 470.393 559.058 471.217 560.753C472.05 562.448 472.467 564.432 472.467 566.705C472.467 568.958 472.05 570.928 471.217 572.614C470.393 574.299 469.237 575.611 467.751 576.548C466.273 577.486 464.55 577.955 462.58 577.955ZM462.58 574.943C464.076 574.943 465.308 574.56 466.273 573.793C467.239 573.026 467.954 572.017 468.418 570.767C468.882 569.517 469.114 568.163 469.114 566.705C469.114 565.246 468.882 563.887 468.418 562.628C467.954 561.368 467.239 560.35 466.273 559.574C465.308 558.797 464.076 558.409 462.58 558.409C461.084 558.409 459.853 558.797 458.887 559.574C457.921 560.35 457.206 561.368 456.742 562.628C456.278 563.887 456.046 565.246 456.046 566.705C456.046 568.163 456.278 569.517 456.742 570.767C457.206 572.017 457.921 573.026 458.887 573.793C459.853 574.56 461.084 574.943 462.58 574.943ZM488.834 577.5V555.682H505.993V577.5H502.641V558.807H492.186V577.5H488.834ZM512.115 585.682V555.682H515.354V559.148H515.751C515.998 558.769 516.339 558.286 516.774 557.699C517.219 557.102 517.854 556.572 518.678 556.108C519.511 555.634 520.638 555.398 522.058 555.398C523.895 555.398 525.515 555.857 526.916 556.776C528.318 557.694 529.411 558.996 530.197 560.682C530.983 562.367 531.376 564.356 531.376 566.648C531.376 568.958 530.983 570.961 530.197 572.656C529.411 574.342 528.322 575.649 526.93 576.577C525.538 577.495 523.933 577.955 522.115 577.955C520.714 577.955 519.591 577.723 518.749 577.259C517.906 576.785 517.257 576.25 516.803 575.653C516.348 575.047 515.998 574.545 515.751 574.148H515.467V585.682H512.115ZM515.411 566.591C515.411 568.239 515.652 569.692 516.135 570.952C516.618 572.202 517.323 573.182 518.251 573.892C519.179 574.593 520.316 574.943 521.661 574.943C523.062 574.943 524.232 574.574 525.169 573.835C526.116 573.087 526.826 572.083 527.3 570.824C527.783 569.555 528.024 568.144 528.024 566.591C528.024 565.057 527.787 563.674 527.314 562.443C526.85 561.203 526.144 560.223 525.197 559.503C524.26 558.774 523.081 558.409 521.661 558.409C520.297 558.409 519.151 558.755 518.223 559.446C517.295 560.128 516.594 561.084 516.121 562.315C515.647 563.537 515.411 564.962 515.411 566.591ZM542.911 578.011C541.528 578.011 540.273 577.751 539.146 577.23C538.019 576.7 537.125 575.938 536.462 574.943C535.799 573.939 535.467 572.727 535.467 571.307C535.467 570.057 535.714 569.044 536.206 568.267C536.698 567.481 537.357 566.866 538.18 566.42C539.004 565.975 539.913 565.644 540.908 565.426C541.911 565.199 542.92 565.019 543.933 564.886C545.259 564.716 546.334 564.588 547.158 564.503C547.991 564.408 548.597 564.252 548.976 564.034C549.364 563.816 549.558 563.437 549.558 562.898V562.784C549.558 561.383 549.175 560.294 548.408 559.517C547.65 558.741 546.5 558.352 544.956 558.352C543.356 558.352 542.101 558.703 541.192 559.403C540.283 560.104 539.643 560.852 539.274 561.648L536.092 560.511C536.661 559.186 537.418 558.153 538.365 557.415C539.321 556.667 540.363 556.146 541.49 555.852C542.626 555.549 543.744 555.398 544.842 555.398C545.543 555.398 546.348 555.483 547.257 555.653C548.176 555.814 549.061 556.151 549.913 556.662C550.775 557.173 551.49 557.945 552.058 558.977C552.626 560.009 552.911 561.392 552.911 563.125V577.5H549.558V574.545H549.388C549.161 575.019 548.782 575.526 548.251 576.065C547.721 576.605 547.016 577.064 546.135 577.443C545.254 577.822 544.179 578.011 542.911 578.011ZM543.422 575C544.748 575 545.865 574.74 546.774 574.219C547.693 573.698 548.384 573.026 548.848 572.202C549.321 571.378 549.558 570.511 549.558 569.602V566.534C549.416 566.705 549.104 566.861 548.621 567.003C548.147 567.135 547.598 567.254 546.973 567.358C546.357 567.453 545.756 567.538 545.169 567.614C544.591 567.68 544.123 567.737 543.763 567.784C542.892 567.898 542.077 568.082 541.32 568.338C540.571 568.584 539.965 568.958 539.501 569.46C539.047 569.953 538.82 570.625 538.82 571.477C538.82 572.642 539.25 573.523 540.112 574.119C540.983 574.706 542.087 575 543.422 575ZM559.029 577.5V555.682H562.381V565.17H564.597L572.438 555.682H576.756L567.95 566.193L576.87 577.5H572.552L565.393 568.295H562.381V577.5H559.029ZM579.263 558.807V555.682H596.991V558.807H589.832V577.5H586.479V558.807H579.263ZM605.233 572.557L615.744 555.682H619.608V577.5H616.256V560.625L605.801 577.5H601.881V555.682H605.233V572.557ZM625.748 577.5V555.682H629.1V565.17H631.316L639.157 555.682H643.475L634.668 566.193L643.589 577.5H639.271L632.112 568.295H629.1V577.5H625.748ZM655.482 577.955C653.379 577.955 651.566 577.491 650.041 576.562C648.526 575.625 647.357 574.318 646.533 572.642C645.718 570.956 645.311 568.996 645.311 566.761C645.311 564.527 645.718 562.557 646.533 560.852C647.357 559.138 648.502 557.803 649.97 556.847C651.447 555.881 653.171 555.398 655.141 555.398C656.277 555.398 657.399 555.587 658.507 555.966C659.615 556.345 660.624 556.96 661.533 557.812C662.442 558.655 663.166 559.773 663.706 561.165C664.246 562.557 664.516 564.271 664.516 566.307V567.727H647.697V564.83H661.107C661.107 563.598 660.86 562.5 660.368 561.534C659.885 560.568 659.194 559.806 658.294 559.247C657.404 558.688 656.353 558.409 655.141 558.409C653.805 558.409 652.65 558.741 651.675 559.403C650.709 560.057 649.965 560.909 649.445 561.96C648.924 563.011 648.663 564.138 648.663 565.341V567.273C648.663 568.92 648.947 570.317 649.516 571.463C650.093 572.599 650.893 573.466 651.916 574.062C652.939 574.65 654.127 574.943 655.482 574.943C656.362 574.943 657.158 574.82 657.868 574.574C658.588 574.318 659.208 573.939 659.729 573.438C660.25 572.926 660.652 572.292 660.936 571.534L664.175 572.443C663.834 573.542 663.261 574.508 662.456 575.341C661.651 576.165 660.657 576.809 659.473 577.273C658.289 577.727 656.959 577.955 655.482 577.955Z" fill="white"/>
</svg>
