<svg width="351" height="488" viewBox="0 0 351 488" fill="none" xmlns="http://www.w3.org/2000/svg">
<rect width="350.359" height="487.29" rx="10" fill="black"/>
<path d="M41.4883 76.7422V81.3125H21V76.7422H41.4883ZM22.7383 76.7422V88.2852H17.2305L16.918 76.7422H22.7383ZM45.707 76.7422L45.1992 88.3047H39.8281V76.7422H45.707ZM38.2656 52.875V57.4648H24.5742V52.875H38.2656ZM42.4453 52.875V81.3125H36.6055V52.875H42.4453ZM23.8516 52.875H29.7109L28.9492 64.457C28.832 66.3711 28.6237 68.0638 28.3242 69.5352C28.0378 70.9935 27.6862 72.276 27.2695 73.3828C26.8659 74.4896 26.4167 75.4596 25.9219 76.293C25.4271 77.1133 24.9062 77.8294 24.3594 78.4414C23.8125 79.0404 23.2591 79.5742 22.6992 80.043C22.1393 80.4987 21.5924 80.9219 21.0586 81.3125H17.6992V76.7422H19.0078C19.3854 76.4297 19.7826 76 20.1992 75.4531C20.6289 74.9062 21.0326 74.1706 21.4102 73.2461C21.8008 72.3086 22.1393 71.1237 22.4258 69.6914C22.7253 68.2591 22.9466 66.5143 23.0898 64.457L23.8516 52.875ZM47.4844 70.9609V70.5508C47.4844 69.0013 47.7057 67.5755 48.1484 66.2734C48.5911 64.9583 49.2357 63.819 50.082 62.8555C50.9284 61.8919 51.9701 61.1432 53.207 60.6094C54.444 60.0625 55.8633 59.7891 57.4648 59.7891C59.0664 59.7891 60.4922 60.0625 61.7422 60.6094C62.9922 61.1432 64.0404 61.8919 64.8867 62.8555C65.7461 63.819 66.3971 64.9583 66.8398 66.2734C67.2826 67.5755 67.5039 69.0013 67.5039 70.5508V70.9609C67.5039 72.4974 67.2826 73.9232 66.8398 75.2383C66.3971 76.5404 65.7461 77.6797 64.8867 78.6562C64.0404 79.6198 62.9987 80.3685 61.7617 80.9023C60.5247 81.4362 59.1055 81.7031 57.5039 81.7031C55.9023 81.7031 54.4766 81.4362 53.2266 80.9023C51.9896 80.3685 50.9414 79.6198 50.082 78.6562C49.2357 77.6797 48.5911 76.5404 48.1484 75.2383C47.7057 73.9232 47.4844 72.4974 47.4844 70.9609ZM53.1094 70.5508V70.9609C53.1094 71.8464 53.1875 72.6732 53.3438 73.4414C53.5 74.2096 53.7474 74.8867 54.0859 75.4727C54.4375 76.0456 54.8932 76.4948 55.4531 76.8203C56.013 77.1458 56.6966 77.3086 57.5039 77.3086C58.2852 77.3086 58.9557 77.1458 59.5156 76.8203C60.0755 76.4948 60.5247 76.0456 60.8633 75.4727C61.2018 74.8867 61.4492 74.2096 61.6055 73.4414C61.7747 72.6732 61.8594 71.8464 61.8594 70.9609V70.5508C61.8594 69.6914 61.7747 68.8841 61.6055 68.1289C61.4492 67.3607 61.1953 66.6836 60.8438 66.0977C60.5052 65.4987 60.056 65.0299 59.4961 64.6914C58.9362 64.3529 58.2591 64.1836 57.4648 64.1836C56.6706 64.1836 55.9935 64.3529 55.4336 64.6914C54.8867 65.0299 54.4375 65.4987 54.0859 66.0977C53.7474 66.6836 53.5 67.3607 53.3438 68.1289C53.1875 68.8841 53.1094 69.6914 53.1094 70.5508ZM83.9102 50.8828H88.4609C88.4609 51.9375 88.3307 52.8424 88.0703 53.5977C87.8099 54.3398 87.3932 54.9779 86.8203 55.5117C86.2474 56.0326 85.4792 56.4753 84.5156 56.8398C83.5521 57.2044 82.3607 57.5169 80.9414 57.7773C79.8477 57.9987 78.8971 58.3633 78.0898 58.8711C77.2956 59.3789 76.638 60.0755 76.1172 60.9609C75.6094 61.8333 75.2448 62.9401 75.0234 64.2812C74.8021 65.6094 74.724 67.2109 74.7891 69.0859V70.0234L70.4141 70.6289V69.6914C70.4271 67.1393 70.6549 64.9193 71.0977 63.0312C71.5534 61.1432 72.1979 59.5547 73.0312 58.2656C73.8646 56.9635 74.8672 55.9284 76.0391 55.1602C77.2109 54.3789 78.513 53.832 79.9453 53.5195C80.9089 53.3112 81.6771 53.1094 82.25 52.9141C82.8359 52.7057 83.2591 52.4453 83.5195 52.1328C83.7799 51.8203 83.9102 51.4036 83.9102 50.8828ZM81.4492 61.3711C82.8815 61.3711 84.151 61.6185 85.2578 62.1133C86.3646 62.5951 87.2956 63.2786 88.0508 64.1641C88.806 65.0495 89.3789 66.0911 89.7695 67.2891C90.1602 68.487 90.3555 69.7956 90.3555 71.2148V71.625C90.3555 73.0703 90.1341 74.4115 89.6914 75.6484C89.2617 76.8724 88.6237 77.9401 87.7773 78.8516C86.931 79.763 85.8893 80.4727 84.6523 80.9805C83.4154 81.4753 82.0026 81.7227 80.4141 81.7227C78.8125 81.7227 77.3867 81.4557 76.1367 80.9219C74.8997 80.375 73.8516 79.6133 72.9922 78.6367C72.1458 77.6471 71.5013 76.4948 71.0586 75.1797C70.6289 73.8516 70.4141 72.4062 70.4141 70.8438V70.4141C70.4141 70.1927 70.5117 69.9779 70.707 69.7695C70.9154 69.5482 71.1562 69.3008 71.4297 69.0273C71.7161 68.7539 71.9701 68.4089 72.1914 67.9922C72.9727 66.5469 73.8255 65.3359 74.75 64.3594C75.6745 63.3698 76.6836 62.6276 77.7773 62.1328C78.8841 61.625 80.1081 61.3711 81.4492 61.3711ZM80.375 65.7656C79.3203 65.7656 78.474 66.0195 77.8359 66.5273C77.1979 67.0221 76.7357 67.6862 76.4492 68.5195C76.1758 69.3398 76.0391 70.2383 76.0391 71.2148V71.625C76.0391 72.4193 76.1172 73.1615 76.2734 73.8516C76.4297 74.5286 76.6771 75.1341 77.0156 75.668C77.3542 76.1888 77.8034 76.599 78.3633 76.8984C78.9232 77.1849 79.6068 77.3281 80.4141 77.3281C81.1953 77.3281 81.8594 77.1849 82.4062 76.8984C82.9661 76.599 83.4154 76.1888 83.7539 75.668C84.0924 75.1341 84.3398 74.5286 84.4961 73.8516C84.6523 73.1615 84.7305 72.4193 84.7305 71.625V71.2148C84.7305 70.4727 84.6523 69.776 84.4961 69.125C84.3398 68.4609 84.0924 67.8815 83.7539 67.3867C83.4154 66.8789 82.9661 66.4818 82.4062 66.1953C81.8464 65.9089 81.1693 65.7656 80.375 65.7656ZM99.0469 64.2422V89.4375H93.4219V60.1797H98.6367L99.0469 64.2422ZM112.426 70.5117V70.9219C112.426 72.4583 112.243 73.8841 111.879 75.1992C111.527 76.5143 111.007 77.6602 110.316 78.6367C109.626 79.6003 108.767 80.3555 107.738 80.9023C106.723 81.4362 105.551 81.7031 104.223 81.7031C102.934 81.7031 101.814 81.4427 100.863 80.9219C99.9128 80.401 99.112 79.6719 98.4609 78.7344C97.8229 77.7839 97.3086 76.6836 96.918 75.4336C96.5273 74.1836 96.2279 72.8424 96.0195 71.4102V70.3359C96.2279 68.7995 96.5273 67.3932 96.918 66.1172C97.3086 64.8281 97.8229 63.7148 98.4609 62.7773C99.112 61.8268 99.9062 61.0911 100.844 60.5703C101.794 60.0495 102.908 59.7891 104.184 59.7891C105.525 59.7891 106.703 60.043 107.719 60.5508C108.747 61.0586 109.607 61.7878 110.297 62.7383C111 63.6888 111.527 64.8216 111.879 66.1367C112.243 67.4518 112.426 68.9102 112.426 70.5117ZM106.781 70.9219V70.5117C106.781 69.6133 106.703 68.7865 106.547 68.0312C106.404 67.263 106.169 66.5924 105.844 66.0195C105.531 65.4466 105.115 65.0039 104.594 64.6914C104.086 64.3659 103.467 64.2031 102.738 64.2031C101.97 64.2031 101.312 64.3268 100.766 64.5742C100.232 64.8216 99.7956 65.1797 99.457 65.6484C99.1185 66.1172 98.8646 66.6771 98.6953 67.3281C98.526 67.9792 98.4219 68.7148 98.3828 69.5352V72.25C98.4479 73.2135 98.6302 74.0794 98.9297 74.8477C99.2292 75.6029 99.6914 76.2018 100.316 76.6445C100.941 77.0872 101.762 77.3086 102.777 77.3086C103.52 77.3086 104.145 77.1458 104.652 76.8203C105.16 76.4818 105.57 76.0195 105.883 75.4336C106.208 74.8477 106.436 74.1706 106.566 73.4023C106.71 72.6341 106.781 71.8073 106.781 70.9219ZM119.809 66.4492H125.941C127.868 66.4492 129.509 66.7682 130.863 67.4062C132.23 68.0312 133.272 68.9036 133.988 70.0234C134.717 71.1432 135.082 72.4388 135.082 73.9102C135.082 74.9779 134.874 75.9674 134.457 76.8789C134.053 77.7773 133.461 78.5586 132.68 79.2227C131.898 79.8867 130.941 80.401 129.809 80.7656C128.676 81.1302 127.387 81.3125 125.941 81.3125H116.293V60.1797H121.938V76.9375H125.941C126.788 76.9375 127.465 76.8008 127.973 76.5273C128.493 76.2409 128.871 75.8698 129.105 75.4141C129.353 74.9583 129.477 74.4635 129.477 73.9297C129.477 73.3698 129.353 72.862 129.105 72.4062C128.871 71.9375 128.493 71.5599 127.973 71.2734C127.465 70.987 126.788 70.8438 125.941 70.8438H119.809V66.4492ZM144.105 60.1797V81.3125H138.48V60.1797H144.105ZM158.773 81.7031C157.133 81.7031 155.661 81.4427 154.359 80.9219C153.057 80.388 151.951 79.6523 151.039 78.7148C150.141 77.7773 149.451 76.6901 148.969 75.4531C148.487 74.2031 148.246 72.875 148.246 71.4688V70.6875C148.246 69.0859 148.474 67.6211 148.93 66.293C149.385 64.9648 150.036 63.8125 150.883 62.8359C151.742 61.8594 152.784 61.1107 154.008 60.5898C155.232 60.056 156.612 59.7891 158.148 59.7891C159.646 59.7891 160.974 60.0365 162.133 60.5312C163.292 61.026 164.262 61.7292 165.043 62.6406C165.837 63.5521 166.436 64.6458 166.84 65.9219C167.243 67.1849 167.445 68.5911 167.445 70.1406V72.4844H150.648V68.7344H161.918V68.3047C161.918 67.5234 161.775 66.8268 161.488 66.2148C161.215 65.5898 160.798 65.0951 160.238 64.7305C159.678 64.3659 158.962 64.1836 158.09 64.1836C157.348 64.1836 156.71 64.3464 156.176 64.6719C155.642 64.9974 155.206 65.4531 154.867 66.0391C154.542 66.625 154.294 67.3151 154.125 68.1094C153.969 68.8906 153.891 69.75 153.891 70.6875V71.4688C153.891 72.3151 154.008 73.0964 154.242 73.8125C154.49 74.5286 154.835 75.1471 155.277 75.668C155.733 76.1888 156.28 76.5924 156.918 76.8789C157.569 77.1654 158.305 77.3086 159.125 77.3086C160.141 77.3086 161.085 77.1133 161.957 76.7227C162.842 76.319 163.604 75.7135 164.242 74.9062L166.977 77.875C166.534 78.513 165.928 79.125 165.16 79.7109C164.405 80.2969 163.493 80.7786 162.426 81.1562C161.358 81.5208 160.141 81.7031 158.773 81.7031ZM184.418 60.1797H190.043L189.867 67.25C189.815 69.5156 189.555 71.4622 189.086 73.0898C188.617 74.7174 187.992 76.0846 187.211 77.1914C186.43 78.2982 185.538 79.1836 184.535 79.8477C183.546 80.4987 182.504 80.987 181.41 81.3125H180.355L180.297 76.9766L180.883 76.918C181.547 76.2279 182.094 75.5573 182.523 74.9062C182.953 74.2422 183.285 73.5456 183.52 72.8164C183.754 72.0872 183.923 71.2734 184.027 70.375C184.145 69.4766 184.216 68.4349 184.242 67.25L184.418 60.1797ZM185.941 60.1797H199.945V81.3125H194.34V64.6914H185.941V60.1797ZM179.066 76.918H202.973V87.6602H197.348V81.3125H184.828V87.6602H179.066V76.918ZM215.57 81.7031C213.93 81.7031 212.458 81.4427 211.156 80.9219C209.854 80.388 208.747 79.6523 207.836 78.7148C206.938 77.7773 206.247 76.6901 205.766 75.4531C205.284 74.2031 205.043 72.875 205.043 71.4688V70.6875C205.043 69.0859 205.271 67.6211 205.727 66.293C206.182 64.9648 206.833 63.8125 207.68 62.8359C208.539 61.8594 209.581 61.1107 210.805 60.5898C212.029 60.056 213.409 59.7891 214.945 59.7891C216.443 59.7891 217.771 60.0365 218.93 60.5312C220.089 61.026 221.059 61.7292 221.84 62.6406C222.634 63.5521 223.233 64.6458 223.637 65.9219C224.04 67.1849 224.242 68.5911 224.242 70.1406V72.4844H207.445V68.7344H218.715V68.3047C218.715 67.5234 218.572 66.8268 218.285 66.2148C218.012 65.5898 217.595 65.0951 217.035 64.7305C216.475 64.3659 215.759 64.1836 214.887 64.1836C214.145 64.1836 213.507 64.3464 212.973 64.6719C212.439 64.9974 212.003 65.4531 211.664 66.0391C211.339 66.625 211.091 67.3151 210.922 68.1094C210.766 68.8906 210.688 69.75 210.688 70.6875V71.4688C210.688 72.3151 210.805 73.0964 211.039 73.8125C211.286 74.5286 211.632 75.1471 212.074 75.668C212.53 76.1888 213.077 76.5924 213.715 76.8789C214.366 77.1654 215.102 77.3086 215.922 77.3086C216.938 77.3086 217.882 77.1133 218.754 76.7227C219.639 76.319 220.401 75.7135 221.039 74.9062L223.773 77.875C223.331 78.513 222.725 79.125 221.957 79.7109C221.202 80.2969 220.29 80.7786 219.223 81.1562C218.155 81.5208 216.938 81.7031 215.57 81.7031ZM241.664 60.1797V64.5938H231.273V60.1797H241.664ZM245.785 60.1797V81.3125H240.16V60.1797H245.785ZM229.867 60.1797H235.395L234.828 70.8438C234.75 72.3672 234.587 73.7083 234.34 74.8672C234.092 76.026 233.76 77.0156 233.344 77.8359C232.94 78.6562 232.452 79.3268 231.879 79.8477C231.319 80.3555 230.661 80.7266 229.906 80.9609C229.164 81.1953 228.344 81.3125 227.445 81.3125H225.727L225.668 76.8789L226.391 76.8008C226.807 76.7617 227.172 76.6445 227.484 76.4492C227.81 76.2409 228.083 75.9479 228.305 75.5703C228.539 75.1797 228.734 74.6914 228.891 74.1055C229.047 73.5065 229.171 72.8034 229.262 71.9961C229.366 71.1888 229.438 70.2578 229.477 69.2031L229.867 60.1797ZM261.547 76.5469V67.1328C261.547 66.4557 261.436 65.8763 261.215 65.3945C260.993 64.8997 260.648 64.5156 260.18 64.2422C259.724 63.9688 259.132 63.832 258.402 63.832C257.777 63.832 257.237 63.9427 256.781 64.1641C256.326 64.3724 255.974 64.6784 255.727 65.082C255.479 65.4727 255.355 65.9349 255.355 66.4688H249.73C249.73 65.5703 249.939 64.7174 250.355 63.9102C250.772 63.1029 251.378 62.3932 252.172 61.7812C252.966 61.1562 253.91 60.668 255.004 60.3164C256.111 59.9648 257.348 59.7891 258.715 59.7891C260.355 59.7891 261.814 60.0625 263.09 60.6094C264.366 61.1562 265.368 61.9766 266.098 63.0703C266.84 64.1641 267.211 65.5312 267.211 67.1719V76.2148C267.211 77.3737 267.283 78.3242 267.426 79.0664C267.569 79.7956 267.777 80.4336 268.051 80.9805V81.3125H262.367C262.094 80.7396 261.885 80.0234 261.742 79.1641C261.612 78.2917 261.547 77.4193 261.547 76.5469ZM262.289 68.4414L262.328 71.625H259.184C258.441 71.625 257.797 71.7096 257.25 71.8789C256.703 72.0482 256.254 72.2891 255.902 72.6016C255.551 72.901 255.29 73.2526 255.121 73.6562C254.965 74.0599 254.887 74.5026 254.887 74.9844C254.887 75.4661 254.997 75.9023 255.219 76.293C255.44 76.6706 255.759 76.9701 256.176 77.1914C256.592 77.3997 257.081 77.5039 257.641 77.5039C258.487 77.5039 259.223 77.3346 259.848 76.9961C260.473 76.6576 260.954 76.2409 261.293 75.7461C261.645 75.2513 261.827 74.7826 261.84 74.3398L263.324 76.7227C263.116 77.2565 262.829 77.8099 262.465 78.3828C262.113 78.9557 261.664 79.4961 261.117 80.0039C260.57 80.4987 259.913 80.9089 259.145 81.2344C258.376 81.5469 257.465 81.7031 256.41 81.7031C255.069 81.7031 253.852 81.4362 252.758 80.9023C251.677 80.3555 250.818 79.6068 250.18 78.6562C249.555 77.6927 249.242 76.599 249.242 75.375C249.242 74.2682 249.451 73.2852 249.867 72.4258C250.284 71.5664 250.896 70.8438 251.703 70.2578C252.523 69.6589 253.546 69.2096 254.77 68.9102C255.993 68.5977 257.413 68.4414 259.027 68.4414H262.289Z" fill="white"/>
<path d="M30.6655 411.852V426.397H28.9041V413.414H21.5746V426.397H19.8132V411.852H30.6655ZM33.9911 430.488V415.488H35.6104V417.221H35.8093C35.9324 417.031 36.1029 416.79 36.3207 416.496C36.5432 416.198 36.8604 415.933 37.2724 415.701C37.689 415.464 38.2525 415.346 38.9627 415.346C39.8813 415.346 40.6909 415.575 41.3917 416.035C42.0924 416.494 42.6393 417.145 43.0323 417.988C43.4253 418.831 43.6218 419.825 43.6218 420.971C43.6218 422.126 43.4253 423.128 43.0323 423.975C42.6393 424.818 42.0948 425.471 41.3988 425.935C40.7028 426.395 39.9002 426.624 38.9911 426.624C38.2904 426.624 37.7293 426.508 37.3079 426.276C36.8865 426.039 36.5621 425.772 36.3349 425.474C36.1076 425.171 35.9324 424.92 35.8093 424.721H35.6673V430.488H33.9911ZM35.6388 420.942C35.6388 421.766 35.7596 422.493 36.0011 423.123C36.2425 423.748 36.5953 424.238 37.0593 424.593C37.5233 424.943 38.0915 425.119 38.7638 425.119C39.4646 425.119 40.0494 424.934 40.5181 424.565C40.9916 424.191 41.3467 423.689 41.5835 423.059C41.8249 422.424 41.9457 421.719 41.9457 420.942C41.9457 420.175 41.8273 419.484 41.5906 418.869C41.3585 418.248 41.0058 417.758 40.5323 417.398C40.0636 417.034 39.4741 416.852 38.7638 416.852C38.082 416.852 37.5091 417.024 37.0451 417.37C36.5811 417.711 36.2307 418.189 35.994 418.805C35.7572 419.415 35.6388 420.128 35.6388 420.942ZM50.6104 426.624C49.6256 426.624 48.7615 426.39 48.0181 425.921C47.2795 425.452 46.7018 424.797 46.2852 423.954C45.8732 423.111 45.6673 422.126 45.6673 420.999C45.6673 419.863 45.8732 418.871 46.2852 418.023C46.7018 417.176 47.2795 416.518 48.0181 416.049C48.7615 415.58 49.6256 415.346 50.6104 415.346C51.5953 415.346 52.457 415.58 53.1957 416.049C53.939 416.518 54.5167 417.176 54.9286 418.023C55.3453 418.871 55.5536 419.863 55.5536 420.999C55.5536 422.126 55.3453 423.111 54.9286 423.954C54.5167 424.797 53.939 425.452 53.1957 425.921C52.457 426.39 51.5953 426.624 50.6104 426.624ZM50.6104 425.119C51.3585 425.119 51.9741 424.927 52.457 424.543C52.94 424.16 53.2975 423.655 53.5295 423.03C53.7615 422.405 53.8775 421.728 53.8775 420.999C53.8775 420.27 53.7615 419.591 53.5295 418.961C53.2975 418.331 52.94 417.822 52.457 417.434C51.9741 417.046 51.3585 416.852 50.6104 416.852C49.8623 416.852 49.2468 417.046 48.7638 417.434C48.2809 417.822 47.9234 418.331 47.6914 418.961C47.4594 419.591 47.3434 420.27 47.3434 420.999C47.3434 421.728 47.4594 422.405 47.6914 423.03C47.9234 423.655 48.2809 424.16 48.7638 424.543C49.2468 424.927 49.8623 425.119 50.6104 425.119ZM62.544 426.624C61.5213 426.624 60.6406 426.383 59.902 425.9C59.1634 425.417 58.5952 424.752 58.1974 423.904C57.7997 423.057 57.6009 422.088 57.6009 420.999C57.6009 419.891 57.8045 418.914 58.2116 418.066C58.6236 417.214 59.1965 416.548 59.9304 416.07C60.669 415.587 61.5308 415.346 62.5156 415.346C63.2827 415.346 63.974 415.488 64.5895 415.772C65.205 416.056 65.7093 416.454 66.1023 416.965C66.4953 417.477 66.7391 418.073 66.8338 418.755H65.1577C65.0298 418.258 64.7457 417.817 64.3054 417.434C63.8698 417.046 63.2827 416.852 62.544 416.852C61.8906 416.852 61.3177 417.022 60.8253 417.363C60.3376 417.699 59.9564 418.175 59.6818 418.79C59.4119 419.401 59.277 420.119 59.277 420.942C59.277 421.785 59.4096 422.519 59.6747 423.144C59.9446 423.769 60.3234 424.254 60.8111 424.6C61.3035 424.946 61.8812 425.119 62.544 425.119C62.9796 425.119 63.375 425.043 63.7301 424.891C64.0852 424.74 64.3859 424.522 64.6321 424.238C64.8783 423.954 65.0535 423.613 65.1577 423.215H66.8338C66.7391 423.859 66.5047 424.439 66.1307 424.955C65.7614 425.467 65.2713 425.874 64.6605 426.177C64.0545 426.475 63.349 426.624 62.544 426.624ZM68.4247 417.05V415.488H77.2884V417.05H73.7088V426.397H72.0327V417.05H68.4247ZM83.5987 426.624C82.6139 426.624 81.7498 426.39 81.0064 425.921C80.2678 425.452 79.6901 424.797 79.2734 423.954C78.8615 423.111 78.6555 422.126 78.6555 420.999C78.6555 419.863 78.8615 418.871 79.2734 418.023C79.6901 417.176 80.2678 416.518 81.0064 416.049C81.7498 415.58 82.6139 415.346 83.5987 415.346C84.5836 415.346 85.4453 415.58 86.1839 416.049C86.9273 416.518 87.505 417.176 87.9169 418.023C88.3336 418.871 88.5419 419.863 88.5419 420.999C88.5419 422.126 88.3336 423.111 87.9169 423.954C87.505 424.797 86.9273 425.452 86.1839 425.921C85.4453 426.39 84.5836 426.624 83.5987 426.624ZM83.5987 425.119C84.3468 425.119 84.9624 424.927 85.4453 424.543C85.9283 424.16 86.2857 423.655 86.5178 423.03C86.7498 422.405 86.8658 421.728 86.8658 420.999C86.8658 420.27 86.7498 419.591 86.5178 418.961C86.2857 418.331 85.9283 417.822 85.4453 417.434C84.9624 417.046 84.3468 416.852 83.5987 416.852C82.8506 416.852 82.2351 417.046 81.7521 417.434C81.2692 417.822 80.9117 418.331 80.6797 418.961C80.4477 419.591 80.3317 420.27 80.3317 420.999C80.3317 421.728 80.4477 422.405 80.6797 423.03C80.9117 423.655 81.2692 424.16 81.7521 424.543C82.2351 424.927 82.8506 425.119 83.5987 425.119ZM95.5607 429.522V424.834H96.4698C96.6924 424.602 96.8841 424.352 97.0451 424.082C97.2061 423.812 97.3458 423.492 97.4641 423.123C97.5872 422.749 97.6914 422.294 97.7766 421.759C97.8619 421.219 97.9376 420.568 98.0039 419.806L98.3732 415.488H105.305V424.834H106.981V429.522H105.305V426.397H97.2369V429.522H95.5607ZM98.3732 424.834H103.629V417.05H99.9357L99.6516 419.806C99.5333 420.947 99.3865 421.944 99.2113 422.796C99.0361 423.648 98.7567 424.328 98.3732 424.834ZM113.78 426.624C112.729 426.624 111.822 426.392 111.06 425.928C110.302 425.459 109.717 424.806 109.305 423.968C108.898 423.125 108.695 422.145 108.695 421.028C108.695 419.91 108.898 418.925 109.305 418.073C109.717 417.216 110.29 416.548 111.024 416.07C111.763 415.587 112.625 415.346 113.609 415.346C114.178 415.346 114.739 415.441 115.293 415.63C115.847 415.819 116.351 416.127 116.805 416.553C117.26 416.975 117.622 417.533 117.892 418.229C118.162 418.925 118.297 419.782 118.297 420.8V421.511H109.888V420.062H116.592C116.592 419.446 116.469 418.897 116.223 418.414C115.982 417.931 115.636 417.55 115.186 417.271C114.741 416.991 114.215 416.852 113.609 416.852C112.942 416.852 112.364 417.017 111.876 417.349C111.393 417.675 111.022 418.102 110.761 418.627C110.501 419.153 110.371 419.716 110.371 420.317V421.283C110.371 422.107 110.513 422.806 110.797 423.379C111.086 423.947 111.486 424.38 111.997 424.678C112.509 424.972 113.103 425.119 113.78 425.119C114.22 425.119 114.618 425.057 114.973 424.934C115.333 424.806 115.643 424.617 115.903 424.366C116.164 424.11 116.365 423.793 116.507 423.414L118.126 423.869C117.956 424.418 117.67 424.901 117.267 425.317C116.865 425.729 116.367 426.051 115.776 426.283C115.184 426.511 114.518 426.624 113.78 426.624ZM119.881 426.397V424.834H120.278C120.605 424.834 120.877 424.771 121.095 424.643C121.313 424.51 121.488 424.28 121.621 423.954C121.758 423.622 121.862 423.163 121.933 422.576C122.009 421.984 122.063 421.231 122.097 420.317L122.295 415.488H129.568V426.397H127.892V417.05H123.886L123.716 420.942C123.678 421.837 123.598 422.626 123.474 423.307C123.356 423.985 123.174 424.553 122.928 425.012C122.686 425.471 122.364 425.817 121.962 426.049C121.559 426.281 121.055 426.397 120.449 426.397H119.881ZM135.854 426.653C135.162 426.653 134.535 426.522 133.972 426.262C133.408 425.997 132.961 425.616 132.629 425.119C132.298 424.617 132.132 424.011 132.132 423.3C132.132 422.675 132.255 422.169 132.501 421.78C132.748 421.388 133.077 421.08 133.489 420.857C133.901 420.635 134.355 420.469 134.852 420.36C135.354 420.246 135.858 420.156 136.365 420.09C137.028 420.005 137.565 419.941 137.977 419.898C138.394 419.851 138.697 419.773 138.886 419.664C139.08 419.555 139.178 419.366 139.178 419.096V419.039C139.178 418.338 138.986 417.794 138.602 417.405C138.223 417.017 137.648 416.823 136.876 416.823C136.076 416.823 135.449 416.998 134.994 417.349C134.54 417.699 134.22 418.073 134.036 418.471L132.445 417.903C132.729 417.24 133.107 416.724 133.581 416.354C134.059 415.98 134.58 415.72 135.143 415.573C135.712 415.422 136.27 415.346 136.82 415.346C137.17 415.346 137.572 415.388 138.027 415.474C138.486 415.554 138.929 415.722 139.355 415.978C139.786 416.234 140.143 416.62 140.428 417.136C140.712 417.652 140.854 418.343 140.854 419.209V426.397H139.178V424.92H139.092C138.979 425.156 138.789 425.41 138.524 425.68C138.259 425.95 137.906 426.179 137.466 426.369C137.026 426.558 136.488 426.653 135.854 426.653ZM136.109 425.147C136.772 425.147 137.331 425.017 137.786 424.756C138.245 424.496 138.59 424.16 138.822 423.748C139.059 423.336 139.178 422.903 139.178 422.448V420.914C139.107 420.999 138.95 421.077 138.709 421.148C138.472 421.215 138.197 421.274 137.885 421.326C137.577 421.373 137.277 421.416 136.983 421.454C136.694 421.487 136.46 421.515 136.28 421.539C135.844 421.596 135.437 421.688 135.058 421.816C134.684 421.939 134.381 422.126 134.149 422.377C133.922 422.623 133.808 422.959 133.808 423.386C133.808 423.968 134.024 424.408 134.455 424.707C134.89 425 135.442 425.147 136.109 425.147ZM145.589 423.925L150.845 415.488H152.777V426.397H151.1V417.959L145.873 426.397H143.913V415.488H145.589V423.925ZM149.737 411.852H151.299C151.299 412.619 151.034 413.246 150.504 413.734C149.974 414.221 149.254 414.465 148.345 414.465C147.45 414.465 146.737 414.221 146.207 413.734C145.681 413.246 145.419 412.619 145.419 411.852H146.981C146.981 412.221 147.083 412.545 147.287 412.825C147.495 413.104 147.848 413.244 148.345 413.244C148.842 413.244 149.197 413.104 149.41 412.825C149.628 412.545 149.737 412.221 149.737 411.852ZM160.307 429.522V424.834H161.216C161.438 424.602 161.63 424.352 161.791 424.082C161.952 423.812 162.092 423.492 162.21 423.123C162.333 422.749 162.438 422.294 162.523 421.759C162.608 421.219 162.684 420.568 162.75 419.806L163.119 415.488H170.051V424.834H171.727V429.522H170.051V426.397H161.983V429.522H160.307ZM163.119 424.834H168.375V417.05H164.682L164.398 419.806C164.279 420.947 164.133 421.944 163.957 422.796C163.782 423.648 163.503 424.328 163.119 424.834ZM178.384 426.624C177.399 426.624 176.535 426.39 175.792 425.921C175.053 425.452 174.475 424.797 174.059 423.954C173.647 423.111 173.441 422.126 173.441 420.999C173.441 419.863 173.647 418.871 174.059 418.023C174.475 417.176 175.053 416.518 175.792 416.049C176.535 415.58 177.399 415.346 178.384 415.346C179.369 415.346 180.23 415.58 180.969 416.049C181.712 416.518 182.29 417.176 182.702 418.023C183.119 418.871 183.327 419.863 183.327 420.999C183.327 422.126 183.119 423.111 182.702 423.954C182.29 424.797 181.712 425.452 180.969 425.921C180.23 426.39 179.369 426.624 178.384 426.624ZM178.384 425.119C179.132 425.119 179.748 424.927 180.23 424.543C180.713 424.16 181.071 423.655 181.303 423.03C181.535 422.405 181.651 421.728 181.651 420.999C181.651 420.27 181.535 419.591 181.303 418.961C181.071 418.331 180.713 417.822 180.23 417.434C179.748 417.046 179.132 416.852 178.384 416.852C177.636 416.852 177.02 417.046 176.537 417.434C176.054 417.822 175.697 418.331 175.465 418.961C175.233 419.591 175.117 420.27 175.117 420.999C175.117 421.728 175.233 422.405 175.465 423.03C175.697 423.655 176.054 424.16 176.537 424.543C177.02 424.927 177.636 425.119 178.384 425.119ZM193.982 411.397L194.835 412.42C194.503 412.742 194.12 412.967 193.684 413.094C193.248 413.222 192.756 413.3 192.207 413.329C191.657 413.357 191.047 413.386 190.374 413.414C189.617 413.442 188.989 413.627 188.492 413.968C187.995 414.309 187.612 414.801 187.342 415.445C187.072 416.089 186.899 416.88 186.823 417.817H186.965C187.335 417.136 187.846 416.634 188.499 416.312C189.153 415.99 189.853 415.829 190.602 415.829C191.454 415.829 192.221 416.028 192.903 416.425C193.585 416.823 194.124 417.413 194.522 418.194C194.92 418.975 195.119 419.939 195.119 421.084C195.119 422.226 194.915 423.21 194.508 424.039C194.105 424.868 193.54 425.507 192.81 425.957C192.086 426.402 191.236 426.624 190.261 426.624C189.285 426.624 188.431 426.395 187.697 425.935C186.963 425.471 186.392 424.785 185.985 423.876C185.578 422.962 185.374 421.833 185.374 420.488V419.323C185.374 416.894 185.786 415.052 186.61 413.798C187.439 412.543 188.684 411.894 190.346 411.852C190.933 411.833 191.456 411.828 191.915 411.837C192.375 411.847 192.775 411.825 193.116 411.773C193.457 411.721 193.746 411.596 193.982 411.397ZM190.261 425.119C190.919 425.119 191.485 424.953 191.958 424.621C192.436 424.29 192.803 423.824 193.059 423.222C193.315 422.616 193.442 421.904 193.442 421.084C193.442 420.289 193.312 419.612 193.052 419.053C192.796 418.495 192.429 418.068 191.951 417.775C191.473 417.481 190.9 417.334 190.232 417.334C189.745 417.334 189.307 417.417 188.918 417.583C188.53 417.749 188.199 417.993 187.924 418.315C187.649 418.637 187.436 419.03 187.285 419.494C187.138 419.958 187.06 420.488 187.05 421.084C187.05 422.306 187.337 423.284 187.91 424.018C188.483 424.752 189.266 425.119 190.261 425.119ZM197.683 430.488V415.488H199.302V417.221H199.501C199.624 417.031 199.794 416.79 200.012 416.496C200.235 416.198 200.552 415.933 200.964 415.701C201.38 415.464 201.944 415.346 202.654 415.346C203.573 415.346 204.382 415.575 205.083 416.035C205.784 416.494 206.331 417.145 206.724 417.988C207.117 418.831 207.313 419.825 207.313 420.971C207.313 422.126 207.117 423.128 206.724 423.975C206.331 424.818 205.786 425.471 205.09 425.935C204.394 426.395 203.592 426.624 202.683 426.624C201.982 426.624 201.421 426.508 200.999 426.276C200.578 426.039 200.254 425.772 200.026 425.474C199.799 425.171 199.624 424.92 199.501 424.721H199.359V430.488H197.683ZM199.33 420.942C199.33 421.766 199.451 422.493 199.692 423.123C199.934 423.748 200.287 424.238 200.751 424.593C201.215 424.943 201.783 425.119 202.455 425.119C203.156 425.119 203.741 424.934 204.21 424.565C204.683 424.191 205.038 423.689 205.275 423.059C205.516 422.424 205.637 421.719 205.637 420.942C205.637 420.175 205.519 419.484 205.282 418.869C205.05 418.248 204.697 417.758 204.224 417.398C203.755 417.034 203.165 416.852 202.455 416.852C201.773 416.852 201.201 417.024 200.737 417.37C200.272 417.711 199.922 418.189 199.685 418.805C199.449 419.415 199.33 420.128 199.33 420.942ZM211.319 419.437H214.444C215.722 419.437 216.7 419.761 217.377 420.41C218.054 421.058 218.393 421.88 218.393 422.874C218.393 423.528 218.241 424.122 217.938 424.657C217.635 425.187 217.19 425.611 216.603 425.928C216.016 426.241 215.296 426.397 214.444 426.397H209.87V415.488H211.546V424.834H214.444C215.107 424.834 215.651 424.659 216.077 424.309C216.504 423.959 216.717 423.509 216.717 422.959C216.717 422.382 216.504 421.911 216.077 421.546C215.651 421.182 215.107 420.999 214.444 420.999H211.319V419.437ZM220.126 426.397V415.488H221.802V426.397H220.126ZM229.444 426.624C228.393 426.624 227.486 426.392 226.724 425.928C225.966 425.459 225.381 424.806 224.969 423.968C224.562 423.125 224.359 422.145 224.359 421.028C224.359 419.91 224.562 418.925 224.969 418.073C225.381 417.216 225.954 416.548 226.688 416.07C227.427 415.587 228.289 415.346 229.273 415.346C229.842 415.346 230.403 415.441 230.957 415.63C231.511 415.819 232.015 416.127 232.469 416.553C232.924 416.975 233.286 417.533 233.556 418.229C233.826 418.925 233.961 419.782 233.961 420.8V421.511H225.552V420.062H232.256C232.256 419.446 232.133 418.897 231.887 418.414C231.646 417.931 231.3 417.55 230.85 417.271C230.405 416.991 229.879 416.852 229.273 416.852C228.606 416.852 228.028 417.017 227.54 417.349C227.058 417.675 226.686 418.102 226.425 418.627C226.165 419.153 226.035 419.716 226.035 420.317V421.283C226.035 422.107 226.177 422.806 226.461 423.379C226.75 423.947 227.15 424.38 227.661 424.678C228.173 424.972 228.767 425.119 229.444 425.119C229.884 425.119 230.282 425.057 230.637 424.934C230.997 424.806 231.307 424.617 231.567 424.366C231.828 424.11 232.029 423.793 232.171 423.414L233.79 423.869C233.62 424.418 233.334 424.901 232.931 425.317C232.529 425.729 232.031 426.051 231.44 426.283C230.848 426.511 230.183 426.624 229.444 426.624ZM240.971 429.522V424.834H241.88C242.103 424.602 242.294 424.352 242.455 424.082C242.616 423.812 242.756 423.492 242.874 423.123C242.997 422.749 243.102 422.294 243.187 421.759C243.272 421.219 243.348 420.568 243.414 419.806L243.783 415.488H250.715V424.834H252.391V429.522H250.715V426.397H242.647V429.522H240.971ZM243.783 424.834H249.039V417.05H245.346L245.062 419.806C244.943 420.947 244.797 421.944 244.621 422.796C244.446 423.648 244.167 424.328 243.783 424.834ZM259.19 426.624C258.139 426.624 257.232 426.392 256.47 425.928C255.712 425.459 255.127 424.806 254.716 423.968C254.308 423.125 254.105 422.145 254.105 421.028C254.105 419.91 254.308 418.925 254.716 418.073C255.127 417.216 255.7 416.548 256.434 416.07C257.173 415.587 258.035 415.346 259.02 415.346C259.588 415.346 260.149 415.441 260.703 415.63C261.257 415.819 261.761 416.127 262.216 416.553C262.67 416.975 263.032 417.533 263.302 418.229C263.572 418.925 263.707 419.782 263.707 420.8V421.511H255.298V420.062H262.002C262.002 419.446 261.879 418.897 261.633 418.414C261.392 417.931 261.046 417.55 260.596 417.271C260.151 416.991 259.626 416.852 259.02 416.852C258.352 416.852 257.774 417.017 257.287 417.349C256.804 417.675 256.432 418.102 256.172 418.627C255.911 419.153 255.781 419.716 255.781 420.317V421.283C255.781 422.107 255.923 422.806 256.207 423.379C256.496 423.947 256.896 424.38 257.407 424.678C257.919 424.972 258.513 425.119 259.19 425.119C259.63 425.119 260.028 425.057 260.383 424.934C260.743 424.806 261.053 424.617 261.314 424.366C261.574 424.11 261.775 423.793 261.917 423.414L263.537 423.869C263.366 424.418 263.08 424.901 262.677 425.317C262.275 425.729 261.778 426.051 261.186 426.283C260.594 426.511 259.929 426.624 259.19 426.624ZM265.291 426.397V424.834H265.689C266.015 424.834 266.288 424.771 266.505 424.643C266.723 424.51 266.898 424.28 267.031 423.954C267.168 423.622 267.272 423.163 267.343 422.576C267.419 421.984 267.474 421.231 267.507 420.317L267.706 415.488H274.978V426.397H273.302V417.05H269.297L269.126 420.942C269.088 421.837 269.008 422.626 268.885 423.307C268.766 423.985 268.584 424.553 268.338 425.012C268.096 425.471 267.774 425.817 267.372 426.049C266.969 426.281 266.465 426.397 265.859 426.397H265.291ZM281.264 426.653C280.573 426.653 279.945 426.522 279.382 426.262C278.818 425.997 278.371 425.616 278.039 425.119C277.708 424.617 277.542 424.011 277.542 423.3C277.542 422.675 277.665 422.169 277.912 421.78C278.158 421.388 278.487 421.08 278.899 420.857C279.311 420.635 279.765 420.469 280.262 420.36C280.764 420.246 281.269 420.156 281.775 420.09C282.438 420.005 282.975 419.941 283.387 419.898C283.804 419.851 284.107 419.773 284.297 419.664C284.491 419.555 284.588 419.366 284.588 419.096V419.039C284.588 418.338 284.396 417.794 284.012 417.405C283.634 417.017 283.058 416.823 282.287 416.823C281.486 416.823 280.859 416.998 280.404 417.349C279.95 417.699 279.63 418.073 279.446 418.471L277.855 417.903C278.139 417.24 278.518 416.724 278.991 416.354C279.469 415.98 279.99 415.72 280.554 415.573C281.122 415.422 281.681 415.346 282.23 415.346C282.58 415.346 282.983 415.388 283.437 415.474C283.896 415.554 284.339 415.722 284.765 415.978C285.196 416.234 285.554 416.62 285.838 417.136C286.122 417.652 286.264 418.343 286.264 419.209V426.397H284.588V424.92H284.502C284.389 425.156 284.199 425.41 283.934 425.68C283.669 425.95 283.316 426.179 282.876 426.369C282.436 426.558 281.898 426.653 281.264 426.653ZM281.52 425.147C282.182 425.147 282.741 425.017 283.196 424.756C283.655 424.496 284.001 424.16 284.233 423.748C284.469 423.336 284.588 422.903 284.588 422.448V420.914C284.517 420.999 284.36 421.077 284.119 421.148C283.882 421.215 283.608 421.274 283.295 421.326C282.987 421.373 282.687 421.416 282.393 421.454C282.104 421.487 281.87 421.515 281.69 421.539C281.254 421.596 280.847 421.688 280.468 421.816C280.094 421.939 279.791 422.126 279.559 422.377C279.332 422.623 279.218 422.959 279.218 423.386C279.218 423.968 279.434 424.408 279.865 424.707C280.3 425 280.852 425.147 281.52 425.147ZM290.545 426.511C290.194 426.511 289.894 426.385 289.643 426.134C289.392 425.883 289.266 425.583 289.266 425.232C289.266 424.882 289.392 424.581 289.643 424.33C289.894 424.079 290.194 423.954 290.545 423.954C290.895 423.954 291.196 424.079 291.447 424.33C291.698 424.581 291.823 424.882 291.823 425.232C291.823 425.464 291.764 425.677 291.646 425.871C291.532 426.066 291.378 426.222 291.184 426.34C290.995 426.454 290.781 426.511 290.545 426.511Z" fill="white"/>
<path fill-rule="evenodd" clip-rule="evenodd" d="M89.6648 248.697L107.512 151.815L129.909 198.894C143.318 191.068 158.852 186.686 175.084 187.342C194.346 188.121 212.377 194.993 226.516 205.969L249.027 154.645L254.731 249.836C255.401 253.097 255.835 256.434 256.016 259.832C257.133 280.778 243.819 346.082 174.552 343.49C101.701 340.764 86.9647 299.909 86.2942 272.449C86.0967 264.359 87.292 256.362 89.6648 248.697Z" fill="#F89C1C"/>
<path d="M111.834 250.068C112.043 243.371 119.541 225.103 132.04 224.292C143.29 224.292 147.663 238.296 147.455 248.445C147.246 258.593 142.039 271.583 128.082 271.583C114.125 271.583 111.625 256.766 111.834 250.068Z" fill="#FFDFB9"/>
<path d="M217.865 256.438C218.259 249.113 212.367 228.559 199.87 226.633C188.557 225.697 182.895 240.613 182.188 251.703C181.482 262.793 185.546 277.399 199.583 278.56C213.619 279.721 217.47 263.763 217.865 256.438Z" fill="#FFDFB9"/>
<path fill-rule="evenodd" clip-rule="evenodd" d="M202.122 340.441C194.101 342.736 184.958 343.879 174.552 343.49C152.116 342.65 135.192 338.194 122.493 331.627C116.559 304.817 123.992 289.809 158.248 291.353C195.294 293.021 199.967 294.69 201.969 328.4C202.252 333.157 202.282 337.133 202.122 340.441Z" fill="#FFDFB9"/>
<path fill-rule="evenodd" clip-rule="evenodd" d="M162.485 252.24L165.171 254.162L145.687 281.396L166.026 281.396L166.026 284.7L139.262 284.7L162.485 252.24Z" fill="black"/>
<path fill-rule="evenodd" clip-rule="evenodd" d="M148.785 312.059C146.706 308.811 145.209 304.192 144.458 298.326L147.735 297.906C148.45 303.488 149.843 307.583 151.568 310.277C153.283 312.957 155.229 314.125 157.119 314.258C159.046 314.394 161.377 313.489 163.898 311.033C166.411 308.585 168.971 304.722 171.281 299.335L174.317 300.636C171.9 306.275 169.125 310.553 166.203 313.399C163.29 316.237 160.086 317.779 156.886 317.553C153.648 317.325 150.874 315.321 148.785 312.059Z" fill="black"/>
<path d="M138.932 252.972C138.424 261.13 134.747 267.539 130.72 267.288C126.693 267.036 123.841 260.22 124.35 252.063C124.859 243.906 128.536 237.497 132.563 237.748C136.589 237.999 139.441 244.815 138.932 252.972Z" fill="black"/>
<path d="M138.932 252.972C138.424 261.13 134.747 267.539 130.72 267.288C126.693 267.036 123.841 260.22 124.35 252.063C124.859 243.906 128.536 237.497 132.563 237.748C136.589 237.999 139.441 244.815 138.932 252.972Z" fill="black"/>
<path d="M207.29 260.573C206.781 268.73 203.104 275.139 199.077 274.888C195.051 274.637 192.199 267.821 192.708 259.663C193.216 251.506 196.893 245.097 200.92 245.348C204.947 245.6 207.799 252.416 207.29 260.573Z" fill="black"/>
<path d="M207.29 260.573C206.781 268.73 203.104 275.139 199.077 274.888C195.051 274.637 192.199 267.821 192.708 259.663C193.216 251.506 196.893 245.097 200.92 245.348C204.947 245.6 207.799 252.416 207.29 260.573Z" fill="black"/>
</svg>
