<svg width="1873" height="729" viewBox="0 0 1873 729" fill="none" xmlns="http://www.w3.org/2000/svg">
<rect width="1873" height="729" rx="29" fill="#E6E7E9"/>
<path d="M79.3525 107.728H100.437L131.481 196.463L162.526 107.728H183.61L139.948 228.587H123.015L79.3525 107.728ZM67.9805 107.728H88.9814L92.7998 194.222V228.587H67.9805V107.728ZM173.981 107.728H195.065V228.587H170.163V194.222L173.981 107.728ZM256.74 230.248C249.768 230.248 243.514 229.141 237.98 226.927C232.447 224.658 227.743 221.532 223.869 217.547C220.051 213.563 217.118 208.942 215.07 203.685C213.023 198.373 211.999 192.728 211.999 186.751V183.431C211.999 176.625 212.967 170.399 214.904 164.754C216.841 159.11 219.608 154.212 223.205 150.062C226.857 145.912 231.285 142.73 236.486 140.516C241.688 138.247 247.554 137.113 254.084 137.113C260.448 137.113 266.092 138.164 271.018 140.267C275.943 142.37 280.065 145.358 283.386 149.232C286.761 153.106 289.307 157.754 291.022 163.177C292.738 168.545 293.596 174.522 293.596 181.107V191.068H222.209V175.13H270.104V173.304C270.104 169.984 269.496 167.023 268.278 164.422C267.116 161.766 265.345 159.663 262.966 158.114C260.586 156.564 257.543 155.79 253.835 155.79C250.681 155.79 247.969 156.481 245.7 157.865C243.431 159.248 241.577 161.185 240.139 163.675C238.755 166.166 237.704 169.098 236.984 172.474C236.32 175.794 235.988 179.447 235.988 183.431V186.751C235.988 190.348 236.486 193.669 237.482 196.712C238.534 199.756 240 202.385 241.882 204.598C243.819 206.812 246.143 208.527 248.854 209.745C251.621 210.962 254.748 211.571 258.234 211.571C262.551 211.571 266.563 210.741 270.271 209.081C274.034 207.365 277.271 204.792 279.982 201.361L291.604 213.978C289.722 216.69 287.149 219.291 283.884 221.781C280.674 224.271 276.8 226.319 272.263 227.923C267.725 229.473 262.551 230.248 256.74 230.248ZM331.115 156.039V263.119H307.209V138.773H329.372L331.115 156.039ZM387.976 182.684V184.427C387.976 190.957 387.201 197.017 385.651 202.606C384.157 208.195 381.944 213.065 379.011 217.215C376.078 221.31 372.425 224.52 368.054 226.844C363.737 229.113 358.757 230.248 353.112 230.248C347.634 230.248 342.875 229.141 338.835 226.927C334.795 224.714 331.392 221.615 328.625 217.63C325.913 213.591 323.728 208.915 322.067 203.602C320.407 198.29 319.134 192.59 318.249 186.502V181.937C319.134 175.407 320.407 169.431 322.067 164.007C323.728 158.529 325.913 153.797 328.625 149.813C331.392 145.773 334.768 142.647 338.752 140.433C342.792 138.22 347.523 137.113 352.946 137.113C358.646 137.113 363.654 138.192 367.971 140.35C372.342 142.508 375.995 145.607 378.928 149.647C381.916 153.687 384.157 158.501 385.651 164.09C387.201 169.68 387.976 175.877 387.976 182.684ZM363.986 184.427V182.684C363.986 178.866 363.654 175.352 362.99 172.142C362.382 168.877 361.385 166.027 360.002 163.592C358.674 161.157 356.903 159.276 354.689 157.948C352.531 156.564 349.903 155.873 346.804 155.873C343.539 155.873 340.744 156.398 338.42 157.45C336.151 158.501 334.297 160.023 332.858 162.015C331.42 164.007 330.34 166.387 329.621 169.154C328.902 171.921 328.459 175.047 328.293 178.534V190.072C328.57 194.167 329.344 197.847 330.617 201.112C331.89 204.321 333.854 206.867 336.511 208.749C339.167 210.63 342.653 211.571 346.97 211.571C350.124 211.571 352.78 210.879 354.938 209.496C357.097 208.057 358.84 206.092 360.168 203.602C361.551 201.112 362.52 198.234 363.073 194.969C363.682 191.704 363.986 188.19 363.986 184.427ZM399.016 184.593V182.85C399.016 176.265 399.956 170.205 401.838 164.671C403.719 159.082 406.459 154.24 410.056 150.145C413.653 146.05 418.08 142.868 423.337 140.599C428.594 138.275 434.626 137.113 441.433 137.113C448.239 137.113 454.299 138.275 459.611 140.599C464.924 142.868 469.379 146.05 472.976 150.145C476.628 154.24 479.395 159.082 481.276 164.671C483.158 170.205 484.099 176.265 484.099 182.85V184.593C484.099 191.123 483.158 197.183 481.276 202.772C479.395 208.306 476.628 213.148 472.976 217.298C469.379 221.393 464.951 224.575 459.694 226.844C454.437 229.113 448.405 230.248 441.599 230.248C434.792 230.248 428.732 229.113 423.42 226.844C418.163 224.575 413.708 221.393 410.056 217.298C406.459 213.148 403.719 208.306 401.838 202.772C399.956 197.183 399.016 191.123 399.016 184.593ZM422.922 182.85V184.593C422.922 188.356 423.254 191.87 423.918 195.135C424.582 198.4 425.633 201.278 427.072 203.768C428.566 206.203 430.503 208.112 432.883 209.496C435.262 210.879 438.168 211.571 441.599 211.571C444.919 211.571 447.769 210.879 450.148 209.496C452.528 208.112 454.437 206.203 455.876 203.768C457.315 201.278 458.366 198.4 459.03 195.135C459.75 191.87 460.109 188.356 460.109 184.593V182.85C460.109 179.198 459.75 175.767 459.03 172.557C458.366 169.292 457.287 166.415 455.793 163.924C454.354 161.379 452.445 159.387 450.065 157.948C447.686 156.509 444.808 155.79 441.433 155.79C438.057 155.79 435.179 156.509 432.8 157.948C430.476 159.387 428.566 161.379 427.072 163.924C425.633 166.415 424.582 169.292 423.918 172.557C423.254 175.767 422.922 179.198 422.922 182.85ZM559.221 138.773V157.533H515.725V138.773H559.221ZM522.614 138.773V228.587H498.708V138.773H522.614ZM576.652 138.773V228.587H552.663V138.773H576.652ZM618.986 156.039V263.119H595.08V138.773H617.243L618.986 156.039ZM675.847 182.684V184.427C675.847 190.957 675.072 197.017 673.522 202.606C672.028 208.195 669.815 213.065 666.882 217.215C663.949 221.31 660.297 224.52 655.925 226.844C651.608 229.113 646.628 230.248 640.983 230.248C635.505 230.248 630.746 229.141 626.706 226.927C622.666 224.714 619.263 221.615 616.496 217.63C613.785 213.591 611.599 208.915 609.938 203.602C608.278 198.29 607.006 192.59 606.12 186.502V181.937C607.006 175.407 608.278 169.431 609.938 164.007C611.599 158.529 613.785 153.797 616.496 149.813C619.263 145.773 622.639 142.647 626.623 140.433C630.663 138.22 635.394 137.113 640.817 137.113C646.517 137.113 651.525 138.192 655.842 140.35C660.214 142.508 663.866 145.607 666.799 149.647C669.787 153.687 672.028 158.501 673.522 164.09C675.072 169.68 675.847 175.877 675.847 182.684ZM651.857 184.427V182.684C651.857 178.866 651.525 175.352 650.861 172.142C650.253 168.877 649.257 166.027 647.873 163.592C646.545 161.157 644.774 159.276 642.561 157.948C640.402 156.564 637.774 155.873 634.675 155.873C631.41 155.873 628.615 156.398 626.291 157.45C624.022 158.501 622.168 160.023 620.729 162.015C619.291 164.007 618.212 166.387 617.492 169.154C616.773 171.921 616.33 175.047 616.164 178.534V190.072C616.441 194.167 617.215 197.847 618.488 201.112C619.761 204.321 621.726 206.867 624.382 208.749C627.038 210.63 630.524 211.571 634.841 211.571C637.995 211.571 640.651 210.879 642.81 209.496C644.968 208.057 646.711 206.092 648.039 203.602C649.423 201.112 650.391 198.234 650.944 194.969C651.553 191.704 651.857 188.19 651.857 184.427ZM714.528 195.218L744.66 138.773H768.566V228.587H744.66V172.059L714.528 228.587H690.622V138.773H714.528V195.218ZM806.335 183.763H830.573L805.588 228.587H781.433L806.335 183.763ZM822.438 138.773H861.867V228.587H837.961V157.284H822.438C819.174 157.284 816.462 157.892 814.304 159.11C812.146 160.272 810.541 161.794 809.489 163.675C808.493 165.501 807.995 167.383 807.995 169.32C807.995 171.201 808.493 173.028 809.489 174.798C810.485 176.569 812.035 178.036 814.138 179.198C816.241 180.36 818.869 180.941 822.023 180.941H846.843V197.21H822.023C816.102 197.21 810.79 196.491 806.086 195.052C801.438 193.613 797.453 191.621 794.133 189.076C790.868 186.475 788.35 183.459 786.579 180.028C784.864 176.542 784.006 172.723 784.006 168.573C784.006 164.256 784.891 160.3 786.662 156.703C788.433 153.106 790.979 149.951 794.299 147.24C797.619 144.528 801.631 142.453 806.335 141.014C811.094 139.52 816.462 138.773 822.438 138.773ZM927.858 138.773V228.587H903.869V138.773H927.858ZM956.745 138.773V157.284H875.397V138.773H956.745ZM992.771 195.218L1022.9 138.773H1046.81V228.587H1022.9V172.059L992.771 228.587H968.864V138.773H992.771V195.218ZM1084.58 183.763H1108.82L1083.83 228.587H1059.67L1084.58 183.763ZM1100.68 138.773H1140.11V228.587H1116.2V157.284H1100.68C1097.42 157.284 1094.7 157.892 1092.55 159.11C1090.39 160.272 1088.78 161.794 1087.73 163.675C1086.74 165.501 1086.24 167.383 1086.24 169.32C1086.24 171.201 1086.74 173.028 1087.73 174.798C1088.73 176.569 1090.28 178.036 1092.38 179.198C1094.48 180.36 1097.11 180.941 1100.27 180.941H1125.08V197.21H1100.27C1094.34 197.21 1089.03 196.491 1084.33 195.052C1079.68 193.613 1075.7 191.621 1072.38 189.076C1069.11 186.475 1066.59 183.459 1064.82 180.028C1063.11 176.542 1062.25 172.723 1062.25 168.573C1062.25 164.256 1063.13 160.3 1064.9 156.703C1066.68 153.106 1069.22 149.951 1072.54 147.24C1075.86 144.528 1079.87 142.453 1084.58 141.014C1089.34 139.52 1094.7 138.773 1100.68 138.773Z" fill="#0B0B0B"/>
<path d="M96.206 400.147V429.238H92.6832V403.272H78.0241V429.238H74.5014V400.147H96.206ZM111.721 429.692C109.751 429.692 108.023 429.224 106.536 428.286C105.059 427.349 103.904 426.037 103.07 424.351C102.246 422.666 101.835 420.696 101.835 418.442C101.835 416.17 102.246 414.186 103.07 412.491C103.904 410.796 105.059 409.479 106.536 408.542C108.023 407.604 109.751 407.136 111.721 407.136C113.691 407.136 115.414 407.604 116.891 408.542C118.378 409.479 119.533 410.796 120.357 412.491C121.191 414.186 121.607 416.17 121.607 418.442C121.607 420.696 121.191 422.666 120.357 424.351C119.533 426.037 118.378 427.349 116.891 428.286C115.414 429.224 113.691 429.692 111.721 429.692ZM111.721 426.681C113.217 426.681 114.448 426.297 115.414 425.53C116.38 424.763 117.095 423.755 117.559 422.505C118.023 421.255 118.255 419.901 118.255 418.442C118.255 416.984 118.023 415.625 117.559 414.366C117.095 413.106 116.38 412.088 115.414 411.312C114.448 410.535 113.217 410.147 111.721 410.147C110.225 410.147 108.994 410.535 108.028 411.312C107.062 412.088 106.347 413.106 105.883 414.366C105.419 415.625 105.187 416.984 105.187 418.442C105.187 419.901 105.419 421.255 105.883 422.505C106.347 423.755 107.062 424.763 108.028 425.53C108.994 426.297 110.225 426.681 111.721 426.681ZM138.656 424.692L146.27 407.42H149.452L140.02 429.238H137.293L128.031 407.42H131.156L138.656 424.692ZM130.077 407.42V429.238H126.724V407.42H130.077ZM147.236 429.238V407.42H150.588V429.238H147.236ZM165.588 429.692C163.618 429.692 161.89 429.224 160.403 428.286C158.926 427.349 157.771 426.037 156.938 424.351C156.114 422.666 155.702 420.696 155.702 418.442C155.702 416.17 156.114 414.186 156.938 412.491C157.771 410.796 158.926 409.479 160.403 408.542C161.89 407.604 163.618 407.136 165.588 407.136C167.558 407.136 169.281 407.604 170.759 408.542C172.245 409.479 173.401 410.796 174.224 412.491C175.058 414.186 175.474 416.17 175.474 418.442C175.474 420.696 175.058 422.666 174.224 424.351C173.401 426.037 172.245 427.349 170.759 428.286C169.281 429.224 167.558 429.692 165.588 429.692ZM165.588 426.681C167.084 426.681 168.315 426.297 169.281 425.53C170.247 424.763 170.962 423.755 171.426 422.505C171.89 421.255 172.122 419.901 172.122 418.442C172.122 416.984 171.89 415.625 171.426 414.366C170.962 413.106 170.247 412.088 169.281 411.312C168.315 410.535 167.084 410.147 165.588 410.147C164.092 410.147 162.861 410.535 161.895 411.312C160.929 412.088 160.214 413.106 159.75 414.366C159.286 415.625 159.054 416.984 159.054 418.442C159.054 419.901 159.286 421.255 159.75 422.505C160.214 423.755 160.929 424.763 161.895 425.53C162.861 426.297 164.092 426.681 165.588 426.681ZM194.058 407.42V410.545H183.944V429.238H180.592V407.42H194.058ZM204.239 429.749C202.856 429.749 201.601 429.489 200.474 428.968C199.348 428.438 198.453 427.675 197.79 426.681C197.127 425.677 196.795 424.465 196.795 423.045C196.795 421.795 197.042 420.781 197.534 420.005C198.027 419.219 198.685 418.603 199.509 418.158C200.332 417.713 201.241 417.382 202.236 417.164C203.24 416.937 204.248 416.757 205.261 416.624C206.587 416.454 207.662 416.326 208.486 416.241C209.319 416.146 209.925 415.99 210.304 415.772C210.692 415.554 210.886 415.175 210.886 414.636V414.522C210.886 413.12 210.503 412.031 209.736 411.255C208.978 410.478 207.828 410.09 206.284 410.09C204.684 410.09 203.429 410.44 202.52 411.141C201.611 411.842 200.972 412.59 200.602 413.386L197.42 412.249C197.989 410.923 198.746 409.891 199.693 409.153C200.65 408.404 201.691 407.884 202.818 407.59C203.955 407.287 205.072 407.136 206.17 407.136C206.871 407.136 207.676 407.221 208.585 407.391C209.504 407.552 210.389 407.888 211.241 408.4C212.103 408.911 212.818 409.683 213.386 410.715C213.955 411.747 214.239 413.13 214.239 414.863V429.238H210.886V426.283H210.716C210.489 426.757 210.11 427.263 209.58 427.803C209.049 428.343 208.344 428.802 207.463 429.181C206.582 429.56 205.508 429.749 204.239 429.749ZM204.75 426.738C206.076 426.738 207.193 426.477 208.102 425.957C209.021 425.436 209.712 424.763 210.176 423.939C210.65 423.116 210.886 422.249 210.886 421.34V418.272C210.744 418.442 210.432 418.599 209.949 418.741C209.475 418.873 208.926 418.992 208.301 419.096C207.686 419.19 207.084 419.276 206.497 419.351C205.92 419.418 205.451 419.475 205.091 419.522C204.22 419.636 203.405 419.82 202.648 420.076C201.9 420.322 201.294 420.696 200.83 421.198C200.375 421.69 200.148 422.363 200.148 423.215C200.148 424.38 200.579 425.261 201.44 425.857C202.312 426.444 203.415 426.738 204.75 426.738ZM223.71 424.295L234.221 407.42H238.085V429.238H234.732V412.363L224.278 429.238H220.357V407.42H223.71V424.295ZM232.005 400.147H235.13C235.13 401.681 234.6 402.936 233.539 403.911C232.478 404.886 231.039 405.374 229.221 405.374C227.431 405.374 226.006 404.886 224.945 403.911C223.894 402.936 223.369 401.681 223.369 400.147H226.494C226.494 400.886 226.697 401.534 227.104 402.093C227.521 402.652 228.227 402.931 229.221 402.931C230.215 402.931 230.925 402.652 231.352 402.093C231.787 401.534 232.005 400.886 232.005 400.147ZM258.827 424.295L269.338 407.42H273.202V429.238H269.849V412.363L259.395 429.238H255.474V407.42H258.827V424.295ZM292.751 437.42C292.183 437.42 291.676 437.372 291.231 437.278C290.786 437.192 290.478 437.107 290.308 437.022L291.16 434.067C291.974 434.276 292.694 434.351 293.319 434.295C293.944 434.238 294.498 433.958 294.981 433.457C295.473 432.964 295.923 432.164 296.33 431.056L296.955 429.351L288.887 407.42H292.523L298.546 424.806H298.773L304.796 407.42H308.433L299.171 432.42C298.754 433.547 298.238 434.479 297.623 435.218C297.007 435.966 296.292 436.52 295.478 436.88C294.673 437.24 293.764 437.42 292.751 437.42ZM329.011 407.42V429.238H325.659V407.42H329.011ZM327.705 417.817V420.942C326.947 421.226 326.194 421.477 325.446 421.695C324.698 421.904 323.912 422.069 323.088 422.192C322.264 422.306 321.36 422.363 320.375 422.363C317.903 422.363 315.92 421.695 314.423 420.36C312.937 419.025 312.193 417.022 312.193 414.351V407.363H315.545V414.351C315.545 415.469 315.759 416.387 316.185 417.107C316.611 417.827 317.188 418.362 317.918 418.712C318.647 419.063 319.466 419.238 320.375 419.238C321.795 419.238 323.079 419.11 324.224 418.854C325.38 418.589 326.54 418.243 327.705 417.817ZM341.582 429.749C340.2 429.749 338.945 429.489 337.818 428.968C336.691 428.438 335.796 427.675 335.134 426.681C334.471 425.677 334.139 424.465 334.139 423.045C334.139 421.795 334.385 420.781 334.878 420.005C335.37 419.219 336.028 418.603 336.852 418.158C337.676 417.713 338.585 417.382 339.58 417.164C340.583 416.937 341.592 416.757 342.605 416.624C343.931 416.454 345.006 416.326 345.83 416.241C346.663 416.146 347.269 415.99 347.648 415.772C348.036 415.554 348.23 415.175 348.23 414.636V414.522C348.23 413.12 347.847 412.031 347.08 411.255C346.322 410.478 345.171 410.09 343.628 410.09C342.027 410.09 340.773 410.44 339.864 411.141C338.955 411.842 338.315 412.59 337.946 413.386L334.764 412.249C335.332 410.923 336.09 409.891 337.037 409.153C337.993 408.404 339.035 407.884 340.162 407.59C341.298 407.287 342.416 407.136 343.514 407.136C344.215 407.136 345.02 407.221 345.929 407.391C346.848 407.552 347.733 407.888 348.585 408.4C349.447 408.911 350.162 409.683 350.73 410.715C351.298 411.747 351.582 413.13 351.582 414.863V429.238H348.23V426.283H348.06C347.832 426.757 347.454 427.263 346.923 427.803C346.393 428.343 345.688 428.802 344.807 429.181C343.926 429.56 342.851 429.749 341.582 429.749ZM342.094 426.738C343.42 426.738 344.537 426.477 345.446 425.957C346.365 425.436 347.056 424.763 347.52 423.939C347.993 423.116 348.23 422.249 348.23 421.34V418.272C348.088 418.442 347.776 418.599 347.293 418.741C346.819 418.873 346.27 418.992 345.645 419.096C345.029 419.19 344.428 419.276 343.841 419.351C343.263 419.418 342.795 419.475 342.435 419.522C341.563 419.636 340.749 419.82 339.991 420.076C339.243 420.322 338.637 420.696 338.173 421.198C337.719 421.69 337.491 422.363 337.491 423.215C337.491 424.38 337.922 425.261 338.784 425.857C339.655 426.444 340.759 426.738 342.094 426.738ZM357.701 429.238V407.42H366.621C368.97 407.42 370.835 407.95 372.218 409.011C373.601 410.071 374.292 411.473 374.292 413.215C374.292 414.541 373.899 415.568 373.113 416.297C372.327 417.017 371.318 417.505 370.087 417.761C370.892 417.874 371.674 418.158 372.431 418.613C373.198 419.067 373.833 419.692 374.335 420.488C374.836 421.274 375.087 422.24 375.087 423.386C375.087 424.503 374.803 425.502 374.235 426.383C373.667 427.263 372.853 427.959 371.792 428.471C370.731 428.982 369.462 429.238 367.985 429.238H357.701ZM360.883 426.17H367.985C369.14 426.17 370.045 425.895 370.698 425.346C371.352 424.797 371.678 424.048 371.678 423.101C371.678 421.975 371.352 421.089 370.698 420.445C370.045 419.792 369.14 419.465 367.985 419.465H360.883V426.17ZM360.883 416.567H366.621C367.521 416.567 368.293 416.444 368.937 416.198C369.581 415.942 370.073 415.582 370.414 415.118C370.764 414.645 370.94 414.086 370.94 413.442C370.94 412.524 370.556 411.804 369.789 411.283C369.022 410.753 367.966 410.488 366.621 410.488H360.883V416.567ZM389.026 429.692C386.98 429.692 385.219 429.209 383.741 428.243C382.264 427.278 381.128 425.947 380.332 424.252C379.537 422.557 379.139 420.62 379.139 418.442C379.139 416.226 379.546 414.271 380.361 412.576C381.185 410.871 382.33 409.541 383.798 408.584C385.276 407.618 386.999 407.136 388.969 407.136C390.503 407.136 391.885 407.42 393.116 407.988C394.348 408.556 395.356 409.351 396.142 410.374C396.928 411.397 397.416 412.59 397.605 413.954H394.253C393.997 412.959 393.429 412.079 392.548 411.312C391.677 410.535 390.503 410.147 389.026 410.147C387.719 410.147 386.573 410.488 385.588 411.17C384.613 411.842 383.85 412.794 383.301 414.025C382.761 415.246 382.491 416.681 382.491 418.329C382.491 420.014 382.757 421.482 383.287 422.732C383.827 423.982 384.584 424.953 385.56 425.644C386.545 426.335 387.7 426.681 389.026 426.681C389.897 426.681 390.688 426.529 391.398 426.226C392.108 425.923 392.709 425.488 393.202 424.92C393.694 424.351 394.045 423.67 394.253 422.874H397.605C397.416 424.162 396.947 425.322 396.199 426.354C395.46 427.377 394.48 428.191 393.259 428.797C392.046 429.394 390.635 429.692 389.026 429.692ZM400.787 410.545V407.42H418.514V410.545H411.355V429.238H408.003V410.545H400.787ZM423.404 429.238V407.42H432.325C434.673 407.42 436.539 407.95 437.921 409.011C439.304 410.071 439.995 411.473 439.995 413.215C439.995 414.541 439.602 415.568 438.816 416.297C438.03 417.017 437.022 417.505 435.79 417.761C436.595 417.874 437.377 418.158 438.134 418.613C438.901 419.067 439.536 419.692 440.038 420.488C440.54 421.274 440.79 422.24 440.79 423.386C440.79 424.503 440.506 425.502 439.938 426.383C439.37 427.263 438.556 427.959 437.495 428.471C436.434 428.982 435.165 429.238 433.688 429.238H423.404ZM426.586 426.17H433.688C434.844 426.17 435.748 425.895 436.401 425.346C437.055 424.797 437.381 424.048 437.381 423.101C437.381 421.975 437.055 421.089 436.401 420.445C435.748 419.792 434.844 419.465 433.688 419.465H426.586V426.17ZM426.586 416.567H432.325C433.224 416.567 433.996 416.444 434.64 416.198C435.284 415.942 435.776 415.582 436.117 415.118C436.468 414.645 436.643 414.086 436.643 413.442C436.643 412.524 436.259 411.804 435.492 411.283C434.725 410.753 433.669 410.488 432.325 410.488H426.586V416.567ZM448.024 437.42C447.456 437.42 446.949 437.372 446.504 437.278C446.059 437.192 445.751 437.107 445.581 437.022L446.433 434.067C447.248 434.276 447.967 434.351 448.592 434.295C449.217 434.238 449.771 433.958 450.254 433.457C450.747 432.964 451.196 432.164 451.604 431.056L452.229 429.351L444.161 407.42H447.797L453.82 424.806H454.047L460.07 407.42H463.706L454.445 432.42C454.028 433.547 453.512 434.479 452.896 435.218C452.281 435.966 451.566 436.52 450.751 436.88C449.946 437.24 449.037 437.42 448.024 437.42ZM471.483 424.295L481.994 407.42H485.858V429.238H482.506V412.363L472.051 429.238H468.131V407.42H471.483V424.295ZM479.778 400.147H482.903C482.903 401.681 482.373 402.936 481.312 403.911C480.252 404.886 478.813 405.374 476.994 405.374C475.205 405.374 473.779 404.886 472.719 403.911C471.668 402.936 471.142 401.681 471.142 400.147H474.267C474.267 400.886 474.471 401.534 474.878 402.093C475.295 402.652 476 402.931 476.994 402.931C477.989 402.931 478.699 402.652 479.125 402.093C479.561 401.534 479.778 400.886 479.778 400.147ZM73.9901 477.238V455.42H82.9105C85.259 455.42 87.1245 455.95 88.5071 457.011C89.8897 458.071 90.581 459.473 90.581 461.215C90.581 462.541 90.188 463.568 89.402 464.297C88.616 465.017 87.6075 465.505 86.3764 465.761C87.1813 465.874 87.9626 466.158 88.7202 466.613C89.4872 467.067 90.1217 467.692 90.6236 468.488C91.1255 469.274 91.3764 470.24 91.3764 471.386C91.3764 472.503 91.0923 473.502 90.5241 474.383C89.956 475.263 89.1416 475.959 88.081 476.471C87.0204 476.982 85.7514 477.238 84.2741 477.238H73.9901ZM77.1719 474.17H84.2741C85.4295 474.17 86.3338 473.895 86.9872 473.346C87.6406 472.797 87.9673 472.048 87.9673 471.101C87.9673 469.975 87.6406 469.089 86.9872 468.445C86.3338 467.792 85.4295 467.465 84.2741 467.465H77.1719V474.17ZM77.1719 464.567H82.9105C83.8101 464.567 84.5819 464.444 85.2259 464.198C85.8698 463.942 86.3622 463.582 86.7031 463.118C87.0535 462.645 87.2287 462.086 87.2287 461.442C87.2287 460.524 86.8452 459.804 86.0781 459.283C85.3111 458.753 84.2552 458.488 82.9105 458.488H77.1719V464.567ZM105.315 477.692C103.345 477.692 101.617 477.224 100.13 476.286C98.6527 475.349 97.4974 474.037 96.6641 472.351C95.8402 470.666 95.4283 468.696 95.4283 466.442C95.4283 464.17 95.8402 462.186 96.6641 460.491C97.4974 458.796 98.6527 457.479 100.13 456.542C101.617 455.604 103.345 455.136 105.315 455.136C107.284 455.136 109.008 455.604 110.485 456.542C111.972 457.479 113.127 458.796 113.951 460.491C114.784 462.186 115.201 464.17 115.201 466.442C115.201 468.696 114.784 470.666 113.951 472.351C113.127 474.037 111.972 475.349 110.485 476.286C109.008 477.224 107.284 477.692 105.315 477.692ZM105.315 474.681C106.811 474.681 108.042 474.297 109.008 473.53C109.974 472.763 110.689 471.755 111.153 470.505C111.617 469.255 111.849 467.901 111.849 466.442C111.849 464.984 111.617 463.625 111.153 462.366C110.689 461.106 109.974 460.088 109.008 459.312C108.042 458.535 106.811 458.147 105.315 458.147C103.818 458.147 102.587 458.535 101.621 459.312C100.656 460.088 99.9406 461.106 99.4766 462.366C99.0125 463.625 98.7805 464.984 98.7805 466.442C98.7805 467.901 99.0125 469.255 99.4766 470.505C99.9406 471.755 100.656 472.763 101.621 473.53C102.587 474.297 103.818 474.681 105.315 474.681ZM131.568 477.238V455.42H140.489C142.837 455.42 144.703 455.95 146.085 457.011C147.468 458.071 148.159 459.473 148.159 461.215C148.159 462.541 147.766 463.568 146.98 464.297C146.194 465.017 145.186 465.505 143.955 465.761C144.759 465.874 145.541 466.158 146.298 466.613C147.065 467.067 147.7 467.692 148.202 468.488C148.704 469.274 148.955 470.24 148.955 471.386C148.955 472.503 148.67 473.502 148.102 474.383C147.534 475.263 146.72 475.959 145.659 476.471C144.598 476.982 143.33 477.238 141.852 477.238H131.568ZM134.75 474.17H141.852C143.008 474.17 143.912 473.895 144.565 473.346C145.219 472.797 145.545 472.048 145.545 471.101C145.545 469.975 145.219 469.089 144.565 468.445C143.912 467.792 143.008 467.465 141.852 467.465H134.75V474.17ZM134.75 464.567H140.489C141.388 464.567 142.16 464.444 142.804 464.198C143.448 463.942 143.94 463.582 144.281 463.118C144.632 462.645 144.807 462.086 144.807 461.442C144.807 460.524 144.423 459.804 143.656 459.283C142.889 458.753 141.833 458.488 140.489 458.488H134.75V464.567ZM168.631 464.795V467.92H156.586V464.795H168.631ZM157.381 455.42V477.238H154.029V455.42H157.381ZM171.188 455.42V477.238H167.836V455.42H171.188ZM178.688 485.42C178.12 485.42 177.613 485.372 177.168 485.278C176.723 485.192 176.415 485.107 176.245 485.022L177.097 482.067C177.912 482.276 178.631 482.351 179.256 482.295C179.881 482.238 180.435 481.958 180.918 481.457C181.411 480.964 181.861 480.164 182.268 479.056L182.893 477.351L174.825 455.42H178.461L184.484 472.806H184.711L190.734 455.42H194.37L185.109 480.42C184.692 481.547 184.176 482.479 183.56 483.218C182.945 483.966 182.23 484.52 181.415 484.88C180.611 485.24 179.701 485.42 178.688 485.42ZM197.545 458.545V455.42H215.272V458.545H208.113V477.238H204.761V458.545H197.545ZM220.162 485.42V455.42H223.401V458.886H223.798C224.045 458.507 224.385 458.024 224.821 457.437C225.266 456.84 225.901 456.31 226.724 455.846C227.558 455.372 228.685 455.136 230.105 455.136C231.942 455.136 233.562 455.595 234.963 456.513C236.365 457.432 237.458 458.734 238.244 460.42C239.03 462.105 239.423 464.094 239.423 466.386C239.423 468.696 239.03 470.699 238.244 472.394C237.458 474.08 236.369 475.386 234.977 476.314C233.585 477.233 231.98 477.692 230.162 477.692C228.76 477.692 227.638 477.46 226.795 476.996C225.953 476.523 225.304 475.988 224.849 475.391C224.395 474.785 224.045 474.283 223.798 473.886H223.514V485.42H220.162ZM223.457 466.329C223.457 467.976 223.699 469.43 224.182 470.689C224.665 471.939 225.37 472.92 226.298 473.63C227.226 474.331 228.363 474.681 229.707 474.681C231.109 474.681 232.278 474.312 233.216 473.573C234.163 472.825 234.873 471.821 235.347 470.562C235.83 469.293 236.071 467.882 236.071 466.329C236.071 464.795 235.834 463.412 235.361 462.181C234.897 460.94 234.191 459.96 233.244 459.241C232.307 458.511 231.128 458.147 229.707 458.147C228.344 458.147 227.198 458.493 226.27 459.184C225.342 459.866 224.641 460.822 224.168 462.053C223.694 463.275 223.457 464.7 223.457 466.329ZM253.685 477.692C251.582 477.692 249.769 477.228 248.244 476.3C246.729 475.363 245.56 474.056 244.736 472.38C243.921 470.694 243.514 468.734 243.514 466.499C243.514 464.264 243.921 462.295 244.736 460.59C245.56 458.876 246.705 457.541 248.173 456.584C249.651 455.618 251.374 455.136 253.344 455.136C254.48 455.136 255.602 455.325 256.71 455.704C257.818 456.082 258.827 456.698 259.736 457.55C260.645 458.393 261.369 459.511 261.909 460.903C262.449 462.295 262.719 464.009 262.719 466.045V467.465H245.901V464.567H259.31C259.31 463.336 259.063 462.238 258.571 461.272C258.088 460.306 257.397 459.544 256.497 458.985C255.607 458.426 254.556 458.147 253.344 458.147C252.009 458.147 250.853 458.478 249.878 459.141C248.912 459.795 248.169 460.647 247.648 461.698C247.127 462.749 246.866 463.876 246.866 465.079V467.011C246.866 468.658 247.151 470.055 247.719 471.201C248.296 472.337 249.097 473.204 250.119 473.8C251.142 474.387 252.33 474.681 253.685 474.681C254.565 474.681 255.361 474.558 256.071 474.312C256.791 474.056 257.411 473.677 257.932 473.175C258.453 472.664 258.855 472.029 259.139 471.272L262.378 472.181C262.037 473.279 261.464 474.245 260.659 475.079C259.854 475.903 258.86 476.547 257.676 477.011C256.492 477.465 255.162 477.692 253.685 477.692ZM282.42 464.795V467.92H270.375V464.795H282.42ZM271.17 455.42V477.238H267.818V455.42H271.17ZM284.977 455.42V477.238H281.625V455.42H284.977ZM305.702 464.795V467.92H293.656V464.795H305.702ZM294.452 455.42V477.238H291.099V455.42H294.452ZM308.259 455.42V477.238H304.906V455.42H308.259ZM317.733 472.295L328.244 455.42H332.108V477.238H328.756V460.363L318.301 477.238H314.381V455.42H317.733V472.295ZM340.748 455.42L345.975 464.34L351.202 455.42H355.066L348.021 466.329L355.066 477.238H351.202L345.975 468.772L340.748 477.238H336.884L343.816 466.329L336.884 455.42H340.748ZM374.452 472.295L384.963 455.42H388.827V477.238H385.474V460.363L375.02 477.238H371.099V455.42H374.452V472.295ZM406.217 477.238V455.42H415.137C417.486 455.42 419.351 455.95 420.734 457.011C422.116 458.071 422.808 459.473 422.808 461.215C422.808 462.541 422.415 463.568 421.629 464.297C420.843 465.017 419.834 465.505 418.603 465.761C419.408 465.874 420.189 466.158 420.947 466.613C421.714 467.067 422.348 467.692 422.85 468.488C423.352 469.274 423.603 470.24 423.603 471.386C423.603 472.503 423.319 473.502 422.751 474.383C422.183 475.263 421.368 475.959 420.308 476.471C419.247 476.982 417.978 477.238 416.501 477.238H406.217ZM409.398 474.17H416.501C417.656 474.17 418.56 473.895 419.214 473.346C419.867 472.797 420.194 472.048 420.194 471.101C420.194 469.975 419.867 469.089 419.214 468.445C418.56 467.792 417.656 467.465 416.501 467.465H409.398V474.17ZM409.398 464.567H415.137C416.037 464.567 416.808 464.444 417.452 464.198C418.096 463.942 418.589 463.582 418.93 463.118C419.28 462.645 419.455 462.086 419.455 461.442C419.455 460.524 419.072 459.804 418.305 459.283C417.538 458.753 416.482 458.488 415.137 458.488H409.398V464.567ZM443.28 464.795V467.92H431.234V464.795H443.28ZM432.03 455.42V477.238H428.678V455.42H432.03ZM445.837 455.42V477.238H442.484V455.42H445.837ZM461.107 477.692C459.004 477.692 457.191 477.228 455.666 476.3C454.151 475.363 452.982 474.056 452.158 472.38C451.343 470.694 450.936 468.734 450.936 466.499C450.936 464.264 451.343 462.295 452.158 460.59C452.982 458.876 454.127 457.541 455.595 456.584C457.072 455.618 458.796 455.136 460.766 455.136C461.902 455.136 463.024 455.325 464.132 455.704C465.24 456.082 466.249 456.698 467.158 457.55C468.067 458.393 468.791 459.511 469.331 460.903C469.871 462.295 470.141 464.009 470.141 466.045V467.465H453.322V464.567H466.732C466.732 463.336 466.485 462.238 465.993 461.272C465.51 460.306 464.819 459.544 463.919 458.985C463.029 458.426 461.978 458.147 460.766 458.147C459.43 458.147 458.275 458.478 457.3 459.141C456.334 459.795 455.59 460.647 455.07 461.698C454.549 462.749 454.288 463.876 454.288 465.079V467.011C454.288 468.658 454.572 470.055 455.141 471.201C455.718 472.337 456.518 473.204 457.541 473.8C458.564 474.387 459.752 474.681 461.107 474.681C461.987 474.681 462.783 474.558 463.493 474.312C464.213 474.056 464.833 473.677 465.354 473.175C465.875 472.664 466.277 472.029 466.561 471.272L469.8 472.181C469.459 473.279 468.886 474.245 468.081 475.079C467.276 475.903 466.282 476.547 465.098 477.011C463.914 477.465 462.584 477.692 461.107 477.692ZM475.24 455.42H478.592V474.113H486.831V455.42H490.183V474.113H498.422V455.42H501.774V477.238H475.24V455.42ZM522.499 464.795V467.92H510.453V464.795H522.499ZM511.249 455.42V477.238H507.896V455.42H511.249ZM525.055 455.42V477.238H521.703V455.42H525.055ZM534.53 472.295L545.041 455.42H548.905V477.238H545.553V460.363L535.098 477.238H531.178V455.42H534.53V472.295ZM557.545 455.42L562.772 464.34L567.999 455.42H571.863L564.817 466.329L571.863 477.238H567.999L562.772 468.772L557.545 477.238H553.681L560.613 466.329L553.681 455.42H557.545ZM82.8537 525.692C80.8082 525.692 79.0469 525.209 77.5696 524.243C76.0923 523.278 74.956 521.947 74.1605 520.252C73.3651 518.557 72.9673 516.62 72.9673 514.442C72.9673 512.226 73.3745 510.271 74.1889 508.576C75.0128 506.871 76.1586 505.541 77.6264 504.584C79.1037 503.618 80.8272 503.136 82.7969 503.136C84.331 503.136 85.7135 503.42 86.9446 503.988C88.1757 504.556 89.1842 505.351 89.9702 506.374C90.7562 507.397 91.2438 508.59 91.4332 509.954H88.081C87.8253 508.959 87.2571 508.079 86.3764 507.312C85.5052 506.535 84.331 506.147 82.8537 506.147C81.5469 506.147 80.401 506.488 79.4162 507.17C78.4408 507.842 77.6785 508.794 77.1293 510.025C76.5895 511.246 76.3196 512.681 76.3196 514.329C76.3196 516.014 76.5848 517.482 77.1151 518.732C77.6548 519.982 78.4124 520.953 79.3878 521.644C80.3726 522.335 81.5279 522.681 82.8537 522.681C83.7249 522.681 84.5156 522.529 85.2259 522.226C85.9361 521.923 86.5374 521.488 87.0298 520.92C87.5223 520.351 87.8726 519.67 88.081 518.874H91.4332C91.2438 520.162 90.7751 521.322 90.027 522.354C89.2884 523.377 88.3082 524.191 87.0866 524.797C85.8745 525.394 84.4635 525.692 82.8537 525.692ZM105.197 525.692C103.228 525.692 101.5 525.224 100.013 524.286C98.5355 523.349 97.3802 522.037 96.5469 520.351C95.723 518.666 95.3111 516.696 95.3111 514.442C95.3111 512.17 95.723 510.186 96.5469 508.491C97.3802 506.796 98.5355 505.479 100.013 504.542C101.5 503.604 103.228 503.136 105.197 503.136C107.167 503.136 108.891 503.604 110.368 504.542C111.855 505.479 113.01 506.796 113.834 508.491C114.667 510.186 115.084 512.17 115.084 514.442C115.084 516.696 114.667 518.666 113.834 520.351C113.01 522.037 111.855 523.349 110.368 524.286C108.891 525.224 107.167 525.692 105.197 525.692ZM105.197 522.681C106.694 522.681 107.925 522.297 108.891 521.53C109.857 520.763 110.571 519.755 111.036 518.505C111.5 517.255 111.732 515.901 111.732 514.442C111.732 512.984 111.5 511.625 111.036 510.366C110.571 509.106 109.857 508.088 108.891 507.312C107.925 506.535 106.694 506.147 105.197 506.147C103.701 506.147 102.47 506.535 101.504 507.312C100.538 508.088 99.8234 509.106 99.3594 510.366C98.8954 511.625 98.6634 512.984 98.6634 514.442C98.6634 515.901 98.8954 517.255 99.3594 518.505C99.8234 519.755 100.538 520.763 101.504 521.53C102.47 522.297 103.701 522.681 105.197 522.681ZM136.394 495.238L138.099 497.283C137.436 497.927 136.669 498.377 135.798 498.633C134.926 498.888 133.942 499.045 132.843 499.101C131.745 499.158 130.523 499.215 129.178 499.272C127.663 499.329 126.408 499.698 125.414 500.38C124.42 501.062 123.653 502.047 123.113 503.334C122.573 504.622 122.228 506.204 122.076 508.079H122.36C123.099 506.715 124.121 505.711 125.428 505.067C126.735 504.423 128.137 504.101 129.633 504.101C131.337 504.101 132.871 504.499 134.235 505.295C135.599 506.09 136.678 507.269 137.474 508.832C138.269 510.394 138.667 512.321 138.667 514.613C138.667 516.895 138.26 518.865 137.445 520.522C136.64 522.179 135.509 523.457 134.05 524.357C132.602 525.247 130.902 525.692 128.951 525.692C127 525.692 125.291 525.233 123.823 524.314C122.355 523.386 121.214 522.013 120.4 520.195C119.585 518.368 119.178 516.109 119.178 513.42V511.09C119.178 506.232 120.002 502.548 121.65 500.039C123.307 497.529 125.798 496.232 129.121 496.147C130.296 496.109 131.342 496.1 132.261 496.118C133.179 496.137 133.979 496.095 134.661 495.991C135.343 495.886 135.921 495.636 136.394 495.238ZM128.951 522.681C130.267 522.681 131.399 522.35 132.346 521.687C133.302 521.024 134.036 520.091 134.548 518.888C135.059 517.676 135.315 516.251 135.315 514.613C135.315 513.022 135.054 511.668 134.533 510.55C134.022 509.433 133.288 508.581 132.332 507.993C131.375 507.406 130.229 507.113 128.894 507.113C127.919 507.113 127.043 507.279 126.266 507.61C125.49 507.941 124.827 508.429 124.278 509.073C123.728 509.717 123.302 510.503 122.999 511.431C122.706 512.359 122.549 513.42 122.531 514.613C122.531 517.056 123.103 519.011 124.249 520.479C125.395 521.947 126.962 522.681 128.951 522.681ZM146.692 511.317H152.942C155.499 511.317 157.455 511.966 158.809 513.263C160.163 514.561 160.84 516.204 160.84 518.192C160.84 519.499 160.537 520.688 159.931 521.758C159.325 522.818 158.435 523.666 157.261 524.3C156.086 524.925 154.647 525.238 152.942 525.238H143.795V503.42H147.147V522.113H152.942C154.268 522.113 155.357 521.762 156.21 521.062C157.062 520.361 157.488 519.461 157.488 518.363C157.488 517.207 157.062 516.265 156.21 515.536C155.357 514.807 154.268 514.442 152.942 514.442H146.692V511.317ZM164.306 525.238V503.42H167.658V525.238H164.306ZM172.545 506.545V503.42H190.272V506.545H183.113V525.238H179.761V506.545H172.545ZM198.514 520.295L209.026 503.42H212.889V525.238H209.537V508.363L199.082 525.238H195.162V503.42H198.514V520.295ZM232.154 525.238V506.488H226.359C225.052 506.488 224.024 506.791 223.276 507.397C222.528 508.003 222.154 508.836 222.154 509.897C222.154 510.939 222.49 511.758 223.163 512.354C223.844 512.951 224.777 513.249 225.961 513.249H233.006V516.374H225.961C224.484 516.374 223.21 516.114 222.14 515.593C221.07 515.072 220.246 514.329 219.668 513.363C219.091 512.387 218.802 511.232 218.802 509.897C218.802 508.552 219.105 507.397 219.711 506.431C220.317 505.465 221.183 504.722 222.31 504.201C223.447 503.68 224.796 503.42 226.359 503.42H235.336V525.238H232.154ZM217.609 525.238L223.802 514.386H227.438L221.245 525.238H217.609ZM243.99 503.42L249.217 512.34L254.445 503.42H258.308L251.263 514.329L258.308 525.238H254.445L249.217 516.772L243.99 525.238H240.126L247.058 514.329L240.126 503.42H243.99ZM274.342 525.238V503.42H277.694V512.908H279.91L287.751 503.42H292.069L283.262 513.931L292.183 525.238H287.864L280.705 516.033H277.694V525.238H274.342ZM303.791 525.692C301.821 525.692 300.093 525.224 298.607 524.286C297.129 523.349 295.974 522.037 295.141 520.351C294.317 518.666 293.905 516.696 293.905 514.442C293.905 512.17 294.317 510.186 295.141 508.491C295.974 506.796 297.129 505.479 298.607 504.542C300.093 503.604 301.821 503.136 303.791 503.136C305.761 503.136 307.484 503.604 308.962 504.542C310.448 505.479 311.604 506.796 312.428 508.491C313.261 510.186 313.678 512.17 313.678 514.442C313.678 516.696 313.261 518.666 312.428 520.351C311.604 522.037 310.448 523.349 308.962 524.286C307.484 525.224 305.761 525.692 303.791 525.692ZM303.791 522.681C305.287 522.681 306.518 522.297 307.484 521.53C308.45 520.763 309.165 519.755 309.629 518.505C310.093 517.255 310.325 515.901 310.325 514.442C310.325 512.984 310.093 511.625 309.629 510.366C309.165 509.106 308.45 508.088 307.484 507.312C306.518 506.535 305.287 506.147 303.791 506.147C302.295 506.147 301.064 506.535 300.098 507.312C299.132 508.088 298.417 509.106 297.953 510.366C297.489 511.625 297.257 512.984 297.257 514.442C297.257 515.901 297.489 517.255 297.953 518.505C298.417 519.755 299.132 520.763 300.098 521.53C301.064 522.297 302.295 522.681 303.791 522.681ZM330.727 520.692L338.34 503.42H341.522L332.09 525.238H329.363L320.102 503.42H323.227L330.727 520.692ZM322.147 503.42V525.238H318.795V503.42H322.147ZM339.306 525.238V503.42H342.658V525.238H339.306ZM348.795 525.238V503.42H365.954V525.238H362.602V506.545H352.147V525.238H348.795ZM378.496 525.749C377.114 525.749 375.859 525.489 374.732 524.968C373.605 524.438 372.71 523.675 372.048 522.681C371.385 521.677 371.053 520.465 371.053 519.045C371.053 517.795 371.299 516.781 371.792 516.005C372.284 515.219 372.942 514.603 373.766 514.158C374.59 513.713 375.499 513.382 376.494 513.164C377.497 512.937 378.506 512.757 379.519 512.624C380.845 512.454 381.92 512.326 382.744 512.241C383.577 512.146 384.183 511.99 384.562 511.772C384.95 511.554 385.144 511.175 385.144 510.636V510.522C385.144 509.12 384.761 508.031 383.994 507.255C383.236 506.478 382.085 506.09 380.542 506.09C378.942 506.09 377.687 506.44 376.778 507.141C375.869 507.842 375.229 508.59 374.86 509.386L371.678 508.249C372.246 506.923 373.004 505.891 373.951 505.153C374.907 504.404 375.949 503.884 377.076 503.59C378.212 503.287 379.33 503.136 380.428 503.136C381.129 503.136 381.934 503.221 382.843 503.391C383.762 503.552 384.647 503.888 385.499 504.4C386.361 504.911 387.076 505.683 387.644 506.715C388.212 507.747 388.496 509.13 388.496 510.863V525.238H385.144V522.283H384.974C384.746 522.757 384.368 523.263 383.837 523.803C383.307 524.343 382.602 524.802 381.721 525.181C380.84 525.56 379.765 525.749 378.496 525.749ZM379.008 522.738C380.334 522.738 381.451 522.477 382.36 521.957C383.279 521.436 383.97 520.763 384.434 519.939C384.907 519.116 385.144 518.249 385.144 517.34V514.272C385.002 514.442 384.69 514.599 384.207 514.741C383.733 514.873 383.184 514.992 382.559 515.096C381.943 515.19 381.342 515.276 380.755 515.351C380.177 515.418 379.709 515.475 379.349 515.522C378.478 515.636 377.663 515.82 376.906 516.076C376.157 516.322 375.551 516.696 375.087 517.198C374.633 517.69 374.406 518.363 374.406 519.215C374.406 520.38 374.836 521.261 375.698 521.857C376.569 522.444 377.673 522.738 379.008 522.738ZM409.217 512.795V515.92H397.172V512.795H409.217ZM397.967 503.42V525.238H394.615V503.42H397.967ZM411.774 503.42V525.238H408.422V503.42H411.774ZM421.249 520.295L431.76 503.42H435.624V525.238H432.271V508.363L421.817 525.238H417.896V503.42H421.249V520.295ZM445.116 520.295L455.627 503.42H459.491V525.238H456.138V508.363L445.684 525.238H441.763V503.42H445.116V520.295Z" fill="black"/>
<path d="M1357.99 267.308C1372.9 166.997 1582.66 190.168 1706.15 285.981C1723.65 321.006 1740.48 398.502 1667.79 428.291C1576.92 465.527 1343.07 367.62 1357.99 267.308Z" fill="#F4F4F4"/>
<path d="M1135.27 510.98C1097.27 354.597 1169.96 258.42 1247.54 322.323C1267.62 362.835 1305.47 466.057 1296.29 554.858C1284.82 665.858 1173.27 667.363 1135.27 510.98Z" fill="#F4F4F4"/>
<path fill-rule="evenodd" clip-rule="evenodd" d="M1412.32 542.012C1324.59 579.845 1219.84 558.96 1134.91 508.183L1137.5 503.927C1221.56 554.186 1324.54 574.429 1410.3 537.45C1495.9 500.538 1565.23 406.204 1581.19 225.361L1586.2 225.814C1570.14 407.693 1500.22 504.112 1412.32 542.012Z" fill="#787878"/>
<path fill-rule="evenodd" clip-rule="evenodd" d="M1397.55 537.706C1401.06 536.421 1404.54 535.043 1408 533.571C1428.77 524.723 1448.46 512.481 1466.59 496.462L1466.83 496.32L1480.05 591.409L1397.55 537.706ZM1299.24 551.275C1322.98 552.655 1346.53 551.04 1369.32 545.96L1372.14 545.746L1341.69 637.285L1290.93 551.905L1299.24 551.275ZM1495.02 466.496C1505.74 453.105 1515.65 437.978 1524.62 421.006L1533.92 406.713L1590 484.865L1489.83 474.477L1495.02 466.496ZM1189.58 524.936C1211.29 534.002 1233.66 541.026 1256.19 545.606L1257.01 545.858L1194.26 619.95L1179.56 521.825L1189.58 524.936ZM1542.99 385.999L1642.65 370.16L1567.63 309.374L1542.99 385.999Z" fill="#FF9900"/>
<path fill-rule="evenodd" clip-rule="evenodd" d="M1483.66 208.101C1465.27 339.051 1324.56 439.031 1131.6 390.364L1132.87 385.559C1323.56 433.654 1460.78 334.827 1478.67 207.438L1483.66 208.101Z" fill="#787878"/>
<path fill-rule="evenodd" clip-rule="evenodd" d="M1392.35 343.791C1395.34 341.567 1398.28 339.262 1401.16 336.875C1418.48 322.53 1433.78 305.256 1446.46 284.831L1446.73 284.556L1487.31 371.595L1392.35 343.791ZM1302 384.733C1325.16 379.297 1347.27 371.057 1367.64 359.734L1370.34 358.705L1367.97 454.781L1294.2 387.702L1302 384.733ZM1188.91 390.794C1212.45 393.283 1236.04 393.623 1259.06 391.574L1259.87 391.583L1221.38 480.193L1178.49 390.678L1188.91 390.794Z" fill="#FF9900"/>
</svg>
