<svg width="1874" height="729" viewBox="0 0 1874 729" fill="none" xmlns="http://www.w3.org/2000/svg">
<rect x="0.078125" width="1873" height="729" rx="29" fill="#F89C1C"/>
<path d="M180.238 105.378V226.238H155.336V124.885H106.776V226.238H81.874V105.378H180.238ZM196.674 182.244V180.5C196.674 173.915 197.615 167.856 199.496 162.322C201.378 156.733 204.117 151.89 207.714 147.795C211.311 143.7 215.738 140.518 220.995 138.25C226.252 135.925 232.284 134.763 239.091 134.763C245.897 134.763 251.957 135.925 257.27 138.25C262.582 140.518 267.037 143.7 270.634 147.795C274.286 151.89 277.053 156.733 278.935 162.322C280.816 167.856 281.757 173.915 281.757 180.5V182.244C281.757 188.774 280.816 194.833 278.935 200.422C277.053 205.956 274.286 210.798 270.634 214.949C267.037 219.044 262.61 222.226 257.353 224.495C252.095 226.764 246.063 227.898 239.257 227.898C232.45 227.898 226.391 226.764 221.078 224.495C215.821 222.226 211.366 219.044 207.714 214.949C204.117 210.798 201.378 205.956 199.496 200.422C197.615 194.833 196.674 188.774 196.674 182.244ZM220.58 180.5V182.244C220.58 186.007 220.912 189.521 221.576 192.786C222.24 196.051 223.292 198.928 224.73 201.418C226.225 203.853 228.161 205.763 230.541 207.146C232.921 208.529 235.826 209.221 239.257 209.221C242.577 209.221 245.427 208.529 247.807 207.146C250.186 205.763 252.095 203.853 253.534 201.418C254.973 198.928 256.024 196.051 256.688 192.786C257.408 189.521 257.768 186.007 257.768 182.244V180.5C257.768 176.848 257.408 173.417 256.688 170.208C256.024 166.943 254.945 164.065 253.451 161.575C252.012 159.029 250.103 157.037 247.724 155.598C245.344 154.159 242.466 153.44 239.091 153.44C235.715 153.44 232.838 154.159 230.458 155.598C228.134 157.037 226.225 159.029 224.73 161.575C223.292 164.065 222.24 166.943 221.576 170.208C220.912 173.417 220.58 176.848 220.58 180.5ZM333.554 209.221C336.487 209.221 339.088 208.668 341.356 207.561C343.625 206.399 345.396 204.794 346.669 202.747C347.997 200.644 348.689 198.181 348.744 195.359H371.239C371.184 201.667 369.496 207.284 366.176 212.209C362.855 217.079 358.401 220.925 352.812 223.748C347.222 226.514 340.969 227.898 334.052 227.898C327.079 227.898 320.992 226.736 315.79 224.412C310.644 222.087 306.355 218.878 302.924 214.783C299.493 210.632 296.92 205.818 295.204 200.339C293.489 194.806 292.631 188.884 292.631 182.576V180.168C292.631 173.805 293.489 167.883 295.204 162.405C296.92 156.871 299.493 152.056 302.924 147.961C306.355 143.811 310.644 140.574 315.79 138.25C320.937 135.925 326.968 134.763 333.886 134.763C341.246 134.763 347.693 136.174 353.227 138.997C358.816 141.819 363.188 145.859 366.342 151.116C369.551 156.318 371.184 162.488 371.239 169.626H348.744C348.689 166.638 348.052 163.927 346.835 161.492C345.673 159.057 343.957 157.12 341.688 155.681C339.475 154.187 336.736 153.44 333.471 153.44C329.984 153.44 327.134 154.187 324.921 155.681C322.707 157.12 320.992 159.112 319.774 161.658C318.557 164.148 317.699 166.998 317.201 170.208C316.758 173.362 316.537 176.682 316.537 180.168V182.576C316.537 186.062 316.758 189.41 317.201 192.62C317.644 195.829 318.474 198.679 319.691 201.169C320.964 203.66 322.707 205.624 324.921 207.063C327.134 208.502 330.012 209.221 333.554 209.221ZM430.839 136.423V226.238H406.85V136.423H430.839ZM459.726 136.423V154.934H378.378V136.423H459.726ZM488.446 163.069H514.511C522.701 163.069 529.674 164.425 535.429 167.136C541.239 169.792 545.666 173.5 548.71 178.259C551.809 183.018 553.358 188.525 553.358 194.778C553.358 199.316 552.473 203.521 550.702 207.395C548.987 211.213 546.469 214.534 543.148 217.356C539.828 220.178 535.761 222.364 530.946 223.914C526.132 225.463 520.653 226.238 514.511 226.238H473.505V136.423H497.494V207.644H514.511C518.108 207.644 520.985 207.063 523.144 205.901C525.357 204.683 526.962 203.106 527.958 201.169C529.009 199.233 529.535 197.13 529.535 194.861C529.535 192.481 529.009 190.323 527.958 188.386C526.962 186.394 525.357 184.789 523.144 183.572C520.985 182.354 518.108 181.746 514.511 181.746H488.446V163.069ZM591.708 136.423V226.238H567.802V136.423H591.708ZM699.784 188.718H671.645L671.479 173.03H694.721C697.82 173.03 700.338 172.725 702.274 172.117C704.211 171.453 705.622 170.484 706.508 169.211C707.449 167.883 707.919 166.278 707.919 164.397C707.919 162.737 707.615 161.326 707.006 160.164C706.452 158.946 705.595 157.95 704.433 157.175C703.271 156.401 701.804 155.847 700.033 155.515C698.318 155.128 696.298 154.934 693.974 154.934H680.526V226.238H656.62V136.423H693.974C699.84 136.423 705.097 136.949 709.745 138C714.394 138.997 718.35 140.518 721.615 142.566C724.936 144.613 727.453 147.214 729.169 150.369C730.94 153.468 731.825 157.148 731.825 161.409C731.825 164.176 731.189 166.777 729.916 169.211C728.699 171.646 726.872 173.805 724.438 175.686C722.003 177.568 718.987 179.117 715.39 180.334C711.848 181.497 707.753 182.216 703.104 182.493L699.784 188.718ZM699.784 226.238H665.751L673.969 207.727H699.784C702.717 207.727 705.124 207.367 707.006 206.648C708.887 205.929 710.271 204.877 711.156 203.494C712.097 202.055 712.567 200.339 712.567 198.347C712.567 196.41 712.152 194.722 711.322 193.284C710.492 191.845 709.136 190.738 707.255 189.963C705.429 189.133 702.938 188.718 699.784 188.718H677.455L677.621 173.03H703.021L708.832 179.338C715.141 179.726 720.342 180.916 724.438 182.908C728.533 184.9 731.549 187.445 733.485 190.544C735.478 193.588 736.474 196.936 736.474 200.588C736.474 204.849 735.671 208.585 734.066 211.794C732.462 215.004 730.082 217.688 726.928 219.846C723.829 221.949 720.01 223.554 715.473 224.661C710.935 225.712 705.705 226.238 699.784 226.238ZM830.604 209.221C833.537 209.221 836.138 208.668 838.407 207.561C840.676 206.399 842.447 204.794 843.72 202.747C845.048 200.644 845.74 198.181 845.795 195.359H868.29C868.235 201.667 866.547 207.284 863.227 212.209C859.906 217.079 855.451 220.925 849.862 223.748C844.273 226.514 838.02 227.898 831.103 227.898C824.13 227.898 818.043 226.736 812.841 224.412C807.694 222.087 803.406 218.878 799.975 214.783C796.544 210.632 793.97 205.818 792.255 200.339C790.539 194.806 789.682 188.884 789.682 182.576V180.168C789.682 173.805 790.539 167.883 792.255 162.405C793.97 156.871 796.544 152.056 799.975 147.961C803.406 143.811 807.694 140.574 812.841 138.25C817.987 135.925 824.019 134.763 830.937 134.763C838.297 134.763 844.743 136.174 850.277 138.997C855.867 141.819 860.238 145.859 863.393 151.116C866.602 156.318 868.235 162.488 868.29 169.626H845.795C845.74 166.638 845.103 163.927 843.886 161.492C842.724 159.057 841.008 157.12 838.739 155.681C836.526 154.187 833.786 153.44 830.521 153.44C827.035 153.44 824.185 154.187 821.972 155.681C819.758 157.12 818.043 159.112 816.825 161.658C815.608 164.148 814.75 166.998 814.252 170.208C813.809 173.362 813.588 176.682 813.588 180.168V182.576C813.588 186.062 813.809 189.41 814.252 192.62C814.695 195.829 815.525 198.679 816.742 201.169C818.015 203.66 819.758 205.624 821.972 207.063C824.185 208.502 827.063 209.221 830.604 209.221ZM878.334 182.244V180.5C878.334 173.915 879.275 167.856 881.156 162.322C883.038 156.733 885.777 151.89 889.374 147.795C892.971 143.7 897.398 140.518 902.655 138.25C907.912 135.925 913.944 134.763 920.751 134.763C927.558 134.763 933.617 135.925 938.93 138.25C944.242 140.518 948.697 143.7 952.294 147.795C955.946 151.89 958.713 156.733 960.595 162.322C962.476 167.856 963.417 173.915 963.417 180.5V182.244C963.417 188.774 962.476 194.833 960.595 200.422C958.713 205.956 955.946 210.798 952.294 214.949C948.697 219.044 944.27 222.226 939.013 224.495C933.756 226.764 927.724 227.898 920.917 227.898C914.11 227.898 908.051 226.764 902.738 224.495C897.481 222.226 893.026 219.044 889.374 214.949C885.777 210.798 883.038 205.956 881.156 200.422C879.275 194.833 878.334 188.774 878.334 182.244ZM902.24 180.5V182.244C902.24 186.007 902.572 189.521 903.236 192.786C903.9 196.051 904.952 198.928 906.391 201.418C907.885 203.853 909.822 205.763 912.201 207.146C914.581 208.529 917.486 209.221 920.917 209.221C924.237 209.221 927.087 208.529 929.467 207.146C931.846 205.763 933.756 203.853 935.194 201.418C936.633 198.928 937.685 196.051 938.349 192.786C939.068 189.521 939.428 186.007 939.428 182.244V180.5C939.428 176.848 939.068 173.417 938.349 170.208C937.685 166.943 936.605 164.065 935.111 161.575C933.673 159.029 931.763 157.037 929.384 155.598C927.004 154.159 924.127 153.44 920.751 153.44C917.375 153.44 914.498 154.159 912.118 155.598C909.794 157.037 907.885 159.029 906.391 161.575C904.952 164.065 903.9 166.943 903.236 170.208C902.572 173.417 902.24 176.848 902.24 180.5ZM978.026 226.238V136.423H1001.93V207.561H1031.98V136.423H1055.97V226.238H978.026ZM1069.42 207.644L1067.84 252.883H1045.59V226.238H1035.55V207.644H1069.42ZM1105.36 192.869L1135.49 136.423H1159.4V226.238H1135.49V169.709L1105.36 226.238H1081.45V136.423H1105.36V192.869ZM1226.3 205.984V165.974C1226.3 163.097 1225.83 160.634 1224.89 158.586C1223.95 156.484 1222.48 154.851 1220.49 153.689C1218.56 152.527 1216.04 151.946 1212.94 151.946C1210.28 151.946 1207.99 152.416 1206.05 153.357C1204.11 154.242 1202.62 155.543 1201.57 157.258C1200.51 158.918 1199.99 160.883 1199.99 163.152H1176.08C1176.08 159.333 1176.97 155.709 1178.74 152.278C1180.51 148.847 1183.08 145.831 1186.46 143.23C1189.83 140.574 1193.85 138.499 1198.5 137.004C1203.2 135.51 1208.46 134.763 1214.27 134.763C1221.24 134.763 1227.44 135.925 1232.86 138.25C1238.28 140.574 1242.54 144.06 1245.64 148.708C1248.8 153.357 1250.38 159.167 1250.38 166.14V204.573C1250.38 209.498 1250.68 213.538 1251.29 216.692C1251.9 219.791 1252.78 222.502 1253.94 224.827V226.238H1229.79C1228.63 223.803 1227.74 220.759 1227.13 217.107C1226.58 213.399 1226.3 209.692 1226.3 205.984ZM1229.46 171.536L1229.62 185.066H1216.26C1213.1 185.066 1210.37 185.426 1208.04 186.145C1205.72 186.864 1203.81 187.888 1202.31 189.216C1200.82 190.489 1199.71 191.983 1198.99 193.699C1198.33 195.414 1198 197.296 1198 199.343C1198 201.391 1198.47 203.245 1199.41 204.905C1200.35 206.51 1201.7 207.782 1203.48 208.723C1205.25 209.609 1207.32 210.051 1209.7 210.051C1213.3 210.051 1216.42 209.332 1219.08 207.893C1221.74 206.454 1223.78 204.683 1225.22 202.581C1226.72 200.478 1227.49 198.486 1227.55 196.604L1233.86 206.731C1232.97 209 1231.75 211.352 1230.2 213.787C1228.71 216.222 1226.8 218.518 1224.48 220.676C1222.15 222.779 1219.36 224.522 1216.09 225.906C1212.83 227.234 1208.95 227.898 1204.47 227.898C1198.77 227.898 1193.6 226.764 1188.95 224.495C1184.36 222.17 1180.7 218.988 1177.99 214.949C1175.34 210.854 1174.01 206.205 1174.01 201.003C1174.01 196.3 1174.89 192.122 1176.66 188.469C1178.43 184.817 1181.04 181.746 1184.47 179.255C1187.95 176.71 1192.3 174.801 1197.5 173.528C1202.7 172.2 1208.73 171.536 1215.59 171.536H1229.46ZM1329.23 136.423V155.183H1285.07V136.423H1329.23ZM1346.75 136.423V226.238H1322.84V136.423H1346.75ZM1279.1 136.423H1302.59L1300.18 181.746C1299.85 188.22 1299.16 193.92 1298.1 198.845C1297.05 203.77 1295.64 207.976 1293.87 211.462C1292.16 214.949 1290.08 217.799 1287.65 220.012C1285.27 222.17 1282.47 223.748 1279.26 224.744C1276.11 225.74 1272.62 226.238 1268.8 226.238H1261.5L1261.25 207.395L1264.32 207.063C1266.09 206.897 1267.64 206.399 1268.97 205.569C1270.35 204.683 1271.51 203.438 1272.46 201.833C1273.45 200.173 1274.28 198.098 1274.95 195.608C1275.61 193.062 1276.14 190.074 1276.52 186.643C1276.97 183.212 1277.27 179.255 1277.44 174.773L1279.1 136.423ZM1381.78 163.069H1407.84C1416.03 163.069 1423 164.425 1428.76 167.136C1434.57 169.792 1439 173.5 1442.04 178.259C1445.14 183.018 1446.69 188.525 1446.69 194.778C1446.69 199.316 1445.8 203.521 1444.03 207.395C1442.32 211.213 1439.8 214.534 1436.48 217.356C1433.16 220.178 1429.09 222.364 1424.28 223.914C1419.46 225.463 1413.98 226.238 1407.84 226.238H1366.83V136.423H1390.82V207.644H1407.84C1411.44 207.644 1414.32 207.063 1416.47 205.901C1418.69 204.683 1420.29 203.106 1421.29 201.169C1422.34 199.233 1422.87 197.13 1422.87 194.861C1422.87 192.481 1422.34 190.323 1421.29 188.386C1420.29 186.394 1418.69 184.789 1416.47 183.572C1414.32 182.354 1411.44 181.746 1407.84 181.746H1381.78V163.069ZM1521.73 172.698V191.292H1476.07V172.698H1521.73ZM1484.04 136.423V226.238H1460.14V136.423H1484.04ZM1537.91 136.423V226.238H1513.92V136.423H1537.91ZM1573.03 163.069H1599.09C1607.28 163.069 1614.25 164.425 1620.01 167.136C1625.82 169.792 1630.25 173.5 1633.29 178.259C1636.39 183.018 1637.94 188.525 1637.94 194.778C1637.94 199.316 1637.05 203.521 1635.28 207.395C1633.57 211.213 1631.05 214.534 1627.73 217.356C1624.41 220.178 1620.34 222.364 1615.53 223.914C1610.71 225.463 1605.23 226.238 1599.09 226.238H1558.08V136.423H1582.07V207.644H1599.09C1602.69 207.644 1605.57 207.063 1607.72 205.901C1609.94 204.683 1611.54 203.106 1612.54 201.169C1613.59 199.233 1614.12 197.13 1614.12 194.861C1614.12 192.481 1613.59 190.323 1612.54 188.386C1611.54 186.394 1609.94 184.789 1607.72 183.572C1605.57 182.354 1602.69 181.746 1599.09 181.746H1573.03V163.069ZM1676.29 136.423V226.238H1652.38V136.423H1676.29ZM1716.55 136.423L1731.41 163.733L1746.68 136.423H1772.16L1746.76 180.334L1773.32 226.238H1747.76L1731.57 197.351L1715.38 226.238H1689.82L1716.38 180.334L1690.98 136.423H1716.55ZM117.401 354.221C120.334 354.221 122.935 353.668 125.204 352.561C127.473 351.399 129.244 349.794 130.517 347.747C131.845 345.644 132.536 343.181 132.592 340.359H155.087C155.032 346.667 153.344 352.284 150.023 357.209C146.703 362.079 142.248 365.925 136.659 368.748C131.07 371.514 124.817 372.898 117.899 372.898C110.927 372.898 104.84 371.736 99.6377 369.412C94.4912 367.087 90.2025 363.878 86.7715 359.783C83.3405 355.632 80.7673 350.818 79.0518 345.339C77.3363 339.806 76.4785 333.884 76.4785 327.576V325.168C76.4785 318.805 77.3363 312.883 79.0518 307.405C80.7673 301.871 83.3405 297.056 86.7715 292.961C90.2025 288.811 94.4912 285.574 99.6377 283.25C104.784 280.925 110.816 279.763 117.733 279.763C125.093 279.763 131.54 281.174 137.074 283.997C142.663 286.819 147.035 290.859 150.189 296.116C153.399 301.318 155.032 307.488 155.087 314.626H132.592C132.536 311.638 131.9 308.927 130.683 306.492C129.521 304.057 127.805 302.12 125.536 300.681C123.323 299.187 120.583 298.44 117.318 298.44C113.832 298.44 110.982 299.187 108.769 300.681C106.555 302.12 104.84 304.112 103.622 306.658C102.405 309.148 101.547 311.998 101.049 315.208C100.606 318.362 100.385 321.682 100.385 325.168V327.576C100.385 331.062 100.606 334.41 101.049 337.62C101.492 340.829 102.322 343.679 103.539 346.169C104.812 348.66 106.555 350.624 108.769 352.063C110.982 353.502 113.86 354.221 117.401 354.221ZM210.287 372.898C203.314 372.898 197.061 371.791 191.527 369.578C185.993 367.309 181.29 364.182 177.416 360.198C173.598 356.213 170.665 351.593 168.617 346.335C166.57 341.023 165.546 335.378 165.546 329.402V326.082C165.546 319.275 166.514 313.049 168.451 307.405C170.388 301.76 173.155 296.863 176.752 292.712C180.404 288.562 184.831 285.38 190.033 283.167C195.235 280.898 201.101 279.763 207.631 279.763C213.995 279.763 219.639 280.815 224.564 282.917C229.49 285.02 233.612 288.009 236.933 291.882C240.308 295.756 242.854 300.404 244.569 305.828C246.285 311.195 247.143 317.172 247.143 323.757V333.718H175.756V317.781H223.651V315.955C223.651 312.634 223.043 309.674 221.825 307.073C220.663 304.417 218.892 302.314 216.513 300.764C214.133 299.215 211.09 298.44 207.382 298.44C204.228 298.44 201.516 299.132 199.247 300.515C196.978 301.899 195.124 303.835 193.686 306.326C192.302 308.816 191.251 311.749 190.531 315.125C189.867 318.445 189.535 322.097 189.535 326.082V329.402C189.535 332.999 190.033 336.319 191.029 339.363C192.081 342.406 193.547 345.035 195.429 347.249C197.366 349.462 199.69 351.178 202.401 352.395C205.168 353.612 208.295 354.221 211.781 354.221C216.098 354.221 220.11 353.391 223.817 351.731C227.58 350.015 230.818 347.442 233.529 344.011L245.15 356.628C243.269 359.34 240.696 361.941 237.431 364.431C234.221 366.921 230.347 368.969 225.81 370.574C221.272 372.123 216.098 372.898 210.287 372.898ZM305.497 281.423V371.238H281.508V281.423H305.497ZM334.384 281.423V299.934H253.036V281.423H334.384ZM365.927 326.414H390.165L365.18 371.238H341.024L365.927 326.414ZM382.03 281.423H421.459V371.238H397.553V299.934H382.03C378.765 299.934 376.054 300.543 373.896 301.76C371.737 302.922 370.132 304.444 369.081 306.326C368.085 308.152 367.587 310.033 367.587 311.97C367.587 313.852 368.085 315.678 369.081 317.449C370.077 319.22 371.627 320.686 373.729 321.848C375.832 323.01 378.461 323.591 381.615 323.591H406.435V339.861H381.615C375.694 339.861 370.382 339.141 365.678 337.703C361.029 336.264 357.045 334.272 353.725 331.726C350.46 329.125 347.942 326.109 346.171 322.678C344.455 319.192 343.598 315.374 343.598 311.223C343.598 306.907 344.483 302.95 346.254 299.353C348.025 295.756 350.57 292.602 353.891 289.89C357.211 287.179 361.223 285.103 365.927 283.665C370.686 282.17 376.054 281.423 382.03 281.423ZM460.971 281.423L475.829 308.733L491.103 281.423H516.586L491.186 325.334L517.748 371.238H492.182L475.995 342.351L459.809 371.238H434.242L460.805 325.334L435.404 281.423H460.971Z" fill="#0B0B0B"/>
<path d="M1341.18 471.786L1296.31 551.379L1364.25 494.881C1364.25 494.881 1605.6 615.396 1712.07 471.786C1818.54 328.175 1446.17 228.817 1341.18 365.003C1326.96 383.404 1300.35 427.607 1341.18 471.786Z" fill="white"/>
<path d="M1372.1 394.107C1383.54 380.598 1398.52 414.148 1405.22 399.844C1411.92 385.515 1432.05 376.873 1452.15 397.559C1472.25 418.245 1466.75 392.592 1478.98 385.565C1491.21 378.562 1502.24 396.591 1505.8 405.183C1509.35 413.75 1508.17 399.844 1521.98 392.468C1535.79 385.093 1535 398.205 1547.23 402.7C1559.46 407.194 1560.25 401.061 1569.7 391.649C1579.15 382.237 1587.05 393.288 1607.15 400.663C1627.26 408.039 1626.08 394.927 1642.26 386.757C1658.44 378.562 1665.14 406.524 1676.58 407.89" stroke="black" stroke-width="6" stroke-miterlimit="10"/>
<path d="M1518.8 451.522C1527.48 434.337 1547.59 468.706 1558.83 451.522C1570.08 434.337 1571.25 439.254 1588.41 451.522C1605.57 463.789 1591.96 451.174 1611.48 443.377C1631.01 435.579 1633.38 454.427 1642.24 456.662C1651.11 458.897 1652.29 445.04 1661.17 443.377C1670.04 441.713 1676.55 448.641 1676.55 448.641" stroke="black" stroke-width="6" stroke-miterlimit="10"/>
<g clip-path="url(#clip0_3524_1654)">
<path d="M1225.67 559.861L1245 593.651L1210.9 574.08C1210.9 574.08 1056.32 648.282 988.124 559.861C919.932 471.439 1158.43 410.264 1225.67 494.114C1234.78 505.444 1251.82 532.66 1225.67 559.861Z" fill="white"/>
<path d="M1198.83 526.723C1192.19 511.851 1183.5 548.786 1179.61 533.039C1175.72 517.264 1164.05 507.75 1152.38 530.524C1140.72 553.297 1143.91 525.056 1136.82 517.319C1129.72 509.609 1123.32 529.457 1121.25 538.917C1119.2 548.349 1119.88 533.039 1111.86 524.919C1103.85 516.799 1104.31 531.234 1097.22 536.183C1090.12 541.131 1089.66 534.378 1084.18 524.017C1078.69 513.655 1074.11 525.821 1062.45 533.941C1050.78 542.061 1051.46 527.626 1042.08 518.631C1032.69 509.609 1028.8 540.393 1022.17 541.897" stroke="black" stroke-width="5" stroke-miterlimit="10"/>
</g>
<path d="M86.1009 538.045V527.875H87.9759C88.6198 527.288 89.2259 526.459 89.794 525.389C90.3717 524.31 90.8594 522.87 91.2571 521.071C91.6643 519.262 91.9342 516.966 92.0668 514.182L92.6918 501.909H109.964V527.875H113.317V537.989H109.964V531H89.4531V538.045H86.1009ZM92.1804 527.875H106.612V505.034H95.8736L95.419 514.182C95.3054 516.303 95.1065 518.225 94.8224 519.949C94.5384 521.663 94.1738 523.183 93.7287 524.509C93.2836 525.825 92.7675 526.947 92.1804 527.875ZM127.333 531.455C125.231 531.455 123.417 530.991 121.893 530.062C120.378 529.125 119.208 527.818 118.384 526.142C117.57 524.456 117.163 522.496 117.163 520.261C117.163 518.027 117.57 516.057 118.384 514.352C119.208 512.638 120.354 511.303 121.822 510.347C123.299 509.381 125.022 508.898 126.992 508.898C128.129 508.898 129.251 509.087 130.359 509.466C131.467 509.845 132.475 510.46 133.384 511.312C134.293 512.155 135.018 513.273 135.558 514.665C136.097 516.057 136.367 517.771 136.367 519.807V521.227H119.549V518.33H132.958C132.958 517.098 132.712 516 132.219 515.034C131.737 514.068 131.045 513.306 130.146 512.747C129.255 512.188 128.204 511.909 126.992 511.909C125.657 511.909 124.502 512.241 123.526 512.903C122.56 513.557 121.817 514.409 121.296 515.46C120.775 516.511 120.515 517.638 120.515 518.841V520.773C120.515 522.42 120.799 523.817 121.367 524.963C121.945 526.099 122.745 526.966 123.768 527.562C124.79 528.15 125.979 528.443 127.333 528.443C128.214 528.443 129.009 528.32 129.719 528.074C130.439 527.818 131.059 527.439 131.58 526.938C132.101 526.426 132.504 525.792 132.788 525.034L136.026 525.943C135.685 527.042 135.112 528.008 134.308 528.841C133.503 529.665 132.508 530.309 131.325 530.773C130.141 531.227 128.81 531.455 127.333 531.455ZM139.535 531V527.875H140.33C140.984 527.875 141.528 527.747 141.964 527.491C142.399 527.226 142.75 526.767 143.015 526.114C143.29 525.451 143.498 524.532 143.64 523.358C143.791 522.174 143.9 520.669 143.967 518.841L144.364 509.182H158.91V531H155.558V512.307H147.546L147.205 520.091C147.129 521.881 146.969 523.457 146.722 524.821C146.486 526.175 146.121 527.312 145.629 528.23C145.146 529.149 144.502 529.84 143.697 530.304C142.892 530.768 141.883 531 140.671 531H139.535ZM168.413 526.057L178.924 509.182H182.788V531H179.435V514.125L168.981 531H165.06V509.182H168.413V526.057ZM197.791 531.455C195.746 531.455 193.984 530.972 192.507 530.006C191.03 529.04 189.893 527.709 189.098 526.014C188.303 524.319 187.905 522.383 187.905 520.205C187.905 517.989 188.312 516.033 189.126 514.338C189.95 512.634 191.096 511.303 192.564 510.347C194.041 509.381 195.765 508.898 197.734 508.898C199.268 508.898 200.651 509.182 201.882 509.75C203.113 510.318 204.122 511.114 204.908 512.136C205.694 513.159 206.181 514.352 206.371 515.716H203.018C202.763 514.722 202.195 513.841 201.314 513.074C200.443 512.297 199.268 511.909 197.791 511.909C196.484 511.909 195.339 512.25 194.354 512.932C193.378 513.604 192.616 514.556 192.067 515.787C191.527 517.009 191.257 518.443 191.257 520.091C191.257 521.777 191.522 523.244 192.053 524.494C192.592 525.744 193.35 526.715 194.325 527.406C195.31 528.098 196.465 528.443 197.791 528.443C198.662 528.443 199.453 528.292 200.163 527.989C200.874 527.686 201.475 527.25 201.967 526.682C202.46 526.114 202.81 525.432 203.018 524.636H206.371C206.181 525.924 205.713 527.084 204.964 528.116C204.226 529.139 203.246 529.954 202.024 530.56C200.812 531.156 199.401 531.455 197.791 531.455ZM214.169 517.08H220.419C222.976 517.08 224.931 517.728 226.286 519.026C227.64 520.323 228.317 521.966 228.317 523.955C228.317 525.261 228.014 526.45 227.408 527.52C226.802 528.58 225.911 529.428 224.737 530.062C223.563 530.688 222.124 531 220.419 531H211.271V509.182H214.624V527.875H220.419C221.745 527.875 222.834 527.525 223.686 526.824C224.538 526.123 224.964 525.223 224.964 524.125C224.964 522.97 224.538 522.027 223.686 521.298C222.834 520.569 221.745 520.205 220.419 520.205H214.169V517.08ZM253.533 531.455C251.564 531.455 249.835 530.986 248.349 530.048C246.871 529.111 245.716 527.799 244.883 526.114C244.059 524.428 243.647 522.458 243.647 520.205C243.647 517.932 244.059 515.948 244.883 514.253C245.716 512.558 246.871 511.241 248.349 510.304C249.835 509.366 251.564 508.898 253.533 508.898C255.503 508.898 257.227 509.366 258.704 510.304C260.191 511.241 261.346 512.558 262.17 514.253C263.003 515.948 263.42 517.932 263.42 520.205C263.42 522.458 263.003 524.428 262.17 526.114C261.346 527.799 260.191 529.111 258.704 530.048C257.227 530.986 255.503 531.455 253.533 531.455ZM253.533 528.443C255.03 528.443 256.261 528.06 257.227 527.293C258.192 526.526 258.907 525.517 259.371 524.267C259.835 523.017 260.067 521.663 260.067 520.205C260.067 518.746 259.835 517.387 259.371 516.128C258.907 514.868 258.192 513.85 257.227 513.074C256.261 512.297 255.03 511.909 253.533 511.909C252.037 511.909 250.806 512.297 249.84 513.074C248.874 513.85 248.159 514.868 247.695 516.128C247.231 517.387 246.999 518.746 246.999 520.205C246.999 521.663 247.231 523.017 247.695 524.267C248.159 525.517 248.874 526.526 249.84 527.293C250.806 528.06 252.037 528.443 253.533 528.443ZM288.651 531.455C286.605 531.455 284.844 530.972 283.366 530.006C281.889 529.04 280.753 527.709 279.957 526.014C279.162 524.319 278.764 522.383 278.764 520.205C278.764 517.989 279.171 516.033 279.986 514.338C280.81 512.634 281.955 511.303 283.423 510.347C284.901 509.381 286.624 508.898 288.594 508.898C290.128 508.898 291.51 509.182 292.741 509.75C293.973 510.318 294.981 511.114 295.767 512.136C296.553 513.159 297.041 514.352 297.23 515.716H293.878C293.622 514.722 293.054 513.841 292.173 513.074C291.302 512.297 290.128 511.909 288.651 511.909C287.344 511.909 286.198 512.25 285.213 512.932C284.238 513.604 283.475 514.556 282.926 515.787C282.386 517.009 282.116 518.443 282.116 520.091C282.116 521.777 282.382 523.244 282.912 524.494C283.452 525.744 284.209 526.715 285.185 527.406C286.17 528.098 287.325 528.443 288.651 528.443C289.522 528.443 290.312 528.292 291.023 527.989C291.733 527.686 292.334 527.25 292.827 526.682C293.319 526.114 293.67 525.432 293.878 524.636H297.23C297.041 525.924 296.572 527.084 295.824 528.116C295.085 529.139 294.105 529.954 292.884 530.56C291.671 531.156 290.26 531.455 288.651 531.455ZM302.131 531V509.182H311.051C313.4 509.182 315.265 509.712 316.648 510.773C318.03 511.833 318.722 513.235 318.722 514.977C318.722 516.303 318.329 517.33 317.543 518.06C316.757 518.779 315.748 519.267 314.517 519.523C315.322 519.636 316.103 519.92 316.861 520.375C317.628 520.83 318.262 521.455 318.764 522.25C319.266 523.036 319.517 524.002 319.517 525.148C319.517 526.265 319.233 527.264 318.665 528.145C318.097 529.026 317.282 529.722 316.222 530.233C315.161 530.744 313.892 531 312.415 531H302.131ZM305.312 527.932H312.415C313.57 527.932 314.474 527.657 315.128 527.108C315.781 526.559 316.108 525.811 316.108 524.864C316.108 523.737 315.781 522.851 315.128 522.207C314.474 521.554 313.57 521.227 312.415 521.227H305.312V527.932ZM305.312 518.33H311.051C311.951 518.33 312.723 518.206 313.366 517.96C314.01 517.705 314.503 517.345 314.844 516.881C315.194 516.407 315.369 515.848 315.369 515.205C315.369 514.286 314.986 513.566 314.219 513.045C313.452 512.515 312.396 512.25 311.051 512.25H305.312V518.33ZM333.455 531.455C331.486 531.455 329.757 530.986 328.271 530.048C326.793 529.111 325.638 527.799 324.805 526.114C323.981 524.428 323.569 522.458 323.569 520.205C323.569 517.932 323.981 515.948 324.805 514.253C325.638 512.558 326.793 511.241 328.271 510.304C329.757 509.366 331.486 508.898 333.455 508.898C335.425 508.898 337.148 509.366 338.626 510.304C340.112 511.241 341.268 512.558 342.092 514.253C342.925 515.948 343.342 517.932 343.342 520.205C343.342 522.458 342.925 524.428 342.092 526.114C341.268 527.799 340.112 529.111 338.626 530.048C337.148 530.986 335.425 531.455 333.455 531.455ZM333.455 528.443C334.951 528.443 336.183 528.06 337.148 527.293C338.114 526.526 338.829 525.517 339.293 524.267C339.757 523.017 339.989 521.663 339.989 520.205C339.989 518.746 339.757 517.387 339.293 516.128C338.829 514.868 338.114 513.85 337.148 513.074C336.183 512.297 334.951 511.909 333.455 511.909C331.959 511.909 330.728 512.297 329.762 513.074C328.796 513.85 328.081 514.868 327.617 516.128C327.153 517.387 326.921 518.746 326.921 520.205C326.921 521.663 327.153 523.017 327.617 524.267C328.081 525.517 328.796 526.526 329.762 527.293C330.728 528.06 331.959 528.443 333.455 528.443ZM357.607 531.455C355.504 531.455 353.691 530.991 352.166 530.062C350.651 529.125 349.482 527.818 348.658 526.142C347.843 524.456 347.436 522.496 347.436 520.261C347.436 518.027 347.843 516.057 348.658 514.352C349.482 512.638 350.627 511.303 352.095 510.347C353.572 509.381 355.296 508.898 357.266 508.898C358.402 508.898 359.524 509.087 360.632 509.466C361.74 509.845 362.749 510.46 363.658 511.312C364.567 512.155 365.291 513.273 365.831 514.665C366.371 516.057 366.641 517.771 366.641 519.807V521.227H349.822V518.33H363.232C363.232 517.098 362.985 516 362.493 515.034C362.01 514.068 361.319 513.306 360.419 512.747C359.529 512.188 358.478 511.909 357.266 511.909C355.93 511.909 354.775 512.241 353.8 512.903C352.834 513.557 352.09 514.409 351.57 515.46C351.049 516.511 350.788 517.638 350.788 518.841V520.773C350.788 522.42 351.072 523.817 351.641 524.963C352.218 526.099 353.018 526.966 354.041 527.562C355.064 528.15 356.252 528.443 357.607 528.443C358.487 528.443 359.283 528.32 359.993 528.074C360.713 527.818 361.333 527.439 361.854 526.938C362.375 526.426 362.777 525.792 363.061 525.034L366.3 525.943C365.959 527.042 365.386 528.008 364.581 528.841C363.776 529.665 362.782 530.309 361.598 530.773C360.414 531.227 359.084 531.455 357.607 531.455ZM375.092 526.057L385.604 509.182H389.467V531H386.115V514.125L375.661 531H371.74V509.182H375.092V526.057ZM383.388 501.909H386.513C386.513 503.443 385.982 504.698 384.922 505.673C383.861 506.649 382.422 507.136 380.604 507.136C378.814 507.136 377.389 506.649 376.328 505.673C375.277 504.698 374.751 503.443 374.751 501.909H377.876C377.876 502.648 378.08 503.296 378.487 503.855C378.904 504.414 379.609 504.693 380.604 504.693C381.598 504.693 382.308 504.414 382.734 503.855C383.17 503.296 383.388 502.648 383.388 501.909ZM406.857 539.182V509.182H410.096V512.648H410.494C410.74 512.269 411.081 511.786 411.516 511.199C411.961 510.602 412.596 510.072 413.42 509.608C414.253 509.134 415.38 508.898 416.8 508.898C418.638 508.898 420.257 509.357 421.658 510.276C423.06 511.194 424.154 512.496 424.94 514.182C425.726 515.867 426.119 517.856 426.119 520.148C426.119 522.458 425.726 524.461 424.94 526.156C424.154 527.842 423.065 529.149 421.673 530.077C420.281 530.995 418.675 531.455 416.857 531.455C415.456 531.455 414.334 531.223 413.491 530.759C412.648 530.285 411.999 529.75 411.545 529.153C411.09 528.547 410.74 528.045 410.494 527.648H410.21V539.182H406.857ZM410.153 520.091C410.153 521.739 410.394 523.192 410.877 524.452C411.36 525.702 412.066 526.682 412.994 527.392C413.922 528.093 415.058 528.443 416.403 528.443C417.804 528.443 418.974 528.074 419.911 527.335C420.858 526.587 421.568 525.583 422.042 524.324C422.525 523.055 422.766 521.644 422.766 520.091C422.766 518.557 422.53 517.174 422.056 515.943C421.592 514.703 420.887 513.723 419.94 513.003C419.002 512.274 417.823 511.909 416.403 511.909C415.039 511.909 413.893 512.255 412.965 512.946C412.037 513.628 411.336 514.584 410.863 515.815C410.389 517.037 410.153 518.462 410.153 520.091ZM437.653 531.511C436.27 531.511 435.015 531.251 433.888 530.73C432.762 530.2 431.867 529.438 431.204 528.443C430.541 527.439 430.21 526.227 430.21 524.807C430.21 523.557 430.456 522.544 430.948 521.767C431.441 520.981 432.099 520.366 432.923 519.92C433.746 519.475 434.656 519.144 435.65 518.926C436.654 518.699 437.662 518.519 438.675 518.386C440.001 518.216 441.076 518.088 441.9 518.003C442.733 517.908 443.339 517.752 443.718 517.534C444.106 517.316 444.3 516.937 444.3 516.398V516.284C444.3 514.883 443.917 513.794 443.15 513.017C442.392 512.241 441.242 511.852 439.698 511.852C438.098 511.852 436.843 512.203 435.934 512.903C435.025 513.604 434.386 514.352 434.016 515.148L430.835 514.011C431.403 512.686 432.16 511.653 433.107 510.915C434.064 510.167 435.105 509.646 436.232 509.352C437.369 509.049 438.486 508.898 439.585 508.898C440.285 508.898 441.09 508.983 441.999 509.153C442.918 509.314 443.803 509.651 444.656 510.162C445.517 510.673 446.232 511.445 446.8 512.477C447.369 513.509 447.653 514.892 447.653 516.625V531H444.3V528.045H444.13C443.903 528.519 443.524 529.026 442.994 529.565C442.463 530.105 441.758 530.564 440.877 530.943C439.996 531.322 438.922 531.511 437.653 531.511ZM438.164 528.5C439.49 528.5 440.607 528.24 441.516 527.719C442.435 527.198 443.126 526.526 443.59 525.702C444.064 524.878 444.3 524.011 444.3 523.102V520.034C444.158 520.205 443.846 520.361 443.363 520.503C442.889 520.635 442.34 520.754 441.715 520.858C441.1 520.953 440.498 521.038 439.911 521.114C439.334 521.18 438.865 521.237 438.505 521.284C437.634 521.398 436.819 521.582 436.062 521.838C435.314 522.084 434.708 522.458 434.244 522.96C433.789 523.453 433.562 524.125 433.562 524.977C433.562 526.142 433.993 527.023 434.854 527.619C435.726 528.206 436.829 528.5 438.164 528.5ZM469.964 501L471.669 503.045C471.006 503.689 470.239 504.139 469.368 504.395C468.497 504.651 467.512 504.807 466.413 504.864C465.315 504.92 464.093 504.977 462.749 505.034C461.233 505.091 459.979 505.46 458.984 506.142C457.99 506.824 457.223 507.809 456.683 509.097C456.143 510.384 455.798 511.966 455.646 513.841H455.93C456.669 512.477 457.692 511.473 458.999 510.83C460.305 510.186 461.707 509.864 463.203 509.864C464.908 509.864 466.442 510.261 467.805 511.057C469.169 511.852 470.249 513.031 471.044 514.594C471.839 516.156 472.237 518.083 472.237 520.375C472.237 522.657 471.83 524.627 471.016 526.284C470.211 527.941 469.079 529.22 467.621 530.119C466.172 531.009 464.472 531.455 462.521 531.455C460.571 531.455 458.861 530.995 457.393 530.077C455.926 529.149 454.785 527.776 453.97 525.957C453.156 524.13 452.749 521.871 452.749 519.182V516.852C452.749 511.994 453.572 508.311 455.22 505.801C456.877 503.292 459.368 501.994 462.692 501.909C463.866 501.871 464.912 501.862 465.831 501.881C466.75 501.9 467.55 501.857 468.232 501.753C468.913 501.649 469.491 501.398 469.964 501ZM462.521 528.443C463.838 528.443 464.969 528.112 465.916 527.449C466.873 526.786 467.607 525.853 468.118 524.651C468.629 523.438 468.885 522.013 468.885 520.375C468.885 518.784 468.625 517.43 468.104 516.312C467.592 515.195 466.858 514.343 465.902 513.756C464.946 513.169 463.8 512.875 462.464 512.875C461.489 512.875 460.613 513.041 459.837 513.372C459.06 513.704 458.397 514.191 457.848 514.835C457.299 515.479 456.873 516.265 456.57 517.193C456.276 518.121 456.12 519.182 456.101 520.375C456.101 522.818 456.674 524.774 457.82 526.241C458.965 527.709 460.533 528.443 462.521 528.443ZM486.229 531.455C484.259 531.455 482.531 530.986 481.044 530.048C479.567 529.111 478.411 527.799 477.578 526.114C476.754 524.428 476.342 522.458 476.342 520.205C476.342 517.932 476.754 515.948 477.578 514.253C478.411 512.558 479.567 511.241 481.044 510.304C482.531 509.366 484.259 508.898 486.229 508.898C488.198 508.898 489.922 509.366 491.399 510.304C492.886 511.241 494.041 512.558 494.865 514.253C495.698 515.948 496.115 517.932 496.115 520.205C496.115 522.458 495.698 524.428 494.865 526.114C494.041 527.799 492.886 529.111 491.399 530.048C489.922 530.986 488.198 531.455 486.229 531.455ZM486.229 528.443C487.725 528.443 488.956 528.06 489.922 527.293C490.888 526.526 491.603 525.517 492.067 524.267C492.531 523.017 492.763 521.663 492.763 520.205C492.763 518.746 492.531 517.387 492.067 516.128C491.603 514.868 490.888 513.85 489.922 513.074C488.956 512.297 487.725 511.909 486.229 511.909C484.732 511.909 483.501 512.297 482.536 513.074C481.57 513.85 480.855 514.868 480.391 516.128C479.927 517.387 479.695 518.746 479.695 520.205C479.695 521.663 479.927 523.017 480.391 524.267C480.855 525.517 481.57 526.526 482.536 527.293C483.501 528.06 484.732 528.443 486.229 528.443ZM498.381 512.307V509.182H516.108V512.307H508.949V531H505.597V512.307H498.381ZM529.013 531.455C526.911 531.455 525.097 530.991 523.572 530.062C522.057 529.125 520.888 527.818 520.064 526.142C519.25 524.456 518.842 522.496 518.842 520.261C518.842 518.027 519.25 516.057 520.064 514.352C520.888 512.638 522.034 511.303 523.501 510.347C524.979 509.381 526.702 508.898 528.672 508.898C529.808 508.898 530.93 509.087 532.038 509.466C533.146 509.845 534.155 510.46 535.064 511.312C535.973 512.155 536.697 513.273 537.237 514.665C537.777 516.057 538.047 517.771 538.047 519.807V521.227H521.229V518.33H534.638C534.638 517.098 534.392 516 533.899 515.034C533.416 514.068 532.725 513.306 531.825 512.747C530.935 512.188 529.884 511.909 528.672 511.909C527.337 511.909 526.181 512.241 525.206 512.903C524.24 513.557 523.497 514.409 522.976 515.46C522.455 516.511 522.195 517.638 522.195 518.841V520.773C522.195 522.42 522.479 523.817 523.047 524.963C523.625 526.099 524.425 526.966 525.447 527.562C526.47 528.15 527.659 528.443 529.013 528.443C529.893 528.443 530.689 528.32 531.399 528.074C532.119 527.818 532.739 527.439 533.26 526.938C533.781 526.426 534.183 525.792 534.467 525.034L537.706 525.943C537.365 527.042 536.792 528.008 535.987 528.841C535.182 529.665 534.188 530.309 533.004 530.773C531.821 531.227 530.49 531.455 529.013 531.455ZM91.4986 574.057L102.01 557.182H105.874V579H102.521V562.125L92.0668 579H88.1463V557.182H91.4986V574.057ZM120.934 585.25V575.875H122.752C123.197 575.411 123.581 574.909 123.903 574.369C124.225 573.83 124.504 573.19 124.741 572.452C124.987 571.704 125.195 570.795 125.366 569.724C125.536 568.645 125.688 567.343 125.82 565.818L126.559 557.182H140.423V575.875H143.775V585.25H140.423V579H124.286V585.25H120.934ZM126.559 575.875H137.07V560.307H129.684L129.116 565.818C128.879 568.1 128.585 570.094 128.235 571.798C127.885 573.503 127.326 574.862 126.559 575.875ZM157.088 579.455C155.118 579.455 153.39 578.986 151.903 578.048C150.426 577.111 149.271 575.799 148.438 574.114C147.614 572.428 147.202 570.458 147.202 568.205C147.202 565.932 147.614 563.948 148.438 562.253C149.271 560.558 150.426 559.241 151.903 558.304C153.39 557.366 155.118 556.898 157.088 556.898C159.058 556.898 160.781 557.366 162.259 558.304C163.745 559.241 164.901 560.558 165.724 562.253C166.558 563.948 166.974 565.932 166.974 568.205C166.974 570.458 166.558 572.428 165.724 574.114C164.901 575.799 163.745 577.111 162.259 578.048C160.781 578.986 159.058 579.455 157.088 579.455ZM157.088 576.443C158.584 576.443 159.815 576.06 160.781 575.293C161.747 574.526 162.462 573.517 162.926 572.267C163.39 571.017 163.622 569.663 163.622 568.205C163.622 566.746 163.39 565.387 162.926 564.128C162.462 562.868 161.747 561.85 160.781 561.074C159.815 560.297 158.584 559.909 157.088 559.909C155.592 559.909 154.361 560.297 153.395 561.074C152.429 561.85 151.714 562.868 151.25 564.128C150.786 565.387 150.554 566.746 150.554 568.205C150.554 569.663 150.786 571.017 151.25 572.267C151.714 573.517 152.429 574.526 153.395 575.293C154.361 576.06 155.592 576.443 157.088 576.443ZM180.955 579.455C178.91 579.455 177.148 578.972 175.671 578.006C174.194 577.04 173.058 575.709 172.262 574.014C171.467 572.319 171.069 570.383 171.069 568.205C171.069 565.989 171.476 564.033 172.29 562.338C173.114 560.634 174.26 559.303 175.728 558.347C177.205 557.381 178.929 556.898 180.898 556.898C182.433 556.898 183.815 557.182 185.046 557.75C186.277 558.318 187.286 559.114 188.072 560.136C188.858 561.159 189.345 562.352 189.535 563.716H186.183C185.927 562.722 185.359 561.841 184.478 561.074C183.607 560.297 182.433 559.909 180.955 559.909C179.648 559.909 178.503 560.25 177.518 560.932C176.542 561.604 175.78 562.556 175.231 563.787C174.691 565.009 174.421 566.443 174.421 568.091C174.421 569.777 174.686 571.244 175.217 572.494C175.756 573.744 176.514 574.715 177.489 575.406C178.474 576.098 179.629 576.443 180.955 576.443C181.826 576.443 182.617 576.292 183.327 575.989C184.038 575.686 184.639 575.25 185.131 574.682C185.624 574.114 185.974 573.432 186.183 572.636H189.535C189.345 573.924 188.877 575.084 188.129 576.116C187.39 577.139 186.41 577.954 185.188 578.56C183.976 579.156 182.565 579.455 180.955 579.455ZM192.717 560.307V557.182H210.444V560.307H203.285V579H199.933V560.307H192.717ZM218.686 574.057L229.197 557.182H233.061V579H229.709V562.125L219.254 579H215.334V557.182H218.686V574.057ZM237.837 579L246.701 567.92L237.951 557.182H241.928L249.201 566.5H251.019V557.182H254.371V566.5H256.133L263.406 557.182H267.383L258.69 567.92L267.496 579H263.462L256.076 569.625H254.371V579H251.019V569.625H249.315L241.871 579H237.837ZM280.536 579.455C278.434 579.455 276.621 578.991 275.096 578.062C273.581 577.125 272.411 575.818 271.587 574.142C270.773 572.456 270.366 570.496 270.366 568.261C270.366 566.027 270.773 564.057 271.587 562.352C272.411 560.638 273.557 559.303 275.025 558.347C276.502 557.381 278.226 556.898 280.195 556.898C281.332 556.898 282.454 557.087 283.562 557.466C284.67 557.845 285.678 558.46 286.587 559.312C287.496 560.155 288.221 561.273 288.761 562.665C289.3 564.057 289.57 565.771 289.57 567.807V569.227H272.752V566.33H286.161C286.161 565.098 285.915 564 285.423 563.034C284.94 562.068 284.248 561.306 283.349 560.747C282.459 560.188 281.407 559.909 280.195 559.909C278.86 559.909 277.705 560.241 276.729 560.903C275.763 561.557 275.02 562.409 274.499 563.46C273.978 564.511 273.718 565.638 273.718 566.841V568.773C273.718 570.42 274.002 571.817 274.57 572.963C275.148 574.099 275.948 574.966 276.971 575.562C277.994 576.15 279.182 576.443 280.536 576.443C281.417 576.443 282.212 576.32 282.923 576.074C283.642 575.818 284.263 575.439 284.783 574.938C285.304 574.426 285.707 573.792 285.991 573.034L289.229 573.943C288.888 575.042 288.316 576.008 287.511 576.841C286.706 577.665 285.711 578.309 284.528 578.773C283.344 579.227 282.013 579.455 280.536 579.455ZM309.272 566.557V569.682H297.227V566.557H309.272ZM298.022 557.182V579H294.67V557.182H298.022ZM311.829 557.182V579H308.477V557.182H311.829ZM321.303 574.057L331.815 557.182H335.678V579H332.326V562.125L321.871 579H317.951V557.182H321.303V574.057ZM354.943 579V560.25H349.148C347.841 560.25 346.813 560.553 346.065 561.159C345.317 561.765 344.943 562.598 344.943 563.659C344.943 564.701 345.279 565.52 345.952 566.116C346.634 566.713 347.566 567.011 348.75 567.011H355.795V570.136H348.75C347.273 570.136 345.999 569.876 344.929 569.355C343.859 568.834 343.035 568.091 342.457 567.125C341.88 566.15 341.591 564.994 341.591 563.659C341.591 562.314 341.894 561.159 342.5 560.193C343.106 559.227 343.973 558.484 345.099 557.963C346.236 557.442 347.585 557.182 349.148 557.182H358.125V579H354.943ZM340.398 579L346.591 568.148H350.227L344.034 579H340.398ZM366.779 557.182L372.006 566.102L377.234 557.182H381.097L374.052 568.091L381.097 579H377.234L372.006 570.534L366.779 579H362.915L369.847 568.091L362.915 557.182H366.779ZM88.1463 627V605.182H97.0668C99.4152 605.182 101.281 605.712 102.663 606.773C104.046 607.833 104.737 609.235 104.737 610.977C104.737 612.303 104.344 613.33 103.558 614.06C102.772 614.779 101.764 615.267 100.533 615.523C101.338 615.636 102.119 615.92 102.876 616.375C103.643 616.83 104.278 617.455 104.78 618.25C105.282 619.036 105.533 620.002 105.533 621.148C105.533 622.265 105.249 623.264 104.68 624.145C104.112 625.026 103.298 625.722 102.237 626.233C101.177 626.744 99.9077 627 98.4304 627H88.1463ZM91.3281 623.932H98.4304C99.5857 623.932 100.49 623.657 101.143 623.108C101.797 622.559 102.124 621.811 102.124 620.864C102.124 619.737 101.797 618.851 101.143 618.207C100.49 617.554 99.5857 617.227 98.4304 617.227H91.3281V623.932ZM91.3281 614.33H97.0668C97.9664 614.33 98.7382 614.206 99.3821 613.96C100.026 613.705 100.518 613.345 100.859 612.881C101.21 612.407 101.385 611.848 101.385 611.205C101.385 610.286 101.001 609.566 100.234 609.045C99.4673 608.515 98.4115 608.25 97.0668 608.25H91.3281V614.33ZM130.721 627.455C128.675 627.455 126.914 626.972 125.437 626.006C123.96 625.04 122.823 623.709 122.028 622.014C121.232 620.319 120.835 618.383 120.835 616.205C120.835 613.989 121.242 612.033 122.056 610.338C122.88 608.634 124.026 607.303 125.494 606.347C126.971 605.381 128.694 604.898 130.664 604.898C132.198 604.898 133.581 605.182 134.812 605.75C136.043 606.318 137.051 607.114 137.837 608.136C138.623 609.159 139.111 610.352 139.3 611.716H135.948C135.692 610.722 135.124 609.841 134.244 609.074C133.372 608.297 132.198 607.909 130.721 607.909C129.414 607.909 128.268 608.25 127.283 608.932C126.308 609.604 125.546 610.556 124.996 611.787C124.457 613.009 124.187 614.443 124.187 616.091C124.187 617.777 124.452 619.244 124.982 620.494C125.522 621.744 126.28 622.715 127.255 623.406C128.24 624.098 129.395 624.443 130.721 624.443C131.592 624.443 132.383 624.292 133.093 623.989C133.803 623.686 134.405 623.25 134.897 622.682C135.389 622.114 135.74 621.432 135.948 620.636H139.3C139.111 621.924 138.642 623.084 137.894 624.116C137.156 625.139 136.175 625.954 134.954 626.56C133.742 627.156 132.331 627.455 130.721 627.455ZM153.065 627.455C151.095 627.455 149.367 626.986 147.88 626.048C146.403 625.111 145.247 623.799 144.414 622.114C143.59 620.428 143.178 618.458 143.178 616.205C143.178 613.932 143.59 611.948 144.414 610.253C145.247 608.558 146.403 607.241 147.88 606.304C149.367 605.366 151.095 604.898 153.065 604.898C155.034 604.898 156.758 605.366 158.235 606.304C159.722 607.241 160.877 608.558 161.701 610.253C162.534 611.948 162.951 613.932 162.951 616.205C162.951 618.458 162.534 620.428 161.701 622.114C160.877 623.799 159.722 625.111 158.235 626.048C156.758 626.986 155.034 627.455 153.065 627.455ZM153.065 624.443C154.561 624.443 155.792 624.06 156.758 623.293C157.724 622.526 158.439 621.517 158.903 620.267C159.367 619.017 159.599 617.663 159.599 616.205C159.599 614.746 159.367 613.387 158.903 612.128C158.439 610.868 157.724 609.85 156.758 609.074C155.792 608.297 154.561 607.909 153.065 607.909C151.568 607.909 150.337 608.297 149.371 609.074C148.406 609.85 147.691 610.868 147.227 612.128C146.763 613.387 146.531 614.746 146.531 616.205C146.531 617.663 146.763 619.017 147.227 620.267C147.691 621.517 148.406 622.526 149.371 623.293C150.337 624.06 151.568 624.443 153.065 624.443ZM185.227 605.182V623.875H188.295V634.045H184.943V627H168.068V605.182H171.42V623.875H181.875V605.182H185.227ZM196.811 622.057L207.322 605.182H211.186V627H207.834V610.125L197.379 627H193.459V605.182H196.811V622.057ZM223.746 627.511C222.364 627.511 221.109 627.251 219.982 626.73C218.855 626.2 217.96 625.438 217.298 624.443C216.635 623.439 216.303 622.227 216.303 620.807C216.303 619.557 216.549 618.544 217.042 617.767C217.534 616.981 218.192 616.366 219.016 615.92C219.84 615.475 220.749 615.144 221.744 614.926C222.747 614.699 223.756 614.519 224.769 614.386C226.095 614.216 227.17 614.088 227.994 614.003C228.827 613.908 229.433 613.752 229.812 613.534C230.2 613.316 230.394 612.937 230.394 612.398V612.284C230.394 610.883 230.011 609.794 229.244 609.017C228.486 608.241 227.335 607.852 225.792 607.852C224.192 607.852 222.937 608.203 222.028 608.903C221.119 609.604 220.479 610.352 220.11 611.148L216.928 610.011C217.496 608.686 218.254 607.653 219.201 606.915C220.157 606.167 221.199 605.646 222.326 605.352C223.462 605.049 224.58 604.898 225.678 604.898C226.379 604.898 227.184 604.983 228.093 605.153C229.012 605.314 229.897 605.651 230.749 606.162C231.611 606.673 232.326 607.445 232.894 608.477C233.462 609.509 233.746 610.892 233.746 612.625V627H230.394V624.045H230.224C229.996 624.519 229.618 625.026 229.087 625.565C228.557 626.105 227.852 626.564 226.971 626.943C226.09 627.322 225.015 627.511 223.746 627.511ZM224.258 624.5C225.584 624.5 226.701 624.24 227.61 623.719C228.529 623.198 229.22 622.526 229.684 621.702C230.157 620.878 230.394 620.011 230.394 619.102V616.034C230.252 616.205 229.94 616.361 229.457 616.503C228.983 616.635 228.434 616.754 227.809 616.858C227.193 616.953 226.592 617.038 226.005 617.114C225.427 617.18 224.959 617.237 224.599 617.284C223.728 617.398 222.913 617.582 222.156 617.838C221.407 618.084 220.801 618.458 220.337 618.96C219.883 619.453 219.656 620.125 219.656 620.977C219.656 622.142 220.086 623.023 220.948 623.619C221.819 624.206 222.923 624.5 224.258 624.5ZM237.933 627V623.875H238.729C239.382 623.875 239.927 623.747 240.362 623.491C240.798 623.226 241.148 622.767 241.413 622.114C241.688 621.451 241.896 620.532 242.038 619.358C242.19 618.174 242.299 616.669 242.365 614.841L242.763 605.182H257.308V627H253.956V608.307H245.945L245.604 616.091C245.528 617.881 245.367 619.457 245.121 620.821C244.884 622.175 244.519 623.312 244.027 624.23C243.544 625.149 242.9 625.84 242.095 626.304C241.29 626.768 240.282 627 239.07 627H237.933ZM266.357 613.08H272.607C275.163 613.08 277.119 613.728 278.473 615.026C279.827 616.323 280.504 617.966 280.504 619.955C280.504 621.261 280.201 622.45 279.595 623.52C278.989 624.58 278.099 625.428 276.925 626.062C275.75 626.688 274.311 627 272.607 627H263.459V605.182H266.811V623.875H272.607C273.932 623.875 275.021 623.525 275.874 622.824C276.726 622.123 277.152 621.223 277.152 620.125C277.152 618.97 276.726 618.027 275.874 617.298C275.021 616.569 273.932 616.205 272.607 616.205H266.357V613.08ZM300.21 614.557V617.682H288.164V614.557H300.21ZM288.96 605.182V627H285.607V605.182H288.96ZM302.766 605.182V627H299.414V605.182H302.766ZM311.786 613.08H318.036C320.593 613.08 322.549 613.728 323.903 615.026C325.257 616.323 325.934 617.966 325.934 619.955C325.934 621.261 325.631 622.45 325.025 623.52C324.419 624.58 323.529 625.428 322.354 626.062C321.18 626.688 319.741 627 318.036 627H308.888V605.182H312.241V623.875H318.036C319.362 623.875 320.451 623.525 321.303 622.824C322.156 622.123 322.582 621.223 322.582 620.125C322.582 618.97 322.156 618.027 321.303 617.298C320.451 616.569 319.362 616.205 318.036 616.205H311.786V613.08ZM329.4 627V605.182H332.752V627H329.4ZM341.388 605.182L346.616 614.102L351.843 605.182H355.707L348.661 616.091L355.707 627H351.843L346.616 618.534L341.388 627H337.525L344.457 616.091L337.525 605.182H341.388ZM380.604 627.455C378.558 627.455 376.797 626.972 375.32 626.006C373.842 625.04 372.706 623.709 371.911 622.014C371.115 620.319 370.717 618.383 370.717 616.205C370.717 613.989 371.125 612.033 371.939 610.338C372.763 608.634 373.909 607.303 375.376 606.347C376.854 605.381 378.577 604.898 380.547 604.898C382.081 604.898 383.464 605.182 384.695 605.75C385.926 606.318 386.934 607.114 387.72 608.136C388.506 609.159 388.994 610.352 389.183 611.716H385.831C385.575 610.722 385.007 609.841 384.126 609.074C383.255 608.297 382.081 607.909 380.604 607.909C379.297 607.909 378.151 608.25 377.166 608.932C376.191 609.604 375.429 610.556 374.879 611.787C374.339 613.009 374.07 614.443 374.07 616.091C374.07 617.777 374.335 619.244 374.865 620.494C375.405 621.744 376.162 622.715 377.138 623.406C378.123 624.098 379.278 624.443 380.604 624.443C381.475 624.443 382.266 624.292 382.976 623.989C383.686 623.686 384.287 623.25 384.78 622.682C385.272 622.114 385.623 621.432 385.831 620.636H389.183C388.994 621.924 388.525 623.084 387.777 624.116C387.038 625.139 386.058 625.954 384.837 626.56C383.625 627.156 382.214 627.455 380.604 627.455ZM403.232 627.455C401.129 627.455 399.316 626.991 397.791 626.062C396.276 625.125 395.107 623.818 394.283 622.142C393.468 620.456 393.061 618.496 393.061 616.261C393.061 614.027 393.468 612.057 394.283 610.352C395.107 608.638 396.252 607.303 397.72 606.347C399.197 605.381 400.921 604.898 402.891 604.898C404.027 604.898 405.149 605.087 406.257 605.466C407.365 605.845 408.374 606.46 409.283 607.312C410.192 608.155 410.916 609.273 411.456 610.665C411.996 612.057 412.266 613.771 412.266 615.807V617.227H395.447V614.33H408.857C408.857 613.098 408.61 612 408.118 611.034C407.635 610.068 406.944 609.306 406.044 608.747C405.154 608.188 404.103 607.909 402.891 607.909C401.555 607.909 400.4 608.241 399.425 608.903C398.459 609.557 397.715 610.409 397.195 611.46C396.674 612.511 396.413 613.638 396.413 614.841V616.773C396.413 618.42 396.697 619.817 397.266 620.963C397.843 622.099 398.643 622.966 399.666 623.562C400.689 624.15 401.877 624.443 403.232 624.443C404.112 624.443 404.908 624.32 405.618 624.074C406.338 623.818 406.958 623.439 407.479 622.938C408 622.426 408.402 621.792 408.686 621.034L411.925 621.943C411.584 623.042 411.011 624.008 410.206 624.841C409.401 625.665 408.407 626.309 407.223 626.773C406.039 627.227 404.709 627.455 403.232 627.455ZM415.334 608.307V605.182H433.061V608.307H425.902V627H422.55V608.307H415.334ZM451.076 627V608.25H445.281C443.974 608.25 442.946 608.553 442.198 609.159C441.45 609.765 441.076 610.598 441.076 611.659C441.076 612.701 441.412 613.52 442.085 614.116C442.766 614.713 443.699 615.011 444.883 615.011H451.928V618.136H444.883C443.406 618.136 442.132 617.876 441.062 617.355C439.992 616.834 439.168 616.091 438.59 615.125C438.013 614.15 437.724 612.994 437.724 611.659C437.724 610.314 438.027 609.159 438.633 608.193C439.239 607.227 440.105 606.484 441.232 605.963C442.369 605.442 443.718 605.182 445.281 605.182H454.258V627H451.076ZM436.531 627L442.724 616.148H446.36L440.167 627H436.531ZM462.912 605.182L468.139 614.102L473.366 605.182H477.23L470.185 616.091L477.23 627H473.366L468.139 618.534L462.912 627H459.048L465.98 616.091L459.048 605.182H462.912ZM486.445 597.909L486.161 618.818H482.866L482.582 597.909H486.445ZM484.513 627.227C483.813 627.227 483.211 626.976 482.71 626.474C482.208 625.973 481.957 625.371 481.957 624.67C481.957 623.97 482.208 623.368 482.71 622.866C483.211 622.365 483.813 622.114 484.513 622.114C485.214 622.114 485.816 622.365 486.317 622.866C486.819 623.368 487.07 623.97 487.07 624.67C487.07 625.134 486.952 625.561 486.715 625.949C486.488 626.337 486.18 626.65 485.792 626.886C485.413 627.114 484.987 627.227 484.513 627.227Z" fill="#0B0B0B"/>
<defs>
<clipPath id="clip0_3524_1654">
<rect width="269" height="149" fill="white" transform="matrix(-1 0 0 1 1245 454.238)"/>
</clipPath>
</defs>
</svg>
