<svg width="352" height="488" viewBox="0 0 352 488" fill="none" xmlns="http://www.w3.org/2000/svg">
<rect x="0.916016" y="0.470215" width="350.359" height="487.29" rx="10" fill="#F89C1C"/>
<path d="M44.6426 37.8928V66.3303H38.7832V42.4827H27.3574V66.3303H21.498V37.8928H44.6426ZM48.5098 55.9788V55.5686C48.5098 54.0191 48.7311 52.5933 49.1738 51.2913C49.6165 49.9762 50.2611 48.8368 51.1074 47.8733C51.9538 46.9097 52.9954 46.1611 54.2324 45.6272C55.4694 45.0803 56.8887 44.8069 58.4902 44.8069C60.0918 44.8069 61.5176 45.0803 62.7676 45.6272C64.0176 46.1611 65.0658 46.9097 65.9121 47.8733C66.7715 48.8368 67.4225 49.9762 67.8652 51.2913C68.3079 52.5933 68.5293 54.0191 68.5293 55.5686V55.9788C68.5293 57.5152 68.3079 58.941 67.8652 60.2561C67.4225 61.5582 66.7715 62.6975 65.9121 63.6741C65.0658 64.6376 64.0241 65.3863 62.7871 65.9202C61.5501 66.454 60.1309 66.7209 58.5293 66.7209C56.9277 66.7209 55.502 66.454 54.252 65.9202C53.015 65.3863 51.9668 64.6376 51.1074 63.6741C50.2611 62.6975 49.6165 61.5582 49.1738 60.2561C48.7311 58.941 48.5098 57.5152 48.5098 55.9788ZM54.1348 55.5686V55.9788C54.1348 56.8642 54.2129 57.691 54.3691 58.4592C54.5254 59.2275 54.7728 59.9045 55.1113 60.4905C55.4629 61.0634 55.9186 61.5126 56.4785 61.8381C57.0384 62.1637 57.722 62.3264 58.5293 62.3264C59.3105 62.3264 59.9811 62.1637 60.541 61.8381C61.1009 61.5126 61.5501 61.0634 61.8887 60.4905C62.2272 59.9045 62.4746 59.2275 62.6309 58.4592C62.8001 57.691 62.8848 56.8642 62.8848 55.9788V55.5686C62.8848 54.7092 62.8001 53.9019 62.6309 53.1467C62.4746 52.3785 62.2207 51.7014 61.8691 51.1155C61.5306 50.5165 61.0814 50.0478 60.5215 49.7092C59.9616 49.3707 59.2845 49.2014 58.4902 49.2014C57.696 49.2014 57.0189 49.3707 56.459 49.7092C55.9121 50.0478 55.4629 50.5165 55.1113 51.1155C54.7728 51.7014 54.5254 52.3785 54.3691 53.1467C54.2129 53.9019 54.1348 54.7092 54.1348 55.5686ZM80.7168 62.3264C81.4069 62.3264 82.0189 62.1962 82.5527 61.9358C83.0866 61.6624 83.5033 61.2847 83.8027 60.803C84.1152 60.3082 84.278 59.7288 84.291 59.0647H89.584C89.571 60.5491 89.1738 61.8707 88.3926 63.0295C87.6113 64.1754 86.5632 65.0803 85.248 65.7444C83.9329 66.3954 82.4616 66.7209 80.834 66.7209C79.1934 66.7209 77.7611 66.4475 76.5371 65.9006C75.3262 65.3538 74.3171 64.5986 73.5098 63.635C72.7025 62.6584 72.097 61.5256 71.6934 60.2366C71.2897 58.9345 71.0879 57.5413 71.0879 56.0569V55.4905C71.0879 53.9931 71.2897 52.5999 71.6934 51.3108C72.097 50.0087 72.7025 48.8759 73.5098 47.9124C74.3171 46.9358 75.3262 46.1741 76.5371 45.6272C77.748 45.0803 79.1673 44.8069 80.7949 44.8069C82.5267 44.8069 84.0436 45.1389 85.3457 45.803C86.6608 46.467 87.6895 47.4176 88.4316 48.6545C89.1868 49.8785 89.571 51.3303 89.584 53.01H84.291C84.278 52.3069 84.1283 51.6689 83.8418 51.0959C83.5684 50.523 83.1647 50.0673 82.6309 49.7288C82.11 49.3772 81.4655 49.2014 80.6973 49.2014C79.877 49.2014 79.2064 49.3772 78.6855 49.7288C78.1647 50.0673 77.7611 50.5361 77.4746 51.135C77.1882 51.7209 76.9863 52.3915 76.8691 53.1467C76.765 53.8889 76.7129 54.6702 76.7129 55.4905V56.0569C76.7129 56.8772 76.765 57.665 76.8691 58.4202C76.9733 59.1754 77.1686 59.8459 77.4551 60.4319C77.7546 61.0178 78.1647 61.4801 78.6855 61.8186C79.2064 62.1571 79.8835 62.3264 80.7168 62.3264ZM103.607 45.1975V66.3303H97.9629V45.1975H103.607ZM110.404 45.1975V49.553H91.2637V45.1975H110.404ZM117.162 51.467H123.295C125.222 51.467 126.863 51.7861 128.217 52.4241C129.584 53.0491 130.626 53.9215 131.342 55.0413C132.071 56.1611 132.436 57.4566 132.436 58.928C132.436 59.9957 132.227 60.9853 131.811 61.8967C131.407 62.7952 130.814 63.5764 130.033 64.2405C129.252 64.9045 128.295 65.4189 127.162 65.7834C126.029 66.148 124.74 66.3303 123.295 66.3303H113.646V45.1975H119.291V61.9553H123.295C124.141 61.9553 124.818 61.8186 125.326 61.5452C125.847 61.2587 126.225 60.8876 126.459 60.4319C126.706 59.9762 126.83 59.4814 126.83 58.9475C126.83 58.3876 126.706 57.8798 126.459 57.4241C126.225 56.9553 125.847 56.5777 125.326 56.2913C124.818 56.0048 124.141 55.8616 123.295 55.8616H117.162V51.467ZM141.459 45.1975V66.3303H135.834V45.1975H141.459ZM31.6543 91.5022H25.0332L24.9941 87.8108H30.4629C31.1921 87.8108 31.7845 87.7392 32.2402 87.5959C32.696 87.4397 33.028 87.2118 33.2363 86.9124C33.4577 86.5999 33.5684 86.2222 33.5684 85.7795C33.5684 85.3889 33.4967 85.0569 33.3535 84.7834C33.2233 84.497 33.0215 84.2626 32.748 84.0803C32.4746 83.898 32.1296 83.7678 31.7129 83.6897C31.3092 83.5986 30.834 83.553 30.2871 83.553H27.123V100.33H21.498V79.1975H30.2871C31.6673 79.1975 32.9043 79.3212 33.998 79.5686C35.0918 79.803 36.0228 80.1611 36.791 80.6428C37.5723 81.1246 38.1647 81.7366 38.5684 82.4788C38.985 83.2079 39.1934 84.0738 39.1934 85.0764C39.1934 85.7275 39.0436 86.3394 38.7441 86.9124C38.4577 87.4853 38.028 87.9931 37.4551 88.4358C36.8822 88.8785 36.1725 89.2431 35.3262 89.5295C34.4928 89.803 33.5293 89.9722 32.4355 90.0374L31.6543 91.5022ZM31.6543 100.33H23.6465L25.5801 95.9749H31.6543C32.3444 95.9749 32.9108 95.8902 33.3535 95.7209C33.7962 95.5517 34.1217 95.3043 34.3301 94.9788C34.5514 94.6402 34.6621 94.2366 34.6621 93.7678C34.6621 93.3121 34.5645 92.915 34.3691 92.5764C34.1738 92.2379 33.8548 91.9775 33.4121 91.7952C32.9824 91.5999 32.3965 91.5022 31.6543 91.5022H26.4004L26.4395 87.8108H32.416L33.7832 89.2952C35.2676 89.3863 36.4915 89.6663 37.4551 90.135C38.4186 90.6038 39.1283 91.2027 39.584 91.9319C40.0527 92.648 40.2871 93.4358 40.2871 94.2952C40.2871 95.2978 40.0983 96.1767 39.7207 96.9319C39.3431 97.6871 38.7832 98.3186 38.041 98.8264C37.3118 99.3212 36.4134 99.6988 35.3457 99.9592C34.278 100.207 33.0475 100.33 31.6543 100.33ZM62.4355 96.3264C63.1257 96.3264 63.7376 96.1962 64.2715 95.9358C64.8053 95.6624 65.222 95.2847 65.5215 94.803C65.834 94.3082 65.9967 93.7288 66.0098 93.0647H71.3027C71.2897 94.5491 70.8926 95.8707 70.1113 97.0295C69.3301 98.1754 68.2819 99.0803 66.9668 99.7444C65.6517 100.395 64.1803 100.721 62.5527 100.721C60.9121 100.721 59.4798 100.448 58.2559 99.9006C57.0449 99.3538 56.0358 98.5986 55.2285 97.635C54.4212 96.6584 53.8158 95.5256 53.4121 94.2366C53.0085 92.9345 52.8066 91.5413 52.8066 90.0569V89.4905C52.8066 87.9931 53.0085 86.5999 53.4121 85.3108C53.8158 84.0087 54.4212 82.8759 55.2285 81.9124C56.0358 80.9358 57.0449 80.1741 58.2559 79.6272C59.4668 79.0803 60.8861 78.8069 62.5137 78.8069C64.2454 78.8069 65.7624 79.1389 67.0645 79.803C68.3796 80.467 69.4082 81.4176 70.1504 82.6545C70.9056 83.8785 71.2897 85.3303 71.3027 87.01H66.0098C65.9967 86.3069 65.847 85.6689 65.5605 85.0959C65.2871 84.523 64.8835 84.0673 64.3496 83.7288C63.8288 83.3772 63.1842 83.2014 62.416 83.2014C61.5957 83.2014 60.9251 83.3772 60.4043 83.7288C59.8835 84.0673 59.4798 84.5361 59.1934 85.135C58.9069 85.7209 58.7051 86.3915 58.5879 87.1467C58.4837 87.8889 58.4316 88.6702 58.4316 89.4905V90.0569C58.4316 90.8772 58.4837 91.665 58.5879 92.4202C58.6921 93.1754 58.8874 93.8459 59.1738 94.4319C59.4733 95.0178 59.8835 95.4801 60.4043 95.8186C60.9251 96.1571 61.6022 96.3264 62.4355 96.3264ZM73.666 89.9788V89.5686C73.666 88.0191 73.8874 86.5933 74.3301 85.2913C74.7728 83.9762 75.4173 82.8368 76.2637 81.8733C77.11 80.9097 78.1517 80.1611 79.3887 79.6272C80.6257 79.0803 82.0449 78.8069 83.6465 78.8069C85.248 78.8069 86.6738 79.0803 87.9238 79.6272C89.1738 80.1611 90.222 80.9097 91.0684 81.8733C91.9277 82.8368 92.5788 83.9762 93.0215 85.2913C93.4642 86.5933 93.6855 88.0191 93.6855 89.5686V89.9788C93.6855 91.5152 93.4642 92.941 93.0215 94.2561C92.5788 95.5582 91.9277 96.6975 91.0684 97.6741C90.222 98.6376 89.1803 99.3863 87.9434 99.9202C86.7064 100.454 85.2871 100.721 83.6855 100.721C82.084 100.721 80.6582 100.454 79.4082 99.9202C78.1712 99.3863 77.123 98.6376 76.2637 97.6741C75.4173 96.6975 74.7728 95.5582 74.3301 94.2561C73.8874 92.941 73.666 91.5152 73.666 89.9788ZM79.291 89.5686V89.9788C79.291 90.8642 79.3691 91.691 79.5254 92.4592C79.6816 93.2275 79.929 93.9045 80.2676 94.4905C80.6191 95.0634 81.0749 95.5126 81.6348 95.8381C82.1947 96.1637 82.8783 96.3264 83.6855 96.3264C84.4668 96.3264 85.1374 96.1637 85.6973 95.8381C86.2572 95.5126 86.7064 95.0634 87.0449 94.4905C87.3835 93.9045 87.6309 93.2275 87.7871 92.4592C87.9564 91.691 88.041 90.8642 88.041 89.9788V89.5686C88.041 88.7092 87.9564 87.9019 87.7871 87.1467C87.6309 86.3785 87.377 85.7014 87.0254 85.1155C86.6868 84.5165 86.2376 84.0478 85.6777 83.7092C85.1178 83.3707 84.4408 83.2014 83.6465 83.2014C82.8522 83.2014 82.1751 83.3707 81.6152 83.7092C81.0684 84.0478 80.6191 84.5165 80.2676 85.1155C79.929 85.7014 79.6816 86.3785 79.5254 87.1467C79.3691 87.9019 79.291 88.7092 79.291 89.5686ZM97.123 100.33V79.1975H102.748V95.9358H109.818V79.1975H115.463V100.33H97.123ZM118.627 95.9553L118.256 106.6H113.021V100.33H110.658V95.9553H118.627ZM127.084 92.4788L134.174 79.1975H139.799V100.33H134.174V87.0295L127.084 100.33H121.459V79.1975H127.084V92.4788ZM155.541 95.5647V86.1506C155.541 85.4736 155.43 84.8941 155.209 84.4124C154.988 83.9176 154.643 83.5334 154.174 83.26C153.718 82.9866 153.126 82.8499 152.396 82.8499C151.771 82.8499 151.231 82.9605 150.775 83.1819C150.32 83.3902 149.968 83.6962 149.721 84.0999C149.473 84.4905 149.35 84.9527 149.35 85.4866H143.725C143.725 84.5881 143.933 83.7353 144.35 82.928C144.766 82.1207 145.372 81.4111 146.166 80.7991C146.96 80.1741 147.904 79.6858 148.998 79.3342C150.105 78.9827 151.342 78.8069 152.709 78.8069C154.35 78.8069 155.808 79.0803 157.084 79.6272C158.36 80.1741 159.363 80.9944 160.092 82.0881C160.834 83.1819 161.205 84.5491 161.205 86.1897V95.2327C161.205 96.3915 161.277 97.342 161.42 98.0842C161.563 98.8134 161.771 99.4514 162.045 99.9983V100.33H156.361C156.088 99.7574 155.88 99.0413 155.736 98.1819C155.606 97.3095 155.541 96.4371 155.541 95.5647ZM156.283 87.4592L156.322 90.6428H153.178C152.436 90.6428 151.791 90.7275 151.244 90.8967C150.697 91.066 150.248 91.3069 149.896 91.6194C149.545 91.9189 149.285 92.2704 149.115 92.6741C148.959 93.0777 148.881 93.5204 148.881 94.0022C148.881 94.484 148.992 94.9202 149.213 95.3108C149.434 95.6884 149.753 95.9879 150.17 96.2092C150.587 96.4176 151.075 96.5217 151.635 96.5217C152.481 96.5217 153.217 96.3525 153.842 96.0139C154.467 95.6754 154.949 95.2587 155.287 94.7639C155.639 94.2691 155.821 93.8004 155.834 93.3577L157.318 95.7405C157.11 96.2743 156.824 96.8277 156.459 97.4006C156.107 97.9736 155.658 98.5139 155.111 99.0217C154.564 99.5165 153.907 99.9267 153.139 100.252C152.37 100.565 151.459 100.721 150.404 100.721C149.063 100.721 147.846 100.454 146.752 99.9202C145.671 99.3733 144.812 98.6246 144.174 97.6741C143.549 96.7105 143.236 95.6168 143.236 94.3928C143.236 93.2861 143.445 92.303 143.861 91.4436C144.278 90.5842 144.89 89.8616 145.697 89.2756C146.518 88.6767 147.54 88.2275 148.764 87.928C149.988 87.6155 151.407 87.4592 153.021 87.4592H156.283ZM179.76 79.1975V83.6116H169.369V79.1975H179.76ZM183.881 79.1975V100.33H178.256V79.1975H183.881ZM167.963 79.1975H173.49L172.924 89.8616C172.846 91.385 172.683 92.7262 172.436 93.885C172.188 95.0439 171.856 96.0334 171.439 96.8538C171.036 97.6741 170.548 98.3446 169.975 98.8655C169.415 99.3733 168.757 99.7444 168.002 99.9788C167.26 100.213 166.439 100.33 165.541 100.33H163.822L163.764 95.8967L164.486 95.8186C164.903 95.7795 165.268 95.6624 165.58 95.467C165.906 95.2587 166.179 94.9657 166.4 94.5881C166.635 94.1975 166.83 93.7092 166.986 93.1233C167.143 92.5243 167.266 91.8212 167.357 91.0139C167.462 90.2066 167.533 89.2756 167.572 88.2209L167.963 79.1975ZM192.123 85.467H198.256C200.183 85.467 201.824 85.7861 203.178 86.4241C204.545 87.0491 205.587 87.9215 206.303 89.0413C207.032 90.1611 207.396 91.4566 207.396 92.928C207.396 93.9957 207.188 94.9853 206.771 95.8967C206.368 96.7952 205.775 97.5764 204.994 98.2405C204.213 98.9045 203.256 99.4189 202.123 99.7834C200.99 100.148 199.701 100.33 198.256 100.33H188.607V79.1975H194.252V95.9553H198.256C199.102 95.9553 199.779 95.8186 200.287 95.5452C200.808 95.2587 201.186 94.8876 201.42 94.4319C201.667 93.9762 201.791 93.4814 201.791 92.9475C201.791 92.3876 201.667 91.8798 201.42 91.4241C201.186 90.9553 200.808 90.5777 200.287 90.2913C199.779 90.0048 199.102 89.8616 198.256 89.8616H192.123V85.467ZM225.053 87.7327V92.1077H214.311V87.7327H225.053ZM216.186 79.1975V100.33H210.561V79.1975H216.186ZM228.861 79.1975V100.33H223.217V79.1975H228.861ZM237.123 85.467H243.256C245.183 85.467 246.824 85.7861 248.178 86.4241C249.545 87.0491 250.587 87.9215 251.303 89.0413C252.032 90.1611 252.396 91.4566 252.396 92.928C252.396 93.9957 252.188 94.9853 251.771 95.8967C251.368 96.7952 250.775 97.5764 249.994 98.2405C249.213 98.9045 248.256 99.4189 247.123 99.7834C245.99 100.148 244.701 100.33 243.256 100.33H233.607V79.1975H239.252V95.9553H243.256C244.102 95.9553 244.779 95.8186 245.287 95.5452C245.808 95.2587 246.186 94.8876 246.42 94.4319C246.667 93.9762 246.791 93.4814 246.791 92.9475C246.791 92.3876 246.667 91.8798 246.42 91.4241C246.186 90.9553 245.808 90.5777 245.287 90.2913C244.779 90.0048 244.102 89.8616 243.256 89.8616H237.123V85.467ZM261.42 79.1975V100.33H255.795V79.1975H261.42ZM270.893 79.1975L274.389 85.6233L277.982 79.1975H283.979L278.002 89.5295L284.252 100.33H278.236L274.428 93.5334L270.619 100.33H264.604L270.854 89.5295L264.877 79.1975H270.893ZM29.8574 130.326C30.5475 130.326 31.1595 130.196 31.6934 129.936C32.2272 129.662 32.6439 129.285 32.9434 128.803C33.2559 128.308 33.4186 127.729 33.4316 127.065H38.7246C38.7116 128.549 38.3145 129.871 37.5332 131.03C36.752 132.175 35.7038 133.08 34.3887 133.744C33.0736 134.395 31.6022 134.721 29.9746 134.721C28.334 134.721 26.9017 134.448 25.6777 133.901C24.4668 133.354 23.4577 132.599 22.6504 131.635C21.8431 130.658 21.2376 129.526 20.834 128.237C20.4303 126.934 20.2285 125.541 20.2285 124.057V123.49C20.2285 121.993 20.4303 120.6 20.834 119.311C21.2376 118.009 21.8431 116.876 22.6504 115.912C23.4577 114.936 24.4668 114.174 25.6777 113.627C26.8887 113.08 28.3079 112.807 29.9355 112.807C31.6673 112.807 33.1842 113.139 34.4863 113.803C35.8014 114.467 36.8301 115.418 37.5723 116.655C38.3275 117.878 38.7116 119.33 38.7246 121.01H33.4316C33.4186 120.307 33.2689 119.669 32.9824 119.096C32.709 118.523 32.3053 118.067 31.7715 117.729C31.2507 117.377 30.6061 117.201 29.8379 117.201C29.0176 117.201 28.347 117.377 27.8262 117.729C27.3053 118.067 26.9017 118.536 26.6152 119.135C26.3288 119.721 26.127 120.392 26.0098 121.147C25.9056 121.889 25.8535 122.67 25.8535 123.49V124.057C25.8535 124.877 25.9056 125.665 26.0098 126.42C26.1139 127.175 26.3092 127.846 26.5957 128.432C26.8952 129.018 27.3053 129.48 27.8262 129.819C28.347 130.157 29.0241 130.326 29.8574 130.326ZM51.7129 134.721C50.0723 134.721 48.6009 134.461 47.2988 133.94C45.9967 133.406 44.89 132.67 43.9785 131.733C43.0801 130.795 42.39 129.708 41.9082 128.471C41.4264 127.221 41.1855 125.893 41.1855 124.487V123.705C41.1855 122.104 41.4134 120.639 41.8691 119.311C42.3249 117.983 42.9759 116.83 43.8223 115.854C44.6816 114.877 45.7233 114.128 46.9473 113.608C48.1712 113.074 49.5514 112.807 51.0879 112.807C52.5853 112.807 53.9134 113.054 55.0723 113.549C56.2311 114.044 57.2012 114.747 57.9824 115.658C58.7767 116.57 59.3757 117.664 59.7793 118.94C60.1829 120.203 60.3848 121.609 60.3848 123.158V125.502H43.5879V121.752H54.8574V121.323C54.8574 120.541 54.7142 119.845 54.4277 119.233C54.1543 118.608 53.7376 118.113 53.1777 117.748C52.6178 117.384 51.9017 117.201 51.0293 117.201C50.2871 117.201 49.6491 117.364 49.1152 117.69C48.5814 118.015 48.1452 118.471 47.8066 119.057C47.4811 119.643 47.2337 120.333 47.0645 121.127C46.9082 121.908 46.8301 122.768 46.8301 123.705V124.487C46.8301 125.333 46.9473 126.114 47.1816 126.83C47.429 127.546 47.7741 128.165 48.2168 128.686C48.6725 129.207 49.2194 129.61 49.8574 129.897C50.5085 130.183 51.2441 130.326 52.0645 130.326C53.0801 130.326 54.0241 130.131 54.8965 129.74C55.7819 129.337 56.5436 128.731 57.1816 127.924L59.916 130.893C59.4733 131.531 58.8678 132.143 58.0996 132.729C57.3444 133.315 56.4329 133.796 55.3652 134.174C54.2975 134.539 53.0801 134.721 51.7129 134.721ZM74.1152 113.198V134.33H68.4707V113.198H74.1152ZM80.9121 113.198V117.553H61.7715V113.198H80.9121ZM88.334 123.783H94.0371L88.1582 134.33H82.4746L88.334 123.783ZM92.123 113.198H101.4V134.33H95.7754V117.553H92.123C91.3548 117.553 90.7168 117.696 90.209 117.983C89.7012 118.256 89.3236 118.614 89.0762 119.057C88.8418 119.487 88.7246 119.929 88.7246 120.385C88.7246 120.828 88.8418 121.257 89.0762 121.674C89.3105 122.091 89.6751 122.436 90.1699 122.709C90.6647 122.983 91.2832 123.119 92.0254 123.119H97.8652V126.948H92.0254C90.6322 126.948 89.3822 126.778 88.2754 126.44C87.1816 126.101 86.2441 125.632 85.4629 125.033C84.6947 124.421 84.1022 123.712 83.6855 122.905C83.2819 122.084 83.0801 121.186 83.0801 120.209C83.0801 119.194 83.2884 118.263 83.7051 117.416C84.1217 116.57 84.7207 115.828 85.502 115.19C86.2832 114.552 87.2272 114.063 88.334 113.725C89.4538 113.373 90.7168 113.198 92.123 113.198ZM110.697 113.198L114.193 119.623L117.787 113.198H123.783L117.807 123.53L124.057 134.33H118.041L114.232 127.533L110.424 134.33H104.408L110.658 123.53L104.682 113.198H110.697Z" fill="#0B0B0B"/>
<path d="M19.4508 390.524V385.438H20.3883C20.7103 385.145 21.0133 384.731 21.2974 384.196C21.5862 383.656 21.8301 382.936 22.0289 382.036C22.2325 381.132 22.3675 379.984 22.4338 378.592L22.7463 372.456H31.3826V385.438H33.0588V390.495H31.3826V387.001H21.127V390.524H19.4508ZM22.4906 385.438H29.7065V374.018H24.3372L24.1099 378.592C24.0531 379.652 23.9537 380.614 23.8116 381.475C23.6696 382.332 23.4873 383.092 23.2647 383.755C23.0422 384.413 22.7842 384.974 22.4906 385.438ZM40.0669 387.228C39.0158 387.228 38.1091 386.996 37.3468 386.532C36.5892 386.063 36.0044 385.41 35.5925 384.572C35.1853 383.729 34.9817 382.749 34.9817 381.632C34.9817 380.514 35.1853 379.529 35.5925 378.677C36.0044 377.82 36.5774 377.152 37.3113 376.674C38.0499 376.191 38.9116 375.95 39.8965 375.95C40.4647 375.95 41.0257 376.045 41.5797 376.234C42.1337 376.423 42.638 376.731 43.0925 377.157C43.5471 377.579 43.9093 378.137 44.1792 378.833C44.449 379.529 44.584 380.386 44.584 381.404V382.115H36.1749V380.666H42.8794C42.8794 380.05 42.7563 379.501 42.5101 379.018C42.2686 378.535 41.923 378.154 41.4732 377.875C41.0281 377.595 40.5025 377.456 39.8965 377.456C39.2289 377.456 38.6512 377.621 38.1635 377.953C37.6806 378.279 37.3089 378.706 37.0485 379.231C36.7881 379.757 36.6578 380.32 36.6578 380.921V381.887C36.6578 382.711 36.7999 383.41 37.084 383.983C37.3728 384.551 37.7729 384.984 38.2843 385.282C38.7956 385.576 39.3899 385.723 40.0669 385.723C40.5073 385.723 40.905 385.661 41.2601 385.538C41.62 385.41 41.9301 385.221 42.1905 384.97C42.4509 384.714 42.6522 384.397 42.7942 384.018L44.4135 384.473C44.2431 385.022 43.9566 385.505 43.5542 385.921C43.1517 386.333 42.6545 386.655 42.0627 386.887C41.4708 387.115 40.8056 387.228 40.0669 387.228ZM46.1678 387.001V385.438H46.5655C46.8922 385.438 47.1645 385.375 47.3823 385.247C47.6001 385.114 47.7753 384.884 47.9078 384.558C48.0452 384.226 48.1493 383.767 48.2203 383.18C48.2961 382.588 48.3506 381.835 48.3837 380.921L48.5826 376.092H55.8553V387.001H54.1792V377.654H50.1735L50.003 381.546C49.9651 382.441 49.8846 383.23 49.7615 383.911C49.6432 384.589 49.4609 385.157 49.2147 385.616C48.9732 386.075 48.6512 386.421 48.2488 386.653C47.8463 386.885 47.342 387.001 46.736 387.001H46.1678ZM60.6067 384.529L65.8624 376.092H67.7942V387.001H66.1181V378.563L60.8908 387.001H58.9306V376.092H60.6067V384.529ZM75.296 387.228C74.2733 387.228 73.3926 386.987 72.6539 386.504C71.9153 386.021 71.3471 385.356 70.9494 384.508C70.5517 383.661 70.3528 382.692 70.3528 381.603C70.3528 380.495 70.5564 379.518 70.9636 378.67C71.3755 377.818 71.9484 377.152 72.6824 376.674C73.421 376.191 74.2827 375.95 75.2676 375.95C76.0346 375.95 76.7259 376.092 77.3414 376.376C77.957 376.66 78.4612 377.058 78.8542 377.569C79.2472 378.081 79.4911 378.677 79.5858 379.359H77.9096C77.7818 378.862 77.4977 378.421 77.0574 378.038C76.6217 377.65 76.0346 377.456 75.296 377.456C74.6426 377.456 74.0697 377.626 73.5772 377.967C73.0895 378.303 72.7084 378.779 72.4338 379.394C72.1639 380.005 72.0289 380.723 72.0289 381.546C72.0289 382.389 72.1615 383.123 72.4267 383.748C72.6966 384.373 73.0753 384.858 73.563 385.204C74.0555 385.55 74.6331 385.723 75.296 385.723C75.7316 385.723 76.127 385.647 76.4821 385.495C76.8372 385.344 77.1378 385.126 77.3841 384.842C77.6303 384.558 77.8055 384.217 77.9096 383.819H79.5858C79.4911 384.463 79.2567 385.043 78.8826 385.559C78.5133 386.071 78.0233 386.478 77.4125 386.781C76.8064 387.079 76.1009 387.228 75.296 387.228ZM83.4849 380.041H86.6099C87.8883 380.041 88.8661 380.365 89.5431 381.014C90.2202 381.662 90.5588 382.484 90.5588 383.478C90.5588 384.132 90.4073 384.726 90.1042 385.261C89.8012 385.791 89.3561 386.215 88.769 386.532C88.1819 386.845 87.4622 387.001 86.6099 387.001H82.036V376.092H83.7122V385.438H86.6099C87.2728 385.438 87.8173 385.263 88.2434 384.913C88.6696 384.563 88.8826 384.113 88.8826 383.563C88.8826 382.986 88.6696 382.515 88.2434 382.15C87.8173 381.786 87.2728 381.603 86.6099 381.603H83.4849V380.041ZM103.167 387.228C102.182 387.228 101.318 386.994 100.575 386.525C99.8361 386.056 99.2585 385.401 98.8418 384.558C98.4299 383.715 98.2239 382.73 98.2239 381.603C98.2239 380.467 98.4299 379.475 98.8418 378.627C99.2585 377.78 99.8361 377.122 100.575 376.653C101.318 376.184 102.182 375.95 103.167 375.95C104.152 375.95 105.014 376.184 105.752 376.653C106.496 377.122 107.073 377.78 107.485 378.627C107.902 379.475 108.11 380.467 108.11 381.603C108.11 382.73 107.902 383.715 107.485 384.558C107.073 385.401 106.496 386.056 105.752 386.525C105.014 386.994 104.152 387.228 103.167 387.228ZM103.167 385.723C103.915 385.723 104.531 385.531 105.014 385.147C105.497 384.764 105.854 384.259 106.086 383.634C106.318 383.009 106.434 382.332 106.434 381.603C106.434 380.874 106.318 380.195 106.086 379.565C105.854 378.935 105.497 378.426 105.014 378.038C104.531 377.65 103.915 377.456 103.167 377.456C102.419 377.456 101.803 377.65 101.32 378.038C100.838 378.426 100.48 378.935 100.248 379.565C100.016 380.195 99.9 380.874 99.9 381.603C99.9 382.332 100.016 383.009 100.248 383.634C100.48 384.259 100.838 384.764 101.32 385.147C101.803 385.531 102.419 385.723 103.167 385.723ZM120.726 387.228C119.703 387.228 118.822 386.987 118.084 386.504C117.345 386.021 116.777 385.356 116.379 384.508C115.981 383.661 115.782 382.692 115.782 381.603C115.782 380.495 115.986 379.518 116.393 378.67C116.805 377.818 117.378 377.152 118.112 376.674C118.851 376.191 119.712 375.95 120.697 375.95C121.464 375.95 122.156 376.092 122.771 376.376C123.387 376.66 123.891 377.058 124.284 377.569C124.677 378.081 124.921 378.677 125.015 379.359H123.339C123.211 378.862 122.927 378.421 122.487 378.038C122.051 377.65 121.464 377.456 120.726 377.456C120.072 377.456 119.499 377.626 119.007 377.967C118.519 378.303 118.138 378.779 117.863 379.394C117.594 380.005 117.459 380.723 117.459 381.546C117.459 382.389 117.591 383.123 117.856 383.748C118.126 384.373 118.505 384.858 118.993 385.204C119.485 385.55 120.063 385.723 120.726 385.723C121.161 385.723 121.557 385.647 121.912 385.495C122.267 385.344 122.568 385.126 122.814 384.842C123.06 384.558 123.235 384.217 123.339 383.819H125.015C124.921 384.463 124.686 385.043 124.312 385.559C123.943 386.071 123.453 386.478 122.842 386.781C122.236 387.079 121.531 387.228 120.726 387.228ZM127.466 387.001V376.092H131.926C133.1 376.092 134.033 376.357 134.724 376.887C135.416 377.418 135.761 378.118 135.761 378.99C135.761 379.652 135.565 380.166 135.172 380.531C134.779 380.891 134.274 381.134 133.659 381.262C134.061 381.319 134.452 381.461 134.831 381.688C135.214 381.916 135.532 382.228 135.782 382.626C136.033 383.019 136.159 383.502 136.159 384.075C136.159 384.634 136.017 385.133 135.733 385.573C135.449 386.014 135.041 386.362 134.511 386.617C133.981 386.873 133.346 387.001 132.608 387.001H127.466ZM129.057 385.467H132.608C133.185 385.467 133.638 385.33 133.964 385.055C134.291 384.78 134.454 384.406 134.454 383.933C134.454 383.369 134.291 382.927 133.964 382.605C133.638 382.278 133.185 382.115 132.608 382.115H129.057V385.467ZM129.057 380.666H131.926C132.376 380.666 132.762 380.604 133.084 380.481C133.406 380.353 133.652 380.173 133.822 379.941C133.997 379.705 134.085 379.425 134.085 379.103C134.085 378.644 133.893 378.284 133.51 378.024C133.126 377.759 132.598 377.626 131.926 377.626H129.057V380.666ZM143.128 387.228C142.143 387.228 141.279 386.994 140.536 386.525C139.797 386.056 139.219 385.401 138.803 384.558C138.391 383.715 138.185 382.73 138.185 381.603C138.185 380.467 138.391 379.475 138.803 378.627C139.219 377.78 139.797 377.122 140.536 376.653C141.279 376.184 142.143 375.95 143.128 375.95C144.113 375.95 144.975 376.184 145.713 376.653C146.457 377.122 147.034 377.78 147.446 378.627C147.863 379.475 148.071 380.467 148.071 381.603C148.071 382.73 147.863 383.715 147.446 384.558C147.034 385.401 146.457 386.056 145.713 386.525C144.975 386.994 144.113 387.228 143.128 387.228ZM143.128 385.723C143.876 385.723 144.492 385.531 144.975 385.147C145.458 384.764 145.815 384.259 146.047 383.634C146.279 383.009 146.395 382.332 146.395 381.603C146.395 380.874 146.279 380.195 146.047 379.565C145.815 378.935 145.458 378.426 144.975 378.038C144.492 377.65 143.876 377.456 143.128 377.456C142.38 377.456 141.764 377.65 141.281 378.038C140.798 378.426 140.441 378.935 140.209 379.565C139.977 380.195 139.861 380.874 139.861 381.603C139.861 382.332 139.977 383.009 140.209 383.634C140.441 384.259 140.798 384.764 141.281 385.147C141.764 385.531 142.38 385.723 143.128 385.723ZM155.204 387.228C154.153 387.228 153.246 386.996 152.483 386.532C151.726 386.063 151.141 385.41 150.729 384.572C150.322 383.729 150.118 382.749 150.118 381.632C150.118 380.514 150.322 379.529 150.729 378.677C151.141 377.82 151.714 377.152 152.448 376.674C153.187 376.191 154.048 375.95 155.033 375.95C155.601 375.95 156.162 376.045 156.716 376.234C157.27 376.423 157.775 376.731 158.229 377.157C158.684 377.579 159.046 378.137 159.316 378.833C159.586 379.529 159.721 380.386 159.721 381.404V382.115H151.312V380.666H158.016C158.016 380.05 157.893 379.501 157.647 379.018C157.405 378.535 157.06 378.154 156.61 377.875C156.165 377.595 155.639 377.456 155.033 377.456C154.366 377.456 153.788 377.621 153.3 377.953C152.817 378.279 152.446 378.706 152.185 379.231C151.925 379.757 151.795 380.32 151.795 380.921V381.887C151.795 382.711 151.937 383.41 152.221 383.983C152.51 384.551 152.91 384.984 153.421 385.282C153.932 385.576 154.527 385.723 155.204 385.723C155.644 385.723 156.042 385.661 156.397 385.538C156.757 385.41 157.067 385.221 157.327 384.97C157.588 384.714 157.789 384.397 157.931 384.018L159.55 384.473C159.38 385.022 159.093 385.505 158.691 385.921C158.288 386.333 157.791 386.655 157.199 386.887C156.608 387.115 155.942 387.228 155.204 387.228ZM163.947 384.529L169.202 376.092H171.134V387.001H169.458V378.563L164.231 387.001H162.27V376.092H163.947V384.529ZM168.094 372.456H169.657C169.657 373.223 169.392 373.85 168.861 374.338C168.331 374.825 167.611 375.069 166.702 375.069C165.807 375.069 165.095 374.825 164.564 374.338C164.039 373.85 163.776 373.223 163.776 372.456H165.339C165.339 372.825 165.44 373.149 165.644 373.429C165.852 373.708 166.205 373.848 166.702 373.848C167.199 373.848 167.555 373.708 167.768 373.429C167.985 373.149 168.094 372.825 168.094 372.456ZM179.829 391.092V376.092H181.448V377.825H181.647C181.77 377.635 181.941 377.394 182.159 377.1C182.381 376.802 182.698 376.537 183.11 376.305C183.527 376.068 184.09 375.95 184.801 375.95C185.719 375.95 186.529 376.179 187.23 376.639C187.93 377.098 188.477 377.749 188.87 378.592C189.263 379.435 189.46 380.429 189.46 381.575C189.46 382.73 189.263 383.732 188.87 384.579C188.477 385.422 187.933 386.075 187.237 386.539C186.541 386.999 185.738 387.228 184.829 387.228C184.128 387.228 183.567 387.112 183.146 386.88C182.724 386.643 182.4 386.376 182.173 386.078C181.945 385.775 181.77 385.524 181.647 385.325H181.505V391.092H179.829ZM181.477 381.546C181.477 382.37 181.597 383.097 181.839 383.727C182.08 384.352 182.433 384.842 182.897 385.197C183.361 385.547 183.929 385.723 184.602 385.723C185.302 385.723 185.887 385.538 186.356 385.169C186.829 384.795 187.185 384.293 187.421 383.663C187.663 383.028 187.784 382.323 187.784 381.546C187.784 380.779 187.665 380.088 187.428 379.473C187.196 378.852 186.844 378.362 186.37 378.002C185.901 377.638 185.312 377.456 184.602 377.456C183.92 377.456 183.347 377.628 182.883 377.974C182.419 378.315 182.069 378.793 181.832 379.409C181.595 380.019 181.477 380.732 181.477 381.546ZM195.227 387.257C194.535 387.257 193.908 387.126 193.345 386.866C192.781 386.601 192.334 386.22 192.002 385.723C191.671 385.221 191.505 384.615 191.505 383.904C191.505 383.279 191.628 382.773 191.874 382.384C192.121 381.992 192.45 381.684 192.862 381.461C193.274 381.239 193.728 381.073 194.225 380.964C194.727 380.85 195.231 380.76 195.738 380.694C196.401 380.609 196.938 380.545 197.35 380.502C197.767 380.455 198.07 380.377 198.259 380.268C198.454 380.159 198.551 379.97 198.551 379.7V379.643C198.551 378.942 198.359 378.398 197.975 378.009C197.597 377.621 197.021 377.427 196.249 377.427C195.449 377.427 194.822 377.602 194.367 377.953C193.913 378.303 193.593 378.677 193.409 379.075L191.818 378.507C192.102 377.844 192.481 377.328 192.954 376.958C193.432 376.584 193.953 376.324 194.517 376.177C195.085 376.026 195.643 375.95 196.193 375.95C196.543 375.95 196.945 375.992 197.4 376.078C197.859 376.158 198.302 376.326 198.728 376.582C199.159 376.838 199.517 377.224 199.801 377.74C200.085 378.256 200.227 378.947 200.227 379.813V387.001H198.551V385.524H198.465C198.352 385.76 198.162 386.014 197.897 386.284C197.632 386.554 197.279 386.783 196.839 386.973C196.399 387.162 195.861 387.257 195.227 387.257ZM195.482 385.751C196.145 385.751 196.704 385.621 197.159 385.36C197.618 385.1 197.963 384.764 198.195 384.352C198.432 383.94 198.551 383.507 198.551 383.052V381.518C198.48 381.603 198.323 381.681 198.082 381.752C197.845 381.819 197.57 381.878 197.258 381.93C196.95 381.977 196.65 382.02 196.356 382.058C196.067 382.091 195.833 382.119 195.653 382.143C195.217 382.2 194.81 382.292 194.431 382.42C194.057 382.543 193.754 382.73 193.522 382.981C193.295 383.227 193.181 383.563 193.181 383.99C193.181 384.572 193.397 385.012 193.828 385.311C194.263 385.604 194.815 385.751 195.482 385.751ZM211.383 372.001L212.235 373.024C211.903 373.346 211.52 373.571 211.084 373.698C210.649 373.826 210.156 373.904 209.607 373.933C209.058 373.961 208.447 373.99 207.775 374.018C207.017 374.046 206.39 374.231 205.893 374.572C205.395 374.913 205.012 375.405 204.742 376.049C204.472 376.693 204.299 377.484 204.224 378.421H204.366C204.735 377.74 205.246 377.238 205.9 376.916C206.553 376.594 207.254 376.433 208.002 376.433C208.854 376.433 209.621 376.632 210.303 377.029C210.985 377.427 211.525 378.017 211.922 378.798C212.32 379.579 212.519 380.543 212.519 381.688C212.519 382.83 212.315 383.814 211.908 384.643C211.506 385.472 210.94 386.111 210.211 386.561C209.486 387.006 208.636 387.228 207.661 387.228C206.686 387.228 205.831 386.999 205.097 386.539C204.363 386.075 203.793 385.389 203.385 384.48C202.978 383.566 202.775 382.437 202.775 381.092V379.927C202.775 377.498 203.187 375.656 204.01 374.402C204.839 373.147 206.084 372.498 207.746 372.456C208.333 372.437 208.857 372.432 209.316 372.441C209.775 372.451 210.175 372.429 210.516 372.377C210.857 372.325 211.146 372.2 211.383 372.001ZM207.661 385.723C208.319 385.723 208.885 385.557 209.358 385.225C209.837 384.894 210.204 384.428 210.459 383.826C210.715 383.22 210.843 382.508 210.843 381.688C210.843 380.893 210.713 380.216 210.452 379.657C210.197 379.099 209.83 378.672 209.351 378.379C208.873 378.085 208.3 377.938 207.633 377.938C207.145 377.938 206.707 378.021 206.319 378.187C205.93 378.353 205.599 378.597 205.324 378.919C205.05 379.241 204.837 379.634 204.685 380.098C204.538 380.562 204.46 381.092 204.451 381.688C204.451 382.91 204.737 383.888 205.31 384.622C205.883 385.356 206.667 385.723 207.661 385.723ZM219.515 387.228C218.53 387.228 217.666 386.994 216.922 386.525C216.184 386.056 215.606 385.401 215.189 384.558C214.778 383.715 214.572 382.73 214.572 381.603C214.572 380.467 214.778 379.475 215.189 378.627C215.606 377.78 216.184 377.122 216.922 376.653C217.666 376.184 218.53 375.95 219.515 375.95C220.5 375.95 221.361 376.184 222.1 376.653C222.843 377.122 223.421 377.78 223.833 378.627C224.25 379.475 224.458 380.467 224.458 381.603C224.458 382.73 224.25 383.715 223.833 384.558C223.421 385.401 222.843 386.056 222.1 386.525C221.361 386.994 220.5 387.228 219.515 387.228ZM219.515 385.723C220.263 385.723 220.878 385.531 221.361 385.147C221.844 384.764 222.202 384.259 222.434 383.634C222.666 383.009 222.782 382.332 222.782 381.603C222.782 380.874 222.666 380.195 222.434 379.565C222.202 378.935 221.844 378.426 221.361 378.038C220.878 377.65 220.263 377.456 219.515 377.456C218.767 377.456 218.151 377.65 217.668 378.038C217.185 378.426 216.828 378.935 216.596 379.565C216.364 380.195 216.248 380.874 216.248 381.603C216.248 382.332 216.364 383.009 216.596 383.634C216.828 384.259 217.185 384.764 217.668 385.147C218.151 385.531 218.767 385.723 219.515 385.723ZM225.591 377.654V376.092H234.454V377.654H230.875V387.001H229.199V377.654H225.591ZM240.907 387.228C239.856 387.228 238.949 386.996 238.187 386.532C237.429 386.063 236.844 385.41 236.432 384.572C236.025 383.729 235.822 382.749 235.822 381.632C235.822 380.514 236.025 379.529 236.432 378.677C236.844 377.82 237.417 377.152 238.151 376.674C238.89 376.191 239.751 375.95 240.736 375.95C241.305 375.95 241.866 376.045 242.42 376.234C242.974 376.423 243.478 376.731 243.932 377.157C244.387 377.579 244.749 378.137 245.019 378.833C245.289 379.529 245.424 380.386 245.424 381.404V382.115H237.015V380.666H243.719C243.719 380.05 243.596 379.501 243.35 379.018C243.108 378.535 242.763 378.154 242.313 377.875C241.868 377.595 241.342 377.456 240.736 377.456C240.069 377.456 239.491 377.621 239.003 377.953C238.52 378.279 238.149 378.706 237.888 379.231C237.628 379.757 237.498 380.32 237.498 380.921V381.887C237.498 382.711 237.64 383.41 237.924 383.983C238.213 384.551 238.613 384.984 239.124 385.282C239.635 385.576 240.23 385.723 240.907 385.723C241.347 385.723 241.745 385.661 242.1 385.538C242.46 385.41 242.77 385.221 243.03 384.97C243.291 384.714 243.492 384.397 243.634 384.018L245.253 384.473C245.083 385.022 244.796 385.505 244.394 385.921C243.992 386.333 243.494 386.655 242.903 386.887C242.311 387.115 241.645 387.228 240.907 387.228ZM22.1497 408.529L27.4054 400.092H29.3372V411.001H27.661V402.563L22.4338 411.001H20.4735V400.092H22.1497V408.529ZM36.8674 414.126V409.438H37.7765C37.999 409.206 38.1908 408.956 38.3517 408.686C38.5127 408.416 38.6524 408.096 38.7708 407.727C38.8939 407.353 38.998 406.898 39.0833 406.363C39.1685 405.823 39.2443 405.172 39.3105 404.41L39.6799 400.092H46.6117V409.438H48.2878V414.126H46.6117V411.001H38.5435V414.126H36.8674ZM39.6799 409.438H44.9355V401.654H41.2424L40.9583 404.41C40.8399 405.551 40.6931 406.548 40.5179 407.4C40.3427 408.252 40.0634 408.932 39.6799 409.438ZM54.9444 411.228C53.9596 411.228 53.0955 410.994 52.3521 410.525C51.6135 410.056 51.0358 409.401 50.6191 408.558C50.2072 407.715 50.0012 406.73 50.0012 405.603C50.0012 404.467 50.2072 403.475 50.6191 402.627C51.0358 401.78 51.6135 401.122 52.3521 400.653C53.0955 400.184 53.9596 399.95 54.9444 399.95C55.9293 399.95 56.791 400.184 57.5297 400.653C58.273 401.122 58.8507 401.78 59.2626 402.627C59.6793 403.475 59.8876 404.467 59.8876 405.603C59.8876 406.73 59.6793 407.715 59.2626 408.558C58.8507 409.401 58.273 410.056 57.5297 410.525C56.791 410.994 55.9293 411.228 54.9444 411.228ZM54.9444 409.723C55.6925 409.723 56.3081 409.531 56.791 409.147C57.274 408.764 57.6315 408.259 57.8635 407.634C58.0955 407.009 58.2115 406.332 58.2115 405.603C58.2115 404.874 58.0955 404.195 57.8635 403.565C57.6315 402.935 57.274 402.426 56.791 402.038C56.3081 401.65 55.6925 401.456 54.9444 401.456C54.1963 401.456 53.5808 401.65 53.0978 402.038C52.6149 402.426 52.2574 402.935 52.0254 403.565C51.7934 404.195 51.6774 404.874 51.6774 405.603C51.6774 406.332 51.7934 407.009 52.0254 407.634C52.2574 408.259 52.6149 408.764 53.0978 409.147C53.5808 409.531 54.1963 409.723 54.9444 409.723ZM66.878 411.228C65.8553 411.228 64.9746 410.987 64.236 410.504C63.4973 410.021 62.9292 409.356 62.5314 408.508C62.1337 407.661 61.9348 406.692 61.9348 405.603C61.9348 404.495 62.1384 403.518 62.5456 402.67C62.9576 401.818 63.5305 401.152 64.2644 400.674C65.003 400.191 65.8648 399.95 66.8496 399.95C67.6167 399.95 68.3079 400.092 68.9235 400.376C69.539 400.66 70.0433 401.058 70.4363 401.569C70.8292 402.081 71.0731 402.677 71.1678 403.359H69.4917C69.3638 402.862 69.0797 402.421 68.6394 402.038C68.2038 401.65 67.6167 401.456 66.878 401.456C66.2246 401.456 65.6517 401.626 65.1593 401.967C64.6716 402.303 64.2904 402.779 64.0158 403.394C63.7459 404.005 63.611 404.723 63.611 405.546C63.611 406.389 63.7435 407.123 64.0087 407.748C64.2786 408.373 64.6574 408.858 65.1451 409.204C65.6375 409.55 66.2151 409.723 66.878 409.723C67.3136 409.723 67.709 409.647 68.0641 409.495C68.4192 409.344 68.7199 409.126 68.9661 408.842C69.2123 408.558 69.3875 408.217 69.4917 407.819H71.1678C71.0731 408.463 70.8387 409.043 70.4647 409.559C70.0953 410.071 69.6053 410.478 68.9945 410.781C68.3884 411.079 67.6829 411.228 66.878 411.228ZM72.7587 401.654V400.092H81.6223V401.654H78.0428V411.001H76.3667V401.654H72.7587ZM85.7434 408.529L90.9991 400.092H92.9309V411.001H91.2548V402.563L86.0275 411.001H84.0673V400.092H85.7434V408.529ZM95.3191 411.001L99.7509 405.461L95.3759 400.092H97.3645L101.001 404.751H101.91V400.092H103.586V404.751H104.467L108.103 400.092H110.092L105.745 405.461L110.149 411.001H108.132L104.438 406.313H103.586V411.001H101.91V406.313H101.058L97.3361 411.001H95.3191ZM116.669 411.228C115.617 411.228 114.711 410.996 113.948 410.532C113.191 410.063 112.606 409.41 112.194 408.572C111.787 407.729 111.583 406.749 111.583 405.632C111.583 404.514 111.787 403.529 112.194 402.677C112.606 401.82 113.179 401.152 113.913 400.674C114.651 400.191 115.513 399.95 116.498 399.95C117.066 399.95 117.627 400.045 118.181 400.234C118.735 400.423 119.24 400.731 119.694 401.157C120.149 401.579 120.511 402.137 120.781 402.833C121.051 403.529 121.186 404.386 121.186 405.404V406.115H112.776V404.666H119.481C119.481 404.05 119.358 403.501 119.112 403.018C118.87 402.535 118.525 402.154 118.075 401.875C117.63 401.595 117.104 401.456 116.498 401.456C115.83 401.456 115.253 401.621 114.765 401.953C114.282 402.279 113.91 402.706 113.65 403.231C113.39 403.757 113.259 404.32 113.259 404.921V405.887C113.259 406.711 113.401 407.41 113.686 407.983C113.974 408.551 114.374 408.984 114.886 409.282C115.397 409.576 115.991 409.723 116.669 409.723C117.109 409.723 117.507 409.661 117.862 409.538C118.222 409.41 118.532 409.221 118.792 408.97C119.052 408.714 119.254 408.397 119.396 408.018L121.015 408.473C120.845 409.022 120.558 409.505 120.156 409.921C119.753 410.333 119.256 410.655 118.664 410.887C118.072 411.115 117.407 411.228 116.669 411.228ZM131.036 404.779V406.342H125.014V404.779H131.036ZM125.411 400.092V411.001H123.735V400.092H125.411ZM132.315 400.092V411.001H130.639V400.092H132.315ZM137.052 408.529L142.308 400.092H144.24V411.001H142.563V402.563L137.336 411.001H135.376V400.092H137.052V408.529ZM153.872 411.001V401.626H150.974C150.321 401.626 149.807 401.777 149.433 402.081C149.059 402.384 148.872 402.8 148.872 403.331C148.872 403.851 149.04 404.261 149.376 404.559C149.717 404.858 150.184 405.007 150.775 405.007H154.298V406.569H150.775C150.037 406.569 149.4 406.439 148.865 406.179C148.33 405.918 147.918 405.546 147.629 405.063C147.34 404.576 147.196 403.998 147.196 403.331C147.196 402.658 147.347 402.081 147.65 401.598C147.953 401.115 148.387 400.743 148.95 400.483C149.518 400.222 150.193 400.092 150.974 400.092H155.463V411.001H153.872ZM146.599 411.001L149.696 405.575H151.514L148.417 411.001H146.599ZM159.79 400.092L162.404 404.552L165.017 400.092H166.949L163.426 405.546L166.949 411.001H165.017L162.404 406.768L159.79 411.001H157.858L161.324 405.546L157.858 400.092H159.79ZM20.4735 435.001V424.092H24.9338C26.108 424.092 27.0408 424.357 27.7321 424.887C28.4234 425.418 28.769 426.118 28.769 426.99C28.769 427.652 28.5725 428.166 28.1795 428.531C27.7865 428.891 27.2823 429.134 26.6667 429.262C27.0692 429.319 27.4598 429.461 27.8386 429.688C28.2221 429.916 28.5394 430.228 28.7903 430.626C29.0413 431.019 29.1667 431.502 29.1667 432.075C29.1667 432.634 29.0247 433.133 28.7406 433.573C28.4565 434.014 28.0493 434.362 27.519 434.617C26.9887 434.873 26.3542 435.001 25.6156 435.001H20.4735ZM22.0645 433.467H25.6156C26.1932 433.467 26.6454 433.33 26.9721 433.055C27.2988 432.78 27.4622 432.406 27.4622 431.933C27.4622 431.369 27.2988 430.927 26.9721 430.605C26.6454 430.278 26.1932 430.115 25.6156 430.115H22.0645V433.467ZM22.0645 428.666H24.9338C25.3836 428.666 25.7695 428.604 26.0914 428.481C26.4134 428.353 26.6596 428.173 26.8301 427.941C27.0053 427.705 27.0929 427.425 27.0929 427.103C27.0929 426.644 26.9011 426.284 26.5176 426.024C26.1341 425.759 25.6061 425.626 24.9338 425.626H22.0645V428.666ZM41.7608 435.228C40.7381 435.228 39.8574 434.987 39.1188 434.504C38.3801 434.021 37.812 433.356 37.4142 432.508C37.0165 431.661 36.8176 430.692 36.8176 429.603C36.8176 428.495 37.0212 427.518 37.4284 426.67C37.8404 425.818 38.4133 425.152 39.1472 424.674C39.8858 424.191 40.7476 423.95 41.7324 423.95C42.4995 423.95 43.1908 424.092 43.8063 424.376C44.4218 424.66 44.9261 425.058 45.3191 425.569C45.7121 426.081 45.9559 426.677 46.0506 427.359H44.3745C44.2466 426.862 43.9625 426.421 43.5222 426.038C43.0866 425.65 42.4995 425.456 41.7608 425.456C41.1074 425.456 40.5345 425.626 40.0421 425.967C39.5544 426.303 39.1732 426.779 38.8986 427.394C38.6287 428.005 38.4938 428.723 38.4938 429.546C38.4938 430.389 38.6264 431.123 38.8915 431.748C39.1614 432.373 39.5402 432.858 40.0279 433.204C40.5203 433.55 41.098 433.723 41.7608 433.723C42.1964 433.723 42.5918 433.647 42.9469 433.495C43.302 433.344 43.6027 433.126 43.8489 432.842C44.0951 432.558 44.2703 432.217 44.3745 431.819H46.0506C45.9559 432.463 45.7215 433.043 45.3475 433.559C44.9782 434.071 44.4881 434.478 43.8773 434.781C43.2712 435.079 42.5658 435.228 41.7608 435.228ZM52.9327 435.228C51.9479 435.228 51.0837 434.994 50.3404 434.525C49.6017 434.056 49.0241 433.401 48.6074 432.558C48.1955 431.715 47.9895 430.73 47.9895 429.603C47.9895 428.467 48.1955 427.475 48.6074 426.627C49.0241 425.78 49.6017 425.122 50.3404 424.653C51.0837 424.184 51.9479 423.95 52.9327 423.95C53.9176 423.95 54.7793 424.184 55.5179 424.653C56.2613 425.122 56.839 425.78 57.2509 426.627C57.6676 427.475 57.8759 428.467 57.8759 429.603C57.8759 430.73 57.6676 431.715 57.2509 432.558C56.839 433.401 56.2613 434.056 55.5179 434.525C54.7793 434.994 53.9176 435.228 52.9327 435.228ZM52.9327 433.723C53.6808 433.723 54.2963 433.531 54.7793 433.147C55.2623 432.764 55.6197 432.259 55.8517 431.634C56.0837 431.009 56.1998 430.332 56.1998 429.603C56.1998 428.874 56.0837 428.195 55.8517 427.565C55.6197 426.935 55.2623 426.426 54.7793 426.038C54.2963 425.65 53.6808 425.456 52.9327 425.456C52.1846 425.456 51.5691 425.65 51.0861 426.038C50.6032 426.426 50.2457 426.935 50.0137 427.565C49.7817 428.195 49.6657 428.874 49.6657 429.603C49.6657 430.332 49.7817 431.009 50.0137 431.634C50.2457 432.259 50.6032 432.764 51.0861 433.147C51.5691 433.531 52.1846 433.723 52.9327 433.723ZM69.014 424.092V433.438H70.5481V438.524H68.872V435.001H60.4345V424.092H62.1106V433.438H67.3379V424.092H69.014ZM74.8059 432.529L80.0616 424.092H81.9934V435.001H80.3173V426.563L75.09 435.001H73.1298V424.092H74.8059V432.529ZM88.2736 435.257C87.5823 435.257 86.955 435.126 86.3915 434.866C85.8281 434.601 85.3806 434.22 85.0492 433.723C84.7177 433.221 84.552 432.615 84.552 431.904C84.552 431.279 84.6751 430.773 84.9213 430.384C85.1676 429.992 85.4966 429.684 85.9086 429.461C86.3205 429.239 86.775 429.073 87.2722 428.964C87.7741 428.85 88.2783 428.76 88.785 428.694C89.4479 428.609 89.9853 428.545 90.3972 428.502C90.8139 428.455 91.1169 428.377 91.3063 428.268C91.5004 428.159 91.5975 427.97 91.5975 427.7V427.643C91.5975 426.942 91.4057 426.398 91.0222 426.009C90.6434 425.621 90.0681 425.427 89.2963 425.427C88.4962 425.427 87.8688 425.602 87.4142 425.953C86.9597 426.303 86.6401 426.677 86.4554 427.075L84.8645 426.507C85.1486 425.844 85.5274 425.328 86.0009 424.958C86.4791 424.584 86.9999 424.324 87.5634 424.177C88.1316 424.026 88.6903 423.95 89.2395 423.95C89.5899 423.95 89.9924 423.992 90.4469 424.078C90.9062 424.158 91.3489 424.326 91.775 424.582C92.2059 424.838 92.5634 425.224 92.8475 425.74C93.1316 426.256 93.2736 426.947 93.2736 427.813V435.001H91.5975V433.524H91.5123C91.3986 433.76 91.2092 434.014 90.9441 434.284C90.6789 434.554 90.3262 434.783 89.8858 434.973C89.4455 435.162 88.9081 435.257 88.2736 435.257ZM88.5293 433.751C89.1922 433.751 89.7509 433.621 90.2054 433.36C90.6647 433.1 91.0104 432.764 91.2424 432.352C91.4791 431.94 91.5975 431.507 91.5975 431.052V429.518C91.5265 429.603 91.3702 429.681 91.1287 429.752C90.892 429.819 90.6174 429.878 90.3049 429.93C89.9971 429.977 89.6964 430.02 89.4029 430.058C89.1141 430.091 88.8797 430.119 88.6998 430.143C88.2641 430.2 87.8569 430.292 87.4782 430.42C87.1041 430.543 86.8011 430.73 86.5691 430.981C86.3418 431.227 86.2282 431.563 86.2282 431.99C86.2282 432.572 86.4436 433.012 86.8745 433.311C87.3101 433.604 87.8617 433.751 88.5293 433.751ZM95.367 435.001V433.438H95.7647C96.0914 433.438 96.3637 433.375 96.5815 433.247C96.7993 433.114 96.9745 432.884 97.1071 432.558C97.2444 432.226 97.3485 431.767 97.4196 431.18C97.4953 430.588 97.5498 429.835 97.5829 428.921L97.7818 424.092H105.055V435.001H103.378V425.654H99.3727L99.2022 429.546C99.1644 430.441 99.0839 431.23 98.9608 431.911C98.8424 432.589 98.6601 433.157 98.4139 433.616C98.1724 434.075 97.8504 434.421 97.448 434.653C97.0455 434.885 96.5413 435.001 95.9352 435.001H95.367ZM109.579 428.041H112.704C113.982 428.041 114.96 428.365 115.637 429.014C116.314 429.662 116.653 430.484 116.653 431.478C116.653 432.132 116.501 432.726 116.198 433.261C115.895 433.791 115.45 434.215 114.863 434.532C114.276 434.845 113.556 435.001 112.704 435.001H108.13V424.092H109.806V433.438H112.704C113.367 433.438 113.911 433.263 114.337 432.913C114.763 432.563 114.976 432.113 114.976 431.563C114.976 430.986 114.763 430.515 114.337 430.15C113.911 429.786 113.367 429.603 112.704 429.603H109.579V428.041ZM126.505 428.779V430.342H120.482V428.779H126.505ZM120.88 424.092V435.001H119.204V424.092H120.88ZM127.784 424.092V435.001H126.107V424.092H127.784ZM132.294 428.041H135.419C136.697 428.041 137.675 428.365 138.352 429.014C139.029 429.662 139.367 430.484 139.367 431.478C139.367 432.132 139.216 432.726 138.913 433.261C138.61 433.791 138.165 434.215 137.578 434.532C136.99 434.845 136.271 435.001 135.419 435.001H130.845V424.092H132.521V433.438H135.419C136.081 433.438 136.626 433.263 137.052 432.913C137.478 432.563 137.691 432.113 137.691 431.563C137.691 430.986 137.478 430.515 137.052 430.15C136.626 429.786 136.081 429.603 135.419 429.603H132.294V428.041ZM141.1 435.001V424.092H142.776V435.001H141.1ZM147.095 424.092L149.708 428.552L152.322 424.092H154.254L150.731 429.546L154.254 435.001H152.322L149.708 430.768L147.095 435.001H145.163L148.629 429.546L145.163 424.092H147.095ZM166.702 435.228C165.68 435.228 164.799 434.987 164.06 434.504C163.322 434.021 162.753 433.356 162.356 432.508C161.958 431.661 161.759 430.692 161.759 429.603C161.759 428.495 161.963 427.518 162.37 426.67C162.782 425.818 163.355 425.152 164.089 424.674C164.827 424.191 165.689 423.95 166.674 423.95C167.441 423.95 168.132 424.092 168.748 424.376C169.363 424.66 169.867 425.058 170.26 425.569C170.653 426.081 170.897 426.677 170.992 427.359H169.316C169.188 426.862 168.904 426.421 168.464 426.038C168.028 425.65 167.441 425.456 166.702 425.456C166.049 425.456 165.476 425.626 164.983 425.967C164.496 426.303 164.115 426.779 163.84 427.394C163.57 428.005 163.435 428.723 163.435 429.546C163.435 430.389 163.568 431.123 163.833 431.748C164.103 432.373 164.482 432.858 164.969 433.204C165.462 433.55 166.039 433.723 166.702 433.723C167.138 433.723 167.533 433.647 167.888 433.495C168.243 433.344 168.544 433.126 168.79 432.842C169.037 432.558 169.212 432.217 169.316 431.819H170.992C170.897 432.463 170.663 433.043 170.289 433.559C169.92 434.071 169.43 434.478 168.819 434.781C168.213 435.079 167.507 435.228 166.702 435.228ZM178.016 435.228C176.965 435.228 176.058 434.996 175.296 434.532C174.538 434.063 173.954 433.41 173.542 432.572C173.135 431.729 172.931 430.749 172.931 429.632C172.931 428.514 173.135 427.529 173.542 426.677C173.954 425.82 174.527 425.152 175.26 424.674C175.999 424.191 176.861 423.95 177.846 423.95C178.414 423.95 178.975 424.045 179.529 424.234C180.083 424.423 180.587 424.731 181.042 425.157C181.496 425.579 181.858 426.137 182.128 426.833C182.398 427.529 182.533 428.386 182.533 429.404V430.115H174.124V428.666H180.829C180.829 428.05 180.706 427.501 180.459 427.018C180.218 426.535 179.872 426.154 179.422 425.875C178.977 425.595 178.452 425.456 177.846 425.456C177.178 425.456 176.6 425.621 176.113 425.953C175.63 426.279 175.258 426.706 174.998 427.231C174.737 427.757 174.607 428.32 174.607 428.921V429.887C174.607 430.711 174.749 431.41 175.033 431.983C175.322 432.551 175.722 432.984 176.233 433.282C176.745 433.576 177.339 433.723 178.016 433.723C178.456 433.723 178.854 433.661 179.209 433.538C179.569 433.41 179.879 433.221 180.14 432.97C180.4 432.714 180.601 432.397 180.743 432.018L182.363 432.473C182.192 433.022 181.906 433.505 181.503 433.921C181.101 434.333 180.604 434.655 180.012 434.887C179.42 435.115 178.755 435.228 178.016 435.228ZM184.067 425.654V424.092H192.931V425.654H189.351V435.001H187.675V425.654H184.067ZM201.938 435.001V425.626H199.041C198.387 425.626 197.874 425.777 197.499 426.081C197.125 426.384 196.938 426.8 196.938 427.331C196.938 427.851 197.106 428.261 197.443 428.559C197.784 428.858 198.25 429.007 198.842 429.007H202.365V430.569H198.842C198.103 430.569 197.466 430.439 196.931 430.179C196.396 429.918 195.984 429.546 195.695 429.063C195.407 428.576 195.262 427.998 195.262 427.331C195.262 426.658 195.414 426.081 195.717 425.598C196.02 425.115 196.453 424.743 197.017 424.483C197.585 424.222 198.259 424.092 199.041 424.092H203.529V435.001H201.938ZM194.666 435.001L197.762 429.575H199.58L196.484 435.001H194.666ZM207.856 424.092L210.47 428.552L213.084 424.092H215.015L211.493 429.546L215.015 435.001H213.084L210.47 430.768L207.856 435.001H205.925L209.39 429.546L205.925 424.092H207.856ZM219.623 420.456L219.481 430.91H217.833L217.691 420.456H219.623ZM218.657 435.115C218.307 435.115 218.006 434.989 217.755 434.738C217.504 434.487 217.379 434.187 217.379 433.836C217.379 433.486 217.504 433.185 217.755 432.934C218.006 432.683 218.307 432.558 218.657 432.558C219.008 432.558 219.308 432.683 219.559 432.934C219.81 433.185 219.936 433.486 219.936 433.836C219.936 434.068 219.876 434.281 219.758 434.475C219.644 434.67 219.49 434.826 219.296 434.944C219.107 435.058 218.894 435.115 218.657 435.115Z" fill="#0B0B0B"/>
<path d="M172.867 235.168L155.561 265.87L181.765 244.077C181.765 244.077 274.862 290.564 315.932 235.168C357.002 179.773 213.364 141.448 172.867 193.979C167.383 201.077 157.118 218.127 172.867 235.168Z" fill="white"/>
<path fill-rule="evenodd" clip-rule="evenodd" d="M229.1 202.596C228.309 202.36 227.488 202.402 226.594 202.914C225.714 203.42 225.09 204.297 224.539 205.412C224.293 205.908 224.079 206.416 223.859 206.937C223.833 206.998 223.807 207.059 223.781 207.121C223.541 207.686 223.284 208.283 222.99 208.803C222.698 209.317 222.316 209.859 221.775 210.24C221.19 210.653 220.492 210.827 219.714 210.705C218.986 210.59 218.247 210.225 217.481 209.687C216.707 209.142 215.836 208.369 214.84 207.344C211.16 203.557 207.641 202.603 204.866 203.055C202.052 203.514 199.765 205.451 198.616 207.909L198.615 207.909C198.228 208.736 197.692 209.41 196.928 209.751C196.146 210.099 195.36 209.994 194.704 209.754C194.062 209.52 193.438 209.119 192.869 208.702C192.377 208.343 191.869 207.926 191.378 207.524C191.296 207.457 191.214 207.39 191.133 207.323C189.938 206.347 188.887 205.544 187.925 205.229C187.478 205.082 187.114 205.065 186.798 205.149C186.487 205.232 186.106 205.443 185.674 205.953L183.908 204.458C184.579 203.665 185.345 203.141 186.204 202.913C187.059 202.685 187.891 202.782 188.646 203.029C190.09 203.502 191.472 204.612 192.597 205.531C192.683 205.602 192.769 205.671 192.853 205.74C193.347 206.145 193.8 206.516 194.236 206.835C194.752 207.213 195.166 207.459 195.498 207.581C195.816 207.697 195.94 207.657 195.986 207.637C196.05 207.608 196.26 207.481 196.519 206.928C197.955 203.858 200.841 201.366 204.494 200.771C208.185 200.169 212.425 201.538 216.5 205.731C217.442 206.7 218.201 207.363 218.813 207.794C219.434 208.231 219.838 208.381 220.075 208.419C220.262 208.448 220.351 208.412 220.441 208.349C220.574 208.255 220.753 208.056 220.976 207.662C221.195 207.275 221.405 206.797 221.65 206.218C221.675 206.158 221.701 206.097 221.727 206.035C221.944 205.521 222.186 204.948 222.464 204.386C223.084 203.133 223.963 201.757 225.441 200.907L225.443 200.906C226.907 200.068 228.386 199.967 229.763 200.378C231.096 200.777 232.273 201.635 233.261 202.618C235.02 204.367 236.389 206.719 237.176 208.442C237.96 207.085 239.323 205.015 242.061 203.553C243.496 202.786 244.728 202.454 245.858 202.598C247.01 202.745 247.84 203.359 248.503 203.993C248.859 204.332 249.176 204.674 249.485 205.007C250.383 205.976 251.213 206.871 252.745 207.434C253.855 207.842 254.593 207.965 255.123 207.94C255.613 207.917 255.991 207.767 256.393 207.469C256.837 207.142 257.286 206.656 257.912 205.938C257.985 205.854 258.061 205.767 258.138 205.678C258.698 205.034 259.365 204.266 260.197 203.437C261.257 202.382 262.379 201.806 263.635 201.715C264.841 201.628 266.017 202.001 267.165 202.509C267.98 202.87 268.877 203.345 269.828 203.849C270.203 204.048 270.587 204.251 270.977 204.453C272.39 205.185 273.985 205.961 275.859 206.648C277.71 207.327 278.946 207.486 279.846 207.389C280.711 207.296 281.375 206.955 282.078 206.396C282.441 206.107 282.805 205.767 283.216 205.37C283.306 205.283 283.399 205.193 283.495 205.1C283.823 204.781 284.181 204.433 284.564 204.083C285.569 203.166 286.797 202.188 288.48 201.338V201.338C290.361 200.385 292.072 200.462 293.587 201.194C295.013 201.884 296.192 203.121 297.195 204.321C297.627 204.839 298.017 205.335 298.39 205.809C298.948 206.52 299.468 207.182 300.036 207.795C300.966 208.798 301.71 209.293 302.377 209.373L302.103 211.671C300.563 211.487 299.33 210.437 298.339 209.368C297.726 208.707 297.083 207.892 296.467 207.11C296.104 206.651 295.751 206.203 295.419 205.805C294.443 204.638 293.53 203.738 292.579 203.278C291.716 202.861 290.764 202.775 289.525 203.403L289.524 203.403C288.087 204.129 287.032 204.965 286.124 205.793C285.771 206.115 285.448 206.43 285.124 206.744C285.024 206.841 284.924 206.938 284.824 207.035C284.406 207.438 283.975 207.844 283.52 208.206C282.587 208.949 281.52 209.537 280.094 209.69C278.703 209.84 277.088 209.564 275.062 208.821C273.058 208.086 271.365 207.261 269.912 206.508C269.468 206.278 269.054 206.059 268.664 205.852C267.749 205.367 266.964 204.952 266.228 204.626C265.189 204.166 264.436 203.977 263.802 204.023C263.219 204.065 262.593 204.318 261.83 205.077C261.061 205.843 260.449 206.547 259.888 207.193C259.81 207.283 259.733 207.372 259.656 207.459C259.052 208.152 258.446 208.83 257.769 209.331C257.049 209.862 256.239 210.205 255.231 210.252C254.264 210.297 253.194 210.065 251.946 209.606C249.836 208.83 248.509 207.386 247.568 206.362C247.324 206.095 247.105 205.857 246.905 205.667C246.39 205.175 246.002 204.95 245.566 204.894C245.108 204.836 244.38 204.938 243.152 205.594C240.79 206.856 239.706 208.664 239.009 209.9C238.985 209.942 238.961 209.985 238.937 210.029C238.792 210.286 238.642 210.554 238.503 210.766C238.419 210.893 238.313 211.041 238.184 211.176C238.063 211.303 237.856 211.49 237.555 211.596C237.207 211.72 236.834 211.7 236.501 211.543C236.212 211.408 236.018 211.2 235.898 211.047C235.663 210.748 235.471 210.341 235.297 209.92C234.643 208.346 233.309 205.929 231.629 204.259C230.792 203.426 229.934 202.845 229.1 202.596Z" fill="black"/>
<path fill-rule="evenodd" clip-rule="evenodd" d="M260.279 224.751C259.646 225.32 258.876 226.328 257.79 227.986C257.155 228.957 256.402 229.645 255.525 230.039C254.646 230.434 253.741 230.49 252.879 230.361C251.233 230.116 249.556 229.157 248.156 228.357C246.629 227.485 245.419 226.795 244.408 226.63C243.953 226.556 243.628 226.607 243.365 226.745C243.095 226.887 242.756 227.192 242.411 227.874L240.346 226.83C240.839 225.855 241.474 225.125 242.287 224.697C243.107 224.266 243.971 224.213 244.782 224.346C246.221 224.582 247.757 225.462 249.082 226.22C249.157 226.263 249.231 226.306 249.304 226.348C250.804 227.205 252.088 227.903 253.221 228.072C253.748 228.151 254.187 228.103 254.576 227.928C254.966 227.753 255.405 227.405 255.854 226.719C256.938 225.062 257.851 223.822 258.73 223.03C259.662 222.192 260.67 221.76 261.855 221.949C262.894 222.116 263.906 222.748 264.937 223.481C265.426 223.828 265.961 224.23 266.542 224.667C266.599 224.71 266.657 224.753 266.715 224.797C267.368 225.288 268.09 225.828 268.905 226.411C269.729 227 270.346 227.423 270.817 227.717C271.047 227.86 271.225 227.961 271.361 228.031C271.368 228.016 271.374 228.001 271.381 227.986C271.585 227.509 271.926 226.71 272.604 225.895C273.416 224.92 274.669 223.947 276.702 223.136C278.743 222.321 280.456 222.156 281.938 222.493C283.417 222.828 284.526 223.632 285.412 224.491C285.852 224.918 286.248 225.37 286.607 225.793C286.712 225.916 286.813 226.036 286.91 226.151C287.156 226.444 287.383 226.713 287.616 226.971C288.276 227.702 288.777 228.087 289.276 228.213C289.794 228.344 290.129 228.246 290.45 228.029C290.843 227.764 291.223 227.311 291.714 226.648C291.783 226.555 291.854 226.458 291.928 226.357C292.335 225.799 292.817 225.141 293.372 224.585C294.053 223.904 294.923 223.29 296.082 223.073C298.146 222.686 299.909 223.305 301.11 223.974C301.714 224.31 302.194 224.668 302.525 224.944C302.692 225.083 302.822 225.202 302.914 225.29C302.961 225.334 302.997 225.37 303.024 225.397C303.037 225.411 303.048 225.422 303.056 225.43L303.067 225.442L303.071 225.446L303.073 225.447L303.073 225.448C303.074 225.448 303.074 225.449 302.231 226.241C301.387 227.034 301.388 227.034 301.388 227.034L301.39 227.037C301.389 227.036 301.388 227.034 301.385 227.032C301.384 227.03 301.382 227.028 301.379 227.026C301.367 227.014 301.347 226.993 301.318 226.965C301.259 226.909 301.167 226.825 301.044 226.723C300.798 226.518 300.436 226.248 299.984 225.996C299.074 225.489 297.868 225.093 296.508 225.348C295.955 225.452 295.484 225.746 295.009 226.221C294.591 226.639 294.232 227.13 293.821 227.69C293.741 227.799 293.659 227.911 293.574 228.025C293.096 228.671 292.507 229.433 291.745 229.947C290.911 230.511 289.904 230.758 288.711 230.457L288.71 230.457C287.501 230.152 286.607 229.306 285.9 228.524C285.636 228.233 285.369 227.915 285.113 227.611C285.022 227.502 284.931 227.395 284.843 227.291C284.496 226.883 284.158 226.5 283.8 226.152C283.089 225.462 282.343 224.958 281.426 224.749C280.511 224.542 279.285 224.596 277.56 225.285C275.826 225.977 274.911 226.741 274.383 227.376C273.937 227.912 273.735 228.378 273.53 228.85C273.485 228.954 273.44 229.058 273.392 229.163C273.285 229.398 273.073 229.861 272.648 230.168C272.11 230.558 271.511 230.532 271.031 230.392C270.593 230.264 270.113 230.005 269.594 229.682C269.057 229.347 268.39 228.888 267.559 228.294C266.72 227.694 265.979 227.139 265.324 226.647C265.267 226.604 265.211 226.562 265.156 226.521C264.568 226.078 264.058 225.695 263.597 225.367C262.546 224.621 261.933 224.306 261.489 224.235C261.192 224.187 260.86 224.228 260.279 224.751Z" fill="black"/>
<path d="M128.31 269.142L135.766 282.177L122.611 274.627C122.611 274.627 62.9843 303.249 36.6802 269.142C10.3761 235.035 102.373 211.438 128.31 243.782C131.822 248.152 138.397 258.65 128.31 269.142Z" fill="white"/>
<path fill-rule="evenodd" clip-rule="evenodd" d="M92.8279 253.032C92.9021 253.047 93.0712 253.112 93.3232 253.385C93.8283 253.936 94.2194 254.958 94.5603 256.266C94.7074 256.831 94.836 257.408 94.9633 257.98C94.9783 258.047 94.9934 258.115 95.0084 258.182C95.148 258.807 95.2902 259.432 95.4506 259.969C95.6041 260.483 95.8055 261.032 96.1097 261.439C96.2687 261.652 96.4959 261.881 96.8143 262.021C97.1551 262.171 97.519 262.183 97.8624 262.08C98.4623 261.901 98.9539 261.388 99.3718 260.83C99.8217 260.23 100.323 259.384 100.896 258.266C101.987 256.135 103.029 254.864 103.939 254.192C104.817 253.544 105.535 253.473 106.129 253.657C106.775 253.857 107.46 254.415 108.095 255.375C108.724 256.324 109.249 257.586 109.604 259.027L109.604 259.028C109.795 259.799 110.067 260.518 110.562 260.937C110.853 261.183 111.218 261.323 111.621 261.298C111.992 261.276 112.298 261.119 112.521 260.964C112.951 260.666 113.334 260.189 113.653 259.746C113.938 259.35 114.233 258.891 114.517 258.449C114.565 258.375 114.612 258.301 114.66 258.228C114.997 257.705 115.321 257.214 115.64 256.803C115.969 256.38 116.235 256.118 116.435 255.994C116.488 255.961 116.524 255.946 116.544 255.939C116.61 255.984 116.81 256.166 117.073 256.754L118.834 255.968C118.486 255.189 118.037 254.53 117.396 254.206C116.66 253.835 115.947 254.026 115.417 254.356C114.919 254.666 114.483 255.148 114.117 255.62C113.74 256.106 113.375 256.662 113.039 257.182C112.989 257.26 112.939 257.337 112.89 257.413C112.604 257.858 112.34 258.267 112.087 258.619C111.917 258.855 111.775 259.033 111.658 259.16C111.605 259.024 111.543 258.832 111.477 258.566C111.082 256.965 110.482 255.486 109.704 254.31C108.932 253.146 107.929 252.195 106.699 251.814C105.417 251.418 104.071 251.697 102.793 252.641C101.546 253.561 100.337 255.125 99.1792 257.387C98.6269 258.465 98.1829 259.2 97.8282 259.674C97.7037 259.84 97.6015 259.958 97.5214 260.042C97.4557 259.895 97.3805 259.691 97.2987 259.417C97.1608 258.955 97.0323 258.396 96.8908 257.762C96.8759 257.695 96.8609 257.628 96.8457 257.56C96.7194 256.993 96.5831 256.38 96.4267 255.78C96.0883 254.482 95.6073 253.022 94.7441 252.081L94.7429 252.08C94.311 251.611 93.8045 251.264 93.2167 251.143C92.6137 251.019 92.0527 251.158 91.5772 251.428C90.6928 251.93 89.9951 252.939 89.4522 253.963C88.6414 255.493 87.9774 257.45 87.5186 259.118C87.0437 257.8 86.3075 256.216 85.095 254.987C84.2925 254.174 83.3804 253.575 82.3802 253.816C81.9001 253.932 81.5384 254.217 81.2717 254.51C81.0078 254.799 80.7911 255.146 80.6066 255.481C80.4364 255.789 80.2704 256.13 80.1108 256.457C80.0961 256.488 80.0815 256.518 80.0669 256.547C79.8891 256.912 79.7132 257.269 79.5202 257.612C79.1294 258.308 78.7136 258.865 78.2064 259.218C77.5734 259.66 77.2867 259.69 77.1996 259.683L77.1985 259.683C77.1702 259.68 77.0466 259.67 76.7954 259.317C76.5328 258.949 76.2638 258.397 75.8984 257.602C75.8556 257.509 75.8118 257.413 75.7669 257.315C75.4422 256.605 75.0594 255.769 74.581 254.865C74.0249 253.815 73.3164 252.973 72.2902 252.833C71.3054 252.698 70.4521 253.281 69.8114 253.819C69.3261 254.226 68.79 254.765 68.2336 255.324C68.0183 255.54 67.8001 255.76 67.5805 255.976C66.7634 256.779 65.8544 257.616 64.7956 258.353C63.7414 259.087 63.1953 259.142 62.923 259.086C62.6526 259.031 62.3363 258.805 61.8926 258.135C61.6187 257.721 61.3749 257.271 61.0932 256.75C60.9023 256.397 60.6939 256.012 60.4469 255.584C59.8727 254.589 59.1568 253.501 58.1565 252.543C57.6014 252.01 56.9621 251.651 56.2425 251.638C55.5183 251.624 54.9239 251.964 54.4698 252.381C53.6093 253.171 52.9326 254.535 52.3688 255.815C52.1276 256.363 51.9045 256.901 51.6886 257.422C51.359 258.218 51.0465 258.972 50.7133 259.654C50.4453 260.202 50.1976 260.629 49.9667 260.923C49.7342 261.219 49.6057 261.269 49.5961 261.273C49.5955 261.273 49.5954 261.273 49.5957 261.273L50.0218 263.154C50.6667 263.008 51.144 262.547 51.4839 262.114C51.8392 261.661 52.1569 261.092 52.4462 260.5C52.7979 259.781 53.1588 258.912 53.5114 258.063C53.7232 257.553 53.9319 257.051 54.1339 256.592C54.7176 255.267 55.2547 254.278 55.7737 253.802C56.0094 253.586 56.1461 253.565 56.207 253.566C56.2719 253.567 56.4712 253.598 56.821 253.934L56.8221 253.935C57.632 254.712 58.2411 255.621 58.7766 256.548C58.9589 256.864 59.144 257.204 59.3294 257.545C59.6511 258.137 59.9738 258.73 60.2844 259.2C60.7901 259.964 61.478 260.76 62.537 260.976C63.5939 261.192 64.7022 260.768 65.8975 259.936C67.0882 259.107 68.0873 258.183 68.9331 257.351C69.1984 257.09 69.4427 256.844 69.6709 256.615C70.1961 256.087 70.6362 255.644 71.0515 255.296C71.6794 254.769 71.9459 254.732 72.0281 254.744C72.0689 254.749 72.3747 254.82 72.8764 255.768C73.3271 256.619 73.6864 257.404 74.012 258.115C74.0573 258.214 74.1019 258.311 74.146 258.407C74.4943 259.165 74.8372 259.893 75.2253 260.438C75.6217 260.993 76.1878 261.53 77.0305 261.604C77.8124 261.673 78.5741 261.313 79.3096 260.8C80.1709 260.2 80.7594 259.344 81.2017 258.557C81.4253 258.159 81.6233 257.756 81.8006 257.393C81.8139 257.365 81.8271 257.338 81.8401 257.312C82.0056 256.972 82.15 256.675 82.2949 256.413C82.4525 256.127 82.5835 255.934 82.6968 255.809C82.7667 255.733 82.8105 255.704 82.8285 255.694C82.8808 255.7 83.1452 255.757 83.7222 256.342C85.0764 257.714 85.7308 259.746 86.1562 261.178C86.1707 261.226 86.1851 261.275 86.1994 261.324C86.284 261.609 86.3649 261.883 86.4393 262.097C86.4829 262.222 86.5355 262.361 86.5988 262.487C86.6421 262.573 86.7685 262.823 87.0253 262.996C87.1826 263.101 87.4189 263.198 87.7069 263.17C87.9855 263.143 88.187 263.012 88.3075 262.905C88.5151 262.72 88.6181 262.485 88.6639 262.374C88.7752 262.105 88.8729 261.722 88.9715 261.269M82.8378 255.69C82.8378 255.69 82.8374 255.69 82.8366 255.69C82.8374 255.69 82.8378 255.69 82.8378 255.69ZM88.9715 261.269C89.3632 259.479 90.1573 256.751 91.1563 254.867C91.6726 253.892 92.1552 253.317 92.5285 253.106C92.6817 253.019 92.7689 253.02 92.8279 253.032M88.3196 261.616C88.3208 261.618 88.3218 261.62 88.3227 261.622C88.3318 261.64 88.3313 261.635 88.3196 261.616ZM86.8797 261.641C86.8745 261.651 86.872 261.657 86.8721 261.657C86.8722 261.658 86.8749 261.653 86.8797 261.641ZM97.6735 260.307C97.6735 260.307 97.6729 260.307 97.6718 260.306C97.6729 260.307 97.6735 260.308 97.6735 260.307ZM111.393 259.397C111.393 259.397 111.394 259.397 111.396 259.396C111.394 259.397 111.393 259.397 111.393 259.397Z" fill="black"/>
</svg>
