<svg width="351" height="488" viewBox="0 0 351 488" fill="none" xmlns="http://www.w3.org/2000/svg">
<rect width="350.359" height="487.29" rx="10" fill="#E6E7E9"/>
<path d="M23.2383 46.4102H28.1992L35.5039 67.2891L42.8086 46.4102H47.7695L37.4961 74.8477H33.5117L23.2383 46.4102ZM20.5625 46.4102H25.5039L26.4023 66.7617V74.8477H20.5625V46.4102ZM45.5039 46.4102H50.4648V74.8477H44.6055V66.7617L45.5039 46.4102ZM64.9766 75.2383C63.3359 75.2383 61.8646 74.9779 60.5625 74.457C59.2604 73.9232 58.1536 73.1875 57.2422 72.25C56.3438 71.3125 55.6536 70.2253 55.1719 68.9883C54.6901 67.7383 54.4492 66.4102 54.4492 65.0039V64.2227C54.4492 62.6211 54.6771 61.1562 55.1328 59.8281C55.5885 58.5 56.2396 57.3477 57.0859 56.3711C57.9453 55.3945 58.987 54.6458 60.2109 54.125C61.4349 53.5911 62.8151 53.3242 64.3516 53.3242C65.849 53.3242 67.1771 53.5716 68.3359 54.0664C69.4948 54.5612 70.4648 55.2643 71.2461 56.1758C72.0404 57.0872 72.6393 58.181 73.043 59.457C73.4466 60.7201 73.6484 62.1263 73.6484 63.6758V66.0195H56.8516V62.2695H68.1211V61.8398C68.1211 61.0586 67.9779 60.362 67.6914 59.75C67.418 59.125 67.0013 58.6302 66.4414 58.2656C65.8815 57.901 65.1654 57.7188 64.293 57.7188C63.5508 57.7188 62.9128 57.8815 62.3789 58.207C61.8451 58.5326 61.4089 58.9883 61.0703 59.5742C60.7448 60.1602 60.4974 60.8503 60.3281 61.6445C60.1719 62.4258 60.0938 63.2852 60.0938 64.2227V65.0039C60.0938 65.8503 60.2109 66.6315 60.4453 67.3477C60.6927 68.0638 61.0378 68.6823 61.4805 69.2031C61.9362 69.724 62.4831 70.1276 63.1211 70.4141C63.7721 70.7005 64.5078 70.8438 65.3281 70.8438C66.3438 70.8438 67.2878 70.6484 68.1602 70.2578C69.0456 69.8542 69.8073 69.2487 70.4453 68.4414L73.1797 71.4102C72.737 72.0482 72.1315 72.6602 71.3633 73.2461C70.6081 73.832 69.6966 74.3138 68.6289 74.6914C67.5612 75.056 66.3438 75.2383 64.9766 75.2383ZM82.4766 57.7773V82.9727H76.8516V53.7148H82.0664L82.4766 57.7773ZM95.8555 64.0469V64.457C95.8555 65.9935 95.6732 67.4193 95.3086 68.7344C94.957 70.0495 94.4362 71.1953 93.7461 72.1719C93.056 73.1354 92.1966 73.8906 91.168 74.4375C90.1523 74.9714 88.9805 75.2383 87.6523 75.2383C86.3633 75.2383 85.2435 74.9779 84.293 74.457C83.3424 73.9362 82.5417 73.207 81.8906 72.2695C81.2526 71.319 80.7383 70.2188 80.3477 68.9688C79.957 67.7188 79.6576 66.3776 79.4492 64.9453V63.8711C79.6576 62.3346 79.957 60.9284 80.3477 59.6523C80.7383 58.3633 81.2526 57.25 81.8906 56.3125C82.5417 55.362 83.3359 54.6263 84.2734 54.1055C85.224 53.5846 86.3372 53.3242 87.6133 53.3242C88.9544 53.3242 90.1328 53.5781 91.1484 54.0859C92.1771 54.5938 93.0365 55.3229 93.7266 56.2734C94.4297 57.224 94.957 58.3568 95.3086 59.6719C95.6732 60.987 95.8555 62.4453 95.8555 64.0469ZM90.2109 64.457V64.0469C90.2109 63.1484 90.1328 62.3216 89.9766 61.5664C89.8333 60.7982 89.599 60.1276 89.2734 59.5547C88.9609 58.9818 88.5443 58.5391 88.0234 58.2266C87.5156 57.901 86.8971 57.7383 86.168 57.7383C85.3997 57.7383 84.7422 57.862 84.1953 58.1094C83.6615 58.3568 83.2253 58.7148 82.8867 59.1836C82.5482 59.6523 82.2943 60.2122 82.125 60.8633C81.9557 61.5143 81.8516 62.25 81.8125 63.0703V65.7852C81.8776 66.7487 82.0599 67.6146 82.3594 68.3828C82.6589 69.138 83.1211 69.737 83.7461 70.1797C84.3711 70.6224 85.1914 70.8438 86.207 70.8438C86.9492 70.8438 87.5742 70.681 88.082 70.3555C88.5898 70.0169 89 69.5547 89.3125 68.9688C89.638 68.3828 89.8659 67.7057 89.9961 66.9375C90.1393 66.1693 90.2109 65.3424 90.2109 64.457ZM98.4531 64.4961V64.0859C98.4531 62.5365 98.6745 61.1107 99.1172 59.8086C99.5599 58.4935 100.204 57.3542 101.051 56.3906C101.897 55.4271 102.939 54.6784 104.176 54.1445C105.413 53.5977 106.832 53.3242 108.434 53.3242C110.035 53.3242 111.461 53.5977 112.711 54.1445C113.961 54.6784 115.009 55.4271 115.855 56.3906C116.715 57.3542 117.366 58.4935 117.809 59.8086C118.251 61.1107 118.473 62.5365 118.473 64.0859V64.4961C118.473 66.0326 118.251 67.4583 117.809 68.7734C117.366 70.0755 116.715 71.2148 115.855 72.1914C115.009 73.1549 113.967 73.9036 112.73 74.4375C111.493 74.9714 110.074 75.2383 108.473 75.2383C106.871 75.2383 105.445 74.9714 104.195 74.4375C102.958 73.9036 101.91 73.1549 101.051 72.1914C100.204 71.2148 99.5599 70.0755 99.1172 68.7734C98.6745 67.4583 98.4531 66.0326 98.4531 64.4961ZM104.078 64.0859V64.4961C104.078 65.3815 104.156 66.2083 104.312 66.9766C104.469 67.7448 104.716 68.4219 105.055 69.0078C105.406 69.5807 105.862 70.0299 106.422 70.3555C106.982 70.681 107.665 70.8438 108.473 70.8438C109.254 70.8438 109.924 70.681 110.484 70.3555C111.044 70.0299 111.493 69.5807 111.832 69.0078C112.171 68.4219 112.418 67.7448 112.574 66.9766C112.743 66.2083 112.828 65.3815 112.828 64.4961V64.0859C112.828 63.2266 112.743 62.4193 112.574 61.6641C112.418 60.8958 112.164 60.2188 111.812 59.6328C111.474 59.0339 111.025 58.5651 110.465 58.2266C109.905 57.888 109.228 57.7188 108.434 57.7188C107.639 57.7188 106.962 57.888 106.402 58.2266C105.855 58.5651 105.406 59.0339 105.055 59.6328C104.716 60.2188 104.469 60.8958 104.312 61.6641C104.156 62.4193 104.078 63.2266 104.078 64.0859ZM136.148 53.7148V58.1289H125.914V53.7148H136.148ZM127.535 53.7148V74.8477H121.91V53.7148H127.535ZM140.25 53.7148V74.8477H134.605V53.7148H140.25ZM150.211 57.7773V82.9727H144.586V53.7148H149.801L150.211 57.7773ZM163.59 64.0469V64.457C163.59 65.9935 163.408 67.4193 163.043 68.7344C162.691 70.0495 162.171 71.1953 161.48 72.1719C160.79 73.1354 159.931 73.8906 158.902 74.4375C157.887 74.9714 156.715 75.2383 155.387 75.2383C154.098 75.2383 152.978 74.9779 152.027 74.457C151.077 73.9362 150.276 73.207 149.625 72.2695C148.987 71.319 148.473 70.2188 148.082 68.9688C147.691 67.7188 147.392 66.3776 147.184 64.9453V63.8711C147.392 62.3346 147.691 60.9284 148.082 59.6523C148.473 58.3633 148.987 57.25 149.625 56.3125C150.276 55.362 151.07 54.6263 152.008 54.1055C152.958 53.5846 154.072 53.3242 155.348 53.3242C156.689 53.3242 157.867 53.5781 158.883 54.0859C159.911 54.5938 160.771 55.3229 161.461 56.2734C162.164 57.224 162.691 58.3568 163.043 59.6719C163.408 60.987 163.59 62.4453 163.59 64.0469ZM157.945 64.457V64.0469C157.945 63.1484 157.867 62.3216 157.711 61.5664C157.568 60.7982 157.333 60.1276 157.008 59.5547C156.695 58.9818 156.279 58.5391 155.758 58.2266C155.25 57.901 154.632 57.7383 153.902 57.7383C153.134 57.7383 152.477 57.862 151.93 58.1094C151.396 58.3568 150.96 58.7148 150.621 59.1836C150.283 59.6523 150.029 60.2122 149.859 60.8633C149.69 61.5143 149.586 62.25 149.547 63.0703V65.7852C149.612 66.7487 149.794 67.6146 150.094 68.3828C150.393 69.138 150.855 69.737 151.48 70.1797C152.105 70.6224 152.926 70.8438 153.941 70.8438C154.684 70.8438 155.309 70.681 155.816 70.3555C156.324 70.0169 156.734 69.5547 157.047 68.9688C157.372 68.3828 157.6 67.7057 157.73 66.9375C157.874 66.1693 157.945 65.3424 157.945 64.457ZM172.691 66.9961L179.781 53.7148H185.406V74.8477H179.781V61.5469L172.691 74.8477H167.066V53.7148H172.691V66.9961ZM194.293 64.3008H199.996L194.117 74.8477H188.434L194.293 64.3008ZM198.082 53.7148H207.359V74.8477H201.734V58.0703H198.082C197.314 58.0703 196.676 58.2135 196.168 58.5C195.66 58.7734 195.283 59.1315 195.035 59.5742C194.801 60.0039 194.684 60.4466 194.684 60.9023C194.684 61.3451 194.801 61.7747 195.035 62.1914C195.27 62.6081 195.634 62.9531 196.129 63.2266C196.624 63.5 197.242 63.6367 197.984 63.6367H203.824V67.4648H197.984C196.591 67.4648 195.341 67.2956 194.234 66.957C193.141 66.6185 192.203 66.1497 191.422 65.5508C190.654 64.9388 190.061 64.2292 189.645 63.4219C189.241 62.6016 189.039 61.7031 189.039 60.7266C189.039 59.7109 189.247 58.7799 189.664 57.9336C190.081 57.0872 190.68 56.3451 191.461 55.707C192.242 55.069 193.186 54.5807 194.293 54.2422C195.413 53.8906 196.676 53.7148 198.082 53.7148ZM222.887 53.7148V74.8477H217.242V53.7148H222.887ZM229.684 53.7148V58.0703H210.543V53.7148H229.684ZM238.16 66.9961L245.25 53.7148H250.875V74.8477H245.25V61.5469L238.16 74.8477H232.535V53.7148H238.16V66.9961ZM259.762 64.3008H265.465L259.586 74.8477H253.902L259.762 64.3008ZM263.551 53.7148H272.828V74.8477H267.203V58.0703H263.551C262.783 58.0703 262.145 58.2135 261.637 58.5C261.129 58.7734 260.751 59.1315 260.504 59.5742C260.27 60.0039 260.152 60.4466 260.152 60.9023C260.152 61.3451 260.27 61.7747 260.504 62.1914C260.738 62.6081 261.103 62.9531 261.598 63.2266C262.092 63.5 262.711 63.6367 263.453 63.6367H269.293V67.4648H263.453C262.06 67.4648 260.81 67.2956 259.703 66.957C258.609 66.6185 257.672 66.1497 256.891 65.5508C256.122 64.9388 255.53 64.2292 255.113 63.4219C254.71 62.6016 254.508 61.7031 254.508 60.7266C254.508 59.7109 254.716 58.7799 255.133 57.9336C255.549 57.0872 256.148 56.3451 256.93 55.707C257.711 55.069 258.655 54.5807 259.762 54.2422C260.882 53.8906 262.145 53.7148 263.551 53.7148Z" fill="#0B0B0B"/>
<path d="M30.6655 374.203V388.748H28.9041V375.765H21.5746V388.748H19.8132V374.203H30.6655ZM38.4229 388.975C37.4381 388.975 36.574 388.741 35.8306 388.272C35.092 387.803 34.5143 387.148 34.0977 386.305C33.6857 385.462 33.4798 384.477 33.4798 383.35C33.4798 382.214 33.6857 381.222 34.0977 380.374C34.5143 379.527 35.092 378.869 35.8306 378.4C36.574 377.931 37.4381 377.697 38.4229 377.697C39.4078 377.697 40.2695 377.931 41.0082 378.4C41.7515 378.869 42.3292 379.527 42.7411 380.374C43.1578 381.222 43.3661 382.214 43.3661 383.35C43.3661 384.477 43.1578 385.462 42.7411 386.305C42.3292 387.148 41.7515 387.803 41.0082 388.272C40.2695 388.741 39.4078 388.975 38.4229 388.975ZM38.4229 387.47C39.171 387.47 39.7866 387.278 40.2695 386.894C40.7525 386.511 41.11 386.007 41.342 385.382C41.574 384.757 41.69 384.079 41.69 383.35C41.69 382.621 41.574 381.942 41.342 381.312C41.11 380.682 40.7525 380.173 40.2695 379.785C39.7866 379.397 39.171 379.203 38.4229 379.203C37.6748 379.203 37.0593 379.397 36.5763 379.785C36.0934 380.173 35.7359 380.682 35.5039 381.312C35.2719 381.942 35.1559 382.621 35.1559 383.35C35.1559 384.079 35.2719 384.757 35.5039 385.382C35.7359 386.007 36.0934 386.511 36.5763 386.894C37.0593 387.278 37.6748 387.47 38.4229 387.47ZM51.8906 386.475L55.6974 377.839H57.2884L52.5724 388.748H51.2088L46.5781 377.839H48.1406L51.8906 386.475ZM47.6009 377.839V388.748H45.9247V377.839H47.6009ZM56.1804 388.748V377.839H57.8565V388.748H56.1804ZM65.3565 388.975C64.3717 388.975 63.5076 388.741 62.7642 388.272C62.0256 387.803 61.4479 387.148 61.0312 386.305C60.6193 385.462 60.4134 384.477 60.4134 383.35C60.4134 382.214 60.6193 381.222 61.0312 380.374C61.4479 379.527 62.0256 378.869 62.7642 378.4C63.5076 377.931 64.3717 377.697 65.3565 377.697C66.3414 377.697 67.2031 377.931 67.9418 378.4C68.6851 378.869 69.2628 379.527 69.6747 380.374C70.0914 381.222 70.2997 382.214 70.2997 383.35C70.2997 384.477 70.0914 385.462 69.6747 386.305C69.2628 387.148 68.6851 387.803 67.9418 388.272C67.2031 388.741 66.3414 388.975 65.3565 388.975ZM65.3565 387.47C66.1046 387.47 66.7202 387.278 67.2031 386.894C67.6861 386.511 68.0436 386.007 68.2756 385.382C68.5076 384.757 68.6236 384.079 68.6236 383.35C68.6236 382.621 68.5076 381.942 68.2756 381.312C68.0436 380.682 67.6861 380.173 67.2031 379.785C66.7202 379.397 66.1046 379.203 65.3565 379.203C64.6084 379.203 63.9929 379.397 63.5099 379.785C63.027 380.173 62.6695 380.682 62.4375 381.312C62.2055 381.942 62.0895 382.621 62.0895 383.35C62.0895 384.079 62.2055 384.757 62.4375 385.382C62.6695 386.007 63.027 386.511 63.5099 386.894C63.9929 387.278 64.6084 387.47 65.3565 387.47ZM79.5913 377.839V379.401H74.5344V388.748H72.8583V377.839H79.5913ZM84.6818 389.004C83.9905 389.004 83.3632 388.874 82.7997 388.613C82.2363 388.348 81.7888 387.967 81.4574 387.47C81.1259 386.968 80.9602 386.362 80.9602 385.651C80.9602 385.026 81.0833 384.52 81.3295 384.132C81.5758 383.739 81.9048 383.431 82.3168 383.208C82.7287 382.986 83.1832 382.82 83.6804 382.711C84.1823 382.597 84.6866 382.508 85.1932 382.441C85.8561 382.356 86.3935 382.292 86.8054 382.249C87.2221 382.202 87.5251 382.124 87.7145 382.015C87.9086 381.906 88.0057 381.717 88.0057 381.447V381.39C88.0057 380.689 87.8139 380.145 87.4304 379.757C87.0516 379.368 86.4763 379.174 85.7045 379.174C84.9044 379.174 84.277 379.349 83.8224 379.7C83.3679 380.05 83.0483 380.424 82.8636 380.822L81.2727 380.254C81.5568 379.591 81.9356 379.075 82.4091 378.705C82.8873 378.331 83.4081 378.071 83.9716 377.924C84.5398 377.773 85.0985 377.697 85.6477 377.697C85.9981 377.697 86.4006 377.74 86.8551 377.825C87.3144 377.905 87.7571 378.073 88.1832 378.329C88.6141 378.585 88.9716 378.971 89.2557 379.487C89.5398 380.003 89.6818 380.694 89.6818 381.561V388.748H88.0057V387.271H87.9205C87.8068 387.508 87.6174 387.761 87.3523 388.031C87.0871 388.301 86.7344 388.53 86.294 388.72C85.8537 388.909 85.3163 389.004 84.6818 389.004ZM84.9375 387.498C85.6004 387.498 86.1591 387.368 86.6136 387.107C87.0729 386.847 87.4186 386.511 87.6506 386.099C87.8873 385.687 88.0057 385.254 88.0057 384.799V383.265C87.9347 383.35 87.7784 383.428 87.5369 383.499C87.3002 383.566 87.0256 383.625 86.7131 383.677C86.4053 383.724 86.1046 383.767 85.8111 383.805C85.5223 383.838 85.2879 383.866 85.108 383.89C84.6723 383.947 84.2652 384.039 83.8864 384.167C83.5123 384.29 83.2093 384.477 82.9773 384.728C82.75 384.974 82.6364 385.311 82.6364 385.737C82.6364 386.319 82.8518 386.759 83.2827 387.058C83.7183 387.351 84.2699 387.498 84.9375 387.498ZM94.4173 386.276L99.6729 377.839H101.605V388.748H99.9286V380.311L94.7013 388.748H92.7411V377.839H94.4173V386.276ZM98.565 374.203H100.127C100.127 374.97 99.8623 375.597 99.332 376.085C98.8017 376.572 98.082 376.816 97.1729 376.816C96.2781 376.816 95.5655 376.572 95.0352 376.085C94.5096 375.597 94.2468 374.97 94.2468 374.203H95.8093C95.8093 374.572 95.9111 374.896 96.1147 375.176C96.323 375.455 96.6758 375.595 97.1729 375.595C97.6701 375.595 98.0252 375.455 98.2383 375.176C98.4561 374.896 98.565 374.572 98.565 374.203ZM111.976 386.276L117.232 377.839H119.163V388.748H117.487V380.311L112.26 388.748H110.3V377.839H111.976V386.276ZM128.938 392.839C128.654 392.839 128.4 392.815 128.178 392.768C127.955 392.725 127.801 392.683 127.716 392.64L128.142 391.163C128.55 391.267 128.909 391.305 129.222 391.276C129.534 391.248 129.811 391.108 130.053 390.857C130.299 390.611 130.524 390.211 130.728 389.657L131.04 388.805L127.006 377.839H128.824L131.836 386.532H131.949L134.961 377.839H136.779L132.148 390.339C131.94 390.902 131.682 391.369 131.374 391.738C131.066 392.112 130.709 392.389 130.301 392.569C129.899 392.749 129.444 392.839 128.938 392.839ZM147.068 377.839V388.748H145.392V377.839H147.068ZM146.415 383.038V384.6C146.036 384.742 145.66 384.868 145.286 384.977C144.911 385.081 144.518 385.164 144.107 385.225C143.695 385.282 143.242 385.311 142.75 385.311C141.514 385.311 140.522 384.977 139.774 384.309C139.031 383.642 138.659 382.64 138.659 381.305V377.811H140.335V381.305C140.335 381.864 140.442 382.323 140.655 382.683C140.868 383.043 141.157 383.31 141.521 383.485C141.886 383.66 142.295 383.748 142.75 383.748C143.46 383.748 144.102 383.684 144.675 383.556C145.252 383.424 145.832 383.251 146.415 383.038ZM153.354 389.004C152.662 389.004 152.035 388.874 151.472 388.613C150.908 388.348 150.461 387.967 150.129 387.47C149.798 386.968 149.632 386.362 149.632 385.651C149.632 385.026 149.755 384.52 150.001 384.132C150.248 383.739 150.577 383.431 150.989 383.208C151.401 382.986 151.855 382.82 152.352 382.711C152.854 382.597 153.358 382.508 153.865 382.441C154.528 382.356 155.065 382.292 155.477 382.249C155.894 382.202 156.197 382.124 156.386 382.015C156.58 381.906 156.678 381.717 156.678 381.447V381.39C156.678 380.689 156.486 380.145 156.102 379.757C155.723 379.368 155.148 379.174 154.376 379.174C153.576 379.174 152.949 379.349 152.494 379.7C152.04 380.05 151.72 380.424 151.536 380.822L149.945 380.254C150.229 379.591 150.607 379.075 151.081 378.705C151.559 378.331 152.08 378.071 152.643 377.924C153.212 377.773 153.77 377.697 154.32 377.697C154.67 377.697 155.072 377.74 155.527 377.825C155.986 377.905 156.429 378.073 156.855 378.329C157.286 378.585 157.643 378.971 157.928 379.487C158.212 380.003 158.354 380.694 158.354 381.561V388.748H156.678V387.271H156.592C156.479 387.508 156.289 387.761 156.024 388.031C155.759 388.301 155.406 388.53 154.966 388.72C154.526 388.909 153.988 389.004 153.354 389.004ZM153.609 387.498C154.272 387.498 154.831 387.368 155.286 387.107C155.745 386.847 156.09 386.511 156.322 386.099C156.559 385.687 156.678 385.254 156.678 384.799V383.265C156.607 383.35 156.45 383.428 156.209 383.499C155.972 383.566 155.697 383.625 155.385 383.677C155.077 383.724 154.777 383.767 154.483 383.805C154.194 383.838 153.96 383.866 153.78 383.89C153.344 383.947 152.937 384.039 152.558 384.167C152.184 384.29 151.881 384.477 151.649 384.728C151.422 384.974 151.308 385.311 151.308 385.737C151.308 386.319 151.524 386.759 151.955 387.058C152.39 387.351 152.942 387.498 153.609 387.498ZM161.413 388.748V377.839H165.873C167.047 377.839 167.98 378.104 168.672 378.634C169.363 379.165 169.708 379.865 169.708 380.737C169.708 381.4 169.512 381.913 169.119 382.278C168.726 382.638 168.222 382.882 167.606 383.009C168.009 383.066 168.399 383.208 168.778 383.436C169.162 383.663 169.479 383.975 169.73 384.373C169.981 384.766 170.106 385.249 170.106 385.822C170.106 386.381 169.964 386.88 169.68 387.32C169.396 387.761 168.989 388.109 168.458 388.365C167.928 388.62 167.294 388.748 166.555 388.748H161.413ZM163.004 387.214H166.555C167.133 387.214 167.585 387.077 167.912 386.802C168.238 386.527 168.402 386.153 168.402 385.68C168.402 385.116 168.238 384.674 167.912 384.352C167.585 384.025 167.133 383.862 166.555 383.862H163.004V387.214ZM163.004 382.413H165.873C166.323 382.413 166.709 382.351 167.031 382.228C167.353 382.1 167.599 381.92 167.77 381.688C167.945 381.452 168.032 381.172 168.032 380.85C168.032 380.391 167.841 380.031 167.457 379.771C167.074 379.506 166.546 379.373 165.873 379.373H163.004V382.413ZM177.075 388.975C176.053 388.975 175.172 388.734 174.433 388.251C173.695 387.768 173.126 387.103 172.729 386.255C172.331 385.408 172.132 384.439 172.132 383.35C172.132 382.242 172.336 381.265 172.743 380.417C173.155 379.565 173.728 378.9 174.462 378.421C175.2 377.938 176.062 377.697 177.047 377.697C177.814 377.697 178.505 377.839 179.121 378.123C179.736 378.407 180.241 378.805 180.634 379.316C181.027 379.828 181.27 380.424 181.365 381.106H179.689C179.561 380.609 179.277 380.169 178.837 379.785C178.401 379.397 177.814 379.203 177.075 379.203C176.422 379.203 175.849 379.373 175.357 379.714C174.869 380.05 174.488 380.526 174.213 381.142C173.943 381.752 173.808 382.47 173.808 383.294C173.808 384.136 173.941 384.87 174.206 385.495C174.476 386.12 174.855 386.606 175.342 386.951C175.835 387.297 176.412 387.47 177.075 387.47C177.511 387.47 177.906 387.394 178.261 387.242C178.616 387.091 178.917 386.873 179.163 386.589C179.41 386.305 179.585 385.964 179.689 385.566H181.365C181.27 386.21 181.036 386.79 180.662 387.306C180.293 387.818 179.803 388.225 179.192 388.528C178.586 388.826 177.88 388.975 177.075 388.975ZM182.956 379.401V377.839H191.82V379.401H188.24V388.748H186.564V379.401H182.956ZM194.265 388.748V377.839H198.725C199.899 377.839 200.832 378.104 201.523 378.634C202.214 379.165 202.56 379.865 202.56 380.737C202.56 381.4 202.364 381.913 201.971 382.278C201.578 382.638 201.073 382.882 200.458 383.009C200.86 383.066 201.251 383.208 201.63 383.436C202.013 383.663 202.33 383.975 202.581 384.373C202.832 384.766 202.958 385.249 202.958 385.822C202.958 386.381 202.816 386.88 202.532 387.32C202.248 387.761 201.84 388.109 201.31 388.365C200.78 388.62 200.145 388.748 199.407 388.748H194.265ZM195.855 387.214H199.407C199.984 387.214 200.436 387.077 200.763 386.802C201.09 386.527 201.253 386.153 201.253 385.68C201.253 385.116 201.09 384.674 200.763 384.352C200.436 384.025 199.984 383.862 199.407 383.862H195.855V387.214ZM195.855 382.413H198.725C199.175 382.413 199.56 382.351 199.882 382.228C200.204 382.1 200.451 381.92 200.621 381.688C200.796 381.452 200.884 381.172 200.884 380.85C200.884 380.391 200.692 380.031 200.309 379.771C199.925 379.506 199.397 379.373 198.725 379.373H195.855V382.413ZM206.575 392.839C206.29 392.839 206.037 392.815 205.815 392.768C205.592 392.725 205.438 392.683 205.353 392.64L205.779 391.163C206.186 391.267 206.546 391.305 206.859 391.276C207.171 391.248 207.448 391.108 207.69 390.857C207.936 390.611 208.161 390.211 208.364 389.657L208.677 388.805L204.643 377.839H206.461L209.472 386.532H209.586L212.597 377.839H214.415L209.785 390.339C209.576 390.902 209.318 391.369 209.011 391.738C208.703 392.112 208.345 392.389 207.938 392.569C207.536 392.749 207.081 392.839 206.575 392.839ZM218.304 386.276L223.56 377.839H225.491V388.748H223.815V380.311L218.588 388.748H216.628V377.839H218.304V386.276ZM222.452 374.203H224.014C224.014 374.97 223.749 375.597 223.219 376.085C222.688 376.572 221.969 376.816 221.06 376.816C220.165 376.816 219.452 376.572 218.922 376.085C218.396 375.597 218.134 374.97 218.134 374.203H219.696C219.696 374.572 219.798 374.896 220.001 375.176C220.21 375.455 220.563 375.595 221.06 375.595C221.557 375.595 221.912 375.455 222.125 375.176C222.343 374.896 222.452 374.572 222.452 374.203ZM19.5575 412.748V401.839H24.0178C25.192 401.839 26.1248 402.104 26.8161 402.634C27.5073 403.165 27.853 403.865 27.853 404.737C27.853 405.4 27.6565 405.913 27.2635 406.278C26.8705 406.638 26.3662 406.882 25.7507 407.009C26.1532 407.066 26.5438 407.208 26.9226 407.436C27.3061 407.663 27.6233 407.975 27.8743 408.373C28.1252 408.766 28.2507 409.249 28.2507 409.822C28.2507 410.381 28.1087 410.88 27.8246 411.32C27.5405 411.761 27.1333 412.109 26.603 412.365C26.0727 412.62 25.4382 412.748 24.6996 412.748H19.5575ZM21.1484 411.214H24.6996C25.2772 411.214 25.7294 411.077 26.0561 410.802C26.3828 410.527 26.5462 410.153 26.5462 409.68C26.5462 409.116 26.3828 408.674 26.0561 408.352C25.7294 408.025 25.2772 407.862 24.6996 407.862H21.1484V411.214ZM21.1484 406.413H24.0178C24.4676 406.413 24.8535 406.351 25.1754 406.228C25.4974 406.1 25.7436 405.92 25.9141 405.688C26.0893 405.452 26.1768 405.172 26.1768 404.85C26.1768 404.391 25.9851 404.031 25.6016 403.771C25.218 403.506 24.6901 403.373 24.0178 403.373H21.1484V406.413ZM35.2198 412.975C34.235 412.975 33.3709 412.741 32.6275 412.272C31.8888 411.803 31.3112 411.148 30.8945 410.305C30.4826 409.462 30.2766 408.477 30.2766 407.35C30.2766 406.214 30.4826 405.222 30.8945 404.374C31.3112 403.527 31.8888 402.869 32.6275 402.4C33.3709 401.931 34.235 401.697 35.2198 401.697C36.2047 401.697 37.0664 401.931 37.805 402.4C38.5484 402.869 39.1261 403.527 39.538 404.374C39.9547 405.222 40.163 406.214 40.163 407.35C40.163 408.477 39.9547 409.462 39.538 410.305C39.1261 411.148 38.5484 411.803 37.805 412.272C37.0664 412.741 36.2047 412.975 35.2198 412.975ZM35.2198 411.47C35.9679 411.47 36.5835 411.278 37.0664 410.894C37.5494 410.511 37.9068 410.007 38.1388 409.382C38.3709 408.757 38.4869 408.079 38.4869 407.35C38.4869 406.621 38.3709 405.942 38.1388 405.312C37.9068 404.682 37.5494 404.173 37.0664 403.785C36.5835 403.397 35.9679 403.203 35.2198 403.203C34.4717 403.203 33.8562 403.397 33.3732 403.785C32.8903 404.173 32.5328 404.682 32.3008 405.312C32.0688 405.942 31.9528 406.621 31.9528 407.35C31.9528 408.079 32.0688 408.757 32.3008 409.382C32.5328 410.007 32.8903 410.511 33.3732 410.894C33.8562 411.278 34.4717 411.47 35.2198 411.47ZM48.3466 412.748V401.839H52.8068C53.9811 401.839 54.9138 402.104 55.6051 402.634C56.2964 403.165 56.642 403.865 56.642 404.737C56.642 405.4 56.4455 405.913 56.0526 406.278C55.6596 406.638 55.1553 406.882 54.5398 407.009C54.9422 407.066 55.3329 407.208 55.7116 407.436C56.0952 407.663 56.4124 407.975 56.6634 408.373C56.9143 408.766 57.0398 409.249 57.0398 409.822C57.0398 410.381 56.8977 410.88 56.6136 411.32C56.3295 411.761 55.9223 412.109 55.392 412.365C54.8617 412.62 54.2273 412.748 53.4886 412.748H48.3466ZM49.9375 411.214H53.4886C54.0663 411.214 54.5185 411.077 54.8452 410.802C55.1719 410.527 55.3352 410.153 55.3352 409.68C55.3352 409.116 55.1719 408.674 54.8452 408.352C54.5185 408.025 54.0663 407.862 53.4886 407.862H49.9375V411.214ZM49.9375 406.413H52.8068C53.2566 406.413 53.6425 406.351 53.9645 406.228C54.2865 406.1 54.5327 405.92 54.7031 405.688C54.8783 405.452 54.9659 405.172 54.9659 404.85C54.9659 404.391 54.7741 404.031 54.3906 403.771C54.0071 403.506 53.4792 403.373 52.8068 403.373H49.9375V406.413ZM66.8782 406.526V408.089H60.8555V406.526H66.8782ZM61.2532 401.839V412.748H59.5771V401.839H61.2532ZM68.1566 401.839V412.748H66.4805V401.839H68.1566ZM71.9066 416.839C71.6225 416.839 71.3692 416.815 71.1467 416.768C70.9241 416.725 70.7702 416.683 70.685 416.64L71.1112 415.163C71.5183 415.267 71.8782 415.305 72.1907 415.276C72.5032 415.248 72.7802 415.108 73.0217 414.857C73.2679 414.611 73.4928 414.211 73.6964 413.657L74.0089 412.805L69.9748 401.839H71.793L74.8043 410.532H74.918L77.9293 401.839H79.7475L75.1168 414.339C74.9085 414.902 74.6504 415.369 74.3427 415.738C74.0349 416.112 73.6774 416.389 73.2702 416.569C72.8678 416.749 72.4132 416.839 71.9066 416.839ZM81.3349 403.401V401.839H90.1985V403.401H86.619V412.748H84.9428V403.401H81.3349ZM92.6435 416.839V401.839H94.2628V403.572H94.4616C94.5848 403.383 94.7552 403.141 94.973 402.847C95.1955 402.549 95.5128 402.284 95.9247 402.052C96.3414 401.815 96.9048 401.697 97.6151 401.697C98.5336 401.697 99.3433 401.927 100.044 402.386C100.745 402.845 101.292 403.496 101.685 404.339C102.078 405.182 102.274 406.176 102.274 407.322C102.274 408.477 102.078 409.479 101.685 410.326C101.292 411.169 100.747 411.822 100.051 412.286C99.3551 412.746 98.5526 412.975 97.6435 412.975C96.9427 412.975 96.3816 412.859 95.9602 412.627C95.5388 412.391 95.2145 412.123 94.9872 411.825C94.7599 411.522 94.5848 411.271 94.4616 411.072H94.3196V416.839H92.6435ZM94.2912 407.294C94.2912 408.117 94.4119 408.844 94.6534 409.474C94.8949 410.099 95.2476 410.589 95.7116 410.944C96.1757 411.294 96.7438 411.47 97.4162 411.47C98.117 411.47 98.7017 411.285 99.1705 410.916C99.6439 410.542 99.9991 410.04 100.236 409.41C100.477 408.776 100.598 408.07 100.598 407.294C100.598 406.526 100.48 405.835 100.243 405.22C100.011 404.599 99.6581 404.109 99.1847 403.749C98.7159 403.385 98.1264 403.203 97.4162 403.203C96.7344 403.203 96.1615 403.375 95.6974 403.721C95.2334 404.062 94.883 404.54 94.6463 405.156C94.4096 405.767 94.2912 406.479 94.2912 407.294ZM109.405 412.975C108.354 412.975 107.447 412.743 106.685 412.279C105.927 411.811 105.342 411.157 104.93 410.319C104.523 409.476 104.32 408.496 104.32 407.379C104.32 406.261 104.523 405.276 104.93 404.424C105.342 403.567 105.915 402.9 106.649 402.421C107.388 401.938 108.25 401.697 109.234 401.697C109.803 401.697 110.364 401.792 110.918 401.981C111.472 402.17 111.976 402.478 112.43 402.904C112.885 403.326 113.247 403.884 113.517 404.58C113.787 405.276 113.922 406.133 113.922 407.151V407.862H105.513V406.413H112.217C112.217 405.797 112.094 405.248 111.848 404.765C111.607 404.282 111.261 403.901 110.811 403.622C110.366 403.342 109.84 403.203 109.234 403.203C108.567 403.203 107.989 403.368 107.501 403.7C107.018 404.026 106.647 404.453 106.386 404.978C106.126 405.504 105.996 406.067 105.996 406.669V407.634C105.996 408.458 106.138 409.157 106.422 409.73C106.711 410.298 107.111 410.731 107.622 411.029C108.134 411.323 108.728 411.47 109.405 411.47C109.845 411.47 110.243 411.408 110.598 411.285C110.958 411.157 111.268 410.968 111.528 410.717C111.789 410.461 111.99 410.144 112.132 409.765L113.751 410.22C113.581 410.769 113.295 411.252 112.892 411.669C112.49 412.08 111.992 412.402 111.401 412.634C110.809 412.862 110.143 412.975 109.405 412.975ZM123.773 406.526V408.089H117.75V406.526H123.773ZM118.148 401.839V412.748H116.472V401.839H118.148ZM125.051 401.839V412.748H123.375V401.839H125.051ZM135.413 406.526V408.089H129.391V406.526H135.413ZM129.788 401.839V412.748H128.112V401.839H129.788ZM136.692 401.839V412.748H135.016V401.839H136.692ZM141.429 410.276L146.685 401.839H148.616V412.748H146.94V404.311L141.713 412.748H139.753V401.839H141.429V410.276ZM152.936 401.839L155.55 406.299L158.164 401.839H160.096L156.573 407.294L160.096 412.748H158.164L155.55 408.515L152.936 412.748H151.005L154.471 407.294L151.005 401.839H152.936ZM169.788 410.276L175.044 401.839H176.976V412.748H175.3V404.311L170.072 412.748H168.112V401.839H169.788V410.276ZM185.671 412.748V401.839H190.131C191.305 401.839 192.238 402.104 192.929 402.634C193.621 403.165 193.966 403.865 193.966 404.737C193.966 405.4 193.77 405.913 193.377 406.278C192.984 406.638 192.48 406.882 191.864 407.009C192.266 407.066 192.657 407.208 193.036 407.436C193.419 407.663 193.737 407.975 193.988 408.373C194.239 408.766 194.364 409.249 194.364 409.822C194.364 410.381 194.222 410.88 193.938 411.32C193.654 411.761 193.247 412.109 192.716 412.365C192.186 412.62 191.551 412.748 190.813 412.748H185.671ZM187.262 411.214H190.813C191.391 411.214 191.843 411.077 192.169 410.802C192.496 410.527 192.659 410.153 192.659 409.68C192.659 409.116 192.496 408.674 192.169 408.352C191.843 408.025 191.391 407.862 190.813 407.862H187.262V411.214ZM187.262 406.413H190.131C190.581 406.413 190.967 406.351 191.289 406.228C191.611 406.1 191.857 405.92 192.027 405.688C192.203 405.452 192.29 405.172 192.29 404.85C192.29 404.391 192.098 404.031 191.715 403.771C191.331 403.506 190.803 403.373 190.131 403.373H187.262V406.413ZM204.202 406.526V408.089H198.18V406.526H204.202ZM198.577 401.839V412.748H196.901V401.839H198.577ZM205.481 401.839V412.748H203.805V401.839H205.481ZM213.116 412.975C212.065 412.975 211.158 412.743 210.396 412.279C209.638 411.811 209.053 411.157 208.641 410.319C208.234 409.476 208.031 408.496 208.031 407.379C208.031 406.261 208.234 405.276 208.641 404.424C209.053 403.567 209.626 402.9 210.36 402.421C211.099 401.938 211.96 401.697 212.945 401.697C213.513 401.697 214.075 401.792 214.629 401.981C215.183 402.17 215.687 402.478 216.141 402.904C216.596 403.326 216.958 403.884 217.228 404.58C217.498 405.276 217.633 406.133 217.633 407.151V407.862H209.224V406.413H215.928C215.928 405.797 215.805 405.248 215.559 404.765C215.317 404.282 214.972 403.901 214.522 403.622C214.077 403.342 213.551 403.203 212.945 403.203C212.278 403.203 211.7 403.368 211.212 403.7C210.729 404.026 210.358 404.453 210.097 404.978C209.837 405.504 209.707 406.067 209.707 406.669V407.634C209.707 408.458 209.849 409.157 210.133 409.73C210.422 410.298 210.822 410.731 211.333 411.029C211.844 411.323 212.439 411.47 213.116 411.47C213.556 411.47 213.954 411.408 214.309 411.285C214.669 411.157 214.979 410.968 215.239 410.717C215.5 410.461 215.701 410.144 215.843 409.765L217.462 410.22C217.292 410.769 217.005 411.252 216.603 411.669C216.201 412.08 215.703 412.402 215.112 412.634C214.52 412.862 213.854 412.975 213.116 412.975ZM220.183 401.839H221.859V411.186H225.978V401.839H227.654V411.186H231.773V401.839H233.45V412.748H220.183V401.839ZM243.812 406.526V408.089H237.789V406.526H243.812ZM238.187 401.839V412.748H236.511V401.839H238.187ZM245.09 401.839V412.748H243.414V401.839H245.09ZM249.827 410.276L255.083 401.839H257.015V412.748H255.339V404.311L250.112 412.748H248.151V401.839H249.827V410.276ZM261.335 401.839L263.949 406.299L266.562 401.839H268.494L264.971 407.294L268.494 412.748H266.562L263.949 408.515L261.335 412.748H259.403L262.869 407.294L259.403 401.839H261.335ZM23.9893 436.975C22.9666 436.975 22.0859 436.734 21.3473 436.251C20.6087 435.768 20.0405 435.103 19.6428 434.255C19.245 433.408 19.0462 432.439 19.0462 431.35C19.0462 430.242 19.2498 429.265 19.657 428.417C20.0689 427.565 20.6418 426.9 21.3757 426.421C22.1143 425.938 22.9761 425.697 23.9609 425.697C24.728 425.697 25.4193 425.839 26.0348 426.123C26.6503 426.407 27.1546 426.805 27.5476 427.316C27.9406 427.828 28.1844 428.424 28.2791 429.106H26.603C26.4751 428.609 26.1911 428.169 25.7507 427.785C25.3151 427.397 24.728 427.203 23.9893 427.203C23.3359 427.203 22.763 427.373 22.2706 427.714C21.7829 428.05 21.4018 428.526 21.1271 429.142C20.8572 429.752 20.7223 430.47 20.7223 431.294C20.7223 432.136 20.8549 432.87 21.12 433.495C21.3899 434.12 21.7687 434.606 22.2564 434.951C22.7488 435.297 23.3265 435.47 23.9893 435.47C24.425 435.47 24.8203 435.394 25.1754 435.242C25.5305 435.091 25.8312 434.873 26.0774 434.589C26.3236 434.305 26.4988 433.964 26.603 433.566H28.2791C28.1844 434.21 27.95 434.79 27.576 435.306C27.2067 435.818 26.7166 436.225 26.1058 436.528C25.4998 436.826 24.7943 436.975 23.9893 436.975ZM35.1612 436.975C34.1764 436.975 33.3123 436.741 32.5689 436.272C31.8303 435.803 31.2526 435.148 30.8359 434.305C30.424 433.462 30.218 432.477 30.218 431.35C30.218 430.214 30.424 429.222 30.8359 428.374C31.2526 427.527 31.8303 426.869 32.5689 426.4C33.3123 425.931 34.1764 425.697 35.1612 425.697C36.1461 425.697 37.0078 425.931 37.7464 426.4C38.4898 426.869 39.0675 427.527 39.4794 428.374C39.8961 429.222 40.1044 430.214 40.1044 431.35C40.1044 432.477 39.8961 433.462 39.4794 434.305C39.0675 435.148 38.4898 435.803 37.7464 436.272C37.0078 436.741 36.1461 436.975 35.1612 436.975ZM35.1612 435.47C35.9093 435.47 36.5249 435.278 37.0078 434.894C37.4908 434.511 37.8482 434.007 38.0803 433.382C38.3123 432.757 38.4283 432.079 38.4283 431.35C38.4283 430.621 38.3123 429.942 38.0803 429.312C37.8482 428.682 37.4908 428.173 37.0078 427.785C36.5249 427.397 35.9093 427.203 35.1612 427.203C34.4131 427.203 33.7976 427.397 33.3146 427.785C32.8317 428.173 32.4742 428.682 32.2422 429.312C32.0102 429.942 31.8942 430.621 31.8942 431.35C31.8942 432.079 32.0102 432.757 32.2422 433.382C32.4742 434.007 32.8317 434.511 33.3146 434.894C33.7976 435.278 34.4131 435.47 35.1612 435.47ZM50.7596 421.748L51.6119 422.771C51.2804 423.093 50.8969 423.318 50.4613 423.445C50.0257 423.573 49.5333 423.651 48.984 423.68C48.4348 423.708 47.824 423.737 47.1516 423.765C46.3941 423.794 45.7667 423.978 45.2695 424.319C44.7724 424.66 44.3888 425.152 44.119 425.796C43.8491 426.44 43.6763 427.231 43.6005 428.169H43.7425C44.1119 427.487 44.6232 426.985 45.2766 426.663C45.93 426.341 46.6308 426.18 47.3789 426.18C48.2312 426.18 48.9982 426.379 49.68 426.776C50.3619 427.174 50.9016 427.764 51.2994 428.545C51.6971 429.326 51.896 430.29 51.896 431.436C51.896 432.577 51.6924 433.561 51.2852 434.39C50.8827 435.219 50.3169 435.858 49.5877 436.308C48.8633 436.753 48.0134 436.975 47.038 436.975C46.0626 436.975 45.208 436.746 44.4741 436.286C43.7402 435.822 43.1696 435.136 42.7624 434.227C42.3552 433.313 42.1516 432.184 42.1516 430.839V429.674C42.1516 427.245 42.5636 425.403 43.3874 424.149C44.216 422.894 45.4613 422.245 47.1232 422.203C47.7103 422.184 48.2335 422.179 48.6928 422.188C49.1521 422.198 49.5522 422.177 49.8931 422.124C50.234 422.072 50.5228 421.947 50.7596 421.748ZM47.038 435.47C47.6961 435.47 48.262 435.304 48.7354 434.972C49.2137 434.641 49.5806 434.175 49.8363 433.573C50.092 432.967 50.2198 432.255 50.2198 431.436C50.2198 430.64 50.0896 429.963 49.8292 429.404C49.5735 428.846 49.2066 428.419 48.7283 428.126C48.2501 427.832 47.6772 427.686 47.0096 427.686C46.5219 427.686 46.0839 427.768 45.6957 427.934C45.3074 428.1 44.976 428.344 44.7013 428.666C44.4267 428.988 44.2137 429.381 44.0621 429.845C43.9154 430.309 43.8372 430.839 43.8278 431.436C43.8278 432.657 44.1142 433.635 44.6871 434.369C45.2601 435.103 46.0437 435.47 47.038 435.47ZM55.9087 429.788H59.0337C60.3121 429.788 61.2899 430.112 61.967 430.761C62.6441 431.41 62.9826 432.231 62.9826 433.225C62.9826 433.879 62.8311 434.473 62.5281 435.008C62.225 435.538 61.7799 435.962 61.1928 436.279C60.6057 436.592 59.886 436.748 59.0337 436.748H54.4599V425.839H56.136V435.186H59.0337C59.6966 435.186 60.2411 435.01 60.6673 434.66C61.0934 434.31 61.3065 433.86 61.3065 433.311C61.3065 432.733 61.0934 432.262 60.6673 431.897C60.2411 431.533 59.6966 431.35 59.0337 431.35H55.9087V429.788ZM64.7156 436.748V425.839H66.3917V436.748H64.7156ZM68.8349 427.401V425.839H77.6985V427.401H74.119V436.748H72.4428V427.401H68.8349ZM81.8196 434.276L87.0753 425.839H89.0071V436.748H87.331V428.311L82.1037 436.748H80.1435V425.839H81.8196V434.276ZM98.6396 436.748V427.373H95.7418C95.0884 427.373 94.5747 427.525 94.2006 427.828C93.8266 428.131 93.6396 428.547 93.6396 429.078C93.6396 429.598 93.8076 430.008 94.1438 430.306C94.4847 430.605 94.9511 430.754 95.543 430.754H99.0657V432.316H95.543C94.8043 432.316 94.1675 432.186 93.6325 431.926C93.0974 431.665 92.6855 431.294 92.3967 430.811C92.1078 430.323 91.9634 429.745 91.9634 429.078C91.9634 428.405 92.1149 427.828 92.418 427.345C92.721 426.862 93.1542 426.49 93.7177 426.23C94.2859 425.969 94.9606 425.839 95.7418 425.839H100.23V436.748H98.6396ZM91.3668 436.748L94.4634 431.322H96.2816L93.185 436.748H91.3668ZM104.558 425.839L107.171 430.299L109.785 425.839H111.717L108.194 431.294L111.717 436.748H109.785L107.171 432.515L104.558 436.748H102.626L106.092 431.294L102.626 425.839H104.558ZM119.733 436.748V425.839H121.409V430.583H122.517L126.438 425.839H128.597L124.194 431.095L128.654 436.748H126.495L122.915 432.146H121.409V436.748H119.733ZM134.458 436.975C133.473 436.975 132.609 436.741 131.866 436.272C131.127 435.803 130.549 435.148 130.133 434.305C129.721 433.462 129.515 432.477 129.515 431.35C129.515 430.214 129.721 429.222 130.133 428.374C130.549 427.527 131.127 426.869 131.866 426.4C132.609 425.931 133.473 425.697 134.458 425.697C135.443 425.697 136.305 425.931 137.043 426.4C137.787 426.869 138.364 427.527 138.776 428.374C139.193 429.222 139.401 430.214 139.401 431.35C139.401 432.477 139.193 433.462 138.776 434.305C138.364 435.148 137.787 435.803 137.043 436.272C136.305 436.741 135.443 436.975 134.458 436.975ZM134.458 435.47C135.206 435.47 135.822 435.278 136.305 434.894C136.788 434.511 137.145 434.007 137.377 433.382C137.609 432.757 137.725 432.079 137.725 431.35C137.725 430.621 137.609 429.942 137.377 429.312C137.145 428.682 136.788 428.173 136.305 427.785C135.822 427.397 135.206 427.203 134.458 427.203C133.71 427.203 133.094 427.397 132.612 427.785C132.129 428.173 131.771 428.682 131.539 429.312C131.307 429.942 131.191 430.621 131.191 431.35C131.191 432.079 131.307 432.757 131.539 433.382C131.771 434.007 132.129 434.511 132.612 434.894C133.094 435.278 133.71 435.47 134.458 435.47ZM147.926 434.475L151.733 425.839H153.324L148.608 436.748H147.244L142.613 425.839H144.176L147.926 434.475ZM143.636 425.839V436.748H141.96V425.839H143.636ZM152.216 436.748V425.839H153.892V436.748H152.216ZM156.96 436.748V425.839H165.539V436.748H163.863V427.401H158.636V436.748H156.96ZM171.811 437.004C171.119 437.004 170.492 436.874 169.929 436.613C169.365 436.348 168.918 435.967 168.586 435.47C168.255 434.968 168.089 434.362 168.089 433.651C168.089 433.026 168.212 432.52 168.458 432.132C168.705 431.739 169.034 431.431 169.446 431.208C169.858 430.986 170.312 430.82 170.809 430.711C171.311 430.597 171.815 430.508 172.322 430.441C172.985 430.356 173.522 430.292 173.934 430.249C174.351 430.202 174.654 430.124 174.843 430.015C175.038 429.906 175.135 429.717 175.135 429.447V429.39C175.135 428.689 174.943 428.145 174.559 427.757C174.181 427.368 173.605 427.174 172.833 427.174C172.033 427.174 171.406 427.349 170.951 427.7C170.497 428.05 170.177 428.424 169.993 428.822L168.402 428.254C168.686 427.591 169.065 427.075 169.538 426.705C170.016 426.331 170.537 426.071 171.1 425.924C171.669 425.773 172.227 425.697 172.777 425.697C173.127 425.697 173.529 425.74 173.984 425.825C174.443 425.905 174.886 426.073 175.312 426.329C175.743 426.585 176.1 426.971 176.385 427.487C176.669 428.003 176.811 428.694 176.811 429.561V436.748H175.135V435.271H175.049C174.936 435.508 174.746 435.761 174.481 436.031C174.216 436.301 173.863 436.53 173.423 436.72C172.983 436.909 172.445 437.004 171.811 437.004ZM172.066 435.498C172.729 435.498 173.288 435.368 173.743 435.107C174.202 434.847 174.547 434.511 174.779 434.099C175.016 433.687 175.135 433.254 175.135 432.799V431.265C175.064 431.35 174.907 431.428 174.666 431.499C174.429 431.566 174.154 431.625 173.842 431.677C173.534 431.724 173.234 431.767 172.94 431.805C172.651 431.838 172.417 431.866 172.237 431.89C171.801 431.947 171.394 432.039 171.015 432.167C170.641 432.29 170.338 432.477 170.106 432.728C169.879 432.974 169.765 433.311 169.765 433.737C169.765 434.319 169.981 434.759 170.412 435.058C170.847 435.351 171.399 435.498 172.066 435.498ZM187.171 430.526V432.089H181.148V430.526H187.171ZM181.546 425.839V436.748H179.87V425.839H181.546ZM188.45 425.839V436.748H186.773V425.839H188.45ZM193.187 434.276L198.442 425.839H200.374V436.748H198.698V428.311L193.471 436.748H191.511V425.839H193.187V434.276ZM205.12 434.276L210.376 425.839H212.308V436.748H210.632V428.311L205.404 436.748H203.444V425.839H205.12V434.276ZM216.599 436.862C216.249 436.862 215.948 436.736 215.697 436.485C215.446 436.234 215.321 435.934 215.321 435.583C215.321 435.233 215.446 434.932 215.697 434.681C215.948 434.43 216.249 434.305 216.599 434.305C216.95 434.305 217.25 434.43 217.501 434.681C217.752 434.932 217.878 435.233 217.878 435.583C217.878 435.815 217.819 436.028 217.7 436.222C217.587 436.417 217.433 436.573 217.239 436.691C217.049 436.805 216.836 436.862 216.599 436.862Z" fill="black"/>
<path d="M145.416 139.296C151.903 95.6548 243.161 105.736 296.887 147.42C304.501 162.657 311.823 196.373 280.198 209.332C240.667 225.532 138.929 182.937 145.416 139.296Z" fill="#F4F4F4"/>
<path d="M48.5236 245.307C31.9924 177.271 63.6152 135.429 97.3673 163.231C106.101 180.855 122.569 225.763 118.576 264.396C113.584 312.688 65.0547 313.343 48.5236 245.307Z" fill="#F4F4F4"/>
<path fill-rule="evenodd" clip-rule="evenodd" d="M169.056 258.808C130.886 275.267 85.3143 266.181 48.367 244.09L49.4915 242.239C86.0619 264.104 130.868 272.911 168.177 256.823C205.418 240.764 235.579 199.724 242.523 121.046L244.701 121.244C237.717 200.371 207.295 242.319 169.056 258.808Z" fill="#787878"/>
<path fill-rule="evenodd" clip-rule="evenodd" d="M162.628 256.934C164.155 256.375 165.671 255.776 167.175 255.135C176.21 251.286 184.778 245.96 192.663 238.991L192.771 238.929L198.521 280.298L162.628 256.934ZM119.858 262.838C130.185 263.438 140.434 262.735 150.349 260.525L151.573 260.432L138.328 300.257L116.242 263.112L119.858 262.838ZM205.034 225.954C209.697 220.128 214.01 213.547 217.912 206.163L221.958 199.945L246.356 233.946L202.774 229.426L205.034 225.954ZM72.152 251.379C81.5957 255.323 91.3287 258.379 101.132 260.371L101.485 260.481L74.1878 292.715L67.7904 250.025L72.152 251.379ZM225.903 190.933L269.262 184.042L236.622 157.597L225.903 190.933Z" fill="#FF9900"/>
<path fill-rule="evenodd" clip-rule="evenodd" d="M200.091 113.537C192.093 170.508 130.876 214.005 46.9277 192.832L47.4786 190.742C130.441 211.666 190.138 168.67 197.919 113.249L200.091 113.537Z" fill="#787878"/>
<path fill-rule="evenodd" clip-rule="evenodd" d="M160.367 172.57C161.667 171.603 162.945 170.6 164.199 169.561C171.734 163.321 178.389 155.805 183.91 146.919L184.023 146.8L201.678 184.667L160.367 172.57ZM121.058 190.382C131.134 188.017 140.756 184.433 149.616 179.506L150.791 179.059L149.761 220.857L117.667 191.674L121.058 190.382ZM71.8586 193.019C82.1014 194.102 92.362 194.25 102.377 193.359L102.73 193.362L85.9865 231.913L67.3234 192.969L71.8586 193.019Z" fill="#FF9900"/>
</svg>
