<svg width="318" height="397" viewBox="0 0 318 397" fill="none" xmlns="http://www.w3.org/2000/svg">
<path d="M306.083 154.154C306.444 149.58 302.893 145.64 298.306 145.526L30.3912 138.882C25.8129 138.769 22.0738 142.514 22.1957 147.093L27.9886 364.762C28.1038 369.093 31.6457 372.545 35.9781 372.549L281.414 372.783C285.591 372.787 289.068 369.576 289.397 365.412L306.083 154.154Z" fill="#EDEDF8"/>
<path d="M14.6172 134.167C15.0022 129.935 18.6286 126.743 22.8752 126.897L305.938 137.195C310.264 137.353 313.68 140.922 313.647 145.251L313.421 174.934C313.388 179.26 309.922 182.776 305.597 182.871L18.5494 189.175C13.776 189.28 9.97405 185.207 10.4066 180.452L14.6172 134.167Z" fill="white"/>
<path d="M123.258 162.122L122.115 373.128L194.103 372.695L202.507 162.497L123.258 162.122Z" fill="#9A53B4"/>
<path d="M116.186 187.025L120.336 130.437L205.127 133.515L208.061 185.53L116.186 187.025Z" fill="#AA60C5"/>
<path d="M76.8355 128.833C75.2261 128.774 73.672 128.231 72.3764 127.275L37.1082 101.239C34.1995 99.0918 33.0924 95.2606 34.4075 91.8929L61.177 23.339C63.4344 17.5579 71.129 16.4374 74.9415 21.3345L140.513 105.56C141.815 107.232 143.727 108.319 145.83 108.583L170.104 111.627C172.751 111.959 175.39 110.95 177.139 108.936L245.26 30.5139C249.253 25.9169 256.713 27.2888 258.81 33.0056L282.919 98.7435C284.238 102.341 282.822 106.369 279.541 108.348L237.984 133.418C236.652 134.222 235.114 134.62 233.559 134.563L76.8355 128.833Z" fill="#AA60C4"/>
<path d="M254.422 85.2577C250.079 42.6012 195.983 101.315 173.42 124.669L172.877 130.865C203.187 123.592 258.539 125.688 254.422 85.2577Z" fill="#884EAB"/>
<path d="M62.9802 77.8126C73.5499 46.8284 119.262 95.7757 142.087 121.638L142.276 128.17C110.071 118.704 50.9677 113.026 62.9802 77.8126Z" fill="#884EAB"/>
<path d="M163.137 99.6353C161.065 97.3198 157.568 96.9686 155.078 98.826L144.828 106.47C143.384 107.547 142.5 109.215 142.42 111.015L141.532 131.104L176.401 132.982L174.533 114.108C174.408 112.841 173.883 111.647 173.034 110.699L163.137 99.6353Z" fill="#BB73D5"/>
</svg>
