<svg width="1784" height="357" viewBox="0 0 1784 357" fill="none" xmlns="http://www.w3.org/2000/svg">
<path d="M274.219 75.8789H252.148V60.3516H269.727C274.87 60.3516 279.036 59.5703 282.227 58.0078C285.417 56.3802 287.76 54.1016 289.258 51.1719C290.755 48.2422 291.504 44.7917 291.504 40.8203C291.504 37.5651 290.658 34.5703 288.965 31.8359C287.337 29.1016 284.798 26.9206 281.348 25.293C277.897 23.6003 273.503 22.7539 268.164 22.7539C264.128 22.7539 260.449 23.4701 257.129 24.9023C253.809 26.3346 251.172 28.3529 249.219 30.957C247.266 33.4961 246.289 36.5885 246.289 40.2344H217.09C217.09 33.9844 218.424 28.3854 221.094 23.4375C223.828 18.4245 227.539 14.1927 232.227 10.7422C236.979 7.22656 242.448 4.55729 248.633 2.73438C254.818 0.911458 261.328 0 268.164 0C276.172 0 283.398 0.878906 289.844 2.63672C296.289 4.32943 301.823 6.86849 306.445 10.2539C311.068 13.6393 314.616 17.8385 317.09 22.8516C319.564 27.8646 320.801 33.6914 320.801 40.332C320.801 45.2148 319.694 49.8047 317.48 54.1016C315.267 58.3984 312.109 62.1745 308.008 65.4297C303.906 68.6849 298.991 71.2565 293.262 73.1445C287.533 74.9674 281.185 75.8789 274.219 75.8789ZM252.148 67.3828H274.219C281.966 67.3828 288.835 68.1966 294.824 69.8242C300.879 71.4518 305.99 73.8281 310.156 76.9531C314.388 80.0781 317.578 83.9518 319.727 88.5742C321.94 93.1315 323.047 98.3724 323.047 104.297C323.047 110.938 321.68 116.829 318.945 121.973C316.276 127.116 312.467 131.478 307.52 135.059C302.637 138.639 296.842 141.341 290.137 143.164C283.496 144.987 276.172 145.898 268.164 145.898C261.784 145.898 255.436 145.117 249.121 143.555C242.806 141.927 237.077 139.453 231.934 136.133C226.79 132.812 222.689 128.548 219.629 123.34C216.569 118.132 215.039 111.882 215.039 104.59H244.434C244.434 108.04 245.443 111.198 247.461 114.062C249.479 116.862 252.279 119.108 255.859 120.801C259.44 122.428 263.542 123.242 268.164 123.242C273.568 123.242 278.158 122.396 281.934 120.703C285.775 119.01 288.672 116.699 290.625 113.77C292.643 110.775 293.652 107.487 293.652 103.906C293.652 100.065 293.132 96.8099 292.09 94.1406C291.048 91.4714 289.518 89.2904 287.5 87.5977C285.482 85.8398 282.975 84.5703 279.98 83.7891C277.051 83.0078 273.633 82.6172 269.727 82.6172H252.148V67.3828Z" fill="black"/>
<path d="M400 120.215V73.1445C400 69.7591 399.447 66.862 398.34 64.4531C397.233 61.9792 395.508 60.0586 393.164 58.6914C390.885 57.3242 387.923 56.6406 384.277 56.6406C381.152 56.6406 378.451 57.194 376.172 58.3008C373.893 59.3424 372.135 60.8724 370.898 62.8906C369.661 64.8438 369.043 67.1549 369.043 69.8242H340.918C340.918 65.332 341.96 61.0677 344.043 57.0312C346.126 52.9948 349.154 49.4466 353.125 46.3867C357.096 43.2617 361.816 40.8203 367.285 39.0625C372.819 37.3047 379.004 36.4258 385.84 36.4258C394.043 36.4258 401.335 37.793 407.715 40.5273C414.095 43.2617 419.108 47.3633 422.754 52.832C426.465 58.3008 428.32 65.1367 428.32 73.3398V118.555C428.32 124.349 428.678 129.102 429.395 132.812C430.111 136.458 431.152 139.648 432.52 142.383V144.043H404.102C402.734 141.178 401.693 137.598 400.977 133.301C400.326 128.939 400 124.577 400 120.215ZM403.711 79.6875L403.906 95.6055H388.184C384.473 95.6055 381.25 96.0286 378.516 96.875C375.781 97.7214 373.535 98.9258 371.777 100.488C370.02 101.986 368.717 103.743 367.871 105.762C367.09 107.78 366.699 109.993 366.699 112.402C366.699 114.811 367.253 116.992 368.359 118.945C369.466 120.833 371.061 122.331 373.145 123.438C375.228 124.479 377.669 125 380.469 125C384.701 125 388.379 124.154 391.504 122.461C394.629 120.768 397.038 118.685 398.73 116.211C400.488 113.737 401.4 111.393 401.465 109.18L408.887 121.094C407.845 123.763 406.413 126.53 404.59 129.395C402.832 132.259 400.586 134.961 397.852 137.5C395.117 139.974 391.829 142.025 387.988 143.652C384.147 145.215 379.59 145.996 374.316 145.996C367.611 145.996 361.523 144.661 356.055 141.992C350.651 139.258 346.354 135.514 343.164 130.762C340.039 125.944 338.477 120.475 338.477 114.355C338.477 108.822 339.518 103.906 341.602 99.6094C343.685 95.3125 346.745 91.6992 350.781 88.7695C354.883 85.7747 359.993 83.5286 366.113 82.0312C372.233 80.4688 379.329 79.6875 387.402 79.6875H403.711Z" fill="black"/>
<path d="M588.867 38.3789V144.043H560.645V38.3789H588.867ZM575.586 83.5938V105.566C573.438 106.673 570.671 107.715 567.285 108.691C563.9 109.668 560.319 110.449 556.543 111.035C552.832 111.556 549.382 111.816 546.191 111.816C536.035 111.816 527.311 110.417 520.02 107.617C512.793 104.818 507.227 100.423 503.32 94.4336C499.414 88.444 497.461 80.7617 497.461 71.3867V38.2812H525.586V71.3867C525.586 76.1393 526.302 79.8828 527.734 82.6172C529.167 85.2865 531.38 87.1745 534.375 88.2812C537.435 89.3229 541.374 89.8438 546.191 89.8438C549.577 89.8438 552.865 89.5833 556.055 89.0625C559.245 88.5417 562.435 87.8255 565.625 86.9141C568.815 86.0026 572.135 84.8958 575.586 83.5938Z" fill="black"/>
<path d="M664.355 38.3789V144.043H636.133V38.3789H664.355ZM698.34 38.3789V60.1562H602.637V38.3789H698.34Z" fill="black"/>
<path d="M704.883 92.2852V90.2344C704.883 82.487 705.99 75.3581 708.203 68.8477C710.417 62.2721 713.639 56.5755 717.871 51.7578C722.103 46.9401 727.311 43.1966 733.496 40.5273C739.681 37.793 746.777 36.4258 754.785 36.4258C762.793 36.4258 769.922 37.793 776.172 40.5273C782.422 43.1966 787.663 46.9401 791.895 51.7578C796.191 56.5755 799.447 62.2721 801.66 68.8477C803.874 75.3581 804.98 82.487 804.98 90.2344V92.2852C804.98 99.9674 803.874 107.096 801.66 113.672C799.447 120.182 796.191 125.879 791.895 130.762C787.663 135.579 782.454 139.323 776.27 141.992C770.085 144.661 762.988 145.996 754.98 145.996C746.973 145.996 739.844 144.661 733.594 141.992C727.409 139.323 722.168 135.579 717.871 130.762C713.639 125.879 710.417 120.182 708.203 113.672C705.99 107.096 704.883 99.9674 704.883 92.2852ZM733.008 90.2344V92.2852C733.008 96.7122 733.398 100.846 734.18 104.688C734.961 108.529 736.198 111.914 737.891 114.844C739.648 117.708 741.927 119.954 744.727 121.582C747.526 123.21 750.944 124.023 754.98 124.023C758.887 124.023 762.24 123.21 765.039 121.582C767.839 119.954 770.085 117.708 771.777 114.844C773.47 111.914 774.707 108.529 775.488 104.688C776.335 100.846 776.758 96.7122 776.758 92.2852V90.2344C776.758 85.9375 776.335 81.901 775.488 78.125C774.707 74.2839 773.438 70.8984 771.68 67.9688C769.987 64.974 767.741 62.6302 764.941 60.9375C762.142 59.2448 758.757 58.3984 754.785 58.3984C750.814 58.3984 747.428 59.2448 744.629 60.9375C741.895 62.6302 739.648 64.974 737.891 67.9688C736.198 70.8984 734.961 74.2839 734.18 78.125C733.398 81.901 733.008 85.9375 733.008 90.2344Z" fill="black"/>
<path d="M936.328 111.719L964.062 38.3789H987.012L945.801 144.043H926.855L885.84 38.3789H908.789L936.328 111.719ZM902.051 38.3789V144.043H873.926V38.3789H902.051ZM971.289 144.043V38.3789H999.414V144.043H971.289Z" fill="black"/>
<path d="M1019.53 92.2852V90.2344C1019.53 82.487 1020.64 75.3581 1022.85 68.8477C1025.07 62.2721 1028.29 56.5755 1032.52 51.7578C1036.75 46.9401 1041.96 43.1966 1048.14 40.5273C1054.33 37.793 1061.43 36.4258 1069.43 36.4258C1077.44 36.4258 1084.57 37.793 1090.82 40.5273C1097.07 43.1966 1102.31 46.9401 1106.54 51.7578C1110.84 56.5755 1114.1 62.2721 1116.31 68.8477C1118.52 75.3581 1119.63 82.487 1119.63 90.2344V92.2852C1119.63 99.9674 1118.52 107.096 1116.31 113.672C1114.1 120.182 1110.84 125.879 1106.54 130.762C1102.31 135.579 1097.1 139.323 1090.92 141.992C1084.73 144.661 1077.64 145.996 1069.63 145.996C1061.62 145.996 1054.49 144.661 1048.24 141.992C1042.06 139.323 1036.82 135.579 1032.52 130.762C1028.29 125.879 1025.07 120.182 1022.85 113.672C1020.64 107.096 1019.53 99.9674 1019.53 92.2852ZM1047.66 90.2344V92.2852C1047.66 96.7122 1048.05 100.846 1048.83 104.688C1049.61 108.529 1050.85 111.914 1052.54 114.844C1054.3 117.708 1056.58 119.954 1059.38 121.582C1062.17 123.21 1065.59 124.023 1069.63 124.023C1073.54 124.023 1076.89 123.21 1079.69 121.582C1082.49 119.954 1084.73 117.708 1086.43 114.844C1088.12 111.914 1089.36 108.529 1090.14 104.688C1090.98 100.846 1091.41 96.7122 1091.41 92.2852V90.2344C1091.41 85.9375 1090.98 81.901 1090.14 78.125C1089.36 74.2839 1088.09 70.8984 1086.33 67.9688C1084.64 64.974 1082.39 62.6302 1079.59 60.9375C1076.79 59.2448 1073.4 58.3984 1069.43 58.3984C1065.46 58.3984 1062.08 59.2448 1059.28 60.9375C1056.54 62.6302 1054.3 64.974 1052.54 67.9688C1050.85 70.8984 1049.61 74.2839 1048.83 78.125C1048.05 81.901 1047.66 85.9375 1047.66 90.2344Z" fill="black"/>
<path d="M1172.07 104.199L1128.12 38.3789H1162.99L1185.45 78.2227H1205.66L1202.25 104.199H1172.07ZM1185.84 99.4141L1161.72 144.043H1127.83L1162.89 85.8398L1185.84 99.4141ZM1223.93 38.3789V144.043H1195.8V38.3789H1223.93ZM1291.89 38.3789L1247.95 104.199H1217.77L1214.36 78.2227H1234.57L1256.93 38.3789H1291.89ZM1258.2 144.043L1234.08 99.4141L1257.91 85.8398L1292.77 144.043H1258.2Z" fill="black"/>
<path d="M1378.81 81.0547V102.93H1325.1V81.0547H1378.81ZM1334.47 38.3789V144.043H1306.35V38.3789H1334.47ZM1397.85 38.3789V144.043H1369.63V38.3789H1397.85Z" fill="black"/>
<path d="M1415.23 92.2852V90.2344C1415.23 82.487 1416.34 75.3581 1418.55 68.8477C1420.77 62.2721 1423.99 56.5755 1428.22 51.7578C1432.45 46.9401 1437.66 43.1966 1443.85 40.5273C1450.03 37.793 1457.13 36.4258 1465.14 36.4258C1473.14 36.4258 1480.27 37.793 1486.52 40.5273C1492.77 43.1966 1498.01 46.9401 1502.25 51.7578C1506.54 56.5755 1509.8 62.2721 1512.01 68.8477C1514.23 75.3581 1515.33 82.487 1515.33 90.2344V92.2852C1515.33 99.9674 1514.23 107.096 1512.01 113.672C1509.8 120.182 1506.54 125.879 1502.25 130.762C1498.01 135.579 1492.81 139.323 1486.62 141.992C1480.44 144.661 1473.34 145.996 1465.33 145.996C1457.32 145.996 1450.2 144.661 1443.95 141.992C1437.76 139.323 1432.52 135.579 1428.22 130.762C1423.99 125.879 1420.77 120.182 1418.55 113.672C1416.34 107.096 1415.23 99.9674 1415.23 92.2852ZM1443.36 90.2344V92.2852C1443.36 96.7122 1443.75 100.846 1444.53 104.688C1445.31 108.529 1446.55 111.914 1448.24 114.844C1450 117.708 1452.28 119.954 1455.08 121.582C1457.88 123.21 1461.3 124.023 1465.33 124.023C1469.24 124.023 1472.59 123.21 1475.39 121.582C1478.19 119.954 1480.44 117.708 1482.13 114.844C1483.82 111.914 1485.06 108.529 1485.84 104.688C1486.69 100.846 1487.11 96.7122 1487.11 92.2852V90.2344C1487.11 85.9375 1486.69 81.901 1485.84 78.125C1485.06 74.2839 1483.79 70.8984 1482.03 67.9688C1480.34 64.974 1478.09 62.6302 1475.29 60.9375C1472.49 59.2448 1469.11 58.3984 1465.14 58.3984C1461.17 58.3984 1457.78 59.2448 1454.98 60.9375C1452.25 62.6302 1450 64.974 1448.24 67.9688C1446.55 70.8984 1445.31 74.2839 1444.53 78.125C1443.75 81.901 1443.36 85.9375 1443.36 90.2344Z" fill="black"/>
<path d="M71.1914 208.379V230.449H20.0195V208.379H71.1914ZM28.125 208.379V314.043H0V208.379H28.125ZM91.6992 208.379V314.043H63.4766V208.379H91.6992Z" fill="black"/>
<path d="M108.887 262.285V260.234C108.887 252.487 109.993 245.358 112.207 238.848C114.421 232.272 117.643 226.576 121.875 221.758C126.107 216.94 131.315 213.197 137.5 210.527C143.685 207.793 150.781 206.426 158.789 206.426C166.797 206.426 173.926 207.793 180.176 210.527C186.426 213.197 191.667 216.94 195.898 221.758C200.195 226.576 203.451 232.272 205.664 238.848C207.878 245.358 208.984 252.487 208.984 260.234V262.285C208.984 269.967 207.878 277.096 205.664 283.672C203.451 290.182 200.195 295.879 195.898 300.762C191.667 305.579 186.458 309.323 180.273 311.992C174.089 314.661 166.992 315.996 158.984 315.996C150.977 315.996 143.848 314.661 137.598 311.992C131.413 309.323 126.172 305.579 121.875 300.762C117.643 295.879 114.421 290.182 112.207 283.672C109.993 277.096 108.887 269.967 108.887 262.285ZM137.012 260.234V262.285C137.012 266.712 137.402 270.846 138.184 274.688C138.965 278.529 140.202 281.914 141.895 284.844C143.652 287.708 145.931 289.954 148.73 291.582C151.53 293.21 154.948 294.023 158.984 294.023C162.891 294.023 166.243 293.21 169.043 291.582C171.842 289.954 174.089 287.708 175.781 284.844C177.474 281.914 178.711 278.529 179.492 274.688C180.339 270.846 180.762 266.712 180.762 262.285V260.234C180.762 255.938 180.339 251.901 179.492 248.125C178.711 244.284 177.441 240.898 175.684 237.969C173.991 234.974 171.745 232.63 168.945 230.938C166.146 229.245 162.76 228.398 158.789 228.398C154.818 228.398 151.432 229.245 148.633 230.938C145.898 232.63 143.652 234.974 141.895 237.969C140.202 240.898 138.965 244.284 138.184 248.125C137.402 251.901 137.012 255.938 137.012 260.234Z" fill="black"/>
<path d="M295.801 208.379V230.449H243.848V208.379H295.801ZM316.406 208.379V314.043H288.281V208.379H316.406ZM236.816 208.379H264.453L261.621 261.699C261.23 269.316 260.417 276.022 259.18 281.816C257.943 287.611 256.283 292.559 254.199 296.66C252.181 300.762 249.74 304.115 246.875 306.719C244.076 309.258 240.788 311.113 237.012 312.285C233.301 313.457 229.199 314.043 224.707 314.043H216.113L215.82 291.875L219.434 291.484C221.517 291.289 223.34 290.703 224.902 289.727C226.53 288.685 227.897 287.22 229.004 285.332C230.176 283.379 231.152 280.938 231.934 278.008C232.715 275.013 233.333 271.497 233.789 267.461C234.31 263.424 234.668 258.77 234.863 253.496L236.816 208.379Z" fill="black"/>
<path d="M369.531 302.129L397.559 208.379H427.734L385.254 329.961C384.342 332.63 383.105 335.495 381.543 338.555C380.046 341.615 377.995 344.512 375.391 347.246C372.852 350.046 369.629 352.324 365.723 354.082C361.882 355.84 357.161 356.719 351.562 356.719C348.893 356.719 346.712 356.556 345.02 356.23C343.327 355.905 341.309 355.449 338.965 354.863V334.258C339.681 334.258 340.43 334.258 341.211 334.258C341.992 334.323 342.741 334.355 343.457 334.355C347.168 334.355 350.195 333.932 352.539 333.086C354.883 332.24 356.771 330.938 358.203 329.18C359.635 327.487 360.775 325.273 361.621 322.539L369.531 302.129ZM357.812 208.379L380.762 284.941L384.766 314.727L365.625 316.777L327.637 208.379H357.812Z" fill="black"/>
<path d="M528.027 208.379V314.043H499.805V208.379H528.027ZM514.746 253.594V275.566C512.598 276.673 509.831 277.715 506.445 278.691C503.06 279.668 499.479 280.449 495.703 281.035C491.992 281.556 488.542 281.816 485.352 281.816C475.195 281.816 466.471 280.417 459.18 277.617C451.953 274.818 446.387 270.423 442.48 264.434C438.574 258.444 436.621 250.762 436.621 241.387V208.281H464.746V241.387C464.746 246.139 465.462 249.883 466.895 252.617C468.327 255.286 470.54 257.174 473.535 258.281C476.595 259.323 480.534 259.844 485.352 259.844C488.737 259.844 492.025 259.583 495.215 259.062C498.405 258.542 501.595 257.826 504.785 256.914C507.975 256.003 511.296 254.896 514.746 253.594Z" fill="black"/>
<path d="M577.734 274.785L613.184 208.379H641.309V314.043H613.184V247.539L577.734 314.043H549.609V208.379H577.734V274.785Z" fill="black"/>
<path d="M716.797 208.379V314.043H688.574V208.379H716.797ZM750.781 208.379V230.156H655.078V208.379H750.781Z" fill="black"/>
<path d="M784.57 239.727H815.234C824.87 239.727 833.073 241.322 839.844 244.512C846.68 247.637 851.888 251.999 855.469 257.598C859.115 263.197 860.938 269.674 860.938 277.031C860.938 282.37 859.896 287.318 857.812 291.875C855.794 296.367 852.832 300.273 848.926 303.594C845.02 306.914 840.234 309.486 834.57 311.309C828.906 313.132 822.461 314.043 815.234 314.043H766.992V208.379H795.215V292.168H815.234C819.466 292.168 822.852 291.484 825.391 290.117C827.995 288.685 829.883 286.829 831.055 284.551C832.292 282.272 832.91 279.798 832.91 277.129C832.91 274.329 832.292 271.79 831.055 269.512C829.883 267.168 827.995 265.28 825.391 263.848C822.852 262.415 819.466 261.699 815.234 261.699H784.57V239.727Z" fill="black"/>
<path d="M990.43 249.297V271.367H933.398V249.297H990.43ZM957.129 208.379V314.043H928.906V208.379H957.129ZM971.387 262.285V260.234C971.387 252.487 972.493 245.358 974.707 238.848C976.921 232.272 980.143 226.576 984.375 221.758C988.672 216.94 993.913 213.197 1000.1 210.527C1006.28 207.793 1013.35 206.426 1021.29 206.426C1029.36 206.426 1036.49 207.793 1042.68 210.527C1048.93 213.197 1054.2 216.94 1058.5 221.758C1062.79 226.576 1066.02 232.272 1068.16 238.848C1070.38 245.358 1071.48 252.487 1071.48 260.234V262.285C1071.48 269.967 1070.38 277.096 1068.16 283.672C1066.02 290.182 1062.79 295.879 1058.5 300.762C1054.26 305.579 1049.02 309.323 1042.77 311.992C1036.59 314.661 1029.49 315.996 1021.48 315.996C1013.48 315.996 1006.38 314.661 1000.2 311.992C994.01 309.323 988.77 305.579 984.473 300.762C980.176 295.879 976.921 290.182 974.707 283.672C972.493 277.096 971.387 269.967 971.387 262.285ZM999.512 260.234V262.285C999.512 266.712 999.902 270.846 1000.68 274.688C1001.53 278.529 1002.8 281.914 1004.49 284.844C1006.25 287.708 1008.53 289.954 1011.33 291.582C1014.13 293.21 1017.51 294.023 1021.48 294.023C1025.46 294.023 1028.81 293.21 1031.54 291.582C1034.34 289.954 1036.59 287.708 1038.28 284.844C1040.04 281.914 1041.31 278.529 1042.09 274.688C1042.94 270.846 1043.36 266.712 1043.36 262.285V260.234C1043.36 255.938 1042.94 251.901 1042.09 248.125C1041.31 244.284 1040.04 240.898 1038.28 237.969C1036.59 234.974 1034.34 232.63 1031.54 230.938C1028.74 229.245 1025.33 228.398 1021.29 228.398C1017.38 228.398 1014.03 229.245 1011.23 230.938C1008.5 232.63 1006.25 234.974 1004.49 237.969C1002.8 240.898 1001.53 244.284 1000.68 248.125C999.902 251.901 999.512 255.938 999.512 260.234Z" fill="black"/>
<path d="M1118.95 208.379V314.043H1090.82V208.379H1118.95ZM1187.6 208.379L1142.09 274.492H1113.96L1110.55 248.516H1129.2L1151.95 208.379H1187.6ZM1153.22 314.043L1127.25 269.414L1151.76 255.84L1190.92 314.043H1153.22Z" fill="black"/>
<path d="M1192.48 262.285V260.234C1192.48 252.487 1193.59 245.358 1195.8 238.848C1198.01 232.272 1201.24 226.576 1205.47 221.758C1209.7 216.94 1214.91 213.197 1221.09 210.527C1227.28 207.793 1234.38 206.426 1242.38 206.426C1250.39 206.426 1257.52 207.793 1263.77 210.527C1270.02 213.197 1275.26 216.94 1279.49 221.758C1283.79 226.576 1287.04 232.272 1289.26 238.848C1291.47 245.358 1292.58 252.487 1292.58 260.234V262.285C1292.58 269.967 1291.47 277.096 1289.26 283.672C1287.04 290.182 1283.79 295.879 1279.49 300.762C1275.26 305.579 1270.05 309.323 1263.87 311.992C1257.68 314.661 1250.59 315.996 1242.58 315.996C1234.57 315.996 1227.44 314.661 1221.19 311.992C1215.01 309.323 1209.77 305.579 1205.47 300.762C1201.24 295.879 1198.01 290.182 1195.8 283.672C1193.59 277.096 1192.48 269.967 1192.48 262.285ZM1220.61 260.234V262.285C1220.61 266.712 1221 270.846 1221.78 274.688C1222.56 278.529 1223.8 281.914 1225.49 284.844C1227.25 287.708 1229.52 289.954 1232.32 291.582C1235.12 293.21 1238.54 294.023 1242.58 294.023C1246.48 294.023 1249.84 293.21 1252.64 291.582C1255.44 289.954 1257.68 287.708 1259.38 284.844C1261.07 281.914 1262.3 278.529 1263.09 274.688C1263.93 270.846 1264.36 266.712 1264.36 262.285V260.234C1264.36 255.938 1263.93 251.901 1263.09 248.125C1262.3 244.284 1261.04 240.898 1259.28 237.969C1257.58 234.974 1255.34 232.63 1252.54 230.938C1249.74 229.245 1246.35 228.398 1242.38 228.398C1238.41 228.398 1235.03 229.245 1232.23 230.938C1229.49 232.63 1227.25 234.974 1225.49 237.969C1223.8 240.898 1222.56 244.284 1221.78 248.125C1221 251.901 1220.61 255.938 1220.61 260.234Z" fill="black"/>
<path d="M1337.89 274.785L1373.34 208.379H1401.46V314.043H1373.34V247.539L1337.89 314.043H1309.77V208.379H1337.89V274.785ZM1370.12 165.898H1390.14C1390.14 171.497 1388.74 176.478 1385.94 180.84C1383.2 185.137 1379.3 188.522 1374.22 190.996C1369.14 193.405 1363.15 194.609 1356.25 194.609C1345.77 194.609 1337.47 191.94 1331.35 186.602C1325.29 181.263 1322.27 174.362 1322.27 165.898H1342.19C1342.19 169.284 1343.23 172.311 1345.31 174.98C1347.46 177.65 1351.11 178.984 1356.25 178.984C1361.33 178.984 1364.91 177.65 1366.99 174.98C1369.08 172.311 1370.12 169.284 1370.12 165.898Z" fill="black"/>
<path d="M1495.51 251.055V272.93H1441.8V251.055H1495.51ZM1451.17 208.379V314.043H1423.05V208.379H1451.17ZM1514.55 208.379V314.043H1486.33V208.379H1514.55Z" fill="black"/>
<path d="M1555.86 239.727H1586.52C1596.16 239.727 1604.36 241.322 1611.13 244.512C1617.97 247.637 1623.18 251.999 1626.76 257.598C1630.4 263.197 1632.23 269.674 1632.23 277.031C1632.23 282.37 1631.18 287.318 1629.1 291.875C1627.08 296.367 1624.12 300.273 1620.21 303.594C1616.31 306.914 1611.52 309.486 1605.86 311.309C1600.2 313.132 1593.75 314.043 1586.52 314.043H1538.28V208.379H1566.5V292.168H1586.52C1590.76 292.168 1594.14 291.484 1596.68 290.117C1599.28 288.685 1601.17 286.829 1602.34 284.551C1603.58 282.272 1604.2 279.798 1604.2 277.129C1604.2 274.329 1603.58 271.79 1602.34 269.512C1601.17 267.168 1599.28 265.28 1596.68 263.848C1594.14 262.415 1590.76 261.699 1586.52 261.699H1555.86V239.727ZM1677.34 208.379V314.043H1649.22V208.379H1677.34Z" fill="black"/>
<path d="M1750 270.586H1725.1C1725.16 264.727 1725.62 259.681 1726.46 255.449C1727.38 251.152 1728.91 247.279 1731.05 243.828C1733.27 240.378 1736.2 236.96 1739.84 233.574C1742.9 230.84 1745.57 228.236 1747.85 225.762C1750.13 223.288 1751.92 220.749 1753.22 218.145C1754.52 215.475 1755.18 212.513 1755.18 209.258C1755.18 205.482 1754.59 202.357 1753.42 199.883C1752.31 197.344 1750.62 195.423 1748.34 194.121C1746.13 192.819 1743.33 192.168 1739.94 192.168C1737.14 192.168 1734.54 192.786 1732.13 194.023C1729.72 195.195 1727.73 197.018 1726.17 199.492C1724.67 201.966 1723.89 205.221 1723.83 209.258H1695.51C1695.7 200.339 1697.75 192.982 1701.66 187.188C1705.63 181.328 1710.94 176.999 1717.58 174.199C1724.22 171.335 1731.67 169.902 1739.94 169.902C1749.06 169.902 1756.87 171.4 1763.38 174.395C1769.89 177.324 1774.87 181.654 1778.32 187.383C1781.77 193.047 1783.5 199.948 1783.5 208.086C1783.5 213.75 1782.39 218.796 1780.18 223.223C1777.96 227.585 1775.07 231.654 1771.48 235.43C1767.9 239.206 1763.96 243.112 1759.67 247.148C1755.96 250.469 1753.42 253.952 1752.05 257.598C1750.75 261.243 1750.07 265.573 1750 270.586ZM1722.17 300.762C1722.17 296.595 1723.6 293.145 1726.46 290.41C1729.33 287.611 1733.17 286.211 1737.99 286.211C1742.74 286.211 1746.55 287.611 1749.41 290.41C1752.34 293.145 1753.81 296.595 1753.81 300.762C1753.81 304.798 1752.34 308.216 1749.41 311.016C1746.55 313.815 1742.74 315.215 1737.99 315.215C1733.17 315.215 1729.33 313.815 1726.46 311.016C1723.6 308.216 1722.17 304.798 1722.17 300.762Z" fill="black"/>
</svg>
