<svg width="23" height="13" viewBox="0 0 23 13" fill="none" xmlns="http://www.w3.org/2000/svg">
<path d="M15.8574 6.66667C15.8574 7.11987 15.4967 7.75381 14.5971 8.31985C13.7296 8.86566 12.4949 9.25 11.1074 9.25C9.75013 9.25 8.52639 8.79943 7.65371 8.17729C6.7468 7.53075 6.35742 6.81082 6.35742 6.33333C6.35742 5.97798 6.59266 5.58364 7.48352 5.2469C8.35601 4.9171 9.62686 4.75 11.1074 4.75C12.5564 4.75 13.8154 4.99273 14.6821 5.39293C15.5723 5.80395 15.8574 6.27365 15.8574 6.66667Z" stroke="black" stroke-width="1.5"/>
<path d="M16.6074 12L4.60742 1" stroke="black" stroke-width="1.5"/>
<path d="M0.607422 9.17641C5.96036 3.0587 16.6074 3.49951 22.1074 9.17641" stroke="black" stroke-width="1.5"/>
<path d="M13.373 9.17613L8.78481 4.58789" stroke="black" stroke-width="1.5"/>
</svg>
