<svg width="248" height="243" viewBox="0 0 248 243" fill="none" xmlns="http://www.w3.org/2000/svg">
<path d="M107.43 232.656C181.431 248.758 256.185 187.032 236.932 103.841C224.873 51.7312 184.111 6.71031 128.573 7.22507C95.4391 7.53219 46.52 11.8494 20.2145 82.3657M20.2145 82.3657L65.1438 76.9982M20.2145 82.3657L7 44.7932" stroke="white" stroke-width="14" stroke-linecap="round"/>
<path fill-rule="evenodd" clip-rule="evenodd" d="M120 81.2207C116.134 81.2207 113 84.3547 113 88.2207V124.221C113 126.79 114.384 129.036 116.447 130.253C116.723 130.469 117.018 130.668 117.33 130.848L163.27 157.372C166.892 159.463 171.522 158.222 173.613 154.601C175.704 150.98 174.463 146.349 170.842 144.258L127 118.946V88.2207C127 84.3547 123.866 81.2207 120 81.2207Z" fill="white"/>
</svg>
