<svg width="895" height="709" viewBox="0 0 895 709" fill="none" xmlns="http://www.w3.org/2000/svg">
<g filter="url(#filter0_d_3634_2377)">
<path d="M227.735 165.765C382.675 22.1214 775.899 130.534 870.014 159.284C882.331 163.047 890.48 174.439 890.48 187.318V671C890.48 687.568 877.049 701 860.48 701H247.473C235.495 701 224.735 693.987 220.411 682.816C190.325 605.082 84.425 298.627 227.735 165.765Z" fill="#F59D0E"/>
<path d="M720.329 339.209L787.185 369.432C787.185 369.432 829.75 370.169 850.926 381.604C875.042 394.628 887.734 479.039 887.734 479.039L877.63 516.569L867.24 568.688C867.24 580.188 850.926 679.788 850.926 679.788L832.811 701H694.142H544.142H412.141L396.537 596.75C396.537 596.75 365.074 648.751 334.928 671.707C319.673 683.324 292.668 696.708 292.668 696.708C292.668 696.708 238.248 665.44 224.449 631.171C203.141 578.251 203.141 477.278 203.141 477.278L250.93 430.235L300.212 507.892C300.212 507.892 301.85 466.02 313.262 450.028C322.148 437.575 339.288 414.766 339.288 414.766L334.928 387.532C334.928 387.532 358.644 334.944 392.09 324.028C411.382 317.731 444.055 324.028 444.055 324.028L507.106 307.478L720.329 339.209Z" fill="#CEC6BE"/>
<path d="M754.481 510.664L735.87 491.729C728.568 530.936 718.348 592.028 714.151 617.674C685.635 635.423 670.514 683.53 668 701H708.004L739.661 654.836C720.302 603.883 742.072 533.903 754.481 510.664Z" fill="#BDB2A8"/>
<path d="M754.48 361.147L551.073 398L491.998 385.389L475.48 320L740.5 349.625L754.48 361.147Z" fill="#BDB2A8"/>
<path d="M755.756 354.671L686.446 310.607C686.446 310.607 743.74 121.1 783.48 78.569C783.48 78.569 738.203 86.8845 724.341 97.0586C724.341 97.0586 668.892 64.7017 633.785 57.3034L655.959 0C655.959 0 575.562 77.6517 552.458 139.59L540.442 152.528L521.03 291.188L539.513 302.279L511.15 300.143L479.48 313.576L514.25 376.238L537.052 385L755.756 354.671Z" fill="#FFB956"/>
<path d="M540.107 202.439L568.879 201L576.023 215.202L605.45 212.755C605.45 212.755 649.48 227.965 649.48 238.988C649.48 250.011 624.166 321.681 606.639 318.922C589.111 316.164 542.085 301.47 527.48 288.611L540.107 202.439Z" fill="#E8CBAE"/>
<path d="M539.585 205.353L567.183 204L574.034 217.357L602.254 215.05C602.254 215.05 644.48 229.362 644.48 239.736C644.48 250.11 620.21 317.523 603.4 314.927C586.59 312.33 541.487 298.514 527.48 286.413L539.585 205.353Z" fill="#FFF0E0"/>
<path d="M589.48 170.125L560.48 141C560.48 141 560.48 220.867 589.48 170.125Z" fill="#E68B48"/>
<path d="M625.732 177L695.48 183.59C695.468 183.59 608.537 240.414 625.732 177Z" fill="#E68B48"/>
<path d="M589.48 164.489L560.481 136C560.469 136 560.469 214.134 589.48 164.489Z" fill="white"/>
<path d="M623.699 171L692.48 177.586C692.48 177.586 606.75 234.416 623.699 171Z" fill="white"/>
<path d="M629.48 253.215L548.663 232C548.663 232 545.499 264.874 565.531 265.942C585.564 266.999 629.48 253.215 629.48 253.215Z" fill="#E8CBAE"/>
<path d="M620.48 252.095L549.64 234C549.64 234 546.865 262.04 564.433 262.95C581.99 263.859 620.48 252.095 620.48 252.095Z" fill="white"/>
<path d="M539.222 302C539.222 302 592.849 328.446 617.402 324.275C641.955 320.104 656.48 315.113 656.48 315.113L601.843 347.297L560.601 358L524.48 324.275" fill="#FAA746"/>
<path d="M783.48 78.0001C783.48 78.0001 742.878 76.9746 678.48 311.798L755.794 354L686.577 309.952C686.577 309.952 711.36 233.427 732.926 176.241C752.625 123.978 774.83 82.85 783.48 78.0001Z" fill="#FAA746"/>
<path d="M516.405 541.54C513.259 546.941 516.405 559.017 517.016 574.268C514.617 576.083 497.364 580.048 500.621 569.617C504.125 558.391 508.077 547.533 516.405 541.54Z" fill="#BDB2A8"/>
<path d="M633.611 433.738C558.536 393.021 497.809 391.302 454.314 402.374C454.314 402.374 432.517 494.614 508.412 554.386C508.412 554.386 558.59 531.205 587.282 507.11C621.155 478.694 633.611 433.738 633.611 433.738Z" fill="#BDB2A8"/>
<path d="M624.793 431.227C551.859 393.8 492.897 392.181 450.672 402.323C450.672 402.323 429.564 487.001 503.302 541.916C503.302 541.916 552.011 520.659 579.857 498.555C612.719 472.491 624.793 431.227 624.793 431.227Z" fill="#F0F0F0"/>
<path d="M447.952 450.532L530.548 410.587L594.989 485.505C591.087 489.795 586.804 493.933 582.104 497.766C578.676 500.561 574.934 503.343 571.004 506.075L522.574 449.767L456.258 481.83C452.071 471.028 449.47 460.42 447.952 450.532Z" fill="#F59D0E"/>
<path d="M500.767 617.472C455.177 612.673 413.601 632.612 410 701L392.782 596.475L375.988 579.678L382.586 559.281C401.982 561.881 454.213 568.639 507.964 574.878C561.715 581.117 639.942 609.872 672.337 623.47L701.132 647.466L681.935 701H597.349C590.751 655.407 546.358 622.27 500.767 617.472Z" fill="#BDB2A8"/>
<path d="M290.642 697.211C204.77 647.551 212.532 604.615 213.568 562.715L252.879 535.815H304.112C337.012 569.918 331.719 535.86 347.803 506.626L396.346 597.265C362.412 662.651 310.644 690.314 290.642 697.211Z" fill="#BDB2A8"/>
<path d="M320.512 544.79C320.512 544.79 226.574 367.165 214.378 349.98C206.13 343.271 168.745 334.629 161.238 335.166C144.698 336.367 90.6367 338.749 106.318 356.012C106.318 356.012 85.072 356.443 77.3318 356.212C64.7738 355.833 17.6439 349.64 6.96005 356.212C3.11642 358.571 3.42349 371.136 6.96005 373.927C25.2464 388.325 97.3392 408.726 97.3392 408.726C97.3392 408.726 179.056 395.307 182.857 398.33C186.658 401.353 213.722 629.193 213.722 629.193C213.722 629.193 271.603 654.961 303.972 635.241C323.733 623.201 331.461 605.437 333.544 582.391C335.367 562.229 320.512 544.79 320.512 544.79Z" fill="#FFB956"/>
<path fill-rule="evenodd" clip-rule="evenodd" d="M6.41407 373.392C6.58646 373.597 6.76846 373.777 6.95993 373.928C25.2463 388.325 97.3391 408.726 97.3391 408.726C97.3391 408.726 179.056 395.308 182.857 398.33C186.658 401.353 213.722 629.193 213.722 629.193C213.722 629.193 235.057 638.692 259.064 641.742C247.577 598.515 237.213 557.46 228.168 521.63C209.836 449.017 196.923 397.866 191.063 393.603C184.927 389.14 144.765 395.115 119.07 398.938C107.682 400.632 99.1355 401.904 97.6518 401.656C93.4052 400.949 25.086 380.957 6.41407 373.392Z" fill="#FAA746"/>
<path d="M180.313 390.101C206.307 372.98 190.738 360.531 184.375 357.775C160.099 347.273 145.432 353.179 127.869 371.14C105.661 393.846 50.2267 357.711 45.8254 385.972C45.8254 385.972 90.9199 408.147 114.772 402.497C138.613 396.826 180.313 390.101 180.313 390.101Z" fill="#FFC267"/>
<path d="M378.432 557.606L393.316 600.461L359.74 642.64C362.29 618.063 363.324 559.9 349.935 536.74C336.546 513.581 363.354 447.48 378.432 417.325L399.367 403.195C365.517 441.769 363.221 503.867 363.877 530.108L378.432 557.606Z" fill="#BDB2A8"/>
<path d="M671.031 613.737C631.806 601.726 492.468 557.017 369.574 552.816V562.269C552.761 569.832 664.381 620.741 697.292 645.249H720.401L743.855 512.332C724.528 527.457 725.114 604.887 671.031 613.737Z" fill="#BDB2A8"/>
</g>
<defs>
<filter id="filter0_d_3634_2377" x="0.191406" y="0" width="894.289" height="709" filterUnits="userSpaceOnUse" color-interpolation-filters="sRGB">
<feFlood flood-opacity="0" result="BackgroundImageFix"/>
<feColorMatrix in="SourceAlpha" type="matrix" values="0 0 0 0 0 0 0 0 0 0 0 0 0 0 0 0 0 0 127 0" result="hardAlpha"/>
<feOffset dy="4"/>
<feGaussianBlur stdDeviation="2"/>
<feComposite in2="hardAlpha" operator="out"/>
<feColorMatrix type="matrix" values="0 0 0 0 0 0 0 0 0 0 0 0 0 0 0 0 0 0 0.25 0"/>
<feBlend mode="normal" in2="BackgroundImageFix" result="effect1_dropShadow_3634_2377"/>
<feBlend mode="normal" in="SourceGraphic" in2="effect1_dropShadow_3634_2377" result="shape"/>
</filter>
</defs>
</svg>
