<svg width="266" height="298" viewBox="0 0 266 298" fill="none" xmlns="http://www.w3.org/2000/svg">
<path d="M63.2495 294.914C58.7472 296.157 54.1424 293.294 53.264 288.707L1.71553 19.5097C0.806617 14.7632 4.28157 10.3007 9.10615 10.0188L163.388 1.00439L212.122 46.46L245.005 237.27C245.703 241.324 243.214 245.246 239.249 246.341L63.2495 294.914Z" fill="white" stroke="white" stroke-miterlimit="10"/>
<path d="M201.203 133.37L258.811 121.025" stroke="#00D19C" stroke-width="13" stroke-miterlimit="10" stroke-linecap="round"/>
<path d="M223.148 95.9932L236.865 158.402" stroke="#00D19C" stroke-width="13" stroke-miterlimit="10" stroke-linecap="round"/>
<path d="M163.645 0.245117L171.141 46.959C171.873 51.5232 176.31 54.5186 180.817 53.4914L212.817 46.198L163.645 0.245117Z" fill="#C4D4E3"/>
<path fill-rule="evenodd" clip-rule="evenodd" d="M149.716 34.7207C150.12 38.5103 147.613 43.4874 143.912 43.9014L46.0681 54.3297C42.3669 54.7436 39.0832 53.8281 38.6789 50.0386C38.2746 46.249 40.5631 43.4228 44.2643 43.0088L141.387 27.8503C145.088 27.4364 149.312 30.9312 149.716 34.7207ZM146.151 65.3662C146.688 69.1385 144.147 71.1086 140.462 71.658L58.8192 90.9791C55.1349 91.5285 48.227 85.9362 47.6905 82.1639C47.1539 78.3916 50.8987 72.2073 54.583 71.658L138.922 61.0117C142.606 60.4623 145.615 61.5939 146.151 65.3662ZM179.392 97.6236C180.164 101.353 177.852 103.889 174.21 104.68L64.2537 130.35C60.6115 131.141 56.3551 126.813 55.5825 123.084C54.81 119.355 57.3859 113.306 61.028 112.515L172.613 92.9546C176.255 92.1636 178.619 93.8945 179.392 97.6236ZM162.714 138.181C163.551 141.895 162.439 147.493 158.811 148.351L71.0024 166.935C67.3746 167.792 63.755 165.475 62.9178 161.761C62.0806 158.046 64.3429 154.34 67.9707 153.483L155.216 131.218C158.843 130.36 161.877 134.466 162.714 138.181ZM179.421 173.359C180.151 177.097 177.784 180.733 174.133 181.481L79.294 204.608C75.6432 205.355 71.1056 199.427 70.3754 195.689C69.6453 191.951 71.6327 185.629 75.2836 184.882L171.489 167.944C175.139 167.197 178.691 169.621 179.421 173.359ZM162.125 214.973C162.791 218.724 160.438 225.399 156.775 226.081L87.1326 237.331C83.4695 238.013 79.9601 235.526 79.294 231.775C78.628 228.024 81.0576 224.431 84.7207 223.749L154.701 206.824C162.125 206.824 161.459 211.222 162.125 214.973ZM229.834 227.574C230.671 231.289 228.409 234.995 224.781 235.852L181.674 244.66C178.046 245.517 174.599 245.414 173.762 241.7C172.925 237.985 175.764 235.702 179.392 234.845L221.749 222.401C225.377 221.544 228.996 223.86 229.834 227.574Z" fill="#C4D4E3"/>
</svg>
