<svg width="947" height="711" viewBox="0 0 947 711" fill="none" xmlns="http://www.w3.org/2000/svg">
<path d="M110.048 333.369C287.442 118.881 399.585 62.9095 579.701 53.8023C833.82 40.9532 927.213 186.257 944.085 217.047C946.141 220.8 947 224.929 947 229.208V638C947 654.569 933.569 668 917 668H29.1486C15.9715 668 4.48286 659.372 2.6395 646.325C-4.19855 597.924 -6.4032 474.171 110.048 333.369Z" fill="#F59D0E"/>
<path d="M724.76 269.189C725.122 264.615 721.57 260.676 716.984 260.562L221.828 248.291C217.25 248.177 213.51 251.924 213.632 256.502L224.391 660.518C224.507 664.849 228.048 668.3 232.38 668.304L685.781 668.735C689.959 668.739 693.436 665.529 693.765 661.364L724.76 269.189Z" fill="url(#paint0_linear_3623_2030)"/>
<path d="M200.737 233.971C201.122 229.739 204.749 226.546 208.996 226.7L730.174 245.649C734.499 245.807 737.915 249.376 737.882 253.704L737.382 319.42C737.349 323.746 733.882 327.263 729.557 327.358L200.114 338.977C195.341 339.082 191.539 335.01 191.972 330.255L200.737 233.971Z" fill="white"/>
<path d="M395.52 290.215L393.465 669.35L522.896 668.572L538.007 290.888L395.52 290.215Z" fill="#9A53B4"/>
<path d="M382.802 334.961L390.264 233.284L542.715 238.814L547.99 332.274L382.802 334.961Z" fill="#AA60C5"/>
<path d="M310.075 230.328C308.466 230.269 306.913 229.727 305.618 228.771L236.689 177.92C233.778 175.773 232.671 171.94 233.987 168.571L287.979 30.3945C290.237 24.6154 297.929 23.4942 301.741 28.3885L428.159 190.665C429.461 192.336 431.373 193.423 433.475 193.686L483.123 199.909C485.769 200.24 488.407 199.231 490.156 197.218L621.96 45.581C625.954 40.9865 633.411 42.3576 635.508 48.0719L684.389 181.269C685.709 184.868 684.292 188.897 681.008 190.877L600.156 239.621C598.824 240.424 597.287 240.821 595.733 240.764L310.075 230.328Z" fill="#AA60C4"/>
<path d="M631.347 152.103C623.537 75.458 526.275 180.955 485.708 222.916L484.731 234.049C539.227 220.982 638.749 224.749 631.347 152.103Z" fill="#884EAB"/>
<g style="mix-blend-mode:multiply" opacity="0.5">
<path d="M314.164 464.347L344.849 464.347L422.927 670.07H314.164V464.347Z" fill="#C6BFC8"/>
</g>
<g style="mix-blend-mode:multiply" opacity="0.5">
<path d="M216.641 338.325L721.37 328.193L713.081 417.535L216.641 338.325Z" fill="#C6BFC8"/>
</g>
<path d="M287.141 138.727C306.145 83.0544 388.334 171.003 429.372 217.473L429.712 229.21C371.809 212.201 265.543 201.999 287.141 138.727Z" fill="#884EAB"/>
<path d="M464.298 174.675C462.227 172.361 458.732 172.011 456.242 173.867L432.481 191.574C431.036 192.651 430.152 194.32 430.072 196.121L428.374 234.482L491.067 237.856L487.555 202.39C487.43 201.123 486.905 199.929 486.055 198.98L464.298 174.675Z" fill="#BB73D5"/>
<path d="M333.183 483.482C333.385 481.211 331.645 479.271 329.362 479.221L70.985 473.512C68.6596 473.46 66.7389 475.388 66.8081 477.704L72.3996 664.896C72.463 667.019 74.1865 668.686 76.3198 668.688L313 668.888C315.109 668.89 316.892 667.263 317.077 665.166L333.183 483.482Z" fill="#EDEDF8"/>
<path d="M338.608 467.145C338.391 465.022 336.544 463.408 334.409 463.478L62.4062 472.294C60.2653 472.364 58.593 474.101 58.6112 476.237L58.867 506.215C58.8858 508.408 60.6766 510.212 62.878 510.255L339.138 515.66C341.511 515.706 343.362 513.701 343.121 511.345L338.608 467.145Z" fill="white"/>
<path d="M161.602 492.995L160.531 669.173L227.993 668.812L235.868 493.308L161.602 492.995Z" fill="#9A53B4"/>
<path d="M155.381 512.009L160.254 468.381L238.502 466.541L241.549 513.789L155.381 512.009Z" fill="#AA60C5"/>
<path d="M280.64 465.198C282.102 465.15 283.514 464.704 284.725 463.908L316.896 442.748C320.091 440.647 321.278 436.544 319.72 432.989L295.577 377.901C293.196 372.47 285.987 371.265 282.15 375.656L220.975 445.666C219.691 447.136 217.897 448.07 215.937 448.289L193.131 450.837C190.645 451.115 188.148 450.215 186.383 448.404L122.943 383.334C118.895 379.182 111.99 380.416 109.824 385.678L88.0538 438.567C86.4949 442.354 88.1122 446.761 91.786 448.735L129.518 469.015C130.787 469.698 132.209 470.033 133.636 469.986L280.64 465.198Z" fill="#AA60C4"/>
<path d="M114.139 428.817C118.209 393.201 168.904 442.224 190.049 461.723L190.558 466.896C162.153 460.824 110.281 462.574 114.139 428.817Z" fill="#884EAB"/>
<path d="M293.542 422.602C283.637 396.732 240.798 437.6 219.409 459.194L219.232 464.648C249.412 456.744 304.8 452.003 293.542 422.602Z" fill="#884EAB"/>
<path d="M199.673 440.828C201.672 438.837 204.831 438.552 207.23 440.145L216.387 446.23C218.012 447.309 219.032 449.091 219.128 451.018L219.926 467.097L187.249 468.665L188.952 453.33C189.1 452.001 189.692 450.768 190.634 449.83L199.673 440.828Z" fill="#BB73D5"/>
<g style="mix-blend-mode:multiply" opacity="0.5">
<path d="M67.7695 510.422L330.295 515.766L327.354 548.933L67.7695 510.422Z" fill="#C6BFC8"/>
</g>
<path d="M924.65 414.382C924.946 410.971 922.327 408.053 918.9 407.976L568.481 400.069C565.003 399.991 562.137 402.867 562.238 406.333L569.82 665.57C569.914 668.766 572.512 671.283 575.721 671.285L896.717 671.563C899.875 671.566 902.537 669.13 902.81 665.989L924.65 414.382Z" fill="#EDEDF8"/>
<path d="M552.976 391.619C553.294 388.437 556.056 386.021 559.255 386.127L928.306 398.343C931.524 398.45 934.042 401.069 934.015 404.28L933.674 445.084C933.647 448.365 930.976 451.058 927.685 451.124L552.925 458.612C549.363 458.684 546.572 455.667 546.926 452.128L552.976 391.619Z" fill="white"/>
<path d="M691.214 427.131L689.756 671.959L781.554 671.457L792.271 427.566L691.214 427.131Z" fill="#9A53B4"/>
<path d="M682.19 456.026L687.482 390.367L795.607 393.938L799.348 454.29L682.19 456.026Z" fill="#AA60C5"/>
<path d="M631.138 388.476C629.65 388.427 628.212 387.964 626.986 387.141L580.47 355.895C577.328 353.785 576.154 349.732 577.665 346.211L613.436 262.86C615.794 257.364 623.091 256.171 626.927 260.654L713.802 362.19C715.091 363.696 716.906 364.657 718.892 364.884L752.35 368.702C754.865 368.989 757.389 368.068 759.152 366.221L849.505 271.577C853.545 267.344 860.552 268.602 862.706 273.948L895.047 354.187C896.56 357.941 894.98 362.277 891.379 364.254L836.861 394.179C835.58 394.883 834.137 395.229 832.686 395.181L631.138 388.476Z" fill="#AA60C4"/>
<path d="M858.464 337.945C852.925 288.451 783.942 356.577 755.171 383.673L754.478 390.863C793.129 382.424 863.714 384.857 858.464 337.945Z" fill="#884EAB"/>
<path d="M614.342 329.306C627.82 293.355 686.112 350.148 715.218 380.157L715.459 387.736C674.392 376.752 599.023 370.164 614.342 329.306Z" fill="#884EAB"/>
<path d="M740.871 353.418C738.857 351.37 735.638 351.073 733.221 352.713L718.335 362.815C716.743 363.895 715.749 365.656 715.656 367.559L714.51 391.141L758.975 393.32L756.568 371.192C756.425 369.874 755.845 368.648 754.92 367.707L740.871 353.418Z" fill="#BB73D5"/>
<g style="mix-blend-mode:multiply" opacity="0.5">
<path d="M563.453 458.374L921.414 451.299L917.798 490.599L563.453 458.374Z" fill="#C6BFC8"/>
</g>
<defs>
<linearGradient id="paint0_linear_3623_2030" x1="721.172" y1="514.828" x2="175.562" y2="499.336" gradientUnits="userSpaceOnUse">
<stop stop-color="#D6D6FF"/>
<stop offset="1" stop-color="#EDEDF8"/>
</linearGradient>
</defs>
</svg>
