<svg width="24" height="6" viewBox="0 0 24 6" fill="none" xmlns="http://www.w3.org/2000/svg">
<path d="M16.25 2.66667C16.25 3.11987 15.8893 3.75381 14.9897 4.31985C14.1222 4.86565 12.8875 5.25 11.5 5.25C10.1427 5.25 8.91897 4.79943 8.04628 4.17729C7.13937 3.53075 6.75 2.81082 6.75 2.33333C6.75 1.97798 6.98524 1.58364 7.8761 1.2469C8.74858 0.917099 10.0194 0.75 11.5 0.75C12.949 0.75 14.2079 0.992734 15.0747 1.39293C15.9649 1.80395 16.25 2.27365 16.25 2.66667Z" stroke="black" stroke-width="1.5"/>
<path d="M1 5.17641C6.35294 -0.941298 17 -0.500488 22.5 5.17641" stroke="black" stroke-width="1.5"/>
</svg>
