<svg width="60" height="38" viewBox="0 0 60 38" fill="none" xmlns="http://www.w3.org/2000/svg">
<path d="M1 0L1 6.90613L1 13.8123M1 26.812L1 13.8123M1 13.8123L9.57993 16.8591M9.57993 16.8591L9.57993 5.3808C9.57993 4.08734 10.7892 3.13407 12.0469 3.43608L19.8414 5.30774C20.7625 5.52891 21.4021 6.36589 21.3736 7.31271L20.5722 33.9028C20.5245 35.4871 18.7407 36.389 17.4365 35.4882L10.4433 30.6583C9.90269 30.2849 9.57993 29.6697 9.57993 29.0126L9.57993 16.8591Z" stroke="#FFA451" stroke-width="2"/>
<path d="M26.0765 17.9719C22.8704 17.9719 16.8351 21.0508 16.5335 23.2251C16.3107 24.8314 19.1727 28.0008 26.3243 27.762" stroke="black" stroke-width="2"/>
<path d="M32.451 17.9719L32.451 28.5916M32.451 17.9719L27.958 17.9719M32.451 17.9719L36.9439 17.9719" stroke="black" stroke-width="2"/>
<path d="M44.0692 17.9719C46.8852 17.9719 50.8277 28.0153 42.8177 27.7703C34.8076 27.5254 39.8458 17.9719 44.0692 17.9719Z" stroke="black" stroke-width="2"/>
<path d="M51.6475 28.5916V19.9719C51.6475 18.8674 52.5401 18.06 53.5938 18.3912C57.599 19.6505 64.329 23.3253 51.6475 23.5346" stroke="black" stroke-width="2"/>
</svg>
