<svg width="178" height="797" viewBox="0 0 178 797" fill="none" xmlns="http://www.w3.org/2000/svg">
<g clip-path="url(#clip0_2938_1796)">
<rect width="178" height="797" fill="#F89C1C"/>
<g clip-path="url(#clip1_2938_1796)">
<path d="M202 26L51 76.8224V113L202 81.8867V26Z" fill="#E6E7E9"/>
<path d="M119.382 53L-4 24.1868V-36L120 18.5968L119.382 53Z" fill="#E6E7E9"/>
<path d="M113.382 175L-10 146.187V86L114 140.597L113.382 175Z" fill="#E6E7E9"/>
<path d="M202 145L51 195.822V232L202 200.887V145Z" fill="#E6E7E9"/>
<path d="M113.382 295L-10 265.857V205L114 260.214L113.382 295Z" fill="#E6E7E9"/>
<path d="M202 388L51 438.229V474L202 443.244V388Z" fill="#E6E7E9"/>
<path d="M119.382 415L-4 386.187V326L120 380.597L119.382 415Z" fill="#E6E7E9"/>
<path d="M113.382 537L-10 508.187V448L114 502.597L113.382 537Z" fill="#E6E7E9"/>
<path d="M202 507L51 557.813V594L202 562.887V507Z" fill="#E6E7E9"/>
<path d="M113.382 657L-10 627.857V567L114 622.204L113.382 657Z" fill="#E6E7E9"/>
<path d="M204 264L52 314.822V351L204 319.887V264Z" fill="#E6E7E9"/>
<path d="M202 627L51 677.238V713L202 682.244V627Z" fill="#E6E7E9"/>
<path d="M113.382 776L-10 747.187V687L114 741.597L113.382 776Z" fill="#E6E7E9"/>
<path d="M202 746L51 796.822V833L202 801.887V746Z" fill="#E6E7E9"/>
<path d="M114.612 140.597L181.856 86L182 152.058L114 175L114.612 140.597Z" fill="white"/>
<path d="M114.612 260.214L181.856 205L182 271.793L114 295L114.612 260.214Z" fill="white"/>
<path d="M120.621 380.597L188.863 326L189 392.049L120 415L120.621 380.597Z" fill="white"/>
<path d="M114.612 502.597L181.856 448L182 514.049L114 537L114.612 502.597Z" fill="white"/>
<path d="M114.612 622.204L181.856 567L182 633.793L114 657L114.612 622.204Z" fill="white"/>
<path d="M114.612 741.597L181.856 687L182 753.058L114 776L114.612 741.597Z" fill="white"/>
<path d="M120.612 18.5968L187.856 -36L188 30.0583L120 53L120.612 18.5968Z" fill="white"/>
<path d="M45.1902 76.5209L-11.4951 24.4578V88.4673L45.1902 112.596V76.5209Z" fill="white"/>
<path d="M45.1902 196.032L-11.4951 143.969V207.988L45.1902 232.107V196.032Z" fill="white"/>
<path d="M46.3122 314.743L-10.373 262.68V326.699L46.3122 350.818V314.743Z" fill="white"/>
<path d="M45.1902 438.381L-11.4951 386.327V450.337L45.1902 474.465V438.381Z" fill="white"/>
<path d="M45.1902 557.893L-11.4951 505.839V569.848L45.1902 593.977V557.893Z" fill="white"/>
<path d="M45.1902 677.414L-11.4951 625.351V689.36L45.1902 713.489V677.414Z" fill="white"/>
<path d="M45.1902 796.925L-11.4951 744.862V808.881L45.1902 833V796.925Z" fill="white"/>
</g>
<path d="M71.6786 -29C75.6071 -19.859 38.9402 60.2971 20.1158 99.2326L103.598 48.4475L71.6786 160.176L135.518 48.4475L162.527 138.592L205.496 33.2118L219 242.702L135.518 196.995L155.161 288.409L59.2226 309.914L145.339 337.925L114.647 376.014H155.161L114.647 469.967L195.674 424.26L145.339 521.178L195.674 532.18L205.496 628.672L126.924 591.853L195.674 700.223L103.598 668.031L126.924 830L-28.3871 689.408L51.7862 628.672L-28.3871 635.334L-56 558.842L71.6786 456.001L-16.7144 349.352L63.0847 228.736L-16.7144 254.129" stroke="#57585A" stroke-width="9"/>
</g>
<defs>
<clipPath id="clip0_2938_1796">
<rect width="178" height="797" fill="white"/>
</clipPath>
<clipPath id="clip1_2938_1796">
<rect width="221" height="869" fill="white" transform="translate(-18 -36)"/>
</clipPath>
</defs>
</svg>
