<svg width="1038" height="271" viewBox="0 0 1038 271" fill="none" xmlns="http://www.w3.org/2000/svg">
<g clip-path="url(#clip0_2999_1806)">
<rect x="58.2383" y="0.485352" width="890.477" height="261.179" rx="20" fill="#FFD18D"/>
<path d="M920.229 148.95C935.005 69.9558 1009.45 84.2725 1054.53 105.606L1038.27 18.5501L903.145 -30.3555C869.634 -26.6492 799.898 -11.1566 789.04 21.164C775.467 61.5648 862.412 89.1693 777.315 95.094C692.218 101.019 708.298 167.948 728.482 174.446C748.667 180.944 788.496 133.558 804.471 188.745C820.446 243.933 905.453 227.945 920.229 148.95Z" fill="#F89C1C"/>
<path d="M604.864 200.904C624.839 183.92 674.72 221.978 686.066 278.892L432.188 281.554C431.418 253.046 443.602 172.736 499.163 153.366C568.615 129.154 584.889 217.888 604.864 200.904Z" fill="#F89C1C"/>
<path d="M510.768 66.0188C563.701 99.0123 662.341 49.3322 618.516 -3.88599C481.805 -56.6892 226.368 -124.574 298.313 26.3106C388.244 214.917 457.835 33.0253 510.768 66.0188Z" fill="#F89C1C"/>
<path d="M166.77 205.499C219.403 204.947 270.488 204.411 254.314 300.194L-19.4036 334.936C-41.9102 241.795 -72.3059 62.7403 -13.836 91.6499C59.2513 127.787 70.6016 11.925 142.336 69.8828C214.07 127.841 114.137 206.051 166.77 205.499Z" fill="#F89C1C"/>
<path d="M1002.34 106.038C970.302 103.729 942.302 93.4455 930.557 157.036C918.812 220.627 896.792 236.725 869.777 244.941C842.763 253.158 800.721 233.325 791.307 190.23C781.893 147.136 720.151 219.184 702.474 170.006C684.796 120.828 710.864 98.517 732.11 87.7162C753.356 76.9155 801.032 84.349 766.276 52.9797C738.471 27.8843 749.456 7.90605 758.424 1.05386" stroke="#57585A" stroke-width="3"/>
<path d="M698.353 271.47C679.49 217.886 667.917 157.254 612.885 170.778C557.853 184.303 567.26 105.523 505.847 125.09C444.434 144.658 410.915 199.787 402.515 288.516M643.525 -0.850178C640.169 35.0399 637.544 50.0069 611.96 67.2067C586.375 84.4065 544.157 91.8214 505.447 80.2756C466.736 68.7298 430.478 125.88 385.44 126.353C340.402 126.825 278.238 23.3613 266.986 -1.4199M284.776 279.792C279.798 237.017 265.735 206.29 203.154 197.982C140.572 189.675 195.409 154.241 171.897 94.7294C148.385 35.2179 102.658 14.5907 67.2095 48.4632C30.6253 83.4215 0.687861 68.6379 -3.89004 70.6779" stroke="#57585A" stroke-width="3"/>
<path d="M1006.38 74.6592C976.409 67.26 923.619 55.4712 902.027 108.923C880.435 162.374 840.653 172.048 826.23 151.372C811.806 130.696 864.092 86.1798 835.39 61.0255C812.428 40.902 834.015 13.4721 847.68 2.27251M598.365 305.723C571.261 220.384 499.33 137.83 457.112 273.264M590.602 -8.56174C583.786 25.4502 547.089 64.8205 527.421 14.8875C507.753 -35.0455 464.568 71.857 397.859 95.6978C344.491 114.77 319.518 39.4378 313.702 -0.612591M217.287 284.264C209.686 230.348 141.657 265.773 112.748 217.48C83.8392 169.186 179.818 122.01 126.063 81.6909C72.3074 41.3721 73.148 135.471 12.5082 121.451C-48.1316 107.431 25.6657 192.166 56.1865 181.818C86.7073 171.47 120.349 271.396 69.2185 285.817" stroke="#57585A" stroke-width="3"/>
<path d="M359.748 292.147L276.363 134.682" stroke="#57585A" stroke-width="4"/>
<path d="M1014.52 173.282L931.767 286.144M701.017 -8.79932L666.205 84.2505M221.527 -19.2178L197.321 64.0662" stroke="#57585A" stroke-width="4"/>
</g>
<g filter="url(#filter0_d_2999_1806)">
<path d="M986.175 18.9136C984.066 11.7871 977.009 7.11724 969.585 7.93683L512.274 58.4249C505.413 59.1824 500.075 64.4435 499.318 71.1943L484.381 204.489C483.345 213.737 491.151 221.85 500.611 221.357L1019.23 194.326C1028.8 193.828 1035.25 184.79 1032.55 175.665L986.175 18.9136Z" fill="white"/>
</g>
<g filter="url(#filter1_d_2999_1806)">
<path d="M1006.63 55.6215C1006.28 47.5193 999.44 41.0268 991.232 41.0061L510.98 39.794C502.515 39.7726 495.849 46.6272 496.21 54.9832L501.9 186.928C502.242 194.87 508.83 201.295 516.877 201.537L997.699 215.953C1006.33 216.212 1013.26 209.29 1012.89 200.77L1006.63 55.6215Z" fill="#E8EBEF"/>
</g>
<path d="M571.726 99.5437L569.406 91.7437C569.166 91.0237 568.913 90.077 568.646 88.9037C568.406 87.7303 568.193 86.5837 568.006 85.4637H567.886C567.833 89.8903 567.806 92.2903 567.806 92.6637C567.806 93.0103 567.806 93.3303 567.806 93.6237L567.446 105.424C567.419 105.797 567.353 106.037 567.246 106.144C567.166 106.224 567.019 106.264 566.806 106.264H563.486C563.219 106.264 563.033 106.197 562.926 106.064C562.846 105.93 562.819 105.717 562.846 105.424L563.966 79.7037C563.966 79.3837 564.006 79.1703 564.086 79.0637C564.193 78.9303 564.366 78.8637 564.606 78.8637H568.846C569.059 78.8637 569.193 78.917 569.246 79.0237C569.326 79.1037 569.419 79.2637 569.526 79.5037L572.766 89.5837C572.979 90.277 573.206 91.1437 573.446 92.1837C573.713 93.2237 573.886 93.957 573.966 94.3837H574.046C574.126 93.797 574.233 93.2237 574.366 92.6637C574.499 92.1037 574.819 91.077 575.326 89.5837L578.726 79.5037C578.806 79.237 578.899 79.0637 579.006 78.9837C579.113 78.9037 579.259 78.8637 579.446 78.8637H583.526C583.846 78.8637 584.059 78.957 584.166 79.1437C584.273 79.3037 584.339 79.637 584.366 80.1437L585.486 105.424C585.486 105.744 585.433 105.97 585.326 106.104C585.219 106.21 585.073 106.264 584.886 106.264H580.886C580.673 106.264 580.513 106.21 580.406 106.104C580.326 105.997 580.286 105.77 580.286 105.424L579.966 91.8637C579.913 90.557 579.886 89.9037 579.886 89.9037C579.886 89.9037 579.886 89.797 579.886 89.5837C579.886 89.4503 579.886 89.2903 579.886 89.1037C579.886 88.8903 579.899 88.7437 579.926 88.6637C579.926 88.637 579.913 88.637 579.886 88.6637C579.886 88.6903 579.899 87.6237 579.926 85.4637H579.806C579.486 87.197 579.219 88.5037 579.006 89.3837C578.819 90.2637 578.619 91.0503 578.406 91.7437L575.966 99.5437C575.833 99.917 575.726 100.13 575.646 100.184C575.566 100.21 575.446 100.224 575.286 100.224H572.446C572.259 100.224 572.113 100.21 572.006 100.184C571.899 100.13 571.806 99.917 571.726 99.5437ZM605.571 105.544L602.331 106.864C602.091 106.944 601.918 106.944 601.811 106.864C601.704 106.81 601.598 106.677 601.491 106.464C601.304 106.117 601.158 105.797 601.051 105.504C600.944 105.184 600.864 104.864 600.811 104.544C599.878 105.477 599.011 106.104 598.211 106.424C597.411 106.77 596.518 106.944 595.531 106.944C593.718 106.944 592.278 106.397 591.211 105.304C590.144 104.184 589.611 102.704 589.611 100.864C589.611 99.7703 589.811 98.7837 590.211 97.9037C590.638 96.997 591.251 96.2503 592.051 95.6637C592.851 95.1037 593.984 94.6903 595.451 94.4237C596.918 94.1303 598.451 93.997 600.051 94.0237V92.7837C600.051 92.1703 600.011 91.717 599.931 91.4237C599.851 91.1037 599.731 90.837 599.571 90.6237C599.331 90.357 599.024 90.157 598.651 90.0237C598.304 89.8903 597.891 89.8237 597.411 89.8237C596.878 89.8237 596.331 89.877 595.771 89.9837C595.211 90.0903 594.678 90.2237 594.171 90.3837C593.771 90.517 593.371 90.6637 592.971 90.8237C592.598 90.9837 592.358 91.0503 592.251 91.0237C592.144 91.0237 592.064 91.0103 592.011 90.9837C591.958 90.9303 591.904 90.8103 591.851 90.6237L591.011 88.1037C590.878 87.7837 590.864 87.557 590.971 87.4237C591.104 87.2903 591.398 87.117 591.851 86.9037C592.518 86.6103 593.438 86.357 594.611 86.1437C595.784 85.9303 596.904 85.8237 597.971 85.8237C599.491 85.8237 600.744 86.0503 601.731 86.5037C602.718 86.9303 603.464 87.557 603.971 88.3837C604.238 88.8903 604.438 89.477 604.571 90.1437C604.731 90.8103 604.824 91.517 604.851 92.2637V99.9837C604.851 100.97 604.891 101.744 604.971 102.304C605.051 102.864 605.211 103.41 605.451 103.944C605.718 104.664 605.851 105.037 605.851 105.064C605.878 105.09 605.891 105.117 605.891 105.144C605.891 105.25 605.864 105.344 605.811 105.424C605.758 105.477 605.678 105.517 605.571 105.544ZM600.051 101.704V97.3037C598.184 97.3037 596.771 97.5703 595.811 98.1037C594.878 98.6103 594.411 99.4103 594.411 100.504C594.411 101.33 594.664 101.997 595.171 102.504C595.678 102.984 596.304 103.224 597.051 103.224C597.558 103.224 598.064 103.104 598.571 102.864C599.104 102.597 599.598 102.21 600.051 101.704ZM615.349 90.7037V105.704C615.322 105.97 615.269 106.13 615.189 106.184C615.135 106.237 615.002 106.264 614.789 106.264H610.829C610.562 106.264 610.402 106.237 610.349 106.184C610.295 106.104 610.269 105.944 610.269 105.704V87.0637C610.242 86.8237 610.269 86.677 610.349 86.6237C610.429 86.5437 610.589 86.5037 610.829 86.5037H622.789C623.055 86.5303 623.229 86.5837 623.309 86.6637C623.415 86.7437 623.442 86.957 623.389 87.3037L622.829 90.1437C622.775 90.3303 622.695 90.477 622.589 90.5837C622.509 90.6903 622.389 90.7303 622.229 90.7037H615.349ZM641.118 105.544L637.878 106.864C637.638 106.944 637.464 106.944 637.358 106.864C637.251 106.81 637.144 106.677 637.038 106.464C636.851 106.117 636.704 105.797 636.598 105.504C636.491 105.184 636.411 104.864 636.358 104.544C635.424 105.477 634.558 106.104 633.758 106.424C632.958 106.77 632.064 106.944 631.078 106.944C629.264 106.944 627.824 106.397 626.758 105.304C625.691 104.184 625.158 102.704 625.158 100.864C625.158 99.7703 625.358 98.7837 625.758 97.9037C626.184 96.997 626.798 96.2503 627.598 95.6637C628.398 95.1037 629.531 94.6903 630.998 94.4237C632.464 94.1303 633.998 93.997 635.598 94.0237V92.7837C635.598 92.1703 635.558 91.717 635.478 91.4237C635.398 91.1037 635.278 90.837 635.118 90.6237C634.878 90.357 634.571 90.157 634.198 90.0237C633.851 89.8903 633.438 89.8237 632.958 89.8237C632.424 89.8237 631.878 89.877 631.318 89.9837C630.758 90.0903 630.224 90.2237 629.718 90.3837C629.318 90.517 628.918 90.6637 628.518 90.8237C628.144 90.9837 627.904 91.0503 627.798 91.0237C627.691 91.0237 627.611 91.0103 627.558 90.9837C627.504 90.9303 627.451 90.8103 627.398 90.6237L626.558 88.1037C626.424 87.7837 626.411 87.557 626.518 87.4237C626.651 87.2903 626.944 87.117 627.398 86.9037C628.064 86.6103 628.984 86.357 630.158 86.1437C631.331 85.9303 632.451 85.8237 633.518 85.8237C635.038 85.8237 636.291 86.0503 637.278 86.5037C638.264 86.9303 639.011 87.557 639.518 88.3837C639.784 88.8903 639.984 89.477 640.118 90.1437C640.278 90.8103 640.371 91.517 640.398 92.2637V99.9837C640.398 100.97 640.438 101.744 640.518 102.304C640.598 102.864 640.758 103.41 640.998 103.944C641.264 104.664 641.398 105.037 641.398 105.064C641.424 105.09 641.438 105.117 641.438 105.144C641.438 105.25 641.411 105.344 641.358 105.424C641.304 105.477 641.224 105.517 641.118 105.544ZM635.598 101.704V97.3037C633.731 97.3037 632.318 97.5703 631.358 98.1037C630.424 98.6103 629.958 99.4103 629.958 100.504C629.958 101.33 630.211 101.997 630.718 102.504C631.224 102.984 631.851 103.224 632.598 103.224C633.104 103.224 633.611 103.104 634.118 102.864C634.651 102.597 635.144 102.21 635.598 101.704ZM646.216 90.6637L644.896 88.6237C644.842 88.5703 644.802 88.517 644.776 88.4637C644.776 88.4103 644.776 88.3437 644.776 88.2637C644.776 88.077 644.856 87.8903 645.016 87.7037C645.202 87.517 645.456 87.3303 645.776 87.1437C646.576 86.717 647.442 86.397 648.376 86.1837C649.336 85.9437 650.362 85.8237 651.456 85.8237C652.602 85.8503 653.589 85.997 654.416 86.2637C655.242 86.5303 655.962 86.9303 656.576 87.4637C657.136 87.997 657.562 88.597 657.856 89.2637C658.176 89.9037 658.336 90.597 658.336 91.3437C658.336 92.4103 658.082 93.3437 657.576 94.1437C657.096 94.917 656.416 95.4637 655.536 95.7837V95.9037C656.576 96.197 657.376 96.757 657.936 97.5837C658.496 98.3837 658.776 99.3303 658.776 100.424C658.749 102.477 658.002 104.077 656.536 105.224C655.096 106.37 653.216 106.944 650.896 106.944C649.989 106.944 649.042 106.837 648.056 106.624C647.096 106.41 646.269 106.13 645.576 105.784C644.962 105.49 644.576 105.264 644.416 105.104C644.256 104.944 644.189 104.757 644.216 104.544C644.189 104.517 644.189 104.477 644.216 104.424C644.242 104.344 644.282 104.237 644.336 104.104L645.216 102.024C645.242 101.917 645.296 101.837 645.376 101.784C645.456 101.73 645.549 101.704 645.656 101.704C645.736 101.73 645.816 101.757 645.896 101.784C646.002 101.81 646.296 101.944 646.776 102.184C647.522 102.61 648.162 102.89 648.696 103.024C649.256 103.157 649.869 103.224 650.536 103.224C651.496 103.224 652.256 102.984 652.816 102.504C653.402 101.997 653.696 101.277 653.696 100.344C653.696 99.597 653.416 99.0237 652.856 98.6237C652.322 98.197 651.349 97.9703 649.936 97.9437H649.056C648.842 97.9703 648.696 97.9437 648.616 97.8637C648.536 97.757 648.496 97.597 648.496 97.3837V94.7837C648.496 94.5703 648.536 94.4237 648.616 94.3437C648.696 94.2637 648.842 94.2237 649.056 94.2237H649.976C651.149 94.2503 652.002 94.0637 652.536 93.6637C653.096 93.237 653.376 92.6103 653.376 91.7837C653.349 91.117 653.109 90.5837 652.656 90.1837C652.202 89.757 651.576 89.5437 650.776 89.5437C650.269 89.5437 649.776 89.6103 649.296 89.7437C648.816 89.877 648.269 90.1037 647.656 90.4237C647.016 90.7703 646.682 90.9437 646.656 90.9437C646.629 90.9437 646.616 90.9437 646.616 90.9437C646.536 90.9703 646.456 90.9703 646.376 90.9437C646.322 90.8903 646.269 90.797 646.216 90.6637ZM663.238 105.704V87.3437C663.238 87.1037 663.278 86.9437 663.358 86.8637C663.464 86.7837 663.678 86.7037 663.998 86.6237L667.678 85.8637C667.918 85.837 668.078 85.8637 668.158 85.9437C668.264 85.997 668.318 86.1303 668.318 86.3437V94.6637C668.318 95.117 668.291 95.7703 668.238 96.6237C668.184 97.4503 668.144 98.237 668.118 98.9837H668.278C668.678 98.1303 669.051 97.357 669.398 96.6637C669.744 95.9703 670.211 95.117 670.798 94.1037L674.678 87.3437C674.811 87.1303 674.931 86.9703 675.038 86.8637C675.144 86.757 675.478 86.637 676.038 86.5037L679.238 85.8637C679.478 85.837 679.638 85.8637 679.718 85.9437C679.798 85.997 679.851 86.1303 679.878 86.3437V105.704C679.851 105.97 679.798 106.13 679.718 106.184C679.664 106.237 679.531 106.264 679.318 106.264H675.358C675.091 106.264 674.931 106.237 674.878 106.184C674.824 106.104 674.798 105.944 674.798 105.704V98.1037C674.771 97.7303 674.771 97.2503 674.798 96.6637C674.851 96.077 674.918 95.117 674.998 93.7837H674.838C674.624 94.237 674.438 94.637 674.278 94.9837C674.118 95.3037 673.464 96.5303 672.318 98.6637L668.518 105.704C668.358 105.997 668.224 106.17 668.118 106.224C668.038 106.25 667.918 106.264 667.758 106.264H663.798C663.531 106.264 663.371 106.237 663.318 106.184C663.264 106.104 663.238 105.944 663.238 105.704ZM696.304 93.9037V87.3437C696.277 87.1037 696.317 86.9437 696.424 86.8637C696.531 86.7837 696.744 86.7037 697.064 86.6237L700.744 85.8637C700.984 85.837 701.144 85.8637 701.224 85.9437C701.331 85.997 701.384 86.1303 701.384 86.3437V105.704C701.357 105.97 701.304 106.13 701.224 106.184C701.171 106.237 701.037 106.264 700.824 106.264H696.864C696.597 106.264 696.424 106.237 696.344 106.184C696.291 106.104 696.277 105.944 696.304 105.704V97.9037H690.544V105.704C690.517 105.97 690.464 106.13 690.384 106.184C690.331 106.237 690.197 106.264 689.984 106.264H686.024C685.811 106.264 685.664 106.224 685.584 106.144C685.504 106.064 685.464 105.917 685.464 105.704V87.3437C685.437 87.077 685.504 86.9037 685.664 86.8237C685.851 86.7437 686.211 86.637 686.744 86.5037L689.904 85.8637C690.144 85.837 690.304 85.8637 690.384 85.9437C690.464 85.997 690.517 86.1303 690.544 86.3437V93.9037H696.304ZM567.246 154.264H563.606C563.339 154.264 563.139 154.237 563.006 154.184C562.899 154.104 562.859 153.944 562.886 153.704V135.344C562.886 135.077 562.953 134.904 563.086 134.824C563.219 134.744 563.593 134.637 564.206 134.504L567.326 133.864C567.566 133.837 567.726 133.864 567.806 133.944C567.886 133.997 567.939 134.13 567.966 134.344V141.984H569.726C570.393 141.984 570.899 141.864 571.246 141.624C571.593 141.384 571.859 140.85 572.046 140.024L572.566 137.744C572.699 137.157 572.886 136.65 573.126 136.224C573.366 135.77 573.673 135.384 574.046 135.064C574.473 134.69 575.033 134.397 575.726 134.184C576.446 133.97 577.113 133.85 577.726 133.824C577.939 133.824 578.099 133.864 578.206 133.944C578.313 133.997 578.393 134.09 578.446 134.224L579.246 137.144C579.273 137.304 579.233 137.45 579.126 137.584C579.046 137.69 578.913 137.757 578.726 137.784L578.126 137.904C577.566 138.037 577.193 138.237 577.006 138.504C576.819 138.744 576.646 139.157 576.486 139.744L576.046 141.304C575.833 142.077 575.526 142.664 575.126 143.064C574.726 143.464 574.219 143.717 573.606 143.824V143.944C574.219 144.077 574.726 144.344 575.126 144.744C575.553 145.117 575.966 145.877 576.366 147.024L577.126 149.224C577.339 149.864 577.526 150.264 577.686 150.424C577.873 150.584 578.139 150.69 578.486 150.744L579.366 150.904C579.606 150.957 579.753 151.05 579.806 151.184C579.859 151.317 579.859 151.517 579.806 151.784L579.086 154.344C579.006 154.557 578.886 154.704 578.726 154.784C578.593 154.89 578.366 154.944 578.046 154.944C577.433 154.944 576.766 154.864 576.046 154.704C575.326 154.544 574.766 154.33 574.366 154.064C573.939 153.797 573.593 153.45 573.326 153.024C573.059 152.57 572.846 151.984 572.686 151.264L571.926 147.944C571.739 147.144 571.473 146.624 571.126 146.384C570.779 146.117 570.273 145.984 569.606 145.984H567.966V153.704C567.939 153.944 567.873 154.104 567.766 154.184C567.659 154.237 567.486 154.264 567.246 154.264ZM599.399 144.384C599.373 147.584 598.586 150.144 597.039 152.064C595.519 153.984 593.413 154.944 590.719 154.944C587.999 154.944 585.866 153.984 584.319 152.064C582.799 150.144 582.039 147.584 582.039 144.384C582.039 141.21 582.799 138.664 584.319 136.744C585.866 134.797 587.999 133.824 590.719 133.824C593.413 133.824 595.533 134.797 597.079 136.744C598.626 138.664 599.399 141.21 599.399 144.384ZM590.719 150.944C591.839 150.944 592.666 150.477 593.199 149.544C593.733 148.584 593.999 146.864 593.999 144.384C593.999 141.93 593.733 140.237 593.199 139.304C592.666 138.344 591.839 137.85 590.719 137.824C589.573 137.824 588.733 138.304 588.199 139.264C587.693 140.224 587.439 141.93 587.439 144.384C587.439 146.864 587.693 148.584 588.199 149.544C588.733 150.477 589.573 150.944 590.719 150.944ZM609.222 153.904V161.224C609.222 161.464 609.168 161.624 609.062 161.704C608.955 161.784 608.755 161.864 608.462 161.944L604.782 162.704C604.622 162.73 604.502 162.73 604.422 162.704C604.342 162.704 604.288 162.69 604.262 162.664C604.208 162.61 604.168 162.544 604.142 162.464C604.115 162.41 604.115 162.224 604.142 161.904V141.624C604.142 140.37 604.088 139.304 603.982 138.424C603.902 137.544 603.755 136.744 603.542 136.024C603.462 135.81 603.408 135.664 603.382 135.584C603.382 135.504 603.382 135.437 603.382 135.384C603.382 135.304 603.408 135.224 603.462 135.144C603.542 135.064 603.662 134.997 603.822 134.944L606.862 133.944C607.288 133.81 607.595 133.824 607.782 133.984C607.968 134.117 608.155 134.397 608.342 134.824C608.395 135.01 608.448 135.197 608.502 135.384C608.582 135.57 608.648 135.744 608.702 135.904C609.422 135.237 610.182 134.73 610.982 134.384C611.808 134.01 612.715 133.824 613.702 133.824C614.902 133.824 615.888 134.037 616.662 134.464C617.462 134.864 618.168 135.477 618.782 136.304C619.448 137.264 619.942 138.424 620.262 139.784C620.582 141.117 620.742 142.597 620.742 144.224C620.742 146.25 620.568 147.864 620.222 149.064C619.902 150.264 619.408 151.317 618.742 152.224C618.022 153.184 617.208 153.864 616.302 154.264C615.395 154.69 614.288 154.917 612.982 154.944C612.315 154.944 611.688 154.85 611.102 154.664C610.515 154.504 609.888 154.25 609.222 153.904ZM609.222 139.344V150.184C609.622 150.45 610.048 150.65 610.502 150.784C610.982 150.89 611.515 150.944 612.102 150.944C612.822 150.97 613.408 150.837 613.862 150.544C614.342 150.25 614.728 149.824 615.022 149.264C615.208 148.917 615.355 148.304 615.462 147.424C615.595 146.544 615.662 145.437 615.662 144.104C615.662 143.224 615.582 142.33 615.422 141.424C615.262 140.49 615.048 139.77 614.782 139.264C614.515 138.81 614.168 138.464 613.742 138.224C613.342 137.957 612.862 137.824 612.302 137.824C611.742 137.824 611.208 137.957 610.702 138.224C610.195 138.49 609.702 138.864 609.222 139.344ZM636.106 138.504H630.466V153.704C630.439 153.97 630.386 154.13 630.306 154.184C630.253 154.237 630.119 154.264 629.906 154.264H625.946C625.706 154.264 625.546 154.237 625.466 154.184C625.386 154.13 625.359 153.97 625.386 153.704V135.064C625.359 134.85 625.373 134.704 625.426 134.624C625.506 134.544 625.679 134.504 625.946 134.504H640.626C640.866 134.53 641.013 134.584 641.066 134.664C641.146 134.717 641.186 134.85 641.186 135.064V153.704C641.159 153.97 641.106 154.13 641.026 154.184C640.973 154.237 640.839 154.264 640.626 154.264H636.666C636.453 154.264 636.306 154.224 636.226 154.144C636.146 154.064 636.106 153.917 636.106 153.704V138.504ZM663.032 144.384C663.006 147.584 662.219 150.144 660.672 152.064C659.152 153.984 657.046 154.944 654.352 154.944C651.632 154.944 649.499 153.984 647.952 152.064C646.432 150.144 645.672 147.584 645.672 144.384C645.672 141.21 646.432 138.664 647.952 136.744C649.499 134.797 651.632 133.824 654.352 133.824C657.046 133.824 659.166 134.797 660.712 136.744C662.259 138.664 663.032 141.21 663.032 144.384ZM654.352 150.944C655.472 150.944 656.299 150.477 656.832 149.544C657.366 148.584 657.632 146.864 657.632 144.384C657.632 141.93 657.366 140.237 656.832 139.304C656.299 138.344 655.472 137.85 654.352 137.824C653.206 137.824 652.366 138.304 651.832 139.264C651.326 140.224 651.072 141.93 651.072 144.384C651.072 146.864 651.326 148.584 651.832 149.544C652.366 150.477 653.206 150.944 654.352 150.944ZM672.854 153.904V161.224C672.854 161.464 672.801 161.624 672.694 161.704C672.588 161.784 672.388 161.864 672.094 161.944L668.414 162.704C668.254 162.73 668.134 162.73 668.054 162.704C667.974 162.704 667.921 162.69 667.894 162.664C667.841 162.61 667.801 162.544 667.774 162.464C667.748 162.41 667.748 162.224 667.774 161.904V141.624C667.774 140.37 667.721 139.304 667.614 138.424C667.534 137.544 667.388 136.744 667.174 136.024C667.094 135.81 667.041 135.664 667.014 135.584C667.014 135.504 667.014 135.437 667.014 135.384C667.014 135.304 667.041 135.224 667.094 135.144C667.174 135.064 667.294 134.997 667.454 134.944L670.494 133.944C670.921 133.81 671.228 133.824 671.414 133.984C671.601 134.117 671.788 134.397 671.974 134.824C672.028 135.01 672.081 135.197 672.134 135.384C672.214 135.57 672.281 135.744 672.334 135.904C673.054 135.237 673.814 134.73 674.614 134.384C675.441 134.01 676.348 133.824 677.334 133.824C678.534 133.824 679.521 134.037 680.294 134.464C681.094 134.864 681.801 135.477 682.414 136.304C683.081 137.264 683.574 138.424 683.894 139.784C684.214 141.117 684.374 142.597 684.374 144.224C684.374 146.25 684.201 147.864 683.854 149.064C683.534 150.264 683.041 151.317 682.374 152.224C681.654 153.184 680.841 153.864 679.934 154.264C679.028 154.69 677.921 154.917 676.614 154.944C675.948 154.944 675.321 154.85 674.734 154.664C674.148 154.504 673.521 154.25 672.854 153.904ZM672.854 139.344V150.184C673.254 150.45 673.681 150.65 674.134 150.784C674.614 150.89 675.148 150.944 675.734 150.944C676.454 150.97 677.041 150.837 677.494 150.544C677.974 150.25 678.361 149.824 678.654 149.264C678.841 148.917 678.988 148.304 679.094 147.424C679.228 146.544 679.294 145.437 679.294 144.104C679.294 143.224 679.214 142.33 679.054 141.424C678.894 140.49 678.681 139.77 678.414 139.264C678.148 138.81 677.801 138.464 677.374 138.224C676.974 137.957 676.494 137.824 675.934 137.824C675.374 137.824 674.841 137.957 674.334 138.224C673.828 138.49 673.334 138.864 672.854 139.344ZM703.579 153.544L700.339 154.864C700.099 154.944 699.925 154.944 699.819 154.864C699.712 154.81 699.605 154.677 699.499 154.464C699.312 154.117 699.165 153.797 699.059 153.504C698.952 153.184 698.872 152.864 698.819 152.544C697.885 153.477 697.019 154.104 696.219 154.424C695.419 154.77 694.525 154.944 693.539 154.944C691.725 154.944 690.285 154.397 689.219 153.304C688.152 152.184 687.619 150.704 687.619 148.864C687.619 147.77 687.819 146.784 688.219 145.904C688.645 144.997 689.259 144.25 690.059 143.664C690.859 143.104 691.992 142.69 693.459 142.424C694.925 142.13 696.459 141.997 698.059 142.024V140.784C698.059 140.17 698.019 139.717 697.939 139.424C697.859 139.104 697.739 138.837 697.579 138.624C697.339 138.357 697.032 138.157 696.659 138.024C696.312 137.89 695.899 137.824 695.419 137.824C694.885 137.824 694.339 137.877 693.779 137.984C693.219 138.09 692.685 138.224 692.179 138.384C691.779 138.517 691.379 138.664 690.979 138.824C690.605 138.984 690.365 139.05 690.259 139.024C690.152 139.024 690.072 139.01 690.019 138.984C689.965 138.93 689.912 138.81 689.859 138.624L689.019 136.104C688.885 135.784 688.872 135.557 688.979 135.424C689.112 135.29 689.405 135.117 689.859 134.904C690.525 134.61 691.445 134.357 692.619 134.144C693.792 133.93 694.912 133.824 695.979 133.824C697.499 133.824 698.752 134.05 699.739 134.504C700.725 134.93 701.472 135.557 701.979 136.384C702.245 136.89 702.445 137.477 702.579 138.144C702.739 138.81 702.832 139.517 702.859 140.264V147.984C702.859 148.97 702.899 149.744 702.979 150.304C703.059 150.864 703.219 151.41 703.459 151.944C703.725 152.664 703.859 153.037 703.859 153.064C703.885 153.09 703.899 153.117 703.899 153.144C703.899 153.25 703.872 153.344 703.819 153.424C703.765 153.477 703.685 153.517 703.579 153.544ZM698.059 149.704V145.304C696.192 145.304 694.779 145.57 693.819 146.104C692.885 146.61 692.419 147.41 692.419 148.504C692.419 149.33 692.672 149.997 693.179 150.504C693.685 150.984 694.312 151.224 695.059 151.224C695.565 151.224 696.072 151.104 696.579 150.864C697.112 150.597 697.605 150.21 698.059 149.704ZM715.178 138.504V153.704C715.151 153.97 715.098 154.13 715.018 154.184C714.965 154.237 714.831 154.264 714.618 154.264H710.658C710.391 154.264 710.231 154.237 710.178 154.184C710.125 154.104 710.098 153.944 710.098 153.704V138.504H705.538C705.298 138.504 705.138 138.464 705.058 138.384C705.005 138.304 704.978 138.157 704.978 137.944V135.064C704.978 134.85 705.005 134.704 705.058 134.624C705.138 134.544 705.298 134.504 705.538 134.504H720.138C720.405 134.504 720.578 134.557 720.658 134.664C720.765 134.744 720.791 134.957 720.738 135.304L720.178 137.944C720.125 138.13 720.045 138.277 719.938 138.384C719.858 138.464 719.738 138.504 719.578 138.504H715.178ZM723.511 153.704V135.344C723.511 135.104 723.551 134.944 723.631 134.864C723.738 134.784 723.951 134.704 724.271 134.624L727.951 133.864C728.191 133.837 728.351 133.864 728.431 133.944C728.538 133.997 728.591 134.13 728.591 134.344V142.664C728.591 143.117 728.564 143.77 728.511 144.624C728.458 145.45 728.418 146.237 728.391 146.984H728.551C728.951 146.13 729.324 145.357 729.671 144.664C730.018 143.97 730.484 143.117 731.071 142.104L734.951 135.344C735.084 135.13 735.204 134.97 735.311 134.864C735.418 134.757 735.751 134.637 736.311 134.504L739.511 133.864C739.751 133.837 739.911 133.864 739.991 133.944C740.071 133.997 740.124 134.13 740.151 134.344V153.704C740.124 153.97 740.071 154.13 739.991 154.184C739.938 154.237 739.804 154.264 739.591 154.264H735.631C735.364 154.264 735.204 154.237 735.151 154.184C735.098 154.104 735.071 153.944 735.071 153.704V146.104C735.044 145.73 735.044 145.25 735.071 144.664C735.124 144.077 735.191 143.117 735.271 141.784H735.111C734.898 142.237 734.711 142.637 734.551 142.984C734.391 143.304 733.738 144.53 732.591 146.664L728.791 153.704C728.631 153.997 728.498 154.17 728.391 154.224C728.311 154.25 728.191 154.264 728.031 154.264H724.071C723.804 154.264 723.644 154.237 723.591 154.184C723.538 154.104 723.511 153.944 723.511 153.704ZM752.698 154.264H746.298C746.031 154.264 745.871 154.237 745.818 154.184C745.764 154.104 745.738 153.944 745.738 153.704V135.064C745.711 134.824 745.738 134.677 745.818 134.624C745.898 134.544 746.058 134.504 746.298 134.504H752.418C754.498 134.504 755.964 134.597 756.818 134.784C757.671 134.97 758.364 135.224 758.898 135.544C759.484 135.97 759.951 136.517 760.298 137.184C760.644 137.85 760.831 138.584 760.858 139.384C760.858 140.424 760.578 141.344 760.018 142.144C759.458 142.917 758.671 143.464 757.658 143.784C758.778 144.024 759.698 144.57 760.418 145.424C761.138 146.277 761.498 147.357 761.498 148.664C761.498 149.597 761.311 150.437 760.938 151.184C760.564 151.904 760.031 152.49 759.338 152.944C758.618 153.424 757.791 153.77 756.858 153.984C755.924 154.17 754.538 154.264 752.698 154.264ZM750.818 138.224V142.304H752.938C753.844 142.304 754.538 142.117 755.018 141.744C755.524 141.37 755.778 140.837 755.778 140.144C755.778 139.504 755.551 139.024 755.098 138.704C754.644 138.384 753.884 138.224 752.818 138.224H750.818ZM750.818 145.904V150.544H753.018C754.218 150.57 755.084 150.384 755.618 149.984C756.151 149.557 756.418 148.957 756.418 148.184C756.418 147.49 756.178 146.944 755.698 146.544C755.218 146.144 754.471 145.93 753.458 145.904H750.818ZM777.32 141.904V135.344C777.293 135.104 777.333 134.944 777.44 134.864C777.546 134.784 777.76 134.704 778.08 134.624L781.76 133.864C782 133.837 782.16 133.864 782.24 133.944C782.346 133.997 782.4 134.13 782.4 134.344V153.704C782.373 153.97 782.32 154.13 782.24 154.184C782.186 154.237 782.053 154.264 781.84 154.264H777.88C777.613 154.264 777.44 154.237 777.36 154.184C777.306 154.104 777.293 153.944 777.32 153.704V145.904H771.56V153.704C771.533 153.97 771.48 154.13 771.4 154.184C771.346 154.237 771.213 154.264 771 154.264H767.04C766.826 154.264 766.68 154.224 766.6 154.144C766.52 154.064 766.48 153.917 766.48 153.704V135.344C766.453 135.077 766.52 134.904 766.68 134.824C766.866 134.744 767.226 134.637 767.76 134.504L770.92 133.864C771.16 133.837 771.32 133.864 771.4 133.944C771.48 133.997 771.533 134.13 771.56 134.344V141.904H777.32ZM804.243 144.384C804.216 147.584 803.43 150.144 801.883 152.064C800.363 153.984 798.256 154.944 795.563 154.944C792.843 154.944 790.71 153.984 789.163 152.064C787.643 150.144 786.883 147.584 786.883 144.384C786.883 141.21 787.643 138.664 789.163 136.744C790.71 134.797 792.843 133.824 795.563 133.824C798.256 133.824 800.376 134.797 801.923 136.744C803.47 138.664 804.243 141.21 804.243 144.384ZM795.563 150.944C796.683 150.944 797.51 150.477 798.043 149.544C798.576 148.584 798.843 146.864 798.843 144.384C798.843 141.93 798.576 140.237 798.043 139.304C797.51 138.344 796.683 137.85 795.563 137.824C794.416 137.824 793.576 138.304 793.043 139.264C792.536 140.224 792.283 141.93 792.283 144.384C792.283 146.864 792.536 148.584 793.043 149.544C793.576 150.477 794.416 150.944 795.563 150.944ZM813.825 138.704V153.704C813.799 153.97 813.745 154.13 813.665 154.184C813.612 154.237 813.479 154.264 813.265 154.264H809.305C809.039 154.264 808.879 154.237 808.825 154.184C808.772 154.104 808.745 153.944 808.745 153.704V135.064C808.719 134.824 808.745 134.677 808.825 134.624C808.905 134.544 809.065 134.504 809.305 134.504H821.265C821.532 134.53 821.705 134.584 821.785 134.664C821.892 134.744 821.919 134.957 821.865 135.304L821.305 138.144C821.252 138.33 821.172 138.477 821.065 138.584C820.985 138.69 820.865 138.73 820.705 138.704H813.825ZM841.274 144.384C841.248 147.584 840.461 150.144 838.914 152.064C837.394 153.984 835.288 154.944 832.594 154.944C829.874 154.944 827.741 153.984 826.194 152.064C824.674 150.144 823.914 147.584 823.914 144.384C823.914 141.21 824.674 138.664 826.194 136.744C827.741 134.797 829.874 133.824 832.594 133.824C835.288 133.824 837.408 134.797 838.954 136.744C840.501 138.664 841.274 141.21 841.274 144.384ZM832.594 150.944C833.714 150.944 834.541 150.477 835.074 149.544C835.608 148.584 835.874 146.864 835.874 144.384C835.874 141.93 835.608 140.237 835.074 139.304C834.541 138.344 833.714 137.85 832.594 137.824C831.448 137.824 830.608 138.304 830.074 139.264C829.568 140.224 829.314 141.93 829.314 144.384C829.314 146.864 829.568 148.584 830.074 149.544C830.608 150.477 831.448 150.944 832.594 150.944ZM857.993 154.264H855.273C854.979 154.264 854.766 154.237 854.633 154.184C854.526 154.13 854.486 153.957 854.513 153.664L855.513 135.104C855.513 134.917 855.553 134.784 855.633 134.704C855.713 134.597 855.926 134.53 856.273 134.504H859.633C859.899 134.504 860.073 134.544 860.153 134.624C860.259 134.704 860.353 134.81 860.433 134.944L863.513 143.424C863.673 143.93 863.873 144.65 864.113 145.584C864.353 146.517 864.513 147.21 864.593 147.664H864.673C864.753 147.157 864.899 146.464 865.113 145.584C865.326 144.677 865.539 143.957 865.753 143.424L868.833 134.944C868.886 134.81 868.953 134.704 869.033 134.624C869.139 134.544 869.339 134.504 869.633 134.504H872.993C873.313 134.53 873.513 134.597 873.593 134.704C873.673 134.784 873.726 134.917 873.753 135.104L874.753 153.664C874.753 153.957 874.686 154.13 874.553 154.184C874.446 154.237 874.259 154.264 873.993 154.264H871.273C870.926 154.264 870.713 154.224 870.633 154.144C870.553 154.037 870.513 153.877 870.513 153.664L870.153 140.904H870.033C869.633 142.317 869.339 143.317 869.153 143.904C868.966 144.49 868.806 144.997 868.673 145.424L866.513 151.424C866.433 151.584 866.353 151.717 866.273 151.824C866.193 151.904 866.006 151.93 865.713 151.904H863.553C863.233 151.904 863.033 151.864 862.953 151.784C862.873 151.704 862.806 151.584 862.753 151.424L860.593 145.424C860.433 144.997 860.259 144.49 860.073 143.904C859.886 143.317 859.606 142.317 859.233 140.904H859.113L858.753 153.664C858.726 153.877 858.673 154.037 858.593 154.144C858.513 154.224 858.313 154.264 857.993 154.264ZM894.441 145.744H883.681C883.654 147.504 884.014 148.784 884.761 149.584C885.534 150.357 886.641 150.744 888.081 150.744C888.721 150.744 889.361 150.677 890.001 150.544C890.668 150.384 891.361 150.144 892.081 149.824C892.534 149.637 892.801 149.53 892.881 149.504C892.988 149.477 893.081 149.45 893.161 149.424C893.241 149.424 893.321 149.45 893.401 149.504C893.481 149.557 893.548 149.637 893.601 149.744L894.601 152.104C894.654 152.264 894.681 152.357 894.681 152.384C894.708 152.41 894.721 152.437 894.721 152.464C894.694 152.624 894.628 152.784 894.521 152.944C894.414 153.077 894.268 153.21 894.081 153.344C893.334 153.85 892.361 154.237 891.161 154.504C889.988 154.797 888.841 154.944 887.721 154.944C884.654 154.944 882.361 154.064 880.841 152.304C879.321 150.517 878.574 148.05 878.601 144.904C878.601 141.65 879.374 138.997 880.921 136.944C882.468 134.864 884.614 133.824 887.361 133.824C889.414 133.824 891.068 134.384 892.321 135.504C893.574 136.597 894.441 138.184 894.921 140.264C895.054 140.904 895.161 141.57 895.241 142.264C895.321 142.93 895.361 143.664 895.361 144.464C895.361 144.944 895.294 145.277 895.161 145.464C895.054 145.65 894.814 145.744 894.441 145.744ZM883.681 142.024H889.961C889.961 141.65 889.948 141.29 889.921 140.944C889.894 140.597 889.854 140.277 889.801 139.984C889.614 139.21 889.294 138.61 888.841 138.184C888.414 137.757 887.828 137.544 887.081 137.544C886.094 137.544 885.308 137.904 884.721 138.624C884.161 139.317 883.814 140.45 883.681 142.024ZM905.081 153.904V161.224C905.081 161.464 905.028 161.624 904.921 161.704C904.814 161.784 904.614 161.864 904.321 161.944L900.641 162.704C900.481 162.73 900.361 162.73 900.281 162.704C900.201 162.704 900.148 162.69 900.121 162.664C900.068 162.61 900.028 162.544 900.001 162.464C899.974 162.41 899.974 162.224 900.001 161.904V141.624C900.001 140.37 899.948 139.304 899.841 138.424C899.761 137.544 899.614 136.744 899.401 136.024C899.321 135.81 899.268 135.664 899.241 135.584C899.241 135.504 899.241 135.437 899.241 135.384C899.241 135.304 899.268 135.224 899.321 135.144C899.401 135.064 899.521 134.997 899.681 134.944L902.721 133.944C903.148 133.81 903.454 133.824 903.641 133.984C903.828 134.117 904.014 134.397 904.201 134.824C904.254 135.01 904.308 135.197 904.361 135.384C904.441 135.57 904.508 135.744 904.561 135.904C905.281 135.237 906.041 134.73 906.841 134.384C907.668 134.01 908.574 133.824 909.561 133.824C910.761 133.824 911.748 134.037 912.521 134.464C913.321 134.864 914.028 135.477 914.641 136.304C915.308 137.264 915.801 138.424 916.121 139.784C916.441 141.117 916.601 142.597 916.601 144.224C916.601 146.25 916.428 147.864 916.081 149.064C915.761 150.264 915.268 151.317 914.601 152.224C913.881 153.184 913.068 153.864 912.161 154.264C911.254 154.69 910.148 154.917 908.841 154.944C908.174 154.944 907.548 154.85 906.961 154.664C906.374 154.504 905.748 154.25 905.081 153.904ZM905.081 139.344V150.184C905.481 150.45 905.908 150.65 906.361 150.784C906.841 150.89 907.374 150.944 907.961 150.944C908.681 150.97 909.268 150.837 909.721 150.544C910.201 150.25 910.588 149.824 910.881 149.264C911.068 148.917 911.214 148.304 911.321 147.424C911.454 146.544 911.521 145.437 911.521 144.104C911.521 143.224 911.441 142.33 911.281 141.424C911.121 140.49 910.908 139.77 910.641 139.264C910.374 138.81 910.028 138.464 909.601 138.224C909.201 137.957 908.721 137.824 908.161 137.824C907.601 137.824 907.068 137.957 906.561 138.224C906.054 138.49 905.561 138.864 905.081 139.344ZM930.085 143.384V135.344C930.085 135.104 930.125 134.944 930.205 134.864C930.312 134.784 930.525 134.704 930.845 134.624L934.525 133.864C934.765 133.837 934.925 133.864 935.005 133.944C935.112 133.997 935.165 134.13 935.165 134.344V153.704C935.165 153.97 935.125 154.13 935.045 154.184C934.965 154.237 934.819 154.264 934.605 154.264H930.645C930.432 154.264 930.285 154.237 930.205 154.184C930.125 154.104 930.085 153.944 930.085 153.704V147.144C929.392 147.41 928.672 147.61 927.925 147.744C927.205 147.877 926.512 147.944 925.845 147.944C924.885 147.944 924.019 147.797 923.245 147.504C922.499 147.184 921.912 146.744 921.485 146.184C921.085 145.73 920.805 145.197 920.645 144.584C920.512 143.944 920.445 143.05 920.445 141.904V135.344C920.419 135.077 920.472 134.904 920.605 134.824C920.739 134.744 921.139 134.637 921.805 134.504L924.885 133.864C925.125 133.837 925.285 133.864 925.365 133.944C925.472 133.997 925.525 134.13 925.525 134.344V141.904C925.499 142.597 925.659 143.117 926.005 143.464C926.379 143.81 926.912 143.97 927.605 143.944C928.032 143.944 928.459 143.904 928.885 143.824C929.312 143.744 929.712 143.597 930.085 143.384ZM955.141 153.544L951.901 154.864C951.661 154.944 951.488 154.944 951.381 154.864C951.275 154.81 951.168 154.677 951.061 154.464C950.875 154.117 950.728 153.797 950.621 153.504C950.515 153.184 950.435 152.864 950.381 152.544C949.448 153.477 948.581 154.104 947.781 154.424C946.981 154.77 946.088 154.944 945.101 154.944C943.288 154.944 941.848 154.397 940.781 153.304C939.715 152.184 939.181 150.704 939.181 148.864C939.181 147.77 939.381 146.784 939.781 145.904C940.208 144.997 940.821 144.25 941.621 143.664C942.421 143.104 943.555 142.69 945.021 142.424C946.488 142.13 948.021 141.997 949.621 142.024V140.784C949.621 140.17 949.581 139.717 949.501 139.424C949.421 139.104 949.301 138.837 949.141 138.624C948.901 138.357 948.595 138.157 948.221 138.024C947.875 137.89 947.461 137.824 946.981 137.824C946.448 137.824 945.901 137.877 945.341 137.984C944.781 138.09 944.248 138.224 943.741 138.384C943.341 138.517 942.941 138.664 942.541 138.824C942.168 138.984 941.928 139.05 941.821 139.024C941.715 139.024 941.635 139.01 941.581 138.984C941.528 138.93 941.475 138.81 941.421 138.624L940.581 136.104C940.448 135.784 940.435 135.557 940.541 135.424C940.675 135.29 940.968 135.117 941.421 134.904C942.088 134.61 943.008 134.357 944.181 134.144C945.355 133.93 946.475 133.824 947.541 133.824C949.061 133.824 950.315 134.05 951.301 134.504C952.288 134.93 953.035 135.557 953.541 136.384C953.808 136.89 954.008 137.477 954.141 138.144C954.301 138.81 954.395 139.517 954.421 140.264V147.984C954.421 148.97 954.461 149.744 954.541 150.304C954.621 150.864 954.781 151.41 955.021 151.944C955.288 152.664 955.421 153.037 955.421 153.064C955.448 153.09 955.461 153.117 955.461 153.144C955.461 153.25 955.435 153.344 955.381 153.424C955.328 153.477 955.248 153.517 955.141 153.544ZM949.621 149.704V145.304C947.755 145.304 946.341 145.57 945.381 146.104C944.448 146.61 943.981 147.41 943.981 148.504C943.981 149.33 944.235 149.997 944.741 150.504C945.248 150.984 945.875 151.224 946.621 151.224C947.128 151.224 947.635 151.104 948.141 150.864C948.675 150.597 949.168 150.21 949.621 149.704Z" fill="black"/>
<g filter="url(#filter2_d_2999_1806)">
<path d="M24.1981 80.3555C25.3986 72.1742 32.9935 66.5075 41.1779 67.6864L348.528 111.96C356.499 113.108 362.141 120.346 361.309 128.356L348.826 248.582C347.979 256.737 340.742 262.701 332.576 261.974L17.6832 233.956C9.09721 233.192 2.92007 225.366 4.1715 216.838L24.1981 80.3555Z" fill="#E8EBEF"/>
</g>
<g filter="url(#filter3_d_2999_1806)">
<path d="M27.541 110.152C27.541 102.284 33.6204 95.7527 41.4684 95.1901L349.33 73.1183C358.015 72.4957 365.403 79.3732 365.403 88.0799V220.913C365.403 228.799 359.296 235.338 351.429 235.878L43.5671 256.981C34.8994 257.575 27.5413 250.704 27.5413 242.016L27.541 110.152Z" fill="white"/>
</g>
<path d="M97.5096 179.8H92.1967C91.9259 179.8 91.7245 179.759 91.5925 179.682C91.4606 179.599 91.3356 179.404 91.2314 179.085L77.4667 142.742C77.2583 142.215 77.1333 141.895 77.1055 141.784C77.0777 141.68 77.0708 141.548 77.0708 141.381C77.0708 141.117 77.2166 140.916 77.5153 140.784C77.807 140.652 78.4389 140.534 79.4043 140.423L86.6478 139.784C87.502 139.728 88.0854 139.756 88.3771 139.86C88.6687 139.971 88.9813 140.451 89.3007 141.298L95.4955 160.507C95.9747 162.056 96.5651 164.056 97.2665 166.508C97.961 168.959 98.5027 170.779 98.8777 171.953H99.1972C99.5166 170.3 99.85 168.813 100.204 167.48C100.551 166.147 101.156 163.834 102.017 160.535L107.003 141.534C107.218 140.68 107.448 140.173 107.684 140.013C107.927 139.853 108.288 139.77 108.774 139.77L116.177 140.409C116.823 140.513 117.261 140.638 117.504 140.77C117.747 140.902 117.865 141.103 117.865 141.367C117.809 141.472 117.768 141.638 117.747 141.847C117.719 142.062 117.65 142.354 117.546 142.722L105.149 185.641C104.614 187.454 103.968 189.051 103.218 190.44C102.468 191.829 101.607 192.947 100.642 193.794C99.5166 194.753 98.1971 195.461 96.697 195.912C95.1969 196.364 93.5579 196.593 91.787 196.593C90.2869 196.593 88.7799 196.419 87.2798 196.072C85.7797 195.725 84.2726 195.232 82.7725 194.593C81.8558 194.218 81.2447 193.871 80.9183 193.551C80.5988 193.232 80.571 192.808 80.8349 192.273L83.3281 186.273C83.3837 186.113 83.474 185.981 83.6129 185.87C83.7448 185.766 83.9184 185.71 84.1337 185.71C84.2379 185.766 84.3629 185.815 84.4949 185.87C84.6268 185.926 84.9393 186.058 85.4185 186.273C86.3839 186.863 87.2798 187.301 88.1131 187.592C88.9465 187.884 89.7382 188.009 90.4883 187.954C92.0995 187.954 93.426 187.474 94.4747 186.516C95.5233 185.558 96.2873 184.196 96.7665 182.432L97.5096 179.8Z" fill="#57585A" stroke="#57585A" stroke-width="3.21" stroke-miterlimit="10"/>
<path d="M131.914 185.911H145.748V142.825C145.748 142.36 145.866 141.985 146.103 141.707C146.339 141.422 146.748 141.283 147.325 141.283H154.916C155.388 141.283 155.77 141.415 156.062 141.672C156.353 141.929 156.499 142.318 156.499 142.832V185.918H159.659C160.187 185.918 160.583 186.064 160.847 186.342C161.11 186.626 161.242 187.001 161.242 187.46V205.252C161.187 205.766 161.034 206.155 160.77 206.412C160.506 206.669 160.138 206.801 159.666 206.801H152.791C152.263 206.801 151.867 206.669 151.603 206.412C151.339 206.155 151.207 205.766 151.207 205.252V194.266H122.747C122.219 194.266 121.823 194.148 121.559 193.918C121.296 193.689 121.164 193.286 121.164 192.717V142.825C121.164 142.36 121.282 141.985 121.518 141.707C121.754 141.422 122.164 141.283 122.74 141.283H130.331C130.803 141.283 131.185 141.415 131.477 141.672C131.768 141.929 131.914 142.318 131.914 142.832V185.911Z" fill="#57585A" stroke="#57585A" stroke-width="3.1274" stroke-miterlimit="10"/>
<path d="M193.165 184.842L195.602 189.321C195.706 189.592 195.797 189.828 195.88 190.043C195.956 190.259 195.998 190.418 195.998 190.522C195.998 190.738 195.922 190.953 195.762 191.161C195.602 191.377 195.366 191.613 195.054 191.884C193.637 193.057 191.817 193.981 189.581 194.648C187.352 195.314 185.081 195.648 182.775 195.648C176.212 195.648 171.205 193.398 167.746 188.883C164.281 184.376 162.552 177.292 162.552 167.632C162.496 157.604 164.295 150.173 167.941 145.346C171.587 140.519 176.455 138.103 182.539 138.103C184.845 138.103 187.053 138.478 189.15 139.221C191.248 139.971 192.977 140.929 194.345 142.103C194.866 142.582 195.248 142.999 195.484 143.346C195.72 143.693 195.838 143.971 195.838 144.186C195.838 144.346 195.797 144.506 195.72 144.665C195.644 144.825 195.547 145.013 195.442 145.228L192.533 149.707C192.22 150.187 192.019 150.444 191.942 150.464C191.866 150.492 191.769 150.506 191.664 150.506C191.456 150.506 191.234 150.451 190.998 150.346C190.762 150.242 190.435 149.999 190.012 149.624C188.699 148.61 187.546 147.874 186.546 147.423C185.546 146.971 184.525 146.742 183.476 146.742C182.164 146.742 180.955 146.971 179.858 147.423C178.754 147.874 177.837 148.506 177.101 149.305C175.893 150.638 175.031 152.652 174.504 155.347C173.976 158.041 173.719 161.951 173.719 167.07C173.719 170.966 173.969 174.355 174.469 177.237C174.969 180.119 175.74 182.251 176.789 183.64C177.525 184.71 178.483 185.536 179.664 186.119C180.844 186.71 182.192 187.001 183.72 187.001C184.768 187.001 185.831 186.842 186.907 186.522C187.984 186.203 189.074 185.696 190.171 185.001C191.06 184.467 191.574 184.175 191.706 184.119C191.838 184.064 191.984 184.043 192.137 184.043C192.345 184.043 192.519 184.098 192.651 184.203C192.783 184.307 192.949 184.522 193.165 184.842Z" fill="#57585A" stroke="#57585A" stroke-width="3.1744" stroke-miterlimit="10"/>
<path d="M233.227 169.674C232.164 167.354 230.671 165.5 228.754 164.111C227.372 163.201 225.733 162.5 223.844 161.993C221.955 161.486 219.545 161.236 216.622 161.236H211.031V148.11H227.317C227.796 148.11 228.178 148.02 228.476 147.832C228.768 147.645 228.997 147.311 229.157 146.832L230.754 141.151C230.754 140.992 230.782 140.846 230.838 140.714C230.893 140.582 230.914 140.464 230.914 140.353C230.914 140.089 230.81 139.874 230.595 139.714C230.379 139.554 230.088 139.471 229.72 139.471H201.773C201.183 139.471 200.759 139.617 200.496 139.908C200.225 140.2 200.121 140.589 200.176 141.068V192.689C200.176 193.28 200.308 193.689 200.579 193.932C200.843 194.175 201.246 194.294 201.773 194.294H216.302C222.421 194.294 227.039 192.891 230.157 190.092C233.275 187.293 234.831 183.251 234.831 177.966C234.824 174.758 234.289 171.994 233.227 169.674ZM221.733 183.716C220.24 184.994 217.635 185.64 213.906 185.64H211.031V169.875H214.705C217.899 169.875 220.254 170.514 221.768 171.799C223.282 173.077 224.046 175.056 224.046 177.723C223.99 180.439 223.219 182.439 221.733 183.716Z" fill="#57585A" stroke="#57585A" stroke-width="3.1974" stroke-miterlimit="10"/>
<g clip-path="url(#clip1_2999_1806)">
<path d="M245.942 138.103V171.582L281.024 153.975L316.086 171.582V138.103H245.942Z" fill="#F59D0E"/>
<path d="M245.942 188.332L281.024 171.582L316.086 188.332L281.024 205.122L245.942 188.332Z" fill="#F59D0E"/>
</g>
<defs>
<filter id="filter0_d_2999_1806" x="480.289" y="7.84375" width="556.877" height="221.535" filterUnits="userSpaceOnUse" color-interpolation-filters="sRGB">
<feFlood flood-opacity="0" result="BackgroundImageFix"/>
<feColorMatrix in="SourceAlpha" type="matrix" values="0 0 0 0 0 0 0 0 0 0 0 0 0 0 0 0 0 0 127 0" result="hardAlpha"/>
<feOffset dy="4"/>
<feGaussianBlur stdDeviation="2"/>
<feComposite in2="hardAlpha" operator="out"/>
<feColorMatrix type="matrix" values="0 0 0 0 0 0 0 0 0 0 0 0 0 0 0 0 0 0 0.25 0"/>
<feBlend mode="normal" in2="BackgroundImageFix" result="effect1_dropShadow_2999_1806"/>
<feBlend mode="normal" in="SourceGraphic" in2="effect1_dropShadow_2999_1806" result="shape"/>
</filter>
<filter id="filter1_d_2999_1806" x="492.196" y="39.7939" width="524.707" height="184.166" filterUnits="userSpaceOnUse" color-interpolation-filters="sRGB">
<feFlood flood-opacity="0" result="BackgroundImageFix"/>
<feColorMatrix in="SourceAlpha" type="matrix" values="0 0 0 0 0 0 0 0 0 0 0 0 0 0 0 0 0 0 127 0" result="hardAlpha"/>
<feOffset dy="4"/>
<feGaussianBlur stdDeviation="2"/>
<feComposite in2="hardAlpha" operator="out"/>
<feColorMatrix type="matrix" values="0 0 0 0 0 0 0 0 0 0 0 0 0 0 0 0 0 0 0.25 0"/>
<feBlend mode="normal" in2="BackgroundImageFix" result="effect1_dropShadow_2999_1806"/>
<feBlend mode="normal" in="SourceGraphic" in2="effect1_dropShadow_2999_1806" result="shape"/>
</filter>
<filter id="filter2_d_2999_1806" x="0.0102539" y="67.5312" width="365.38" height="202.503" filterUnits="userSpaceOnUse" color-interpolation-filters="sRGB">
<feFlood flood-opacity="0" result="BackgroundImageFix"/>
<feColorMatrix in="SourceAlpha" type="matrix" values="0 0 0 0 0 0 0 0 0 0 0 0 0 0 0 0 0 0 127 0" result="hardAlpha"/>
<feOffset dy="4"/>
<feGaussianBlur stdDeviation="2"/>
<feComposite in2="hardAlpha" operator="out"/>
<feColorMatrix type="matrix" values="0 0 0 0 0 0 0 0 0 0 0 0 0 0 0 0 0 0 0.25 0"/>
<feBlend mode="normal" in2="BackgroundImageFix" result="effect1_dropShadow_2999_1806"/>
<feBlend mode="normal" in="SourceGraphic" in2="effect1_dropShadow_2999_1806" result="shape"/>
</filter>
<filter id="filter3_d_2999_1806" x="23.541" y="73.0791" width="345.862" height="191.938" filterUnits="userSpaceOnUse" color-interpolation-filters="sRGB">
<feFlood flood-opacity="0" result="BackgroundImageFix"/>
<feColorMatrix in="SourceAlpha" type="matrix" values="0 0 0 0 0 0 0 0 0 0 0 0 0 0 0 0 0 0 127 0" result="hardAlpha"/>
<feOffset dy="4"/>
<feGaussianBlur stdDeviation="2"/>
<feComposite in2="hardAlpha" operator="out"/>
<feColorMatrix type="matrix" values="0 0 0 0 0 0 0 0 0 0 0 0 0 0 0 0 0 0 0.25 0"/>
<feBlend mode="normal" in2="BackgroundImageFix" result="effect1_dropShadow_2999_1806"/>
<feBlend mode="normal" in="SourceGraphic" in2="effect1_dropShadow_2999_1806" result="shape"/>
</filter>
<clipPath id="clip0_2999_1806">
<rect x="58.2383" y="0.485352" width="890.477" height="261.179" rx="20" fill="white"/>
</clipPath>
<clipPath id="clip1_2999_1806">
<rect width="70.1432" height="68.7542" fill="white" transform="translate(245.942 138.103)"/>
</clipPath>
</defs>
</svg>
